<svg xmlns="http://www.w3.org/2000/svg" viewBox="0 0 82.35 82.35"><defs><style>.cls-1{fill:#211f1c;}.cls-2{fill:#e2e4e8;}.cls-3{fill:#979fad;}.cls-4{fill:#aeb5c4;}.cls-5{fill:#7e8691;}.cls-6{fill:#64bded;}</style></defs><g id="Layer_2" data-name="Layer 2"><g id="Layer_1-2" data-name="Layer 1"><rect class="cls-1" x="76.47" y="47.06" width="5.88" height="5.88"/><rect class="cls-1" x="76.47" y="41.18" width="5.88" height="5.88"/><rect class="cls-1" x="76.47" y="35.29" width="5.88" height="5.89"/><rect class="cls-1" x="76.47" y="29.41" width="5.88" height="5.88"/><rect class="cls-1" x="70.59" y="52.94" width="5.88" height="5.88"/><rect class="cls-2" x="70.59" y="47.06" width="5.88" height="5.88"/><rect class="cls-2" x="70.59" y="41.18" width="5.88" height="5.88"/><rect class="cls-2" x="70.59" y="35.29" width="5.88" height="5.89"/><rect class="cls-1" x="70.59" y="29.41" width="5.88" height="5.88"/><rect class="cls-1" x="64.7" y="58.82" width="5.89" height="5.88"/><rect class="cls-2" x="64.7" y="52.94" width="5.89" height="5.88"/><rect class="cls-2" x="64.7" y="47.06" width="5.89" height="5.88"/><rect class="cls-3" x="64.7" y="41.18" width="5.89" height="5.88"/><rect class="cls-1" x="64.7" y="35.29" width="5.89" height="5.89"/><rect class="cls-1" x="58.82" y="64.7" width="5.88" height="5.89"/><rect class="cls-2" x="58.82" y="58.82" width="5.88" height="5.88"/><rect class="cls-2" x="58.82" y="52.94" width="5.88" height="5.88"/><rect class="cls-4" x="58.82" y="47.06" width="5.88" height="5.88"/><rect class="cls-5" x="58.82" y="41.18" width="5.88" height="5.88"/><rect class="cls-1" x="58.82" y="35.29" width="5.88" height="5.89"/><rect class="cls-1" x="58.82" y="23.53" width="5.88" height="5.88"/><rect class="cls-1" x="58.82" y="17.65" width="5.88" height="5.88"/><rect class="cls-1" x="52.94" y="64.7" width="5.88" height="5.89"/><rect class="cls-2" x="52.94" y="58.82" width="5.88" height="5.88"/><rect class="cls-3" x="52.94" y="52.94" width="5.88" height="5.88"/><rect class="cls-5" x="52.94" y="47.06" width="5.88" height="5.88"/><rect class="cls-5" x="52.94" y="41.18" width="5.88" height="5.88"/><rect class="cls-5" x="52.94" y="35.29" width="5.88" height="5.89"/><rect class="cls-1" x="52.94" y="29.41" width="5.88" height="5.88"/><rect class="cls-4" x="52.94" y="23.53" width="5.88" height="5.88"/><rect class="cls-1" x="52.94" y="17.65" width="5.88" height="5.88"/><rect class="cls-1" x="47.06" y="64.7" width="5.88" height="5.89"/><rect class="cls-2" x="47.06" y="58.82" width="5.88" height="5.88"/><rect class="cls-1" x="47.06" y="52.94" width="5.88" height="5.88"/><rect class="cls-1" x="47.06" y="47.06" width="5.88" height="5.88"/><rect class="cls-5" x="47.06" y="41.18" width="5.88" height="5.88"/><rect class="cls-5" x="47.06" y="35.29" width="5.88" height="5.89"/><rect class="cls-5" x="47.06" y="29.41" width="5.88" height="5.88"/><rect class="cls-1" x="47.06" y="23.53" width="5.88" height="5.88"/><rect class="cls-1" x="47.06" y="5.88" width="5.88" height="5.88"/><rect class="cls-1" x="47.06" width="5.88" height="5.88"/><rect class="cls-1" x="41.17" y="64.7" width="5.89" height="5.89"/><rect class="cls-1" x="41.17" y="58.82" width="5.89" height="5.88"/><rect class="cls-1" x="41.17" y="41.18" width="5.89" height="5.88"/><rect class="cls-5" x="41.17" y="35.29" width="5.89" height="5.89"/><rect class="cls-5" x="41.17" y="29.41" width="5.89" height="5.88"/><rect class="cls-5" x="41.17" y="23.53" width="5.89" height="5.88"/><rect class="cls-1" x="41.17" y="17.65" width="5.89" height="5.88"/><rect class="cls-1" x="41.17" y="11.76" width="5.89" height="5.89"/><rect class="cls-2" x="41.17" y="5.88" width="5.89" height="5.88"/><rect class="cls-1" x="41.17" width="5.89" height="5.88"/><rect class="cls-1" x="35.29" y="47.06" width="5.88" height="5.88"/><rect class="cls-4" x="35.29" y="41.18" width="5.88" height="5.88"/><rect class="cls-1" x="35.29" y="35.29" width="5.88" height="5.89"/><rect class="cls-5" x="35.29" y="29.41" width="5.88" height="5.88"/><rect class="cls-5" x="35.29" y="23.53" width="5.88" height="5.88"/><rect class="cls-5" x="35.29" y="17.65" width="5.88" height="5.88"/><rect class="cls-3" x="35.29" y="11.76" width="5.88" height="5.89"/><rect class="cls-2" x="35.29" y="5.88" width="5.88" height="5.88"/><rect class="cls-1" x="35.29" width="5.88" height="5.88"/><rect class="cls-1" x="29.41" y="52.94" width="5.88" height="5.88"/><rect class="cls-6" x="29.41" y="47.06" width="5.88" height="5.88"/><rect class="cls-1" x="29.41" y="41.18" width="5.88" height="5.88"/><rect class="cls-1" x="29.41" y="29.41" width="5.88" height="5.88"/><rect class="cls-5" x="29.41" y="23.53" width="5.88" height="5.88"/><rect class="cls-4" x="29.41" y="17.65" width="5.88" height="5.88"/><rect class="cls-2" x="29.41" y="11.76" width="5.88" height="5.89"/><rect class="cls-2" x="29.41" y="5.88" width="5.88" height="5.88"/><rect class="cls-1" x="29.41" width="5.88" height="5.88"/><rect class="cls-1" x="23.53" y="58.82" width="5.88" height="5.88"/><rect class="cls-6" x="23.53" y="52.94" width="5.88" height="5.88"/><rect class="cls-1" x="23.53" y="47.06" width="5.88" height="5.88"/><rect class="cls-1" x="23.53" y="29.41" width="5.88" height="5.88"/><rect class="cls-3" x="23.53" y="23.53" width="5.88" height="5.88"/><rect class="cls-2" x="23.53" y="17.65" width="5.88" height="5.88"/><rect class="cls-2" x="23.53" y="11.76" width="5.88" height="5.89"/><rect class="cls-1" x="23.53" y="5.88" width="5.88" height="5.88"/><rect class="cls-1" x="17.65" y="64.7" width="5.88" height="5.89"/><rect class="cls-6" x="17.65" y="58.82" width="5.88" height="5.88"/><rect class="cls-1" x="17.65" y="52.94" width="5.88" height="5.88"/><rect class="cls-1" x="17.65" y="35.29" width="5.88" height="5.89"/><rect class="cls-2" x="17.65" y="29.41" width="5.88" height="5.88"/><rect class="cls-2" x="17.65" y="23.53" width="5.88" height="5.88"/><rect class="cls-2" x="17.65" y="17.65" width="5.88" height="5.88"/><rect class="cls-1" x="17.65" y="11.76" width="5.88" height="5.89"/><rect class="cls-1" x="11.76" y="70.59" width="5.89" height="5.88"/><rect class="cls-6" x="11.76" y="64.7" width="5.89" height="5.89"/><rect class="cls-1" x="11.76" y="58.82" width="5.89" height="5.88"/><rect class="cls-1" x="11.76" y="35.29" width="5.89" height="5.89"/><rect class="cls-1" x="11.76" y="29.41" width="5.89" height="5.88"/><rect class="cls-1" x="11.76" y="23.53" width="5.89" height="5.88"/><rect class="cls-1" x="11.76" y="17.65" width="5.89" height="5.88"/><rect class="cls-1" x="5.88" y="76.47" width="5.88" height="5.88"/><rect class="cls-4" x="5.88" y="70.59" width="5.88" height="5.88"/><rect class="cls-1" x="5.88" y="64.7" width="5.88" height="5.89"/><rect class="cls-1" y="76.47" width="5.88" height="5.88"/><rect class="cls-1" y="70.59" width="5.88" height="5.88"/></g></g></svg>