<svg xmlns="http://www.w3.org/2000/svg" viewBox="0 0 64.71 64.71"><defs><style>.cls-1{fill:#2d2a26;}.cls-2{fill:#aeb5c4;}.cls-3{fill:#575d72;}</style></defs><g id="Layer_2" data-name="Layer 2"><g id="Layer_1-2" data-name="Layer 1"><rect class="cls-1" x="58.82" y="5.89" width="5.89" height="5.88"/><rect class="cls-1" x="58.82" width="5.89" height="5.89"/><rect class="cls-1" x="52.94" y="11.77" width="5.88" height="5.88"/><rect class="cls-2" x="52.94" y="5.89" width="5.88" height="5.88"/><rect class="cls-1" x="52.94" width="5.88" height="5.89"/><rect class="cls-1" x="47.06" y="17.65" width="5.88" height="5.88"/><rect class="cls-2" x="47.06" y="11.77" width="5.88" height="5.88"/><rect class="cls-1" x="47.06" y="5.89" width="5.88" height="5.88"/><rect class="cls-1" x="41.18" y="23.53" width="5.88" height="5.89"/><rect class="cls-2" x="41.18" y="17.65" width="5.88" height="5.88"/><rect class="cls-1" x="41.18" y="11.77" width="5.88" height="5.88"/><rect class="cls-1" x="35.29" y="52.95" width="5.89" height="5.88"/><rect class="cls-1" x="35.29" y="29.42" width="5.89" height="5.88"/><rect class="cls-2" x="35.29" y="23.53" width="5.89" height="5.89"/><rect class="cls-1" x="35.29" y="17.65" width="5.89" height="5.88"/><rect class="cls-1" x="29.41" y="47.06" width="5.88" height="5.89"/><rect class="cls-1" x="29.41" y="35.3" width="5.88" height="5.88"/><rect class="cls-2" x="29.41" y="29.42" width="5.88" height="5.88"/><rect class="cls-1" x="29.41" y="23.53" width="5.88" height="5.89"/><rect class="cls-1" x="23.53" y="41.18" width="5.88" height="5.88"/><rect class="cls-2" x="23.53" y="35.3" width="5.88" height="5.88"/><rect class="cls-1" x="23.53" y="29.42" width="5.88" height="5.88"/><rect class="cls-1" x="17.65" y="47.06" width="5.88" height="5.89"/><rect class="cls-3" x="17.65" y="41.18" width="5.88" height="5.88"/><rect class="cls-1" x="17.65" y="35.3" width="5.88" height="5.88"/><rect class="cls-1" x="11.76" y="52.95" width="5.89" height="5.88"/><rect class="cls-3" x="11.76" y="47.06" width="5.89" height="5.89"/><rect class="cls-1" x="11.76" y="41.18" width="5.89" height="5.88"/><rect class="cls-1" x="11.76" y="29.42" width="5.89" height="5.88"/><rect class="cls-1" x="5.88" y="58.83" width="5.88" height="5.88"/><rect class="cls-3" x="5.88" y="52.95" width="5.88" height="5.88"/><rect class="cls-1" x="5.88" y="47.06" width="5.88" height="5.89"/><rect class="cls-1" x="5.88" y="23.53" width="5.88" height="5.89"/><rect class="cls-1" y="58.83" width="5.88" height="5.88"/><rect class="cls-1" y="52.95" width="5.88" height="5.88"/></g></g></svg>