<svg xmlns="http://www.w3.org/2000/svg" viewBox="0 0 302.26 225.89"><defs><style>.cls-1{fill:none;}.cls-2{fill:#2d2926;}.cls-3{fill:#2d2a27;}.cls-4{fill:#282522;}.cls-5{fill:#f1f4b3;}.cls-6{fill:#697777;}.cls-7{fill:#578276;}.cls-8{fill:#cc2b2b;}.cls-9{fill:#bc3b29;}.cls-10{fill:#778988;}.cls-11{fill:#ed6666;}.cls-12{fill:#6c8e5f;}.cls-13{fill:#649160;}.cls-14{fill:#75915c;}.cls-15{fill:#698c60;}.cls-16{fill:#d8cf75;}.cls-17{fill:#dce585;}.cls-18{fill:#79af7a;}.cls-19{fill:#cddcdd;opacity:0.7;}.cls-20{fill:#4f7a76;}.cls-21{fill:#5f946c;}.cls-22{fill:#71a669;}.cls-23{fill:#90c484;}.cls-24{fill:#b5e286;}.cls-25{fill:#7fb276;}.cls-26{fill:#211f1c;}</style></defs><g id="Layer_2" data-name="Layer 2"><g id="Layer_3" data-name="Layer 3"><rect class="cls-1" x="84.24" y="162.06" width="4.95" height="4.91"/><rect class="cls-1" x="173.43" y="63.84" width="4.95" height="4.91"/><rect class="cls-2" x="173.43" y="44.2" width="4.95" height="4.91"/><rect class="cls-3" x="173.43" y="39.29" width="4.95" height="4.91"/><rect class="cls-4" x="173.43" y="34.38" width="4.95" height="4.91"/><rect class="cls-5" x="173.43" y="9.82" width="4.95" height="4.91"/><rect class="cls-4" x="168.47" y="58.93" width="4.96" height="4.91"/><rect class="cls-3" x="168.47" y="54.02" width="4.96" height="4.91"/><rect class="cls-2" x="168.47" y="49.11" width="4.96" height="4.91"/><rect class="cls-2" x="168.47" y="39.29" width="4.96" height="4.91"/><rect class="cls-5" x="168.47" y="4.91" width="4.96" height="4.91"/><rect class="cls-6" x="163.52" y="73.66" width="4.95" height="4.91"/><rect class="cls-7" x="163.52" y="54.02" width="4.95" height="4.91"/><rect class="cls-8" x="163.52" y="49.11" width="4.95" height="4.91"/><rect class="cls-9" x="163.52" y="44.2" width="4.95" height="4.91"/><rect class="cls-2" x="163.52" y="39.29" width="4.95" height="4.91"/><rect class="cls-10" x="158.56" y="73.66" width="4.96" height="4.91"/><rect class="cls-11" x="158.56" y="49.11" width="4.96" height="4.91"/><rect class="cls-2" x="158.56" y="44.2" width="4.96" height="4.91"/><polygon class="cls-12" points="168.47 34.38 163.52 34.38 163.52 39.29 168.47 39.29 173.43 39.29 173.43 34.38 168.47 34.38"/><rect class="cls-12" x="153.61" y="54.02" width="4.95" height="4.91"/><rect class="cls-12" x="153.61" y="39.29" width="4.95" height="4.91"/><polygon class="cls-12" points="148.65 49.11 148.65 54.02 153.61 54.02 153.61 49.11 153.61 44.2 148.65 44.2 148.65 49.11"/><rect class="cls-12" x="143.7" y="54.02" width="4.95" height="4.91"/><rect class="cls-12" x="143.7" y="39.29" width="4.95" height="4.91"/><rect class="cls-10" x="138.74" y="73.66" width="4.96" height="4.91"/><rect class="cls-11" x="138.74" y="49.11" width="4.96" height="4.91"/><rect class="cls-2" x="138.74" y="44.2" width="4.96" height="4.91"/><rect class="cls-6" x="133.79" y="73.66" width="4.95" height="4.91"/><rect class="cls-6" x="133.79" y="68.75" width="4.95" height="4.91"/><rect class="cls-7" x="133.79" y="54.02" width="4.95" height="4.91"/><rect class="cls-8" x="133.79" y="49.11" width="4.95" height="4.91"/><rect class="cls-9" x="133.79" y="44.2" width="4.95" height="4.91"/><rect class="cls-2" x="133.79" y="39.29" width="4.95" height="4.91"/><rect class="cls-13" x="163.52" y="29.47" width="4.95" height="4.91"/><rect class="cls-13" x="158.56" y="34.38" width="4.96" height="4.91"/><rect class="cls-13" x="153.61" y="58.93" width="4.95" height="4.91"/><rect class="cls-13" x="148.65" y="54.02" width="4.96" height="4.91"/><rect class="cls-13" x="148.65" y="39.29" width="4.96" height="4.91"/><rect class="cls-13" x="143.7" y="58.93" width="4.95" height="4.91"/><rect class="cls-13" x="138.74" y="34.38" width="4.96" height="4.91"/><rect class="cls-13" x="133.79" y="29.47" width="4.95" height="4.91"/><rect class="cls-4" x="128.83" y="58.93" width="4.96" height="4.91"/><rect class="cls-3" x="128.83" y="54.02" width="4.96" height="4.91"/><rect class="cls-2" x="128.83" y="49.11" width="4.96" height="4.91"/><rect class="cls-14" x="168.47" y="44.2" width="4.96" height="4.91"/><rect class="cls-14" x="158.56" y="54.02" width="4.96" height="4.91"/><rect class="cls-14" x="158.56" y="39.29" width="4.96" height="4.91"/><polygon class="cls-14" points="153.61 49.11 153.61 54.02 158.56 54.02 158.56 49.11 158.56 44.2 153.61 44.2 153.61 49.11"/><polygon class="cls-14" points="143.7 49.11 143.7 54.02 148.65 54.02 148.65 49.11 148.65 44.2 143.7 44.2 143.7 49.11"/><rect class="cls-14" x="138.74" y="54.02" width="4.96" height="4.91"/><rect class="cls-14" x="138.74" y="39.29" width="4.96" height="4.91"/><rect class="cls-14" x="128.83" y="44.2" width="4.96" height="4.91"/><rect class="cls-2" x="128.83" y="39.29" width="4.96" height="4.91"/><polygon class="cls-15" points="133.79 34.38 128.83 34.38 128.83 39.29 133.79 39.29 138.74 39.29 138.74 34.38 133.79 34.38"/><rect class="cls-5" x="128.83" y="4.91" width="4.96" height="4.91"/><rect class="cls-2" x="123.88" y="44.2" width="4.95" height="4.91"/><rect class="cls-3" x="123.88" y="39.29" width="4.95" height="4.91"/><rect class="cls-3" x="123.88" y="34.38" width="4.95" height="4.91"/><polygon class="cls-16" points="173.43 24.56 168.47 24.56 168.47 29.47 173.43 29.47 173.43 34.38 178.38 34.38 178.38 29.47 178.38 24.56 173.43 24.56"/><polygon class="cls-16" points="123.88 24.56 123.88 29.47 123.88 34.38 128.83 34.38 128.83 29.47 133.79 29.47 133.79 24.56 128.83 24.56 123.88 24.56"/><polygon class="cls-17" points="173.43 14.73 173.43 19.64 173.43 24.56 178.38 24.56 178.38 19.64 178.38 14.73 173.43 14.73"/><polygon class="cls-17" points="123.88 19.64 123.88 24.56 128.83 24.56 128.83 19.64 128.83 14.73 123.88 14.73 123.88 19.64"/><rect class="cls-5" x="123.88" y="9.82" width="4.95" height="4.91"/><rect class="cls-18" x="178.38" y="117.86" width="4.96" height="4.91"/><polygon class="cls-18" points="183.34 112.95 183.34 108.04 178.38 108.04 173.43 108.04 173.43 112.95 173.43 117.86 178.38 117.86 178.38 112.95 183.34 112.95"/><rect class="cls-18" x="163.52" y="186.61" width="4.95" height="4.91"/><polygon class="cls-18" points="153.61 191.52 148.65 191.52 143.7 191.52 138.74 191.52 138.74 196.43 138.74 201.34 143.7 201.34 143.7 206.25 148.65 206.25 153.61 206.25 158.56 206.25 158.56 201.34 163.52 201.34 163.52 196.43 163.52 191.52 158.56 191.52 153.61 191.52"/><rect class="cls-18" x="133.79" y="186.61" width="4.95" height="4.91"/><rect class="cls-18" x="118.92" y="117.86" width="4.96" height="4.91"/><polygon class="cls-18" points="118.92 108.04 118.92 112.95 123.88 112.95 123.88 117.86 128.83 117.86 128.83 112.95 128.83 108.04 123.88 108.04 118.92 108.04"/><rect class="cls-19" x="208.11" y="34.38" width="4.96" height="4.91"/><polygon class="cls-19" points="208.11 14.73 208.11 19.64 208.11 24.56 213.07 24.56 213.07 19.64 213.07 14.73 208.11 14.73"/><rect class="cls-19" x="203.16" y="24.56" width="4.95" height="4.91"/><polygon class="cls-19" points="198.2 39.29 198.2 44.2 203.16 44.2 203.16 39.29 203.16 34.38 198.2 34.38 198.2 39.29"/><rect class="cls-19" x="193.25" y="44.2" width="4.95" height="4.91"/><rect class="cls-19" x="193.25" y="29.47" width="4.95" height="4.91"/><rect class="cls-19" x="188.29" y="49.11" width="4.96" height="4.91"/><rect class="cls-19" x="183.34" y="54.02" width="4.95" height="4.91"/><polygon class="cls-19" points="188.29 39.29 183.34 39.29 183.34 44.2 183.34 49.11 188.29 49.11 188.29 44.2 188.29 39.29"/><polygon class="cls-19" points="173.43 58.93 173.43 63.84 178.38 63.84 178.38 68.75 183.34 68.75 183.34 63.84 183.34 58.93 178.38 58.93 173.43 58.93"/><polygon class="cls-19" points="168.47 68.75 168.47 73.66 168.47 78.57 173.43 78.57 173.43 73.66 178.38 73.66 178.38 68.75 173.43 68.75 168.47 68.75"/><rect class="cls-19" x="128.83" y="68.75" width="4.96" height="4.91"/><polygon class="cls-19" points="123.88 63.84 123.88 58.93 118.92 58.93 118.92 63.84 118.92 68.75 123.88 68.75 128.83 68.75 128.83 63.84 123.88 63.84"/><rect class="cls-19" x="113.97" y="54.02" width="4.95" height="4.91"/><rect class="cls-19" x="113.97" y="39.29" width="4.95" height="4.91"/><rect class="cls-19" x="109.01" y="49.11" width="4.96" height="4.91"/><rect class="cls-19" x="109.01" y="34.38" width="4.96" height="4.91"/><polygon class="cls-19" points="109.01 39.29 104.06 39.29 104.06 34.38 99.1 34.38 99.1 39.29 99.1 44.2 104.06 44.2 104.06 49.11 109.01 49.11 109.01 44.2 109.01 39.29"/><rect class="cls-19" x="99.1" y="19.64" width="4.96" height="4.92"/><polygon class="cls-19" points="89.19 29.47 89.19 34.38 94.15 34.38 94.15 29.47 94.15 24.56 89.19 24.56 89.19 29.47"/><rect class="cls-19" x="84.24" y="14.73" width="4.95" height="4.91"/><polygon class="cls-20" points="203.16 162.06 203.16 166.97 198.2 166.97 198.2 171.88 193.25 171.88 193.25 176.79 188.29 176.79 188.29 181.7 188.29 186.61 188.29 191.52 193.25 191.52 198.2 191.52 198.2 186.61 203.16 186.61 203.16 181.7 203.16 176.79 203.16 171.88 208.11 171.88 208.11 166.97 208.11 162.06 203.16 162.06"/><polygon class="cls-20" points="193.25 83.48 193.25 78.57 188.29 78.57 188.29 83.48 188.29 88.39 193.25 88.39 193.25 83.48"/><polygon class="cls-20" points="183.34 196.43 183.34 201.34 183.34 206.25 188.29 206.25 188.29 201.34 193.25 201.34 198.2 201.34 198.2 196.43 193.25 196.43 188.29 196.43 188.29 191.52 183.34 191.52 183.34 196.43"/><polygon class="cls-20" points="188.29 93.31 188.29 88.39 183.34 88.39 183.34 93.31 183.34 98.22 188.29 98.22 188.29 93.31"/><polygon class="cls-20" points="178.38 211.16 173.43 211.16 168.47 211.16 163.52 211.16 163.52 216.07 168.47 216.07 173.43 216.07 178.38 216.07 183.34 216.07 183.34 211.16 183.34 206.25 178.38 206.25 178.38 211.16"/><polygon class="cls-20" points="183.34 103.13 183.34 98.22 178.38 98.22 173.43 98.22 173.43 103.13 178.38 103.13 183.34 103.13"/><rect class="cls-20" x="158.56" y="206.25" width="4.96" height="4.91"/><rect class="cls-20" x="158.56" y="78.57" width="4.96" height="4.91"/><polygon class="cls-20" points="158.56 73.66 153.61 73.66 153.61 68.75 158.56 68.75 158.56 73.66 163.52 73.66 163.52 68.75 168.47 68.75 168.47 63.84 168.47 58.93 163.52 58.93 158.56 58.93 158.56 63.84 153.61 63.84 148.65 63.84 143.7 63.84 143.7 58.93 138.74 58.93 133.79 58.93 133.79 63.84 133.79 68.75 138.74 68.75 138.74 73.66 143.7 73.66 143.7 68.75 148.65 68.75 148.65 73.66 143.7 73.66 143.7 78.57 148.65 78.57 153.61 78.57 158.56 78.57 158.56 73.66"/><rect class="cls-20" x="138.74" y="206.25" width="4.96" height="4.91"/><rect class="cls-20" x="138.74" y="78.57" width="4.96" height="4.91"/><polygon class="cls-20" points="128.83 211.16 123.88 211.16 123.88 206.25 118.92 206.25 118.92 211.16 118.92 216.07 123.88 216.07 128.83 216.07 133.79 216.07 138.74 216.07 138.74 211.16 133.79 211.16 128.83 211.16"/><polygon class="cls-20" points="123.88 103.13 128.83 103.13 128.83 98.22 123.88 98.22 118.92 98.22 118.92 103.13 123.88 103.13"/><polygon class="cls-20" points="118.92 196.43 118.92 191.52 113.97 191.52 113.97 196.43 109.01 196.43 104.06 196.43 104.06 201.34 109.01 201.34 113.97 201.34 113.97 206.25 118.92 206.25 118.92 201.34 118.92 196.43"/><polygon class="cls-20" points="113.97 98.22 118.92 98.22 118.92 93.31 118.92 88.39 113.97 88.39 113.97 93.31 113.97 98.22"/><polygon class="cls-20" points="113.97 181.7 113.97 176.79 109.01 176.79 109.01 171.88 104.06 171.88 104.06 166.97 99.1 166.97 99.1 162.06 94.15 162.06 94.15 166.97 94.15 171.88 99.1 171.88 99.1 176.79 99.1 181.7 99.1 186.61 104.06 186.61 104.06 191.52 109.01 191.52 113.97 191.52 113.97 186.61 113.97 181.7"/><polygon class="cls-20" points="113.97 83.48 113.97 78.57 109.01 78.57 109.01 83.48 109.01 88.39 113.97 88.39 113.97 83.48"/><polygon class="cls-20" points="89.19 186.61 84.24 186.61 79.28 186.61 79.28 191.52 84.24 191.52 89.19 191.52 89.19 196.43 94.15 196.43 99.1 196.43 99.1 191.52 99.1 186.61 94.15 186.61 89.19 186.61"/><rect class="cls-20" x="74.33" y="181.7" width="4.95" height="4.91"/><rect class="cls-20" x="64.42" y="171.88" width="4.95" height="4.91"/><rect class="cls-20" x="59.46" y="162.06" width="4.96" height="4.91"/><rect class="cls-20" x="54.51" y="152.23" width="4.95" height="4.91"/><polygon class="cls-21" points="247.75 44.2 242.8 44.2 242.8 49.11 247.75 49.11 252.71 49.11 252.71 44.2 247.75 44.2"/><polygon class="cls-21" points="232.89 49.11 227.93 49.11 227.93 54.02 232.89 54.02 237.84 54.02 242.8 54.02 242.8 49.11 237.84 49.11 232.89 49.11"/><polygon class="cls-21" points="218.02 54.02 213.07 54.02 213.07 58.93 218.02 58.93 222.98 58.93 227.93 58.93 227.93 54.02 222.98 54.02 218.02 54.02"/><polygon class="cls-21" points="203.16 201.34 203.16 196.43 198.2 196.43 198.2 201.34 193.25 201.34 188.29 201.34 188.29 206.25 188.29 211.16 193.25 211.16 198.2 211.16 203.16 211.16 208.11 211.16 208.11 206.25 213.07 206.25 213.07 201.34 208.11 201.34 203.16 201.34"/><polygon class="cls-21" points="203.16 147.32 203.16 142.41 198.2 142.41 193.25 142.41 188.29 142.41 188.29 147.32 183.34 147.32 183.34 152.23 183.34 157.14 188.29 157.14 188.29 162.06 188.29 166.97 188.29 171.88 193.25 171.88 193.25 166.97 193.25 162.06 198.2 162.06 198.2 166.97 203.16 166.97 203.16 162.06 208.11 162.06 213.07 162.06 213.07 157.14 213.07 152.23 213.07 147.32 208.11 147.32 203.16 147.32"/><polygon class="cls-21" points="203.16 58.93 198.2 58.93 198.2 63.84 193.25 63.84 193.25 68.75 193.25 73.66 193.25 78.57 198.2 78.57 198.2 73.66 198.2 68.75 203.16 68.75 203.16 63.84 208.11 63.84 213.07 63.84 213.07 58.93 208.11 58.93 203.16 58.93"/><polygon class="cls-21" points="178.38 152.23 178.38 147.32 178.38 142.41 178.38 137.5 178.38 132.59 173.43 132.59 173.43 127.68 173.43 122.77 173.43 117.86 168.47 117.86 168.47 122.77 168.47 127.68 168.47 132.59 168.47 137.5 168.47 142.41 168.47 147.32 168.47 152.23 173.43 152.23 173.43 157.14 173.43 162.06 173.43 166.97 173.43 171.88 173.43 176.79 173.43 181.7 173.43 186.61 173.43 191.52 168.47 191.52 168.47 196.43 168.47 201.34 163.52 201.34 163.52 206.25 163.52 211.16 168.47 211.16 173.43 211.16 178.38 211.16 178.38 206.25 178.38 201.34 178.38 196.43 178.38 191.52 183.34 191.52 183.34 186.61 183.34 181.7 183.34 176.79 183.34 171.88 183.34 166.97 183.34 162.06 183.34 157.14 178.38 157.14 178.38 152.23"/><polygon class="cls-21" points="168.47 108.04 168.47 103.13 163.52 103.13 163.52 108.04 163.52 112.95 163.52 117.86 168.47 117.86 168.47 112.95 168.47 108.04"/><polygon class="cls-21" points="163.52 93.31 158.56 93.31 158.56 98.22 158.56 103.13 163.52 103.13 163.52 98.22 163.52 93.31"/><rect class="cls-21" x="158.56" y="83.48" width="4.96" height="4.91"/><rect class="cls-21" x="148.65" y="58.93" width="4.96" height="4.91"/><polygon class="cls-21" points="138.74 98.22 138.74 103.13 143.7 103.13 143.7 98.22 143.7 93.31 138.74 93.31 138.74 98.22"/><rect class="cls-21" x="138.74" y="83.48" width="4.96" height="4.91"/><polygon class="cls-21" points="133.79 108.04 133.79 112.95 133.79 117.86 138.74 117.86 138.74 112.95 138.74 108.04 138.74 103.13 133.79 103.13 133.79 108.04"/><polygon class="cls-21" points="128.83 122.77 128.83 127.68 128.83 132.59 123.88 132.59 123.88 137.5 123.88 142.41 123.88 147.32 123.88 152.23 123.88 157.14 118.92 157.14 118.92 162.06 118.92 166.97 118.92 171.88 118.92 176.79 118.92 181.7 118.92 186.61 118.92 191.52 123.88 191.52 123.88 196.43 123.88 201.34 123.88 206.25 123.88 211.16 128.83 211.16 133.79 211.16 138.74 211.16 138.74 206.25 138.74 201.34 133.79 201.34 133.79 196.43 133.79 191.52 128.83 191.52 128.83 186.61 128.83 181.7 128.83 176.79 128.83 171.88 128.83 166.97 128.83 162.06 128.83 157.14 128.83 152.23 133.79 152.23 133.79 147.32 133.79 142.41 133.79 137.5 133.79 132.59 133.79 127.68 133.79 122.77 133.79 117.86 128.83 117.86 128.83 122.77"/><polygon class="cls-21" points="118.92 147.32 113.97 147.32 113.97 142.41 109.01 142.41 104.06 142.41 99.1 142.41 99.1 147.32 94.15 147.32 89.19 147.32 89.19 152.23 89.19 157.14 89.19 162.06 94.15 162.06 99.1 162.06 99.1 166.97 104.06 166.97 104.06 162.06 109.01 162.06 109.01 166.97 109.01 171.88 113.97 171.88 113.97 166.97 113.97 162.06 113.97 157.14 118.92 157.14 118.92 152.23 118.92 147.32"/><polygon class="cls-21" points="104.06 201.34 104.06 196.43 99.1 196.43 99.1 201.34 94.15 201.34 89.19 201.34 89.19 206.25 94.15 206.25 94.15 211.16 99.1 211.16 104.06 211.16 109.01 211.16 113.97 211.16 113.97 206.25 113.97 201.34 109.01 201.34 104.06 201.34"/><polygon class="cls-21" points="94.15 186.61 94.15 181.7 94.15 176.79 94.15 171.88 89.19 171.88 84.24 171.88 84.24 166.97 79.28 166.97 74.33 166.97 74.33 162.06 69.37 162.06 69.37 157.14 69.37 152.23 64.42 152.23 59.46 152.23 59.46 157.14 59.46 162.06 64.42 162.06 64.42 166.97 64.42 171.88 69.37 171.88 69.37 176.79 69.37 181.7 74.33 181.7 79.28 181.7 79.28 186.61 84.24 186.61 89.19 186.61 94.15 186.61"/><polygon class="cls-21" points="94.15 63.84 99.1 63.84 99.1 68.75 104.06 68.75 104.06 73.66 104.06 78.57 109.01 78.57 109.01 73.66 109.01 68.75 109.01 63.84 104.06 63.84 104.06 58.93 99.1 58.93 94.15 58.93 89.19 58.93 89.19 63.84 94.15 63.84"/><polygon class="cls-21" points="79.28 58.93 84.24 58.93 89.19 58.93 89.19 54.02 84.24 54.02 79.28 54.02 74.33 54.02 74.33 58.93 79.28 58.93"/><polygon class="cls-21" points="64.42 54.02 69.37 54.02 74.33 54.02 74.33 49.11 69.37 49.11 64.42 49.11 59.46 49.11 59.46 54.02 64.42 54.02"/><polygon class="cls-21" points="54.51 147.32 54.51 142.41 49.55 142.41 44.6 142.41 44.6 147.32 49.55 147.32 49.55 152.23 54.51 152.23 59.46 152.23 59.46 147.32 54.51 147.32"/><polygon class="cls-21" points="59.46 49.11 59.46 44.2 54.51 44.2 49.55 44.2 49.55 49.11 54.51 49.11 59.46 49.11"/><polygon class="cls-21" points="39.64 137.5 34.69 137.5 34.69 142.41 39.64 142.41 44.6 142.41 44.6 137.5 39.64 137.5"/><polygon class="cls-22" points="272.53 34.38 267.57 34.38 267.57 39.29 272.53 39.29 277.48 39.29 277.48 34.38 272.53 34.38"/><polygon class="cls-22" points="257.66 39.29 257.66 44.2 262.62 44.2 267.57 44.2 267.57 39.29 262.62 39.29 257.66 39.29"/><rect class="cls-22" x="252.71" y="44.2" width="4.95" height="4.91"/><polygon class="cls-22" points="203.16 142.41 203.16 147.32 208.11 147.32 213.07 147.32 213.07 142.41 208.11 142.41 203.16 142.41"/><rect class="cls-22" x="198.2" y="137.5" width="4.96" height="4.91"/><polygon class="cls-22" points="153.61 29.47 148.65 29.47 143.7 29.47 138.74 29.47 138.74 34.38 143.7 34.38 143.7 39.29 148.65 39.29 153.61 39.29 158.56 39.29 158.56 34.38 163.52 34.38 163.52 29.47 158.56 29.47 153.61 29.47"/><rect class="cls-22" x="99.1" y="137.5" width="4.96" height="4.91"/><polygon class="cls-22" points="89.19 142.41 89.19 147.32 94.15 147.32 99.1 147.32 99.1 142.41 94.15 142.41 89.19 142.41"/><rect class="cls-22" x="74.33" y="162.06" width="4.95" height="4.91"/><rect class="cls-22" x="69.37" y="157.14" width="4.96" height="4.92"/><rect class="cls-22" x="59.46" y="147.32" width="4.96" height="4.91"/><rect class="cls-22" x="54.51" y="142.41" width="4.95" height="4.91"/><polygon class="cls-22" points="49.55 137.5 44.6 137.5 44.6 142.41 49.55 142.41 54.51 142.41 54.51 137.5 49.55 137.5"/><rect class="cls-22" x="44.6" y="44.2" width="4.95" height="4.91"/><polygon class="cls-22" points="39.64 132.59 34.69 132.59 29.73 132.59 24.78 132.59 24.78 137.5 29.73 137.5 34.69 137.5 39.64 137.5 44.6 137.5 44.6 132.59 39.64 132.59"/><polygon class="cls-22" points="39.64 44.2 44.6 44.2 44.6 39.29 39.64 39.29 34.69 39.29 34.69 44.2 39.64 44.2"/><polygon class="cls-22" points="34.69 39.29 34.69 34.38 29.73 34.38 24.78 34.38 24.78 39.29 29.73 39.29 34.69 39.29"/><polygon class="cls-23" points="277.48 44.2 272.53 44.2 267.57 44.2 267.57 49.11 262.62 49.11 257.66 49.11 257.66 54.02 262.62 54.02 267.57 54.02 272.53 54.02 272.53 49.11 277.48 49.11 282.44 49.11 282.44 44.2 277.48 44.2"/><rect class="cls-23" x="262.62" y="68.75" width="4.95" height="4.91"/><polygon class="cls-23" points="247.75 54.02 242.8 54.02 242.8 58.93 237.84 58.93 232.89 58.93 227.93 58.93 227.93 63.84 222.98 63.84 218.02 63.84 213.07 63.84 213.07 68.75 208.11 68.75 203.16 68.75 203.16 73.66 203.16 78.57 198.2 78.57 198.2 83.48 198.2 88.39 203.16 88.39 203.16 83.48 208.11 83.48 213.07 83.48 213.07 88.39 218.02 88.39 218.02 83.48 218.02 78.57 213.07 78.57 213.07 73.66 218.02 73.66 218.02 68.75 222.98 68.75 227.93 68.75 232.89 68.75 232.89 63.84 237.84 63.84 242.8 63.84 247.75 63.84 252.71 63.84 257.66 63.84 257.66 68.75 262.62 68.75 262.62 63.84 262.62 58.93 257.66 58.93 257.66 54.02 252.71 54.02 247.75 54.02"/><rect class="cls-23" x="222.98" y="98.22" width="4.95" height="4.91"/><polygon class="cls-23" points="218.02 98.22 222.98 98.22 222.98 93.31 222.98 88.39 218.02 88.39 218.02 93.31 218.02 98.22"/><polygon class="cls-23" points="193.25 93.31 193.25 98.22 198.2 98.22 198.2 93.31 198.2 88.39 193.25 88.39 193.25 93.31"/><polygon class="cls-23" points="188.29 103.13 183.34 103.13 183.34 108.04 183.34 112.95 178.38 112.95 178.38 117.86 183.34 117.86 188.29 117.86 193.25 117.86 193.25 112.95 188.29 112.95 188.29 108.04 193.25 108.04 193.25 103.13 193.25 98.22 188.29 98.22 188.29 103.13"/><polygon class="cls-23" points="163.52 157.14 163.52 162.06 158.56 162.06 158.56 166.97 153.61 166.97 148.65 166.97 143.7 166.97 143.7 162.06 138.74 162.06 138.74 157.14 138.74 152.23 133.79 152.23 133.79 157.14 133.79 162.06 133.79 166.97 133.79 171.88 138.74 171.88 138.74 176.79 143.7 176.79 148.65 176.79 153.61 176.79 158.56 176.79 163.52 176.79 163.52 171.88 168.47 171.88 168.47 166.97 168.47 162.06 168.47 157.14 168.47 152.23 163.52 152.23 163.52 157.14"/><polygon class="cls-23" points="158.56 181.7 153.61 181.7 148.65 181.7 143.7 181.7 138.74 181.7 138.74 176.79 133.79 176.79 133.79 181.7 133.79 186.61 138.74 186.61 138.74 191.52 143.7 191.52 148.65 191.52 153.61 191.52 158.56 191.52 163.52 191.52 163.52 186.61 168.47 186.61 168.47 181.7 168.47 176.79 163.52 176.79 163.52 181.7 158.56 181.7"/><polygon class="cls-23" points="153.61 93.31 158.56 93.31 158.56 88.39 158.56 83.48 153.61 83.48 148.65 83.48 143.7 83.48 143.7 88.39 143.7 93.31 148.65 93.31 153.61 93.31"/><polygon class="cls-23" points="118.92 108.04 118.92 103.13 113.97 103.13 113.97 98.22 109.01 98.22 109.01 103.13 109.01 108.04 113.97 108.04 113.97 112.95 109.01 112.95 109.01 117.86 113.97 117.86 118.92 117.86 123.88 117.86 123.88 112.95 118.92 112.95 118.92 108.04"/><polygon class="cls-23" points="109.01 88.39 104.06 88.39 104.06 93.31 104.06 98.22 109.01 98.22 109.01 93.31 109.01 88.39"/><polygon class="cls-23" points="104.06 78.57 99.1 78.57 99.1 73.66 99.1 68.75 94.15 68.75 89.19 68.75 89.19 63.84 84.24 63.84 79.28 63.84 74.33 63.84 74.33 58.93 69.37 58.93 64.42 58.93 59.46 58.93 59.46 54.02 54.51 54.02 49.55 54.02 44.6 54.02 44.6 58.93 39.64 58.93 39.64 63.84 39.64 68.75 44.6 68.75 44.6 63.84 49.55 63.84 49.55 58.93 54.51 58.93 54.51 63.84 59.46 63.84 64.42 63.84 69.37 63.84 69.37 68.75 74.33 68.75 79.28 68.75 84.24 68.75 84.24 73.66 89.19 73.66 89.19 78.57 84.24 78.57 84.24 83.48 84.24 88.39 89.19 88.39 89.19 83.48 94.15 83.48 99.1 83.48 99.1 88.39 104.06 88.39 104.06 83.48 104.06 78.57"/><polygon class="cls-23" points="79.28 93.31 79.28 98.22 84.24 98.22 84.24 93.31 84.24 88.39 79.28 88.39 79.28 93.31"/><rect class="cls-23" x="74.33" y="98.22" width="4.95" height="4.91"/><polygon class="cls-23" points="39.64 49.11 34.69 49.11 34.69 44.2 29.73 44.2 24.78 44.2 19.82 44.2 19.82 49.11 24.78 49.11 29.73 49.11 29.73 54.02 34.69 54.02 39.64 54.02 44.6 54.02 44.6 49.11 39.64 49.11"/><rect class="cls-23" x="34.69" y="68.75" width="4.95" height="4.91"/><polygon class="cls-24" points="282.44 73.66 282.44 68.75 277.48 68.75 277.48 73.66 272.53 73.66 267.57 73.66 262.62 73.66 262.62 68.75 257.66 68.75 257.66 63.84 252.71 63.84 247.75 63.84 242.8 63.84 237.84 63.84 232.89 63.84 232.89 68.75 227.93 68.75 222.98 68.75 218.02 68.75 218.02 73.66 218.02 78.57 222.98 78.57 222.98 83.48 222.98 88.39 227.93 88.39 227.93 93.31 227.93 98.22 232.89 98.22 232.89 103.13 232.89 108.04 232.89 112.95 227.93 112.95 227.93 108.04 227.93 103.13 222.98 103.13 222.98 98.22 218.02 98.22 218.02 93.31 218.02 88.39 213.07 88.39 213.07 83.48 208.11 83.48 203.16 83.48 203.16 88.39 198.2 88.39 198.2 93.31 198.2 98.22 193.25 98.22 193.25 103.13 193.25 108.04 188.29 108.04 188.29 112.95 193.25 112.95 198.2 112.95 198.2 108.04 203.16 108.04 208.11 108.04 208.11 112.95 213.07 112.95 218.02 112.95 222.98 112.95 222.98 117.86 227.93 117.86 232.89 117.86 232.89 122.77 237.84 122.77 237.84 117.86 242.8 117.86 242.8 112.95 242.8 108.04 242.8 103.13 247.75 103.13 247.75 98.22 247.75 93.31 252.71 93.31 252.71 88.39 257.66 88.39 257.66 83.48 262.62 83.48 267.57 83.48 267.57 78.57 272.53 78.57 277.48 78.57 282.44 78.57 287.39 78.57 287.39 73.66 282.44 73.66"/><polygon class="cls-24" points="277.48 58.93 277.48 54.02 277.48 49.11 272.53 49.11 272.53 54.02 267.57 54.02 262.62 54.02 262.62 58.93 267.57 58.93 267.57 63.84 267.57 68.75 272.53 68.75 277.48 68.75 277.48 63.84 277.48 58.93"/><polygon class="cls-24" points="153.61 157.14 148.65 157.14 143.7 157.14 138.74 157.14 138.74 162.06 143.7 162.06 143.7 166.97 148.65 166.97 153.61 166.97 158.56 166.97 158.56 162.06 163.52 162.06 163.52 157.14 158.56 157.14 153.61 157.14"/><polygon class="cls-24" points="153.61 132.59 148.65 132.59 143.7 132.59 143.7 127.68 138.74 127.68 138.74 132.59 138.74 137.5 138.74 142.41 138.74 147.32 138.74 152.23 143.7 152.23 148.65 152.23 153.61 152.23 158.56 152.23 163.52 152.23 163.52 147.32 163.52 142.41 163.52 137.5 163.52 132.59 163.52 127.68 158.56 127.68 158.56 132.59 153.61 132.59"/><polygon class="cls-24" points="158.56 112.95 158.56 108.04 158.56 103.13 158.56 98.22 153.61 98.22 148.65 98.22 143.7 98.22 143.7 103.13 143.7 108.04 143.7 112.95 143.7 117.86 138.74 117.86 138.74 122.77 143.7 122.77 143.7 127.68 148.65 127.68 153.61 127.68 158.56 127.68 158.56 122.77 163.52 122.77 163.52 117.86 158.56 117.86 158.56 112.95"/><polygon class="cls-24" points="109.01 103.13 109.01 98.22 104.06 98.22 104.06 93.31 104.06 88.39 99.1 88.39 99.1 83.48 94.15 83.48 89.19 83.48 89.19 88.39 84.24 88.39 84.24 93.31 84.24 98.22 79.28 98.22 79.28 103.13 74.33 103.13 74.33 108.04 74.33 112.95 69.37 112.95 69.37 108.04 69.37 103.13 69.37 98.22 74.33 98.22 74.33 93.31 74.33 88.39 79.28 88.39 79.28 83.48 79.28 78.57 84.24 78.57 84.24 73.66 84.24 68.75 79.28 68.75 74.33 68.75 69.37 68.75 69.37 63.84 64.42 63.84 59.46 63.84 54.51 63.84 54.51 58.93 49.55 58.93 49.55 63.84 44.6 63.84 44.6 68.75 39.64 68.75 39.64 73.66 34.69 73.66 29.73 73.66 24.78 73.66 24.78 68.75 19.82 68.75 19.82 73.66 14.87 73.66 14.87 78.57 19.82 78.57 24.78 78.57 29.73 78.57 34.69 78.57 34.69 83.48 39.64 83.48 44.6 83.48 44.6 88.39 49.55 88.39 49.55 93.31 54.51 93.31 54.51 98.22 54.51 103.13 59.46 103.13 59.46 108.04 59.46 112.95 59.46 117.86 64.42 117.86 64.42 122.77 69.37 122.77 69.37 117.86 74.33 117.86 79.28 117.86 79.28 112.95 84.24 112.95 89.19 112.95 94.15 112.95 94.15 108.04 99.1 108.04 104.06 108.04 104.06 112.95 109.01 112.95 113.97 112.95 113.97 108.04 109.01 108.04 109.01 103.13"/><polygon class="cls-24" points="34.69 68.75 34.69 63.84 34.69 58.93 39.64 58.93 39.64 54.02 34.69 54.02 29.73 54.02 29.73 49.11 24.78 49.11 24.78 54.02 24.78 58.93 24.78 63.84 24.78 68.75 29.73 68.75 34.69 68.75"/><polygon class="cls-25" points="287.39 34.38 282.44 34.38 277.48 34.38 277.48 39.29 282.44 39.29 282.44 44.2 287.39 44.2 287.39 39.29 292.35 39.29 292.35 34.38 287.39 34.38"/><rect class="cls-25" x="203.16" y="137.5" width="4.95" height="4.91"/><polygon class="cls-25" points="148.65 24.56 143.7 24.56 143.7 29.47 148.65 29.47 153.61 29.47 158.56 29.47 158.56 24.56 153.61 24.56 148.65 24.56"/><rect class="cls-25" x="94.15" y="137.5" width="4.95" height="4.91"/><polygon class="cls-25" points="14.87 34.38 9.91 34.38 9.91 39.29 14.87 39.29 14.87 44.2 19.82 44.2 19.82 39.29 24.78 39.29 24.78 34.38 19.82 34.38 14.87 34.38"/><polygon class="cls-26" points="297.3 29.47 292.35 29.47 287.39 29.47 282.44 29.47 277.48 29.47 272.53 29.47 267.57 29.47 267.57 34.38 272.53 34.38 277.48 34.38 282.44 34.38 287.39 34.38 292.35 34.38 292.35 39.29 297.3 39.29 297.3 34.38 302.26 34.38 302.26 29.47 297.3 29.47"/><rect class="cls-26" x="287.39" y="73.66" width="4.96" height="4.91"/><rect class="cls-26" x="287.39" y="39.29" width="4.96" height="4.91"/><rect class="cls-26" x="282.44" y="68.75" width="4.95" height="4.91"/><rect class="cls-26" x="282.44" y="44.2" width="4.95" height="4.91"/><polygon class="cls-26" points="277.48 78.57 272.53 78.57 267.57 78.57 267.57 83.48 272.53 83.48 277.48 83.48 282.44 83.48 287.39 83.48 287.39 78.57 282.44 78.57 277.48 78.57"/><polygon class="cls-26" points="277.48 54.02 277.48 58.93 277.48 63.84 277.48 68.75 282.44 68.75 282.44 63.84 282.44 58.93 282.44 54.02 282.44 49.11 277.48 49.11 277.48 54.02"/><polygon class="cls-26" points="272.53 73.66 277.48 73.66 277.48 68.75 272.53 68.75 267.57 68.75 267.57 73.66 272.53 73.66"/><polygon class="cls-26" points="272.53 44.2 277.48 44.2 282.44 44.2 282.44 39.29 277.48 39.29 272.53 39.29 267.57 39.29 267.57 44.2 272.53 44.2"/><polygon class="cls-26" points="262.62 68.75 267.57 68.75 267.57 63.84 267.57 58.93 262.62 58.93 262.62 63.84 262.62 68.75"/><polygon class="cls-26" points="267.57 39.29 267.57 34.38 262.62 34.38 257.66 34.38 257.66 39.29 262.62 39.29 267.57 39.29"/><polygon class="cls-26" points="257.66 83.48 257.66 88.39 262.62 88.39 267.57 88.39 267.57 83.48 262.62 83.48 257.66 83.48"/><rect class="cls-26" x="257.66" y="54.02" width="4.96" height="4.91"/><polygon class="cls-26" points="257.66 44.2 257.66 49.11 262.62 49.11 267.57 49.11 267.57 44.2 262.62 44.2 257.66 44.2"/><rect class="cls-26" x="252.71" y="88.39" width="4.95" height="4.92"/><polygon class="cls-26" points="247.75 98.22 247.75 103.13 252.71 103.13 252.71 98.22 252.71 93.31 247.75 93.31 247.75 98.22"/><polygon class="cls-26" points="247.75 49.11 242.8 49.11 242.8 54.02 247.75 54.02 252.71 54.02 257.66 54.02 257.66 49.11 252.71 49.11 247.75 49.11"/><polygon class="cls-26" points="252.71 44.2 257.66 44.2 257.66 39.29 252.71 39.29 247.75 39.29 242.8 39.29 242.8 44.2 247.75 44.2 252.71 44.2"/><polygon class="cls-26" points="242.8 108.04 242.8 112.95 242.8 117.86 247.75 117.86 247.75 112.95 247.75 108.04 247.75 103.13 242.8 103.13 242.8 108.04"/><polygon class="cls-26" points="237.84 122.77 232.89 122.77 232.89 127.68 237.84 127.68 242.8 127.68 242.8 122.77 242.8 117.86 237.84 117.86 237.84 122.77"/><polygon class="cls-26" points="232.89 54.02 227.93 54.02 227.93 58.93 232.89 58.93 237.84 58.93 242.8 58.93 242.8 54.02 237.84 54.02 232.89 54.02"/><polygon class="cls-26" points="237.84 49.11 242.8 49.11 242.8 44.2 237.84 44.2 232.89 44.2 227.93 44.2 227.93 49.11 232.89 49.11 237.84 49.11"/><polygon class="cls-26" points="227.93 117.86 222.98 117.86 222.98 122.77 227.93 122.77 232.89 122.77 232.89 117.86 227.93 117.86"/><polygon class="cls-26" points="227.93 103.13 227.93 108.04 227.93 112.95 232.89 112.95 232.89 108.04 232.89 103.13 232.89 98.22 227.93 98.22 227.93 103.13"/><polygon class="cls-26" points="227.93 88.39 222.98 88.39 222.98 93.31 222.98 98.22 227.93 98.22 227.93 93.31 227.93 88.39"/><polygon class="cls-26" points="218.02 112.95 213.07 112.95 208.11 112.95 208.11 117.86 213.07 117.86 218.02 117.86 222.98 117.86 222.98 112.95 218.02 112.95"/><polygon class="cls-26" points="222.98 78.57 218.02 78.57 218.02 83.48 218.02 88.39 222.98 88.39 222.98 83.48 222.98 78.57"/><polygon class="cls-26" points="218.02 58.93 213.07 58.93 213.07 63.84 218.02 63.84 222.98 63.84 227.93 63.84 227.93 58.93 222.98 58.93 218.02 58.93"/><polygon class="cls-26" points="222.98 54.02 227.93 54.02 227.93 49.11 222.98 49.11 218.02 49.11 213.07 49.11 213.07 54.02 218.02 54.02 222.98 54.02"/><polygon class="cls-26" points="213.07 152.23 213.07 157.14 213.07 162.06 218.02 162.06 218.02 157.14 218.02 152.23 218.02 147.32 218.02 142.41 213.07 142.41 213.07 147.32 213.07 152.23"/><rect class="cls-26" x="213.07" y="73.66" width="4.95" height="4.91"/><rect class="cls-26" x="208.11" y="216.07" width="4.96" height="4.91"/><polygon class="cls-26" points="208.11 206.25 208.11 211.16 213.07 211.16 218.02 211.16 218.02 216.07 222.98 216.07 222.98 211.16 222.98 206.25 218.02 206.25 218.02 201.34 213.07 201.34 213.07 206.25 208.11 206.25"/><polygon class="cls-26" points="208.11 166.97 208.11 171.88 213.07 171.88 213.07 166.97 213.07 162.06 208.11 162.06 208.11 166.97"/><rect class="cls-26" x="208.11" y="137.5" width="4.96" height="4.91"/><polygon class="cls-26" points="208.11 201.34 213.07 201.34 213.07 196.43 208.11 196.43 203.16 196.43 203.16 201.34 208.11 201.34"/><polygon class="cls-26" points="203.16 176.79 203.16 181.7 203.16 186.61 208.11 186.61 208.11 181.7 208.11 176.79 208.11 171.88 203.16 171.88 203.16 176.79"/><polygon class="cls-26" points="208.11 137.5 208.11 132.59 203.16 132.59 198.2 132.59 198.2 137.5 203.16 137.5 208.11 137.5"/><polygon class="cls-26" points="203.16 108.04 198.2 108.04 198.2 112.95 203.16 112.95 208.11 112.95 208.11 108.04 203.16 108.04"/><polygon class="cls-26" points="203.16 63.84 203.16 68.75 208.11 68.75 213.07 68.75 213.07 63.84 208.11 63.84 203.16 63.84"/><polygon class="cls-26" points="208.11 58.93 213.07 58.93 213.07 54.02 208.11 54.02 203.16 54.02 198.2 54.02 198.2 58.93 203.16 58.93 208.11 58.93"/><polygon class="cls-26" points="198.2 211.16 193.25 211.16 188.29 211.16 188.29 206.25 183.34 206.25 183.34 211.16 183.34 216.07 188.29 216.07 193.25 216.07 193.25 220.98 198.2 220.98 198.2 216.07 203.16 216.07 208.11 216.07 208.11 211.16 203.16 211.16 198.2 211.16"/><polygon class="cls-26" points="198.2 191.52 193.25 191.52 188.29 191.52 188.29 196.43 193.25 196.43 198.2 196.43 203.16 196.43 203.16 191.52 203.16 186.61 198.2 186.61 198.2 191.52"/><polygon class="cls-26" points="198.2 73.66 198.2 78.57 203.16 78.57 203.16 73.66 203.16 68.75 198.2 68.75 198.2 73.66"/><polygon class="cls-26" points="198.2 166.97 198.2 162.06 193.25 162.06 193.25 166.97 193.25 171.88 198.2 171.88 198.2 166.97"/><polygon class="cls-26" points="198.2 142.41 198.2 137.5 193.25 137.5 188.29 137.5 188.29 142.41 193.25 142.41 198.2 142.41"/><rect class="cls-26" x="193.25" y="112.95" width="4.95" height="4.91"/><polygon class="cls-26" points="193.25 83.48 193.25 88.39 198.2 88.39 198.2 83.48 198.2 78.57 193.25 78.57 193.25 83.48"/><rect class="cls-26" x="193.25" y="58.93" width="4.95" height="4.91"/><polygon class="cls-26" points="188.29 93.31 188.29 98.22 193.25 98.22 193.25 93.31 193.25 88.39 188.29 88.39 188.29 93.31"/><polygon class="cls-26" points="193.25 73.66 193.25 68.75 193.25 63.84 188.29 63.84 188.29 68.75 188.29 73.66 188.29 78.57 193.25 78.57 193.25 73.66"/><rect class="cls-26" x="183.34" y="220.98" width="4.95" height="4.91"/><polygon class="cls-26" points="188.29 186.61 188.29 181.7 188.29 176.79 193.25 176.79 193.25 171.88 188.29 171.88 188.29 166.97 188.29 162.06 188.29 157.14 183.34 157.14 183.34 162.06 183.34 166.97 183.34 171.88 183.34 176.79 183.34 181.7 183.34 186.61 183.34 191.52 188.29 191.52 188.29 186.61"/><polygon class="cls-26" points="183.34 117.86 183.34 122.77 188.29 122.77 193.25 122.77 193.25 117.86 188.29 117.86 183.34 117.86"/><rect class="cls-26" x="183.34" y="98.22" width="4.95" height="4.91"/><polygon class="cls-26" points="188.29 83.48 188.29 78.57 183.34 78.57 183.34 83.48 183.34 88.39 188.29 88.39 188.29 83.48"/><polygon class="cls-26" points="183.34 196.43 183.34 191.52 178.38 191.52 178.38 196.43 178.38 201.34 178.38 206.25 183.34 206.25 183.34 201.34 183.34 196.43"/><polygon class="cls-26" points="178.38 142.41 178.38 147.32 178.38 152.23 178.38 157.14 183.34 157.14 183.34 152.23 183.34 147.32 188.29 147.32 188.29 142.41 183.34 142.41 183.34 137.5 183.34 132.59 178.38 132.59 178.38 137.5 178.38 142.41"/><polygon class="cls-26" points="183.34 98.22 183.34 93.31 183.34 88.39 178.38 88.39 178.38 93.31 173.43 93.31 173.43 98.22 178.38 98.22 183.34 98.22"/><polygon class="cls-26" points="178.38 19.64 178.38 24.56 178.38 29.47 178.38 34.38 183.34 34.38 183.34 29.47 183.34 24.56 183.34 19.64 183.34 14.73 183.34 9.82 178.38 9.82 178.38 14.73 178.38 19.64"/><polygon class="cls-26" points="173.43 216.07 168.47 216.07 163.52 216.07 163.52 220.98 168.47 220.98 168.47 225.89 173.43 225.89 173.43 220.98 178.38 220.98 183.34 220.98 183.34 216.07 178.38 216.07 173.43 216.07"/><polygon class="cls-26" points="178.38 117.86 173.43 117.86 173.43 122.77 173.43 127.68 173.43 132.59 178.38 132.59 178.38 127.68 183.34 127.68 183.34 122.77 178.38 122.77 178.38 117.86"/><rect class="cls-26" x="173.43" y="4.91" width="4.95" height="4.91"/><polygon class="cls-26" points="168.47 162.06 168.47 166.97 168.47 171.88 163.52 171.88 163.52 176.79 168.47 176.79 168.47 181.7 168.47 186.61 168.47 191.52 173.43 191.52 173.43 186.61 173.43 181.7 173.43 176.79 173.43 171.88 173.43 166.97 173.43 162.06 173.43 157.14 173.43 152.23 168.47 152.23 168.47 157.14 168.47 162.06"/><rect class="cls-26" x="168.47" y="63.84" width="4.96" height="4.91"/><rect class="cls-26" x="168.47" y="29.47" width="4.96" height="4.91"/><polygon class="cls-26" points="173.43 19.64 173.43 14.73 173.43 9.82 168.47 9.82 168.47 14.73 168.47 19.64 168.47 24.56 173.43 24.56 173.43 19.64"/><polygon class="cls-26" points="173.43 4.91 173.43 0 168.47 0 163.52 0 163.52 4.91 163.52 9.82 168.47 9.82 168.47 4.91 173.43 4.91"/><polygon class="cls-26" points="163.52 196.43 163.52 201.34 168.47 201.34 168.47 196.43 168.47 191.52 163.52 191.52 163.52 196.43"/><polygon class="cls-26" points="163.52 122.77 158.56 122.77 158.56 127.68 163.52 127.68 163.52 132.59 163.52 137.5 163.52 142.41 163.52 147.32 163.52 152.23 168.47 152.23 168.47 147.32 168.47 142.41 168.47 137.5 168.47 132.59 168.47 127.68 168.47 122.77 168.47 117.86 163.52 117.86 163.52 122.77"/><polygon class="cls-26" points="163.52 98.22 163.52 103.13 168.47 103.13 168.47 108.04 168.47 112.95 168.47 117.86 173.43 117.86 173.43 112.95 173.43 108.04 178.38 108.04 183.34 108.04 183.34 103.13 178.38 103.13 173.43 103.13 173.43 98.22 168.47 98.22 168.47 93.31 168.47 88.39 168.47 83.48 168.47 78.57 163.52 78.57 163.52 83.48 163.52 88.39 158.56 88.39 158.56 93.31 163.52 93.31 163.52 98.22"/><rect class="cls-26" x="163.52" y="68.75" width="4.95" height="4.91"/><rect class="cls-26" x="158.56" y="220.98" width="4.96" height="4.91"/><rect class="cls-26" x="158.56" y="211.16" width="4.96" height="4.91"/><rect class="cls-26" x="158.56" y="201.34" width="4.96" height="4.91"/><polygon class="cls-26" points="163.52 108.04 163.52 103.13 158.56 103.13 158.56 108.04 158.56 112.95 158.56 117.86 163.52 117.86 163.52 112.95 163.52 108.04"/><polygon class="cls-26" points="163.52 29.47 168.47 29.47 168.47 24.56 163.52 24.56 158.56 24.56 158.56 29.47 163.52 29.47"/><polygon class="cls-26" points="153.61 206.25 148.65 206.25 143.7 206.25 143.7 211.16 148.65 211.16 153.61 211.16 158.56 211.16 158.56 206.25 153.61 206.25"/><polygon class="cls-26" points="153.61 152.23 148.65 152.23 143.7 152.23 138.74 152.23 138.74 157.14 143.7 157.14 148.65 157.14 153.61 157.14 158.56 157.14 163.52 157.14 163.52 152.23 158.56 152.23 153.61 152.23"/><rect class="cls-26" x="153.61" y="68.75" width="4.95" height="4.91"/><polygon class="cls-26" points="153.61 24.56 158.56 24.56 158.56 19.64 153.61 19.64 148.65 19.64 143.7 19.64 143.7 24.56 148.65 24.56 153.61 24.56"/><polygon class="cls-26" points="148.65 132.59 153.61 132.59 158.56 132.59 158.56 127.68 153.61 127.68 148.65 127.68 143.7 127.68 143.7 132.59 148.65 132.59"/><polygon class="cls-26" points="148.65 98.22 153.61 98.22 158.56 98.22 158.56 93.31 153.61 93.31 148.65 93.31 143.7 93.31 143.7 98.22 148.65 98.22"/><polygon class="cls-26" points="143.7 83.48 148.65 83.48 153.61 83.48 158.56 83.48 158.56 78.57 153.61 78.57 148.65 78.57 143.7 78.57 143.7 83.48"/><rect class="cls-26" x="143.7" y="68.75" width="4.95" height="4.91"/><rect class="cls-26" x="138.74" y="220.98" width="4.96" height="4.91"/><rect class="cls-26" x="138.74" y="211.16" width="4.96" height="4.91"/><rect class="cls-26" x="138.74" y="201.34" width="4.96" height="4.91"/><polygon class="cls-26" points="143.7 181.7 148.65 181.7 153.61 181.7 158.56 181.7 163.52 181.7 163.52 176.79 158.56 176.79 153.61 176.79 148.65 176.79 143.7 176.79 138.74 176.79 138.74 181.7 143.7 181.7"/><polygon class="cls-26" points="138.74 112.95 138.74 117.86 143.7 117.86 143.7 112.95 143.7 108.04 143.7 103.13 138.74 103.13 138.74 108.04 138.74 112.95"/><polygon class="cls-26" points="138.74 191.52 133.79 191.52 133.79 196.43 133.79 201.34 138.74 201.34 138.74 196.43 138.74 191.52"/><polygon class="cls-26" points="138.74 147.32 138.74 142.41 138.74 137.5 138.74 132.59 138.74 127.68 143.7 127.68 143.7 122.77 138.74 122.77 138.74 117.86 133.79 117.86 133.79 122.77 133.79 127.68 133.79 132.59 133.79 137.5 133.79 142.41 133.79 147.32 133.79 152.23 138.74 152.23 138.74 147.32"/><polygon class="cls-26" points="138.74 29.47 143.7 29.47 143.7 24.56 138.74 24.56 133.79 24.56 133.79 29.47 138.74 29.47"/><polygon class="cls-26" points="133.79 9.82 138.74 9.82 138.74 4.91 138.74 0 133.79 0 128.83 0 128.83 4.91 133.79 4.91 133.79 9.82"/><polygon class="cls-26" points="128.83 216.07 123.88 216.07 118.92 216.07 118.92 220.98 123.88 220.98 128.83 220.98 128.83 225.89 133.79 225.89 133.79 220.98 138.74 220.98 138.74 216.07 133.79 216.07 128.83 216.07"/><polygon class="cls-26" points="133.79 181.7 133.79 176.79 138.74 176.79 138.74 171.88 133.79 171.88 133.79 166.97 133.79 162.06 133.79 157.14 133.79 152.23 128.83 152.23 128.83 157.14 128.83 162.06 128.83 166.97 128.83 171.88 128.83 176.79 128.83 181.7 128.83 186.61 128.83 191.52 133.79 191.52 133.79 186.61 133.79 181.7"/><rect class="cls-26" x="128.83" y="63.84" width="4.96" height="4.91"/><rect class="cls-26" x="128.83" y="29.47" width="4.96" height="4.91"/><polygon class="cls-26" points="128.83 14.73 128.83 19.64 128.83 24.56 133.79 24.56 133.79 19.64 133.79 14.73 133.79 9.82 128.83 9.82 128.83 14.73"/><polygon class="cls-26" points="128.83 127.68 128.83 122.77 128.83 117.86 123.88 117.86 123.88 122.77 118.92 122.77 118.92 127.68 123.88 127.68 123.88 132.59 128.83 132.59 128.83 127.68"/><polygon class="cls-26" points="123.88 103.13 118.92 103.13 118.92 108.04 123.88 108.04 128.83 108.04 128.83 112.95 128.83 117.86 133.79 117.86 133.79 112.95 133.79 108.04 133.79 103.13 138.74 103.13 138.74 98.22 138.74 93.31 143.7 93.31 143.7 88.39 138.74 88.39 138.74 83.48 138.74 78.57 133.79 78.57 133.79 83.48 133.79 88.39 133.79 93.31 133.79 98.22 128.83 98.22 128.83 103.13 123.88 103.13"/><rect class="cls-26" x="123.88" y="4.91" width="4.95" height="4.91"/><polygon class="cls-26" points="118.92 201.34 118.92 206.25 123.88 206.25 123.88 201.34 123.88 196.43 123.88 191.52 118.92 191.52 118.92 196.43 118.92 201.34"/><polygon class="cls-26" points="118.92 98.22 123.88 98.22 128.83 98.22 128.83 93.31 123.88 93.31 123.88 88.39 118.92 88.39 118.92 93.31 118.92 98.22"/><polygon class="cls-26" points="123.88 29.47 123.88 24.56 123.88 19.64 123.88 14.73 123.88 9.82 118.92 9.82 118.92 14.73 118.92 19.64 118.92 24.56 118.92 29.47 118.92 34.38 123.88 34.38 123.88 29.47"/><rect class="cls-26" x="113.97" y="220.98" width="4.95" height="4.91"/><polygon class="cls-26" points="118.92 206.25 113.97 206.25 113.97 211.16 109.01 211.16 104.06 211.16 99.1 211.16 94.15 211.16 94.15 216.07 99.1 216.07 104.06 216.07 104.06 220.98 109.01 220.98 109.01 216.07 113.97 216.07 118.92 216.07 118.92 211.16 118.92 206.25"/><polygon class="cls-26" points="113.97 162.06 113.97 166.97 113.97 171.88 109.01 171.88 109.01 176.79 113.97 176.79 113.97 181.7 113.97 186.61 113.97 191.52 118.92 191.52 118.92 186.61 118.92 181.7 118.92 176.79 118.92 171.88 118.92 166.97 118.92 162.06 118.92 157.14 113.97 157.14 113.97 162.06"/><polygon class="cls-26" points="118.92 147.32 118.92 152.23 118.92 157.14 123.88 157.14 123.88 152.23 123.88 147.32 123.88 142.41 123.88 137.5 123.88 132.59 118.92 132.59 118.92 137.5 118.92 142.41 113.97 142.41 113.97 147.32 118.92 147.32"/><polygon class="cls-26" points="113.97 117.86 109.01 117.86 109.01 122.77 113.97 122.77 118.92 122.77 118.92 117.86 113.97 117.86"/><rect class="cls-26" x="113.97" y="98.22" width="4.95" height="4.91"/><polygon class="cls-26" points="113.97 88.39 118.92 88.39 118.92 83.48 118.92 78.57 113.97 78.57 113.97 83.48 113.97 88.39"/><polygon class="cls-26" points="113.97 88.39 109.01 88.39 109.01 93.31 109.01 98.22 113.97 98.22 113.97 93.31 113.97 88.39"/><polygon class="cls-26" points="109.01 73.66 109.01 78.57 113.97 78.57 113.97 73.66 113.97 68.75 113.97 63.84 109.01 63.84 109.01 68.75 109.01 73.66"/><polygon class="cls-26" points="104.06 191.52 104.06 186.61 99.1 186.61 99.1 191.52 99.1 196.43 104.06 196.43 109.01 196.43 113.97 196.43 113.97 191.52 109.01 191.52 104.06 191.52"/><polygon class="cls-26" points="109.01 162.06 104.06 162.06 104.06 166.97 104.06 171.88 109.01 171.88 109.01 166.97 109.01 162.06"/><polygon class="cls-26" points="109.01 142.41 113.97 142.41 113.97 137.5 109.01 137.5 104.06 137.5 104.06 142.41 109.01 142.41"/><rect class="cls-26" x="104.06" y="112.95" width="4.95" height="4.91"/><polygon class="cls-26" points="109.01 78.57 104.06 78.57 104.06 83.48 104.06 88.39 109.01 88.39 109.01 83.48 109.01 78.57"/><rect class="cls-26" x="104.06" y="58.93" width="4.95" height="4.91"/><polygon class="cls-26" points="104.06 137.5 104.06 132.59 99.1 132.59 94.15 132.59 94.15 137.5 99.1 137.5 104.06 137.5"/><polygon class="cls-26" points="99.1 108.04 94.15 108.04 94.15 112.95 99.1 112.95 104.06 112.95 104.06 108.04 99.1 108.04"/><polygon class="cls-26" points="104.06 68.75 99.1 68.75 99.1 73.66 99.1 78.57 104.06 78.57 104.06 73.66 104.06 68.75"/><polygon class="cls-26" points="99.1 201.34 99.1 196.43 94.15 196.43 89.19 196.43 89.19 201.34 94.15 201.34 99.1 201.34"/><polygon class="cls-26" points="99.1 176.79 99.1 171.88 94.15 171.88 94.15 176.79 94.15 181.7 94.15 186.61 99.1 186.61 99.1 181.7 99.1 176.79"/><polygon class="cls-26" points="94.15 63.84 89.19 63.84 89.19 68.75 94.15 68.75 99.1 68.75 99.1 63.84 94.15 63.84"/><rect class="cls-26" x="89.19" y="216.07" width="4.96" height="4.91"/><polygon class="cls-26" points="89.19 206.25 89.19 201.34 84.24 201.34 84.24 206.25 84.24 211.16 89.19 211.16 94.15 211.16 94.15 206.25 89.19 206.25"/><polygon class="cls-26" points="94.15 162.06 89.19 162.06 89.19 166.97 84.24 166.97 84.24 171.88 89.19 171.88 94.15 171.88 94.15 166.97 94.15 162.06"/><rect class="cls-26" x="89.19" y="137.5" width="4.96" height="4.91"/><polygon class="cls-26" points="94.15 58.93 99.1 58.93 104.06 58.93 104.06 54.02 99.1 54.02 94.15 54.02 89.19 54.02 89.19 58.93 94.15 58.93"/><polygon class="cls-26" points="84.24 191.52 79.28 191.52 79.28 196.43 84.24 196.43 89.19 196.43 89.19 191.52 84.24 191.52"/><polygon class="cls-26" points="89.19 157.14 89.19 152.23 89.19 147.32 89.19 142.41 84.24 142.41 84.24 147.32 84.24 152.23 84.24 157.14 84.24 162.06 89.19 162.06 89.19 157.14"/><polygon class="cls-26" points="84.24 112.95 79.28 112.95 79.28 117.86 84.24 117.86 89.19 117.86 94.15 117.86 94.15 112.95 89.19 112.95 84.24 112.95"/><rect class="cls-26" x="84.24" y="73.66" width="4.95" height="4.91"/><polygon class="cls-26" points="84.24 58.93 79.28 58.93 74.33 58.93 74.33 63.84 79.28 63.84 84.24 63.84 89.19 63.84 89.19 58.93 84.24 58.93"/><rect class="cls-26" x="79.28" y="211.16" width="4.96" height="4.91"/><rect class="cls-26" x="79.28" y="162.06" width="4.96" height="4.91"/><polygon class="cls-26" points="79.28 83.48 79.28 88.39 84.24 88.39 84.24 83.48 84.24 78.57 79.28 78.57 79.28 83.48"/><rect class="cls-26" x="74.33" y="186.61" width="4.95" height="4.91"/><rect class="cls-26" x="74.33" y="157.14" width="4.95" height="4.92"/><polygon class="cls-26" points="74.33 93.31 74.33 98.22 79.28 98.22 79.28 93.31 79.28 88.39 74.33 88.39 74.33 93.31"/><polygon class="cls-26" points="79.28 54.02 84.24 54.02 89.19 54.02 89.19 49.11 84.24 49.11 79.28 49.11 74.33 49.11 74.33 54.02 79.28 54.02"/><rect class="cls-26" x="69.37" y="181.7" width="4.96" height="4.91"/><rect class="cls-26" x="69.37" y="152.23" width="4.96" height="4.91"/><polygon class="cls-26" points="69.37 117.86 69.37 122.77 74.33 122.77 79.28 122.77 79.28 117.86 74.33 117.86 69.37 117.86"/><polygon class="cls-26" points="69.37 103.13 69.37 108.04 69.37 112.95 74.33 112.95 74.33 108.04 74.33 103.13 74.33 98.22 69.37 98.22 69.37 103.13"/><polygon class="cls-26" points="69.37 54.02 64.42 54.02 59.46 54.02 59.46 58.93 64.42 58.93 69.37 58.93 74.33 58.93 74.33 54.02 69.37 54.02"/><rect class="cls-26" x="64.42" y="176.79" width="4.95" height="4.91"/><rect class="cls-26" x="64.42" y="147.32" width="4.95" height="4.91"/><polygon class="cls-26" points="64.42 166.97 59.46 166.97 59.46 171.88 59.46 176.79 64.42 176.79 64.42 171.88 64.42 166.97"/><rect class="cls-26" x="59.46" y="142.41" width="4.96" height="4.91"/><polygon class="cls-26" points="64.42 117.86 59.46 117.86 59.46 122.77 59.46 127.68 64.42 127.68 69.37 127.68 69.37 122.77 64.42 122.77 64.42 117.86"/><polygon class="cls-26" points="64.42 49.11 69.37 49.11 74.33 49.11 74.33 44.2 69.37 44.2 64.42 44.2 59.46 44.2 59.46 49.11 64.42 49.11"/><polygon class="cls-26" points="59.46 157.14 54.51 157.14 54.51 162.06 54.51 166.97 59.46 166.97 59.46 162.06 59.46 157.14"/><rect class="cls-26" x="54.51" y="137.5" width="4.95" height="4.91"/><polygon class="cls-26" points="59.46 108.04 59.46 103.13 54.51 103.13 54.51 108.04 54.51 112.95 54.51 117.86 59.46 117.86 59.46 112.95 59.46 108.04"/><polygon class="cls-26" points="54.51 49.11 49.55 49.11 44.6 49.11 44.6 54.02 49.55 54.02 54.51 54.02 59.46 54.02 59.46 49.11 54.51 49.11"/><rect class="cls-26" x="49.55" y="152.23" width="4.96" height="4.91"/><polygon class="cls-26" points="54.51 93.31 49.55 93.31 49.55 98.22 49.55 103.13 54.51 103.13 54.51 98.22 54.51 93.31"/><rect class="cls-26" x="44.6" y="147.32" width="4.95" height="4.91"/><polygon class="cls-26" points="49.55 137.5 54.51 137.5 54.51 132.59 49.55 132.59 44.6 132.59 44.6 137.5 49.55 137.5"/><rect class="cls-26" x="44.6" y="88.39" width="4.95" height="4.92"/><polygon class="cls-26" points="49.55 44.2 54.51 44.2 59.46 44.2 59.46 39.29 54.51 39.29 49.55 39.29 44.6 39.29 44.6 44.2 49.55 44.2"/><polygon class="cls-26" points="39.64 142.41 34.69 142.41 34.69 147.32 39.64 147.32 44.6 147.32 44.6 142.41 39.64 142.41"/><polygon class="cls-26" points="39.64 83.48 34.69 83.48 34.69 88.39 39.64 88.39 44.6 88.39 44.6 83.48 39.64 83.48"/><rect class="cls-26" x="39.64" y="54.02" width="4.96" height="4.91"/><polygon class="cls-26" points="39.64 44.2 34.69 44.2 34.69 49.11 39.64 49.11 44.6 49.11 44.6 44.2 39.64 44.2"/><polygon class="cls-26" points="34.69 63.84 34.69 68.75 39.64 68.75 39.64 63.84 39.64 58.93 34.69 58.93 34.69 63.84"/><polygon class="cls-26" points="39.64 39.29 44.6 39.29 44.6 34.38 39.64 34.38 34.69 34.38 34.69 39.29 39.64 39.29"/><polygon class="cls-26" points="29.73 137.5 24.78 137.5 24.78 142.41 29.73 142.41 34.69 142.41 34.69 137.5 29.73 137.5"/><polygon class="cls-26" points="34.69 132.59 39.64 132.59 44.6 132.59 44.6 127.68 39.64 127.68 34.69 127.68 29.73 127.68 24.78 127.68 24.78 132.59 29.73 132.59 34.69 132.59"/><polygon class="cls-26" points="29.73 78.57 24.78 78.57 19.82 78.57 14.87 78.57 14.87 83.48 19.82 83.48 24.78 83.48 29.73 83.48 34.69 83.48 34.69 78.57 29.73 78.57"/><polygon class="cls-26" points="29.73 39.29 24.78 39.29 19.82 39.29 19.82 44.2 24.78 44.2 29.73 44.2 34.69 44.2 34.69 39.29 29.73 39.29"/><polygon class="cls-26" points="24.78 68.75 24.78 73.66 29.73 73.66 34.69 73.66 34.69 68.75 29.73 68.75 24.78 68.75"/><rect class="cls-26" x="19.82" y="132.59" width="4.96" height="4.91"/><polygon class="cls-26" points="24.78 63.84 24.78 58.93 24.78 54.02 24.78 49.11 19.82 49.11 19.82 54.02 19.82 58.93 19.82 63.84 19.82 68.75 24.78 68.75 24.78 63.84"/><rect class="cls-26" x="14.87" y="68.75" width="4.95" height="4.91"/><rect class="cls-26" x="14.87" y="44.2" width="4.95" height="4.91"/><rect class="cls-26" x="9.91" y="73.66" width="4.96" height="4.91"/><rect class="cls-26" x="9.91" y="39.29" width="4.96" height="4.91"/><polygon class="cls-26" points="14.87 34.38 19.82 34.38 24.78 34.38 29.73 34.38 34.69 34.38 34.69 29.47 29.73 29.47 24.78 29.47 19.82 29.47 14.87 29.47 9.91 29.47 4.96 29.47 0 29.47 0 34.38 4.96 34.38 4.96 39.29 9.91 39.29 9.91 34.38 14.87 34.38"/></g></g></svg>