<svg xmlns="http://www.w3.org/2000/svg" viewBox="0 0 169.7 181.81"><defs><style>.cls-1{fill:#211f1c;}.cls-2{fill:#423d3b;}.cls-3{fill:#514d4b;}.cls-4{fill:#5e5a58;}.cls-5{fill:#7f7e78;}.cls-6{fill:#595958;}.cls-7{fill:#6d6c68;}.cls-8{fill:#56554f;}.cls-9{fill:#5b5654;}.cls-10{fill:#605f5a;}.cls-11{fill:#606060;}.cls-12{fill:#5e5951;}.cls-13{fill:#38322b;}.cls-14{fill:#5e5c53;}.cls-15{fill:#605b53;}.cls-16{fill:#281f19;}.cls-17{fill:#565342;}.cls-18{fill:#2d2015;}.cls-19{fill:#5e5343;}.cls-20{fill:#6d6a5c;}.cls-21{fill:#5e5b4f;}.cls-22{fill:#66624f;}.cls-23{fill:#776b55;}.cls-24{fill:#3a3024;}.cls-25{fill:#72716b;}.cls-26{fill:#72685a;}.cls-27{fill:#ef9d3a;}.cls-28{fill:#d8792b;}.cls-29{fill:#777065;}.cls-30{fill:#7a766e;}.cls-31{fill:#ed8900;}.cls-32{fill:#efb745;}.cls-33{fill:#6b685d;}.cls-34{fill:#5b5651;}.cls-35{fill:#6d6a69;}</style></defs><g id="Layer_2" data-name="Layer 2"><g id="Layer_1-2" data-name="Layer 1"><rect class="cls-1" x="163.63" y="109.09" width="6.07" height="6.06"/><rect class="cls-1" x="163.63" y="103.03" width="6.07" height="6.06"/><rect class="cls-1" x="163.63" y="96.97" width="6.07" height="6.06"/><rect class="cls-1" x="163.63" y="90.9" width="6.07" height="6.07"/><rect class="cls-1" x="163.63" y="84.84" width="6.07" height="6.06"/><rect class="cls-1" x="163.63" y="78.78" width="6.07" height="6.06"/><rect class="cls-1" x="163.63" y="66.66" width="6.07" height="6.06"/><rect class="cls-1" x="163.63" y="54.54" width="6.07" height="6.06"/><rect class="cls-1" x="163.63" y="48.48" width="6.07" height="6.06"/><rect class="cls-1" x="163.63" y="42.42" width="6.07" height="6.06"/><rect class="cls-1" x="163.63" y="36.36" width="6.07" height="6.06"/><rect class="cls-1" x="163.63" y="30.3" width="6.07" height="6.06"/><rect class="cls-1" x="157.57" y="115.15" width="6.06" height="6.06"/><rect class="cls-2" x="157.57" y="109.09" width="6.06" height="6.06"/><rect class="cls-3" x="157.57" y="103.03" width="6.06" height="6.06"/><rect class="cls-3" x="157.57" y="96.97" width="6.06" height="6.06"/><rect class="cls-4" x="157.57" y="90.9" width="6.06" height="6.07"/><rect class="cls-4" x="157.57" y="84.84" width="6.06" height="6.06"/><rect class="cls-1" x="157.57" y="78.78" width="6.06" height="6.06"/><rect class="cls-1" x="157.57" y="72.72" width="6.06" height="6.06"/><rect class="cls-5" x="157.57" y="66.66" width="6.06" height="6.06"/><rect class="cls-1" x="157.57" y="60.6" width="6.06" height="6.06"/><rect class="cls-2" x="157.57" y="54.54" width="6.06" height="6.06"/><rect class="cls-2" x="157.57" y="48.48" width="6.06" height="6.06"/><rect class="cls-2" x="157.57" y="42.42" width="6.06" height="6.06"/><rect class="cls-3" x="157.57" y="36.36" width="6.06" height="6.06"/><rect class="cls-6" x="157.57" y="30.3" width="6.06" height="6.06"/><rect class="cls-1" x="157.57" y="24.24" width="6.06" height="6.06"/><rect class="cls-1" x="151.51" y="115.15" width="6.06" height="6.06"/><rect class="cls-2" x="151.51" y="109.09" width="6.06" height="6.06"/><rect class="cls-3" x="151.51" y="103.03" width="6.06" height="6.06"/><rect class="cls-3" x="151.51" y="96.97" width="6.06" height="6.06"/><rect class="cls-3" x="151.51" y="90.9" width="6.06" height="6.07"/><rect class="cls-4" x="151.51" y="84.84" width="6.06" height="6.06"/><rect class="cls-1" x="151.51" y="78.78" width="6.06" height="6.06"/><rect class="cls-5" x="151.51" y="72.72" width="6.06" height="6.06"/><rect class="cls-7" x="151.51" y="66.66" width="6.06" height="6.06"/><rect class="cls-1" x="151.51" y="60.6" width="6.06" height="6.06"/><rect class="cls-2" x="151.51" y="54.54" width="6.06" height="6.06"/><rect class="cls-2" x="151.51" y="48.48" width="6.06" height="6.06"/><rect class="cls-3" x="151.51" y="42.42" width="6.06" height="6.06"/><rect class="cls-3" x="151.51" y="36.36" width="6.06" height="6.06"/><rect class="cls-6" x="151.51" y="30.3" width="6.06" height="6.06"/><rect class="cls-1" x="151.51" y="24.24" width="6.06" height="6.06"/><rect class="cls-1" x="145.45" y="169.69" width="6.06" height="6.06"/><rect class="cls-1" x="145.45" y="163.63" width="6.06" height="6.06"/><rect class="cls-1" x="145.45" y="157.57" width="6.06" height="6.06"/><rect class="cls-1" x="145.45" y="121.21" width="6.06" height="6.06"/><rect class="cls-2" x="145.45" y="115.15" width="6.06" height="6.06"/><rect class="cls-3" x="145.45" y="109.09" width="6.06" height="6.06"/><rect class="cls-3" x="145.45" y="103.03" width="6.06" height="6.06"/><rect class="cls-3" x="145.45" y="96.97" width="6.06" height="6.06"/><rect class="cls-4" x="145.45" y="90.9" width="6.06" height="6.07"/><rect class="cls-1" x="145.45" y="84.84" width="6.06" height="6.06"/><rect class="cls-1" x="145.45" y="78.78" width="6.06" height="6.06"/><rect class="cls-7" x="145.45" y="72.72" width="6.06" height="6.06"/><rect class="cls-7" x="145.45" y="66.66" width="6.06" height="6.06"/><rect class="cls-1" x="145.45" y="60.6" width="6.06" height="6.06"/><rect class="cls-2" x="145.45" y="54.54" width="6.06" height="6.06"/><rect class="cls-3" x="145.45" y="48.48" width="6.06" height="6.06"/><rect class="cls-3" x="145.45" y="42.42" width="6.06" height="6.06"/><rect class="cls-3" x="145.45" y="36.36" width="6.06" height="6.06"/><rect class="cls-6" x="145.45" y="30.3" width="6.06" height="6.06"/><rect class="cls-1" x="145.45" y="24.24" width="6.06" height="6.06"/><rect class="cls-1" x="139.39" y="175.75" width="6.06" height="6.06"/><rect class="cls-1" x="139.39" y="169.69" width="6.06" height="6.06"/><rect class="cls-3" x="139.39" y="163.63" width="6.06" height="6.06"/><rect class="cls-1" x="139.39" y="157.57" width="6.06" height="6.06"/><rect class="cls-1" x="139.39" y="151.51" width="6.06" height="6.06"/><rect class="cls-1" x="139.39" y="145.45" width="6.06" height="6.06"/><rect class="cls-1" x="139.39" y="139.39" width="6.06" height="6.06"/><rect class="cls-1" x="139.39" y="121.21" width="6.06" height="6.06"/><rect class="cls-2" x="139.39" y="115.15" width="6.06" height="6.06"/><rect class="cls-3" x="139.39" y="109.09" width="6.06" height="6.06"/><rect class="cls-3" x="139.39" y="103.03" width="6.06" height="6.06"/><rect class="cls-3" x="139.39" y="96.97" width="6.06" height="6.06"/><rect class="cls-1" x="139.39" y="90.9" width="6.06" height="6.07"/><rect class="cls-1" x="139.39" y="72.72" width="6.06" height="6.06"/><rect class="cls-1" x="139.39" y="66.66" width="6.06" height="6.06"/><rect class="cls-1" x="139.39" y="60.6" width="6.06" height="6.06"/><rect class="cls-2" x="139.39" y="54.54" width="6.06" height="6.06"/><rect class="cls-3" x="139.39" y="48.48" width="6.06" height="6.06"/><rect class="cls-3" x="139.39" y="42.42" width="6.06" height="6.06"/><rect class="cls-3" x="139.39" y="36.36" width="6.06" height="6.06"/><rect class="cls-3" x="139.39" y="30.3" width="6.06" height="6.06"/><rect class="cls-6" x="139.39" y="24.24" width="6.06" height="6.06"/><rect class="cls-1" x="139.39" y="18.18" width="6.06" height="6.06"/><rect class="cls-1" x="133.33" y="175.75" width="6.06" height="6.06"/><rect class="cls-2" x="133.33" y="169.69" width="6.06" height="6.06"/><rect class="cls-3" x="133.33" y="163.63" width="6.06" height="6.06"/><rect class="cls-1" x="133.33" y="157.57" width="6.06" height="6.06"/><rect class="cls-7" x="133.33" y="151.51" width="6.06" height="6.06"/><rect class="cls-7" x="133.33" y="145.45" width="6.06" height="6.06"/><rect class="cls-7" x="133.33" y="139.39" width="6.06" height="6.06"/><rect class="cls-1" x="133.33" y="133.33" width="6.06" height="6.06"/><rect class="cls-1" x="133.33" y="115.15" width="6.06" height="6.06"/><rect class="cls-2" x="133.33" y="109.09" width="6.06" height="6.06"/><rect class="cls-3" x="133.33" y="103.03" width="6.06" height="6.06"/><rect class="cls-3" x="133.33" y="96.97" width="6.06" height="6.06"/><rect class="cls-1" x="133.33" y="90.9" width="6.06" height="6.07"/><rect class="cls-1" x="133.33" y="84.84" width="6.06" height="6.06"/><rect class="cls-1" x="133.33" y="78.78" width="6.06" height="6.06"/><rect class="cls-1" x="133.33" y="60.6" width="6.06" height="6.06"/><rect class="cls-1" x="133.33" y="54.54" width="6.06" height="6.06"/><rect class="cls-2" x="133.33" y="48.48" width="6.06" height="6.06"/><rect class="cls-3" x="133.33" y="42.42" width="6.06" height="6.06"/><rect class="cls-3" x="133.33" y="36.36" width="6.06" height="6.06"/><rect class="cls-3" x="133.33" y="30.3" width="6.06" height="6.06"/><rect class="cls-6" x="133.33" y="24.24" width="6.06" height="6.06"/><rect class="cls-1" x="133.33" y="18.18" width="6.06" height="6.06"/><rect class="cls-1" x="127.27" y="175.75" width="6.06" height="6.06"/><rect class="cls-2" x="127.27" y="169.69" width="6.06" height="6.06"/><rect class="cls-3" x="127.27" y="163.63" width="6.06" height="6.06"/><rect class="cls-1" x="127.27" y="157.57" width="6.06" height="6.06"/><rect class="cls-1" x="127.27" y="151.51" width="6.06" height="6.06"/><rect class="cls-8" x="127.27" y="145.45" width="6.06" height="6.06"/><rect class="cls-8" x="127.27" y="139.39" width="6.06" height="6.06"/><rect class="cls-1" x="127.27" y="133.33" width="6.06" height="6.06"/><rect class="cls-1" x="127.27" y="127.27" width="6.06" height="6.06"/><rect class="cls-1" x="127.27" y="121.21" width="6.06" height="6.06"/><rect class="cls-1" x="127.27" y="115.15" width="6.06" height="6.06"/><rect class="cls-1" x="127.27" y="109.09" width="6.06" height="6.06"/><rect class="cls-1" x="127.27" y="103.03" width="6.06" height="6.06"/><rect class="cls-1" x="127.27" y="96.97" width="6.06" height="6.06"/><rect class="cls-9" x="127.27" y="90.9" width="6.06" height="6.07"/><rect class="cls-9" x="127.27" y="84.84" width="6.06" height="6.06"/><rect class="cls-9" x="127.27" y="78.78" width="6.06" height="6.06"/><rect class="cls-1" x="127.27" y="72.72" width="6.06" height="6.06"/><rect class="cls-1" x="127.27" y="66.66" width="6.06" height="6.06"/><rect class="cls-10" x="127.27" y="60.6" width="6.06" height="6.06"/><rect class="cls-10" x="127.27" y="54.54" width="6.06" height="6.06"/><rect class="cls-1" x="127.27" y="48.48" width="6.06" height="6.06"/><rect class="cls-3" x="127.27" y="42.42" width="6.06" height="6.06"/><rect class="cls-3" x="127.27" y="36.36" width="6.06" height="6.06"/><rect class="cls-3" x="127.27" y="30.3" width="6.06" height="6.06"/><rect class="cls-6" x="127.27" y="24.24" width="6.06" height="6.06"/><rect class="cls-1" x="127.27" y="18.18" width="6.06" height="6.06"/><rect class="cls-1" x="121.21" y="175.75" width="6.06" height="6.06"/><rect class="cls-2" x="121.21" y="169.69" width="6.06" height="6.06"/><rect class="cls-3" x="121.21" y="163.63" width="6.06" height="6.06"/><rect class="cls-3" x="121.21" y="157.57" width="6.06" height="6.06"/><rect class="cls-1" x="121.21" y="151.51" width="6.06" height="6.06"/><rect class="cls-8" x="121.21" y="145.45" width="6.06" height="6.06"/><rect class="cls-1" x="121.21" y="139.39" width="6.06" height="6.06"/><rect class="cls-8" x="121.21" y="133.33" width="6.06" height="6.06"/><rect class="cls-8" x="121.21" y="127.27" width="6.06" height="6.06"/><rect class="cls-7" x="121.21" y="121.21" width="6.06" height="6.06"/><rect class="cls-1" x="121.21" y="115.15" width="6.06" height="6.06"/><rect class="cls-11" x="121.21" y="109.09" width="6.06" height="6.06"/><rect class="cls-9" x="121.21" y="103.03" width="6.06" height="6.06"/><rect class="cls-9" x="121.21" y="96.97" width="6.06" height="6.06"/><rect class="cls-9" x="121.21" y="90.9" width="6.06" height="6.07"/><rect class="cls-9" x="121.21" y="84.84" width="6.06" height="6.06"/><rect class="cls-12" x="121.21" y="78.78" width="6.06" height="6.06"/><rect class="cls-13" x="121.21" y="72.72" width="6.06" height="6.06"/><rect class="cls-14" x="121.21" y="66.66" width="6.06" height="6.06"/><rect class="cls-10" x="121.21" y="60.6" width="6.06" height="6.06"/><rect class="cls-10" x="121.21" y="54.54" width="6.06" height="6.06"/><rect class="cls-1" x="121.21" y="48.48" width="6.06" height="6.06"/><rect class="cls-3" x="121.21" y="42.42" width="6.06" height="6.06"/><rect class="cls-3" x="121.21" y="36.36" width="6.06" height="6.06"/><rect class="cls-6" x="121.21" y="30.3" width="6.06" height="6.06"/><rect class="cls-6" x="121.21" y="24.24" width="6.06" height="6.06"/><rect class="cls-1" x="121.21" y="18.18" width="6.06" height="6.06"/><rect class="cls-1" x="115.15" y="175.75" width="6.06" height="6.06"/><rect class="cls-1" x="115.15" y="169.69" width="6.06" height="6.06"/><rect class="cls-3" x="115.15" y="163.63" width="6.06" height="6.06"/><rect class="cls-3" x="115.15" y="157.57" width="6.06" height="6.06"/><rect class="cls-3" x="115.15" y="151.51" width="6.06" height="6.06"/><rect class="cls-1" x="115.15" y="145.45" width="6.06" height="6.06"/><rect class="cls-8" x="115.15" y="139.39" width="6.06" height="6.06"/><rect class="cls-8" x="115.15" y="133.33" width="6.06" height="6.06"/><rect class="cls-7" x="115.15" y="127.27" width="6.06" height="6.06"/><rect class="cls-7" x="115.15" y="121.21" width="6.06" height="6.06"/><rect class="cls-7" x="115.15" y="115.15" width="6.06" height="6.06"/><rect class="cls-1" x="115.15" y="109.09" width="6.06" height="6.06"/><rect class="cls-9" x="115.15" y="103.03" width="6.06" height="6.06"/><rect class="cls-9" x="115.15" y="96.97" width="6.06" height="6.06"/><rect class="cls-15" x="115.15" y="90.9" width="6.06" height="6.07"/><rect class="cls-15" x="115.15" y="84.84" width="6.06" height="6.06"/><rect class="cls-16" x="115.15" y="78.78" width="6.06" height="6.06"/><rect class="cls-17" x="115.15" y="72.72" width="6.06" height="6.06"/><rect class="cls-14" x="115.15" y="66.66" width="6.06" height="6.06"/><rect class="cls-14" x="115.15" y="60.6" width="6.06" height="6.06"/><rect class="cls-10" x="115.15" y="54.54" width="6.06" height="6.06"/><rect class="cls-10" x="115.15" y="48.48" width="6.06" height="6.06"/><rect class="cls-1" x="115.15" y="42.42" width="6.06" height="6.06"/><rect class="cls-1" x="115.15" y="36.36" width="6.06" height="6.06"/><rect class="cls-1" x="115.15" y="30.3" width="6.06" height="6.06"/><rect class="cls-1" x="115.15" y="24.24" width="6.06" height="6.06"/><rect class="cls-1" x="115.15" y="18.18" width="6.06" height="6.06"/><rect class="cls-1" x="115.15" y="12.12" width="6.06" height="6.06"/><rect class="cls-1" x="115.15" y="6.06" width="6.06" height="6.06"/><rect class="cls-1" x="109.09" y="169.69" width="6.06" height="6.06"/><rect class="cls-2" x="109.09" y="163.63" width="6.06" height="6.06"/><rect class="cls-3" x="109.09" y="157.57" width="6.06" height="6.06"/><rect class="cls-3" x="109.09" y="151.51" width="6.06" height="6.06"/><rect class="cls-1" x="109.09" y="145.45" width="6.06" height="6.06"/><rect class="cls-8" x="109.09" y="139.39" width="6.06" height="6.06"/><rect class="cls-8" x="109.09" y="133.33" width="6.06" height="6.06"/><rect class="cls-7" x="109.09" y="127.27" width="6.06" height="6.06"/><rect class="cls-7" x="109.09" y="121.21" width="6.06" height="6.06"/><rect class="cls-7" x="109.09" y="115.15" width="6.06" height="6.06"/><rect class="cls-1" x="109.09" y="109.09" width="6.06" height="6.06"/><rect class="cls-1" x="109.09" y="103.03" width="6.06" height="6.06"/><rect class="cls-16" x="109.09" y="96.97" width="6.06" height="6.06"/><rect class="cls-18" x="109.09" y="90.9" width="6.06" height="6.07"/><rect class="cls-15" x="109.09" y="84.84" width="6.06" height="6.06"/><rect class="cls-16" x="109.09" y="78.78" width="6.06" height="6.06"/><rect class="cls-19" x="109.09" y="72.72" width="6.06" height="6.06"/><rect class="cls-17" x="109.09" y="66.66" width="6.06" height="6.06"/><rect class="cls-14" x="109.09" y="60.6" width="6.06" height="6.06"/><rect class="cls-10" x="109.09" y="54.54" width="6.06" height="6.06"/><rect class="cls-1" x="109.09" y="48.48" width="6.06" height="6.06"/><rect class="cls-7" x="109.09" y="42.42" width="6.06" height="6.06"/><rect class="cls-7" x="109.09" y="36.36" width="6.06" height="6.06"/><rect class="cls-20" x="109.09" y="30.3" width="6.06" height="6.06"/><rect class="cls-20" x="109.09" y="24.24" width="6.06" height="6.06"/><rect class="cls-20" x="109.09" y="18.18" width="6.06" height="6.06"/><rect class="cls-1" x="109.09" y="12.12" width="6.06" height="6.06"/><rect class="cls-1" x="109.09" y="6.06" width="6.06" height="6.06"/><rect class="cls-1" x="103.03" y="169.69" width="6.06" height="6.06"/><rect class="cls-1" x="103.03" y="163.63" width="6.06" height="6.06"/><rect class="cls-2" x="103.03" y="157.57" width="6.06" height="6.06"/><rect class="cls-1" x="103.03" y="151.51" width="6.06" height="6.06"/><rect class="cls-1" x="103.03" y="145.45" width="6.06" height="6.06"/><rect class="cls-1" x="103.03" y="139.39" width="6.06" height="6.06"/><rect class="cls-8" x="103.03" y="133.33" width="6.06" height="6.06"/><rect class="cls-7" x="103.03" y="127.27" width="6.06" height="6.06"/><rect class="cls-7" x="103.03" y="121.21" width="6.06" height="6.06"/><rect class="cls-1" x="103.03" y="115.15" width="6.06" height="6.06"/><rect class="cls-21" x="103.03" y="109.09" width="6.06" height="6.06"/><rect class="cls-22" x="103.03" y="103.03" width="6.06" height="6.06"/><rect class="cls-23" x="103.03" y="96.97" width="6.06" height="6.06"/><rect class="cls-23" x="103.03" y="90.9" width="6.06" height="6.07"/><rect class="cls-24" x="103.03" y="84.84" width="6.06" height="6.06"/><rect class="cls-24" x="103.03" y="78.78" width="6.06" height="6.06"/><rect class="cls-19" x="103.03" y="72.72" width="6.06" height="6.06"/><rect class="cls-16" x="103.03" y="66.66" width="6.06" height="6.06"/><rect class="cls-1" x="103.03" y="60.6" width="6.06" height="6.06"/><rect class="cls-1" x="103.03" y="54.54" width="6.06" height="6.06"/><rect class="cls-7" x="103.03" y="48.48" width="6.06" height="6.06"/><rect class="cls-7" x="103.03" y="42.42" width="6.06" height="6.06"/><rect class="cls-25" x="103.03" y="36.36" width="6.06" height="6.06"/><rect class="cls-26" x="103.03" y="30.3" width="6.06" height="6.06"/><rect class="cls-27" x="103.03" y="24.24" width="6.06" height="6.06"/><rect class="cls-1" x="103.03" y="18.18" width="6.06" height="6.06"/><rect class="cls-1" x="103.03" y="12.12" width="6.06" height="6.06"/><rect class="cls-25" x="103.03" y="6.06" width="6.06" height="6.06"/><rect class="cls-1" x="103.03" width="6.06" height="6.06"/><rect class="cls-1" x="96.97" y="163.63" width="6.06" height="6.06"/><rect class="cls-1" x="96.97" y="157.57" width="6.06" height="6.06"/><rect class="cls-1" x="96.97" y="151.51" width="6.06" height="6.06"/><rect class="cls-1" x="96.97" y="139.39" width="6.06" height="6.06"/><rect class="cls-1" x="96.97" y="133.33" width="6.06" height="6.06"/><rect class="cls-8" x="96.97" y="127.27" width="6.06" height="6.06"/><rect class="cls-8" x="96.97" y="121.21" width="6.06" height="6.06"/><rect class="cls-1" x="96.97" y="115.15" width="6.06" height="6.06"/><rect class="cls-21" x="96.97" y="109.09" width="6.06" height="6.06"/><rect class="cls-22" x="96.97" y="103.03" width="6.06" height="6.06"/><rect class="cls-23" x="96.97" y="96.97" width="6.06" height="6.06"/><rect class="cls-24" x="96.97" y="90.9" width="6.06" height="6.07"/><rect class="cls-28" x="96.97" y="84.84" width="6.06" height="6.06"/><rect class="cls-27" x="96.97" y="78.78" width="6.06" height="6.06"/><rect class="cls-24" x="96.97" y="72.72" width="6.06" height="6.06"/><rect class="cls-23" x="96.97" y="66.66" width="6.06" height="6.06"/><rect class="cls-22" x="96.97" y="60.6" width="6.06" height="6.06"/><rect class="cls-1" x="96.97" y="54.54" width="6.06" height="6.06"/><rect class="cls-1" x="96.97" y="48.48" width="6.06" height="6.06"/><rect class="cls-1" x="96.97" y="42.42" width="6.06" height="6.06"/><rect class="cls-1" x="96.97" y="36.36" width="6.06" height="6.06"/><rect class="cls-29" x="96.97" y="30.3" width="6.06" height="6.06"/><rect class="cls-26" x="96.97" y="24.24" width="6.06" height="6.06"/><rect class="cls-1" x="96.97" y="18.18" width="6.06" height="6.06"/><rect class="cls-30" x="96.97" y="12.12" width="6.06" height="6.06"/><rect class="cls-25" x="96.97" y="6.06" width="6.06" height="6.06"/><rect class="cls-1" x="96.97" width="6.06" height="6.06"/><rect class="cls-1" x="90.91" y="133.33" width="6.06" height="6.06"/><rect class="cls-8" x="90.91" y="127.27" width="6.06" height="6.06"/><rect class="cls-1" x="90.91" y="121.21" width="6.06" height="6.06"/><rect class="cls-8" x="90.91" y="115.15" width="6.06" height="6.06"/><rect class="cls-21" x="90.91" y="109.09" width="6.06" height="6.06"/><rect class="cls-22" x="90.91" y="103.03" width="6.06" height="6.06"/><rect class="cls-24" x="90.91" y="96.97" width="6.06" height="6.06"/><rect class="cls-28" x="90.91" y="90.9" width="6.06" height="6.07"/><rect class="cls-31" x="90.91" y="84.84" width="6.06" height="6.06"/><rect class="cls-32" x="90.91" y="78.78" width="6.06" height="6.06"/><rect class="cls-24" x="90.91" y="72.72" width="6.06" height="6.06"/><rect class="cls-23" x="90.91" y="66.66" width="6.06" height="6.06"/><rect class="cls-22" x="90.91" y="60.6" width="6.06" height="6.06"/><rect class="cls-1" x="90.91" y="54.54" width="6.06" height="6.06"/><rect class="cls-1" x="90.91" y="48.48" width="6.06" height="6.06"/><rect class="cls-1" x="90.91" y="42.42" width="6.06" height="6.06"/><rect class="cls-1" x="90.91" y="36.36" width="6.06" height="6.06"/><rect class="cls-30" x="90.91" y="30.3" width="6.06" height="6.06"/><rect class="cls-30" x="90.91" y="24.24" width="6.06" height="6.06"/><rect class="cls-30" x="90.91" y="18.18" width="6.06" height="6.06"/><rect class="cls-30" x="90.91" y="12.12" width="6.06" height="6.06"/><rect class="cls-25" x="90.91" y="6.06" width="6.06" height="6.06"/><rect class="cls-1" x="90.91" width="6.06" height="6.06"/><rect class="cls-1" x="84.85" y="133.33" width="6.06" height="6.06"/><rect class="cls-1" x="84.85" y="127.27" width="6.06" height="6.06"/><rect class="cls-3" x="84.85" y="121.21" width="6.06" height="6.06"/><rect class="cls-21" x="84.85" y="115.15" width="6.06" height="6.06"/><rect class="cls-22" x="84.85" y="109.09" width="6.06" height="6.06"/><rect class="cls-22" x="84.85" y="103.03" width="6.06" height="6.06"/><rect class="cls-23" x="84.85" y="96.97" width="6.06" height="6.06"/><rect class="cls-24" x="84.85" y="90.9" width="6.06" height="6.07"/><rect class="cls-32" x="84.85" y="84.84" width="6.06" height="6.06"/><rect class="cls-24" x="84.85" y="78.78" width="6.06" height="6.06"/><rect class="cls-23" x="84.85" y="72.72" width="6.06" height="6.06"/><rect class="cls-23" x="84.85" y="66.66" width="6.06" height="6.06"/><rect class="cls-22" x="84.85" y="60.6" width="6.06" height="6.06"/><rect class="cls-1" x="84.85" y="54.54" width="6.06" height="6.06"/><rect class="cls-1" x="84.85" y="48.48" width="6.06" height="6.06"/><rect class="cls-1" x="84.85" y="42.42" width="6.06" height="6.06"/><rect class="cls-1" x="84.85" y="36.36" width="6.06" height="6.06"/><rect class="cls-29" x="84.85" y="30.3" width="6.06" height="6.06"/><rect class="cls-26" x="84.85" y="24.24" width="6.06" height="6.06"/><rect class="cls-1" x="84.85" y="18.18" width="6.06" height="6.06"/><rect class="cls-30" x="84.85" y="12.12" width="6.06" height="6.06"/><rect class="cls-25" x="84.85" y="6.06" width="6.06" height="6.06"/><rect class="cls-1" x="84.85" width="6.06" height="6.06"/><rect class="cls-1" x="78.79" y="169.69" width="6.06" height="6.06"/><rect class="cls-1" x="78.79" y="163.63" width="6.06" height="6.06"/><rect class="cls-1" x="78.79" y="157.57" width="6.06" height="6.06"/><rect class="cls-1" x="78.79" y="151.51" width="6.06" height="6.06"/><rect class="cls-1" x="78.79" y="133.33" width="6.06" height="6.06"/><rect class="cls-2" x="78.79" y="127.27" width="6.06" height="6.06"/><rect class="cls-1" x="78.79" y="121.21" width="6.06" height="6.06"/><rect class="cls-21" x="78.79" y="115.15" width="6.06" height="6.06"/><rect class="cls-21" x="78.79" y="109.09" width="6.06" height="6.06"/><rect class="cls-22" x="78.79" y="103.03" width="6.06" height="6.06"/><rect class="cls-23" x="78.79" y="96.97" width="6.06" height="6.06"/><rect class="cls-23" x="78.79" y="90.9" width="6.06" height="6.07"/><rect class="cls-24" x="78.79" y="84.84" width="6.06" height="6.06"/><rect class="cls-23" x="78.79" y="78.78" width="6.06" height="6.06"/><rect class="cls-23" x="78.79" y="72.72" width="6.06" height="6.06"/><rect class="cls-22" x="78.79" y="66.66" width="6.06" height="6.06"/><rect class="cls-33" x="78.79" y="60.6" width="6.06" height="6.06"/><rect class="cls-1" x="78.79" y="54.54" width="6.06" height="6.06"/><rect class="cls-7" x="78.79" y="48.48" width="6.06" height="6.06"/><rect class="cls-7" x="78.79" y="42.42" width="6.06" height="6.06"/><rect class="cls-25" x="78.79" y="36.36" width="6.06" height="6.06"/><rect class="cls-26" x="78.79" y="30.3" width="6.06" height="6.06"/><rect class="cls-27" x="78.79" y="24.24" width="6.06" height="6.06"/><rect class="cls-1" x="78.79" y="18.18" width="6.06" height="6.06"/><rect class="cls-1" x="78.79" y="12.12" width="6.06" height="6.06"/><rect class="cls-7" x="78.79" y="6.06" width="6.06" height="6.06"/><rect class="cls-1" x="78.79" width="6.06" height="6.06"/><rect class="cls-1" x="72.73" y="175.75" width="6.06" height="6.06"/><rect class="cls-1" x="72.73" y="169.69" width="6.06" height="6.06"/><rect class="cls-2" x="72.73" y="163.63" width="6.06" height="6.06"/><rect class="cls-9" x="72.73" y="157.57" width="6.06" height="6.06"/><rect class="cls-9" x="72.73" y="151.51" width="6.06" height="6.06"/><rect class="cls-1" x="72.73" y="145.45" width="6.06" height="6.06"/><rect class="cls-1" x="72.73" y="139.39" width="6.06" height="6.06"/><rect class="cls-2" x="72.73" y="133.33" width="6.06" height="6.06"/><rect class="cls-3" x="72.73" y="127.27" width="6.06" height="6.06"/><rect class="cls-1" x="72.73" y="121.21" width="6.06" height="6.06"/><rect class="cls-8" x="72.73" y="115.15" width="6.06" height="6.06"/><rect class="cls-8" x="72.73" y="109.09" width="6.06" height="6.06"/><rect class="cls-21" x="72.73" y="103.03" width="6.06" height="6.06"/><rect class="cls-22" x="72.73" y="96.97" width="6.06" height="6.06"/><rect class="cls-16" x="72.73" y="90.9" width="6.06" height="6.07"/><rect class="cls-19" x="72.73" y="84.84" width="6.06" height="6.06"/><rect class="cls-16" x="72.73" y="78.78" width="6.06" height="6.06"/><rect class="cls-8" x="72.73" y="72.72" width="6.06" height="6.06"/><rect class="cls-22" x="72.73" y="66.66" width="6.06" height="6.06"/><rect class="cls-33" x="72.73" y="60.6" width="6.06" height="6.06"/><rect class="cls-7" x="72.73" y="54.54" width="6.06" height="6.06"/><rect class="cls-1" x="72.73" y="48.48" width="6.06" height="6.06"/><rect class="cls-7" x="72.73" y="42.42" width="6.06" height="6.06"/><rect class="cls-7" x="72.73" y="36.36" width="6.06" height="6.06"/><rect class="cls-20" x="72.73" y="30.3" width="6.06" height="6.06"/><rect class="cls-20" x="72.73" y="24.24" width="6.06" height="6.06"/><rect class="cls-20" x="72.73" y="18.18" width="6.06" height="6.06"/><rect class="cls-1" x="72.73" y="12.12" width="6.06" height="6.06"/><rect class="cls-1" x="72.73" y="6.06" width="6.06" height="6.06"/><rect class="cls-1" x="66.66" y="175.75" width="6.07" height="6.06"/><rect class="cls-2" x="66.66" y="169.69" width="6.07" height="6.06"/><rect class="cls-9" x="66.66" y="163.63" width="6.07" height="6.06"/><rect class="cls-9" x="66.66" y="157.57" width="6.07" height="6.06"/><rect class="cls-1" x="66.66" y="151.51" width="6.07" height="6.06"/><rect class="cls-1" x="66.66" y="145.45" width="6.07" height="6.06"/><rect class="cls-2" x="66.66" y="139.39" width="6.07" height="6.06"/><rect class="cls-3" x="66.66" y="133.33" width="6.07" height="6.06"/><rect class="cls-3" x="66.66" y="127.27" width="6.07" height="6.06"/><rect class="cls-3" x="66.66" y="121.21" width="6.07" height="6.06"/><rect class="cls-1" x="66.66" y="115.15" width="6.07" height="6.06"/><rect class="cls-8" x="66.66" y="109.09" width="6.07" height="6.06"/><rect class="cls-7" x="66.66" y="103.03" width="6.07" height="6.06"/><rect class="cls-16" x="66.66" y="96.97" width="6.07" height="6.06"/><rect class="cls-19" x="66.66" y="90.9" width="6.07" height="6.07"/><rect class="cls-19" x="66.66" y="84.84" width="6.07" height="6.06"/><rect class="cls-16" x="66.66" y="78.78" width="6.07" height="6.06"/><rect class="cls-8" x="66.66" y="72.72" width="6.07" height="6.06"/><rect class="cls-33" x="66.66" y="66.66" width="6.07" height="6.06"/><rect class="cls-33" x="66.66" y="60.6" width="6.07" height="6.06"/><rect class="cls-7" x="66.66" y="54.54" width="6.07" height="6.06"/><rect class="cls-7" x="66.66" y="48.48" width="6.07" height="6.06"/><rect class="cls-1" x="66.66" y="42.42" width="6.07" height="6.06"/><rect class="cls-1" x="66.66" y="36.36" width="6.07" height="6.06"/><rect class="cls-1" x="66.66" y="30.3" width="6.07" height="6.06"/><rect class="cls-1" x="66.66" y="24.24" width="6.07" height="6.06"/><rect class="cls-1" x="66.66" y="18.18" width="6.07" height="6.06"/><rect class="cls-1" x="66.66" y="12.12" width="6.07" height="6.06"/><rect class="cls-1" x="66.66" y="6.06" width="6.07" height="6.06"/><rect class="cls-1" x="60.6" y="175.75" width="6.06" height="6.06"/><rect class="cls-2" x="60.6" y="169.69" width="6.06" height="6.06"/><rect class="cls-9" x="60.6" y="163.63" width="6.06" height="6.06"/><rect class="cls-1" x="60.6" y="157.57" width="6.06" height="6.06"/><rect class="cls-8" x="60.6" y="151.51" width="6.06" height="6.06"/><rect class="cls-7" x="60.6" y="145.45" width="6.06" height="6.06"/><rect class="cls-1" x="60.6" y="139.39" width="6.06" height="6.06"/><rect class="cls-2" x="60.6" y="133.33" width="6.06" height="6.06"/><rect class="cls-3" x="60.6" y="127.27" width="6.06" height="6.06"/><rect class="cls-3" x="60.6" y="121.21" width="6.06" height="6.06"/><rect class="cls-1" x="60.6" y="115.15" width="6.06" height="6.06"/><rect class="cls-1" x="60.6" y="109.09" width="6.06" height="6.06"/><rect class="cls-1" x="60.6" y="103.03" width="6.06" height="6.06"/><rect class="cls-1" x="60.6" y="96.97" width="6.06" height="6.06"/><rect class="cls-34" x="60.6" y="90.9" width="6.06" height="6.07"/><rect class="cls-34" x="60.6" y="84.84" width="6.06" height="6.06"/><rect class="cls-34" x="60.6" y="78.78" width="6.06" height="6.06"/><rect class="cls-1" x="60.6" y="72.72" width="6.06" height="6.06"/><rect class="cls-8" x="60.6" y="66.66" width="6.06" height="6.06"/><rect class="cls-7" x="60.6" y="60.6" width="6.06" height="6.06"/><rect class="cls-7" x="60.6" y="54.54" width="6.06" height="6.06"/><rect class="cls-1" x="60.6" y="48.48" width="6.06" height="6.06"/><rect class="cls-9" x="60.6" y="42.42" width="6.06" height="6.06"/><rect class="cls-9" x="60.6" y="36.36" width="6.06" height="6.06"/><rect class="cls-35" x="60.6" y="30.3" width="6.06" height="6.06"/><rect class="cls-35" x="60.6" y="24.24" width="6.06" height="6.06"/><rect class="cls-1" x="60.6" y="18.18" width="6.06" height="6.06"/><rect class="cls-1" x="54.54" y="175.75" width="6.06" height="6.06"/><rect class="cls-2" x="54.54" y="169.69" width="6.06" height="6.06"/><rect class="cls-9" x="54.54" y="163.63" width="6.06" height="6.06"/><rect class="cls-1" x="54.54" y="157.57" width="6.06" height="6.06"/><rect class="cls-8" x="54.54" y="151.51" width="6.06" height="6.06"/><rect class="cls-7" x="54.54" y="145.45" width="6.06" height="6.06"/><rect class="cls-1" x="54.54" y="139.39" width="6.06" height="6.06"/><rect class="cls-2" x="54.54" y="133.33" width="6.06" height="6.06"/><rect class="cls-1" x="54.54" y="127.27" width="6.06" height="6.06"/><rect class="cls-1" x="54.54" y="121.21" width="6.06" height="6.06"/><rect class="cls-1" x="54.54" y="90.9" width="6.06" height="6.07"/><rect class="cls-1" x="54.54" y="84.84" width="6.06" height="6.06"/><rect class="cls-1" x="54.54" y="78.78" width="6.06" height="6.06"/><rect class="cls-1" x="54.54" y="66.66" width="6.06" height="6.06"/><rect class="cls-1" x="54.54" y="60.6" width="6.06" height="6.06"/><rect class="cls-1" x="54.54" y="54.54" width="6.06" height="6.06"/><rect class="cls-1" x="54.54" y="48.48" width="6.06" height="6.06"/><rect class="cls-9" x="54.54" y="42.42" width="6.06" height="6.06"/><rect class="cls-9" x="54.54" y="36.36" width="6.06" height="6.06"/><rect class="cls-9" x="54.54" y="30.3" width="6.06" height="6.06"/><rect class="cls-35" x="54.54" y="24.24" width="6.06" height="6.06"/><rect class="cls-1" x="54.54" y="18.18" width="6.06" height="6.06"/><rect class="cls-1" x="48.48" y="175.75" width="6.06" height="6.06"/><rect class="cls-2" x="48.48" y="169.69" width="6.06" height="6.06"/><rect class="cls-9" x="48.48" y="163.63" width="6.06" height="6.06"/><rect class="cls-1" x="48.48" y="157.57" width="6.06" height="6.06"/><rect class="cls-1" x="48.48" y="151.51" width="6.06" height="6.06"/><rect class="cls-1" x="48.48" y="145.45" width="6.06" height="6.06"/><rect class="cls-1" x="48.48" y="139.39" width="6.06" height="6.06"/><rect class="cls-1" x="48.48" y="133.33" width="6.06" height="6.06"/><rect class="cls-1" x="48.48" y="54.54" width="6.06" height="6.06"/><rect class="cls-2" x="48.48" y="48.48" width="6.06" height="6.06"/><rect class="cls-9" x="48.48" y="42.42" width="6.06" height="6.06"/><rect class="cls-9" x="48.48" y="36.36" width="6.06" height="6.06"/><rect class="cls-9" x="48.48" y="30.3" width="6.06" height="6.06"/><rect class="cls-35" x="48.48" y="24.24" width="6.06" height="6.06"/><rect class="cls-1" x="48.48" y="18.18" width="6.06" height="6.06"/><rect class="cls-1" x="42.42" y="175.75" width="6.06" height="6.06"/><rect class="cls-2" x="42.42" y="169.69" width="6.06" height="6.06"/><rect class="cls-9" x="42.42" y="163.63" width="6.06" height="6.06"/><rect class="cls-9" x="42.42" y="157.57" width="6.06" height="6.06"/><rect class="cls-1" x="42.42" y="151.51" width="6.06" height="6.06"/><rect class="cls-1" x="42.42" y="66.66" width="6.06" height="6.06"/><rect class="cls-1" x="42.42" y="60.6" width="6.06" height="6.06"/><rect class="cls-1" x="42.42" y="54.54" width="6.06" height="6.06"/><rect class="cls-2" x="42.42" y="48.48" width="6.06" height="6.06"/><rect class="cls-9" x="42.42" y="42.42" width="6.06" height="6.06"/><rect class="cls-9" x="42.42" y="36.36" width="6.06" height="6.06"/><rect class="cls-9" x="42.42" y="30.3" width="6.06" height="6.06"/><rect class="cls-35" x="42.42" y="24.24" width="6.06" height="6.06"/><rect class="cls-1" x="42.42" y="18.18" width="6.06" height="6.06"/><rect class="cls-1" x="36.36" y="175.75" width="6.06" height="6.06"/><rect class="cls-1" x="36.36" y="169.69" width="6.06" height="6.06"/><rect class="cls-9" x="36.36" y="163.63" width="6.06" height="6.06"/><rect class="cls-1" x="36.36" y="157.57" width="6.06" height="6.06"/><rect class="cls-1" x="36.36" y="109.09" width="6.06" height="6.06"/><rect class="cls-1" x="36.36" y="103.03" width="6.06" height="6.06"/><rect class="cls-1" x="36.36" y="96.97" width="6.06" height="6.06"/><rect class="cls-1" x="36.36" y="72.72" width="6.06" height="6.06"/><rect class="cls-8" x="36.36" y="66.66" width="6.06" height="6.06"/><rect class="cls-7" x="36.36" y="60.6" width="6.06" height="6.06"/><rect class="cls-1" x="36.36" y="54.54" width="6.06" height="6.06"/><rect class="cls-2" x="36.36" y="48.48" width="6.06" height="6.06"/><rect class="cls-9" x="36.36" y="42.42" width="6.06" height="6.06"/><rect class="cls-9" x="36.36" y="36.36" width="6.06" height="6.06"/><rect class="cls-35" x="36.36" y="30.3" width="6.06" height="6.06"/><rect class="cls-1" x="36.36" y="24.24" width="6.06" height="6.06"/><rect class="cls-1" x="30.3" y="169.69" width="6.06" height="6.06"/><rect class="cls-1" x="30.3" y="163.63" width="6.06" height="6.06"/><rect class="cls-1" x="30.3" y="115.15" width="6.06" height="6.06"/><rect class="cls-1" x="30.3" y="109.09" width="6.06" height="6.06"/><rect class="cls-2" x="30.3" y="103.03" width="6.06" height="6.06"/><rect class="cls-1" x="30.3" y="96.97" width="6.06" height="6.06"/><rect class="cls-1" x="30.3" y="90.9" width="6.06" height="6.07"/><rect class="cls-1" x="30.3" y="78.78" width="6.06" height="6.06"/><rect class="cls-8" x="30.3" y="72.72" width="6.06" height="6.06"/><rect class="cls-7" x="30.3" y="66.66" width="6.06" height="6.06"/><rect class="cls-7" x="30.3" y="60.6" width="6.06" height="6.06"/><rect class="cls-1" x="30.3" y="54.54" width="6.06" height="6.06"/><rect class="cls-2" x="30.3" y="48.48" width="6.06" height="6.06"/><rect class="cls-2" x="30.3" y="42.42" width="6.06" height="6.06"/><rect class="cls-9" x="30.3" y="36.36" width="6.06" height="6.06"/><rect class="cls-35" x="30.3" y="30.3" width="6.06" height="6.06"/><rect class="cls-1" x="30.3" y="24.24" width="6.06" height="6.06"/><rect class="cls-1" x="24.24" y="121.21" width="6.06" height="6.06"/><rect class="cls-2" x="24.24" y="115.15" width="6.06" height="6.06"/><rect class="cls-2" x="24.24" y="109.09" width="6.06" height="6.06"/><rect class="cls-3" x="24.24" y="103.03" width="6.06" height="6.06"/><rect class="cls-3" x="24.24" y="96.97" width="6.06" height="6.06"/><rect class="cls-1" x="24.24" y="90.9" width="6.06" height="6.07"/><rect class="cls-1" x="24.24" y="78.78" width="6.06" height="6.06"/><rect class="cls-8" x="24.24" y="72.72" width="6.06" height="6.06"/><rect class="cls-7" x="24.24" y="66.66" width="6.06" height="6.06"/><rect class="cls-7" x="24.24" y="60.6" width="6.06" height="6.06"/><rect class="cls-7" x="24.24" y="54.54" width="6.06" height="6.06"/><rect class="cls-1" x="24.24" y="48.48" width="6.06" height="6.06"/><rect class="cls-2" x="24.24" y="42.42" width="6.06" height="6.06"/><rect class="cls-2" x="24.24" y="36.36" width="6.06" height="6.06"/><rect class="cls-35" x="24.24" y="30.3" width="6.06" height="6.06"/><rect class="cls-1" x="24.24" y="24.24" width="6.06" height="6.06"/><rect class="cls-1" x="18.18" y="121.21" width="6.06" height="6.06"/><rect class="cls-2" x="18.18" y="115.15" width="6.06" height="6.06"/><rect class="cls-3" x="18.18" y="109.09" width="6.06" height="6.06"/><rect class="cls-3" x="18.18" y="103.03" width="6.06" height="6.06"/><rect class="cls-3" x="18.18" y="96.97" width="6.06" height="6.06"/><rect class="cls-2" x="18.18" y="90.9" width="6.06" height="6.07"/><rect class="cls-1" x="18.18" y="84.84" width="6.06" height="6.06"/><rect class="cls-8" x="18.18" y="78.78" width="6.06" height="6.06"/><rect class="cls-7" x="18.18" y="72.72" width="6.06" height="6.06"/><rect class="cls-7" x="18.18" y="66.66" width="6.06" height="6.06"/><rect class="cls-7" x="18.18" y="60.6" width="6.06" height="6.06"/><rect class="cls-1" x="18.18" y="54.54" width="6.06" height="6.06"/><rect class="cls-1" x="18.18" y="48.48" width="6.06" height="6.06"/><rect class="cls-1" x="18.18" y="42.42" width="6.06" height="6.06"/><rect class="cls-1" x="18.18" y="36.36" width="6.06" height="6.06"/><rect class="cls-1" x="18.18" y="30.3" width="6.06" height="6.06"/><rect class="cls-1" x="12.12" y="115.15" width="6.06" height="6.06"/><rect class="cls-2" x="12.12" y="109.09" width="6.06" height="6.06"/><rect class="cls-3" x="12.12" y="103.03" width="6.06" height="6.06"/><rect class="cls-3" x="12.12" y="96.97" width="6.06" height="6.06"/><rect class="cls-2" x="12.12" y="90.9" width="6.06" height="6.07"/><rect class="cls-1" x="12.12" y="84.84" width="6.06" height="6.06"/><rect class="cls-8" x="12.12" y="78.78" width="6.06" height="6.06"/><rect class="cls-7" x="12.12" y="72.72" width="6.06" height="6.06"/><rect class="cls-7" x="12.12" y="66.66" width="6.06" height="6.06"/><rect class="cls-7" x="12.12" y="60.6" width="6.06" height="6.06"/><rect class="cls-1" x="12.12" y="54.54" width="6.06" height="6.06"/><rect class="cls-1" x="6.06" y="115.15" width="6.06" height="6.06"/><rect class="cls-1" x="6.06" y="109.09" width="6.06" height="6.06"/><rect class="cls-1" x="6.06" y="103.03" width="6.06" height="6.06"/><rect class="cls-3" x="6.06" y="96.97" width="6.06" height="6.06"/><rect class="cls-3" x="6.06" y="90.9" width="6.06" height="6.07"/><rect class="cls-2" x="6.06" y="84.84" width="6.06" height="6.06"/><rect class="cls-1" x="6.06" y="78.78" width="6.06" height="6.06"/><rect class="cls-7" x="6.06" y="72.72" width="6.06" height="6.06"/><rect class="cls-7" x="6.06" y="66.66" width="6.06" height="6.06"/><rect class="cls-1" x="6.06" y="60.6" width="6.06" height="6.06"/><rect class="cls-1" y="103.03" width="6.06" height="6.06"/><rect class="cls-1" y="96.97" width="6.06" height="6.06"/><rect class="cls-1" y="90.9" width="6.06" height="6.07"/><rect class="cls-1" y="84.84" width="6.06" height="6.06"/><rect class="cls-1" y="72.72" width="6.06" height="6.06"/><rect class="cls-1" y="66.66" width="6.06" height="6.06"/></g></g></svg>