<svg xmlns="http://www.w3.org/2000/svg" viewBox="0 0 137 146.78"><defs><style>.cls-1{fill:#595958;}.cls-2{fill:#7f7e78;}.cls-3{fill:#5e5a58;}.cls-4{fill:#606060;}.cls-5{fill:#5e5951;}.cls-6{fill:#38322b;}.cls-7{fill:#5e5c53;}.cls-8{fill:#605b53;}.cls-9{fill:#565342;}.cls-10{fill:#2d2015;}.cls-11{fill:#605f5a;}.cls-12{fill:#6d6a5c;}.cls-13{fill:#72685a;}.cls-14{fill:#ef9d3a;}.cls-15{fill:#d8792b;}.cls-16{fill:#777065;}.cls-17{fill:#ed8900;}.cls-18{fill:#efb745;}.cls-19{fill:#7a766e;}.cls-20{fill:#3a3024;}.cls-21{fill:#776b55;}.cls-22{fill:#6b685d;}.cls-23{fill:#72716b;}.cls-24{fill:#5e5b4f;}.cls-25{fill:#66624f;}.cls-26{fill:#5e5343;}.cls-27{fill:#281f19;}.cls-28{fill:#5b5651;}.cls-29{fill:#5b5654;}.cls-30{fill:#6d6a69;}.cls-31{fill:#56554f;}.cls-32{fill:#514d4b;}.cls-33{fill:#423d3b;}.cls-34{fill:#6d6c68;}.cls-35{fill:#211f1c;}</style></defs><g id="Layer_2" data-name="Layer 2"><g id="Layer_3" data-name="Layer 3"><rect class="cls-1" x="127.21" y="24.47" width="4.89" height="4.89"/><rect class="cls-2" x="127.21" y="53.82" width="4.89" height="4.89"/><rect class="cls-2" x="122.32" y="58.72" width="4.89" height="4.89"/><rect class="cls-1" x="122.32" y="24.47" width="4.89" height="4.89"/><polygon class="cls-3" points="127.21 68.5 122.31 68.5 122.31 73.39 127.21 73.39 127.21 78.28 132.1 78.28 132.1 73.39 132.1 68.5 127.21 68.5"/><rect class="cls-3" x="117.42" y="73.39" width="4.89" height="4.89"/><rect class="cls-1" x="117.42" y="24.47" width="4.89" height="4.89"/><rect class="cls-1" x="112.53" y="19.58" width="4.89" height="4.89"/><rect class="cls-1" x="107.64" y="19.58" width="4.89" height="4.89"/><rect class="cls-1" x="102.75" y="19.58" width="4.89" height="4.89"/><rect class="cls-4" x="97.85" y="88.07" width="4.89" height="4.9"/><rect class="cls-5" x="97.85" y="63.61" width="4.89" height="4.89"/><rect class="cls-6" x="97.85" y="58.72" width="4.89" height="4.89"/><rect class="cls-7" x="97.85" y="53.82" width="4.89" height="4.89"/><rect class="cls-1" x="97.85" y="24.47" width="4.89" height="4.89"/><rect class="cls-1" x="97.85" y="19.58" width="4.89" height="4.89"/><rect class="cls-8" x="92.96" y="73.39" width="4.89" height="4.89"/><rect class="cls-8" x="92.96" y="68.5" width="4.89" height="4.89"/><rect class="cls-9" x="92.96" y="58.72" width="4.89" height="4.89"/><rect class="cls-7" x="92.96" y="53.82" width="4.89" height="4.89"/><rect class="cls-7" x="92.96" y="48.93" width="4.89" height="4.89"/><rect class="cls-10" x="88.07" y="73.39" width="4.89" height="4.89"/><rect class="cls-8" x="88.07" y="68.5" width="4.89" height="4.89"/><rect class="cls-9" x="88.07" y="53.82" width="4.89" height="4.89"/><rect class="cls-7" x="88.07" y="48.93" width="4.89" height="4.89"/><polygon class="cls-11" points="102.75 44.04 97.85 44.04 97.85 39.15 92.96 39.15 92.96 44.04 88.07 44.04 88.07 48.93 92.96 48.93 97.85 48.93 97.85 53.82 102.75 53.82 107.64 53.82 107.64 48.93 107.64 44.04 102.75 44.04"/><rect class="cls-12" x="88.07" y="24.47" width="4.89" height="4.89"/><rect class="cls-12" x="88.07" y="19.58" width="4.89" height="4.89"/><rect class="cls-12" x="88.07" y="14.68" width="4.89" height="4.89"/><rect class="cls-13" x="83.18" y="24.47" width="4.89" height="4.89"/><rect class="cls-14" x="83.18" y="19.58" width="4.89" height="4.89"/><rect class="cls-15" x="78.28" y="68.5" width="4.89" height="4.89"/><rect class="cls-14" x="78.28" y="63.61" width="4.89" height="4.89"/><rect class="cls-16" x="78.28" y="24.47" width="4.89" height="4.89"/><rect class="cls-13" x="78.28" y="19.58" width="4.89" height="4.89"/><rect class="cls-15" x="73.39" y="73.39" width="4.89" height="4.89"/><rect class="cls-17" x="73.39" y="68.5" width="4.89" height="4.89"/><rect class="cls-18" x="73.39" y="63.61" width="4.89" height="4.89"/><rect class="cls-18" x="68.5" y="68.5" width="4.89" height="4.89"/><rect class="cls-16" x="68.5" y="24.47" width="4.89" height="4.89"/><rect class="cls-13" x="68.5" y="19.58" width="4.89" height="4.89"/><polygon class="cls-19" points="78.28 9.79 73.39 9.79 68.5 9.79 68.5 14.69 73.39 14.69 73.39 19.58 73.39 24.47 73.39 29.36 78.28 29.36 78.28 24.47 78.28 19.58 78.28 14.69 83.18 14.69 83.18 9.79 78.28 9.79"/><polygon class="cls-20" points="83.18 63.61 83.18 68.5 83.18 73.39 88.07 73.39 88.07 68.5 88.07 63.61 83.18 63.61"/><rect class="cls-20" x="78.28" y="73.39" width="4.89" height="4.89"/><polygon class="cls-20" points="83.18 63.61 83.18 58.72 78.28 58.72 73.39 58.72 73.39 63.61 78.28 63.61 83.18 63.61"/><rect class="cls-20" x="73.39" y="78.28" width="4.89" height="4.89"/><rect class="cls-20" x="68.5" y="73.39" width="4.89" height="4.89"/><rect class="cls-20" x="68.5" y="63.61" width="4.89" height="4.89"/><rect class="cls-20" x="63.61" y="68.5" width="4.89" height="4.89"/><polygon class="cls-21" points="83.18 73.39 83.18 78.28 78.28 78.28 78.28 83.18 83.18 83.18 88.07 83.18 88.07 78.28 88.07 73.39 83.18 73.39"/><polygon class="cls-21" points="83.18 58.72 83.18 53.82 78.28 53.82 73.39 53.82 68.5 53.82 68.5 58.72 63.61 58.72 63.61 63.61 63.61 68.5 68.5 68.5 68.5 63.61 73.39 63.61 73.39 58.72 78.28 58.72 83.18 58.72"/><polygon class="cls-21" points="68.5 73.39 63.61 73.39 63.61 78.28 63.61 83.18 68.5 83.18 73.39 83.18 73.39 78.28 68.5 78.28 68.5 73.39"/><rect class="cls-22" x="63.61" y="48.93" width="4.89" height="4.89"/><rect class="cls-23" x="83.18" y="29.36" width="4.89" height="4.89"/><polygon class="cls-23" points="83.18 4.89 78.28 4.89 73.39 4.89 68.5 4.89 68.5 9.79 73.39 9.79 78.28 9.79 83.18 9.79 88.07 9.79 88.07 4.89 83.18 4.89"/><rect class="cls-23" x="63.61" y="29.36" width="4.89" height="4.89"/><rect class="cls-13" x="63.61" y="24.47" width="4.89" height="4.89"/><rect class="cls-14" x="63.61" y="19.58" width="4.89" height="4.89"/><polygon class="cls-24" points="83.18 88.07 78.28 88.07 73.39 88.07 73.39 92.97 78.28 92.97 83.18 92.97 88.07 92.97 88.07 88.07 83.18 88.07"/><polygon class="cls-24" points="68.5 88.07 63.61 88.07 63.61 92.97 63.61 97.86 68.5 97.86 73.39 97.86 73.39 92.97 68.5 92.97 68.5 88.07"/><rect class="cls-24" x="58.72" y="83.18" width="4.89" height="4.89"/><polygon class="cls-25" points="83.18 83.18 78.28 83.18 73.39 83.18 68.5 83.18 63.61 83.18 63.61 88.07 68.5 88.07 68.5 92.97 73.39 92.97 73.39 88.07 78.28 88.07 83.18 88.07 88.07 88.07 88.07 83.18 83.18 83.18"/><polygon class="cls-25" points="78.28 53.82 83.18 53.82 83.18 48.93 78.28 48.93 73.39 48.93 68.5 48.93 68.5 53.82 73.39 53.82 78.28 53.82"/><polygon class="cls-25" points="68.5 58.72 68.5 53.82 63.61 53.82 58.72 53.82 58.72 58.72 63.61 58.72 68.5 58.72"/><rect class="cls-25" x="58.72" y="78.28" width="4.89" height="4.89"/><rect class="cls-22" x="58.72" y="48.93" width="4.89" height="4.89"/><rect class="cls-12" x="58.72" y="24.47" width="4.89" height="4.89"/><rect class="cls-12" x="58.72" y="19.58" width="4.89" height="4.89"/><rect class="cls-12" x="58.72" y="14.68" width="4.89" height="4.89"/><polygon class="cls-26" points="88.07 58.72 83.18 58.72 83.18 63.61 88.07 63.61 92.96 63.61 92.96 58.72 88.07 58.72"/><polygon class="cls-26" points="53.81 68.5 53.81 73.39 53.81 78.28 58.72 78.28 58.72 73.39 63.61 73.39 63.61 68.5 58.72 68.5 53.81 68.5"/><polygon class="cls-27" points="92.96 63.61 88.07 63.61 88.07 68.5 92.96 68.5 97.85 68.5 97.85 63.61 92.96 63.61"/><rect class="cls-27" x="88.07" y="78.28" width="4.89" height="4.89"/><rect class="cls-27" x="83.18" y="53.82" width="4.89" height="4.89"/><rect class="cls-27" x="58.72" y="73.39" width="4.89" height="4.89"/><rect class="cls-27" x="53.82" y="78.28" width="4.9" height="4.89"/><polygon class="cls-27" points="53.81 63.61 53.81 68.5 58.72 68.5 63.61 68.5 63.61 63.61 58.72 63.61 53.81 63.61"/><rect class="cls-22" x="53.82" y="53.82" width="4.9" height="4.89"/><rect class="cls-22" x="53.82" y="48.93" width="4.9" height="4.89"/><polygon class="cls-28" points="48.92 63.61 48.92 68.5 48.92 73.39 48.92 78.28 53.81 78.28 53.81 73.39 53.81 68.5 53.81 63.61 48.92 63.61"/><polygon class="cls-29" points="102.75 63.61 102.75 68.5 97.85 68.5 97.85 73.39 97.85 78.28 92.96 78.28 92.96 83.18 92.96 88.07 97.85 88.07 102.75 88.07 102.75 83.18 102.75 78.28 107.64 78.28 107.64 73.39 107.64 68.5 107.64 63.61 102.75 63.61"/><polygon class="cls-29" points="58.72 127.22 53.81 127.22 53.81 132.11 48.92 132.11 44.03 132.11 39.14 132.11 39.14 127.22 34.25 127.22 34.25 132.11 29.35 132.11 29.35 137 34.25 137 39.14 137 44.03 137 48.92 137 53.81 137 58.72 137 58.72 132.11 63.61 132.11 63.61 127.22 63.61 122.32 58.72 122.32 58.72 127.22"/><polygon class="cls-29" points="29.35 39.15 34.25 39.15 39.14 39.15 44.03 39.15 48.92 39.15 53.81 39.15 53.81 34.25 53.81 29.36 48.92 29.36 48.92 24.47 44.03 24.47 39.14 24.47 34.25 24.47 34.25 29.36 29.35 29.36 24.46 29.36 24.46 34.25 29.35 34.25 29.35 39.15"/><polygon class="cls-30" points="48.92 19.58 44.03 19.58 39.14 19.58 34.25 19.58 34.25 24.47 39.14 24.47 44.03 24.47 48.92 24.47 48.92 29.36 53.81 29.36 53.81 24.47 53.81 19.58 48.92 19.58"/><polygon class="cls-30" points="24.46 24.47 19.57 24.47 19.57 29.36 24.46 29.36 29.35 29.36 34.25 29.36 34.25 24.47 29.35 24.47 24.46 24.47"/><polygon class="cls-31" points="102.75 112.54 102.75 117.43 97.85 117.43 97.85 122.32 102.75 122.32 107.64 122.32 107.64 117.43 107.64 112.54 102.75 112.54"/><polygon class="cls-31" points="102.75 112.54 102.75 107.65 102.75 102.75 97.85 102.75 97.85 107.65 92.96 107.65 88.07 107.65 83.18 107.65 83.18 112.54 88.07 112.54 88.07 117.43 92.96 117.43 97.85 117.43 97.85 112.54 102.75 112.54"/><polygon class="cls-31" points="83.18 97.86 78.28 97.86 78.28 102.75 73.39 102.75 73.39 107.65 78.28 107.65 83.18 107.65 83.18 102.75 83.18 97.86"/><rect class="cls-31" x="73.39" y="92.97" width="4.89" height="4.89"/><polygon class="cls-31" points="53.81 88.07 53.81 92.97 58.72 92.97 58.72 97.86 63.61 97.86 63.61 92.97 63.61 88.07 58.72 88.07 53.81 88.07"/><polygon class="cls-31" points="53.81 58.72 53.81 63.61 58.72 63.61 63.61 63.61 63.61 58.72 58.72 58.72 53.81 58.72"/><rect class="cls-31" x="48.92" y="53.82" width="4.89" height="4.89"/><polygon class="cls-31" points="44.03 122.32 44.03 127.22 48.92 127.22 53.81 127.22 53.81 122.32 48.92 122.32 44.03 122.32"/><rect class="cls-31" x="29.35" y="53.82" width="4.89" height="4.89"/><polygon class="cls-31" points="19.57 58.72 19.57 63.61 24.46 63.61 29.35 63.61 29.35 58.72 24.46 58.72 19.57 58.72"/><polygon class="cls-31" points="9.79 63.61 9.79 68.5 14.68 68.5 19.57 68.5 19.57 63.61 14.68 63.61 9.79 63.61"/><polygon class="cls-32" points="127.21 29.36 122.31 29.36 117.42 29.36 117.42 24.47 112.53 24.47 107.64 24.47 102.75 24.47 102.75 29.36 97.85 29.36 97.85 34.25 97.85 39.15 102.75 39.15 107.64 39.15 112.53 39.15 112.53 44.04 117.42 44.04 122.31 44.04 122.31 39.15 127.21 39.15 127.21 34.25 132.1 34.25 132.1 29.36 127.21 29.36"/><polygon class="cls-32" points="127.21 73.39 122.31 73.39 122.31 78.28 117.42 78.28 112.53 78.28 107.64 78.28 107.64 83.18 107.64 88.07 112.53 88.07 112.53 92.97 117.42 92.97 122.31 92.97 122.31 88.07 127.21 88.07 132.1 88.07 132.1 83.18 132.1 78.28 127.21 78.28 127.21 73.39"/><polygon class="cls-32" points="107.64 132.11 102.75 132.11 102.75 127.22 97.85 127.22 97.85 122.32 92.96 122.32 88.07 122.32 88.07 127.22 88.07 132.11 92.96 132.11 92.96 137 97.85 137 102.75 137 107.64 137 112.53 137 117.42 137 117.42 132.11 112.53 132.11 107.64 132.11"/><rect class="cls-32" x="68.5" y="97.86" width="4.89" height="4.89"/><polygon class="cls-32" points="58.72 97.86 53.81 97.86 48.92 97.86 48.92 102.75 48.92 107.65 53.81 107.65 53.81 112.54 58.72 112.54 58.72 107.65 63.61 107.65 63.61 102.75 58.72 102.75 58.72 97.86"/><polygon class="cls-32" points="14.68 78.28 9.79 78.28 9.79 73.39 4.89 73.39 4.89 78.28 4.89 83.18 9.79 83.18 9.79 88.07 14.68 88.07 14.68 92.97 19.57 92.97 19.57 88.07 24.46 88.07 24.46 83.18 24.46 78.28 19.57 78.28 14.68 78.28"/><polygon class="cls-33" points="127.21 34.25 127.21 39.15 122.31 39.15 122.31 44.04 117.42 44.04 112.53 44.04 112.53 48.93 117.42 48.93 122.31 48.93 127.21 48.93 132.1 48.93 132.1 44.04 132.1 39.15 132.1 34.25 127.21 34.25"/><polygon class="cls-33" points="122.31 88.07 122.31 92.97 127.21 92.97 132.1 92.97 132.1 88.07 127.21 88.07 122.31 88.07"/><polygon class="cls-33" points="112.53 92.97 112.53 97.86 117.42 97.86 122.31 97.86 122.31 92.97 117.42 92.97 112.53 92.97"/><rect class="cls-33" x="107.64" y="88.07" width="4.89" height="4.9"/><rect class="cls-33" x="107.64" y="39.15" width="4.89" height="4.89"/><polygon class="cls-33" points="102.75 137 97.85 137 97.85 141.89 102.75 141.89 107.64 141.89 112.53 141.89 112.53 137 107.64 137 102.75 137"/><rect class="cls-33" x="88.07" y="132.11" width="4.89" height="4.89"/><rect class="cls-33" x="83.18" y="127.22" width="4.89" height="4.89"/><rect class="cls-33" x="63.61" y="102.75" width="4.89" height="4.89"/><rect class="cls-33" x="58.72" y="132.11" width="4.89" height="4.89"/><rect class="cls-33" x="58.72" y="107.65" width="4.89" height="4.89"/><rect class="cls-33" x="53.82" y="112.54" width="4.9" height="4.89"/><polygon class="cls-33" points="48.92 137 44.03 137 39.14 137 34.25 137 34.25 141.89 39.14 141.89 44.03 141.89 48.92 141.89 53.81 141.89 58.72 141.89 58.72 137 53.81 137 48.92 137"/><polygon class="cls-33" points="48.92 107.65 44.03 107.65 44.03 112.54 48.92 112.54 53.81 112.54 53.81 107.65 48.92 107.65"/><polygon class="cls-33" points="39.14 44.04 44.03 44.04 44.03 39.15 39.14 39.15 34.25 39.15 29.35 39.15 29.35 34.25 24.46 34.25 24.46 29.36 19.57 29.36 19.57 34.25 19.57 39.15 24.46 39.15 24.46 44.04 29.35 44.04 34.25 44.04 39.14 44.04"/><rect class="cls-33" x="24.46" y="83.18" width="4.89" height="4.89"/><polygon class="cls-33" points="19.57 92.97 14.68 92.97 14.68 97.86 19.57 97.86 24.46 97.86 24.46 92.97 24.46 88.07 19.57 88.07 19.57 92.97"/><rect class="cls-33" x="9.78" y="88.07" width="4.89" height="4.9"/><polygon class="cls-33" points="14.68 78.28 19.57 78.28 19.57 73.39 14.68 73.39 9.79 73.39 9.79 78.28 14.68 78.28"/><rect class="cls-33" x="4.89" y="68.5" width="4.89" height="4.89"/><polygon class="cls-34" points="122.31 53.82 117.42 53.82 117.42 58.72 117.42 63.61 122.31 63.61 122.31 58.72 127.21 58.72 127.21 53.82 122.31 53.82"/><polygon class="cls-34" points="107.64 117.43 107.64 122.32 107.64 127.22 112.53 127.22 112.53 122.32 112.53 117.43 112.53 112.54 107.64 112.54 107.64 117.43"/><polygon class="cls-34" points="97.85 92.97 92.96 92.97 88.07 92.97 88.07 97.86 83.18 97.86 83.18 102.75 83.18 107.65 88.07 107.65 92.96 107.65 97.85 107.65 97.85 102.75 102.75 102.75 102.75 97.86 97.85 97.86 97.85 92.97"/><polygon class="cls-34" points="88.07 39.15 92.96 39.15 92.96 34.25 92.96 29.36 88.07 29.36 88.07 34.25 83.18 34.25 83.18 39.15 83.18 44.04 88.07 44.04 88.07 39.15"/><rect class="cls-34" x="63.61" y="4.89" width="4.89" height="4.89"/><polygon class="cls-34" points="63.61 29.36 58.72 29.36 58.72 34.25 58.72 39.15 63.61 39.15 63.61 44.04 68.5 44.04 68.5 39.15 68.5 34.25 63.61 34.25 63.61 29.36"/><rect class="cls-34" x="53.82" y="83.18" width="4.9" height="4.89"/><polygon class="cls-34" points="58.72 39.15 53.81 39.15 53.81 44.04 48.92 44.04 48.92 48.93 48.92 53.82 53.81 53.82 53.81 48.93 58.72 48.93 63.61 48.93 63.61 44.04 58.72 44.04 58.72 39.15"/><polygon class="cls-34" points="44.03 117.43 44.03 122.32 48.92 122.32 53.81 122.32 53.81 117.43 48.92 117.43 44.03 117.43"/><polygon class="cls-34" points="24.46 48.93 24.46 44.04 19.57 44.04 19.57 48.93 14.68 48.93 9.79 48.93 9.79 53.82 4.89 53.82 4.89 58.72 4.89 63.61 9.79 63.61 14.68 63.61 19.57 63.61 19.57 58.72 24.46 58.72 29.35 58.72 29.35 53.82 34.25 53.82 34.25 48.93 29.35 48.93 24.46 48.93"/><rect class="cls-35" x="132.1" y="53.82" width="4.9" height="4.89"/><polygon class="cls-35" points="132.1 24.47 132.1 29.36 132.1 34.25 132.1 39.15 132.1 44.04 132.1 48.93 137 48.93 137 44.04 137 39.15 137 34.25 137 29.36 137 24.47 132.1 24.47"/><polygon class="cls-35" points="127.21 63.61 122.31 63.61 117.42 63.61 117.42 68.5 117.42 73.39 122.31 73.39 122.31 68.5 127.21 68.5 132.1 68.5 132.1 73.39 132.1 78.28 132.1 83.18 132.1 88.07 132.1 92.97 137 92.97 137 88.07 137 83.18 137 78.28 137 73.39 137 68.5 137 63.61 132.1 63.61 132.1 58.72 127.21 58.72 127.21 63.61"/><polygon class="cls-35" points="122.31 92.97 122.31 97.86 127.21 97.86 132.1 97.86 132.1 92.97 127.21 92.97 122.31 92.97"/><polygon class="cls-35" points="122.31 48.93 117.42 48.93 112.53 48.93 112.53 44.04 107.64 44.04 107.64 48.93 107.64 53.82 112.53 53.82 112.53 58.72 112.53 63.61 117.42 63.61 117.42 58.72 117.42 53.82 122.31 53.82 127.21 53.82 132.1 53.82 132.1 48.93 127.21 48.93 122.31 48.93"/><polygon class="cls-35" points="122.31 24.47 127.21 24.47 132.1 24.47 132.1 19.58 127.21 19.58 122.31 19.58 117.42 19.58 117.42 24.47 122.31 24.47"/><polygon class="cls-35" points="112.53 122.32 112.53 127.22 107.64 127.22 107.64 122.32 102.75 122.32 97.85 122.32 97.85 127.22 102.75 127.22 102.75 132.11 107.64 132.11 112.53 132.11 117.42 132.11 117.42 137 112.53 137 112.53 141.89 107.64 141.89 102.75 141.89 97.85 141.89 97.85 137 92.96 137 88.07 137 88.07 132.11 83.18 132.11 83.18 127.22 88.07 127.22 88.07 122.32 92.96 122.32 97.85 122.32 97.85 117.43 92.96 117.43 88.07 117.43 88.07 112.54 83.18 112.54 83.18 107.65 78.28 107.65 73.39 107.65 73.39 102.75 68.5 102.75 68.5 107.65 63.61 107.65 63.61 112.54 68.5 112.54 73.39 112.54 78.28 112.54 78.28 117.43 83.18 117.43 83.18 122.32 78.28 122.32 78.28 127.22 78.28 132.11 78.28 137 83.18 137 83.18 141.89 88.07 141.89 92.96 141.89 92.96 146.78 97.85 146.78 102.75 146.78 107.64 146.78 112.53 146.78 117.42 146.78 117.42 141.89 122.31 141.89 122.31 137 122.31 132.11 122.31 127.22 117.42 127.22 117.42 122.32 117.42 117.43 117.42 112.54 112.53 112.54 112.53 117.43 112.53 122.32"/><polygon class="cls-35" points="112.53 97.86 112.53 102.75 117.42 102.75 122.31 102.75 122.31 97.86 117.42 97.86 112.53 97.86"/><polygon class="cls-35" points="107.64 92.97 107.64 88.07 107.64 83.18 107.64 78.28 102.75 78.28 102.75 83.18 102.75 88.07 102.75 92.97 97.85 92.97 97.85 97.86 102.75 97.86 102.75 102.75 102.75 107.65 102.75 112.54 107.64 112.54 112.53 112.54 112.53 107.65 107.64 107.65 107.64 102.75 107.64 97.86 112.53 97.86 112.53 92.97 107.64 92.97"/><polygon class="cls-35" points="107.64 68.5 107.64 73.39 107.64 78.28 112.53 78.28 117.42 78.28 117.42 73.39 112.53 73.39 112.53 68.5 112.53 63.61 107.64 63.61 107.64 68.5"/><polygon class="cls-35" points="102.75 58.72 102.75 63.61 107.64 63.61 107.64 58.72 107.64 53.82 102.75 53.82 102.75 58.72"/><rect class="cls-35" x="97.85" y="112.54" width="4.89" height="4.89"/><polygon class="cls-35" points="102.75 44.04 107.64 44.04 107.64 39.15 102.75 39.15 97.85 39.15 97.85 44.04 102.75 44.04"/><polygon class="cls-35" points="92.96 88.07 92.96 83.18 88.07 83.18 88.07 88.07 88.07 92.97 92.96 92.97 97.85 92.97 97.85 88.07 92.96 88.07"/><rect class="cls-35" x="88.07" y="39.15" width="4.89" height="4.89"/><polygon class="cls-35" points="88.07 97.86 88.07 92.97 83.18 92.97 78.28 92.97 78.28 97.86 83.18 97.86 88.07 97.86"/><polygon class="cls-35" points="83.18 9.79 83.18 14.69 78.28 14.69 78.28 19.58 83.18 19.58 88.07 19.58 88.07 14.69 92.96 14.69 92.96 19.58 92.96 24.47 92.96 29.36 92.96 34.25 92.96 39.15 97.85 39.15 97.85 34.25 97.85 29.36 97.85 24.47 97.85 19.58 102.75 19.58 107.64 19.58 112.53 19.58 117.42 19.58 117.42 14.69 112.53 14.69 107.64 14.69 102.75 14.69 97.85 14.69 97.85 9.79 97.85 4.89 92.96 4.89 88.07 4.89 88.07 9.79 83.18 9.79"/><polygon class="cls-35" points="83.18 39.15 83.18 34.25 83.18 29.36 78.28 29.36 73.39 29.36 68.5 29.36 68.5 34.25 68.5 39.15 68.5 44.04 63.61 44.04 63.61 48.93 68.5 48.93 73.39 48.93 78.28 48.93 83.18 48.93 83.18 53.82 88.07 53.82 88.07 48.93 88.07 44.04 83.18 44.04 83.18 39.15"/><rect class="cls-35" x="73.39" y="97.86" width="4.89" height="4.89"/><polygon class="cls-35" points="73.39 4.89 78.28 4.89 83.18 4.89 88.07 4.89 88.07 0 83.18 0 78.28 0 73.39 0 68.5 0 63.61 0 63.61 4.89 68.5 4.89 73.39 4.89"/><polygon class="cls-35" points="63.61 132.11 63.61 137 58.72 137 58.72 141.89 53.81 141.89 48.92 141.89 44.03 141.89 39.14 141.89 34.25 141.89 34.25 137 29.35 137 29.35 132.11 24.46 132.11 24.46 137 24.46 141.89 29.35 141.89 29.35 146.78 34.25 146.78 39.14 146.78 44.03 146.78 48.92 146.78 53.81 146.78 58.72 146.78 63.61 146.78 63.61 141.89 68.5 141.89 68.5 137 68.5 132.11 68.5 127.22 68.5 122.32 63.61 122.32 63.61 127.22 63.61 132.11"/><polygon class="cls-35" points="63.61 97.86 58.72 97.86 58.72 102.75 63.61 102.75 68.5 102.75 68.5 97.86 63.61 97.86"/><polygon class="cls-35" points="58.72 117.43 53.81 117.43 53.81 122.32 53.81 127.22 58.72 127.22 58.72 122.32 63.61 122.32 63.61 117.43 63.61 112.54 58.72 112.54 58.72 117.43"/><rect class="cls-35" x="58.72" y="39.15" width="4.89" height="4.89"/><polygon class="cls-35" points="58.72 97.86 58.72 92.97 53.81 92.97 53.81 88.07 53.81 83.18 53.81 78.28 48.92 78.28 48.92 83.18 48.92 88.07 48.92 92.97 48.92 97.86 53.81 97.86 58.72 97.86"/><rect class="cls-35" x="48.92" y="58.72" width="4.89" height="4.89"/><polygon class="cls-35" points="48.92 102.75 48.92 97.86 44.03 97.86 44.03 102.75 44.03 107.65 48.92 107.65 48.92 102.75"/><polygon class="cls-35" points="48.92 68.5 48.92 63.61 44.03 63.61 44.03 68.5 44.03 73.39 44.03 78.28 48.92 78.28 48.92 73.39 48.92 68.5"/><polygon class="cls-35" points="48.92 48.93 48.92 44.04 53.81 44.04 53.81 39.15 48.92 39.15 44.03 39.15 44.03 44.04 39.14 44.04 34.25 44.04 29.35 44.04 24.46 44.04 24.46 48.93 29.35 48.93 34.25 48.93 34.25 53.82 34.25 58.72 39.14 58.72 39.14 53.82 39.14 48.93 44.03 48.93 44.03 53.82 44.03 58.72 48.92 58.72 48.92 53.82 48.92 48.93"/><polygon class="cls-35" points="39.14 132.11 44.03 132.11 48.92 132.11 53.81 132.11 53.81 127.22 48.92 127.22 44.03 127.22 44.03 122.32 44.03 117.43 48.92 117.43 53.81 117.43 53.81 112.54 48.92 112.54 44.03 112.54 44.03 107.65 39.14 107.65 39.14 112.54 39.14 117.43 39.14 122.32 34.25 122.32 34.25 127.22 39.14 127.22 39.14 132.11"/><polygon class="cls-35" points="44.03 19.58 48.92 19.58 53.81 19.58 53.81 24.47 53.81 29.36 53.81 34.25 53.81 39.15 58.72 39.15 58.72 34.25 58.72 29.36 58.72 24.47 58.72 19.58 58.72 14.69 63.61 14.69 63.61 19.58 68.5 19.58 73.39 19.58 73.39 14.69 68.5 14.69 68.5 9.79 63.61 9.79 63.61 4.89 58.72 4.89 53.81 4.89 53.81 9.79 53.81 14.69 48.92 14.69 44.03 14.69 39.14 14.69 34.25 14.69 34.25 19.58 39.14 19.58 44.03 19.58"/><rect class="cls-35" x="29.35" y="127.22" width="4.89" height="4.89"/><rect class="cls-35" x="29.35" y="58.72" width="4.89" height="4.89"/><polygon class="cls-35" points="29.35 24.47 34.25 24.47 34.25 19.58 29.35 19.58 24.46 19.58 19.57 19.58 19.57 24.47 24.46 24.47 29.35 24.47"/><polygon class="cls-35" points="24.46 78.28 24.46 83.18 29.35 83.18 29.35 88.07 24.46 88.07 24.46 92.97 24.46 97.86 29.35 97.86 29.35 92.97 34.25 92.97 34.25 88.07 34.25 83.18 34.25 78.28 29.35 78.28 29.35 73.39 24.46 73.39 19.57 73.39 19.57 78.28 24.46 78.28"/><polygon class="cls-35" points="19.57 63.61 19.57 68.5 24.46 68.5 29.35 68.5 29.35 63.61 24.46 63.61 19.57 63.61"/><polygon class="cls-35" points="14.68 97.86 14.68 102.75 19.57 102.75 24.46 102.75 24.46 97.86 19.57 97.86 14.68 97.86"/><polygon class="cls-35" points="19.57 48.93 19.57 44.04 24.46 44.04 24.46 39.15 19.57 39.15 19.57 34.25 19.57 29.36 19.57 24.47 14.68 24.47 14.68 29.36 14.68 34.25 14.68 39.15 14.68 44.04 9.79 44.04 9.79 48.93 14.68 48.93 19.57 48.93"/><polygon class="cls-35" points="9.79 92.97 9.79 88.07 9.79 83.18 4.89 83.18 4.89 78.28 4.89 73.39 4.89 68.5 0 68.5 0 73.39 0 78.28 0 83.18 0 88.07 4.89 88.07 4.89 92.97 4.89 97.86 9.79 97.86 14.68 97.86 14.68 92.97 9.79 92.97"/><polygon class="cls-35" points="9.79 68.5 9.79 73.39 14.68 73.39 19.57 73.39 19.57 68.5 14.68 68.5 9.79 68.5"/><rect class="cls-35" x="4.89" y="63.61" width="4.89" height="4.89"/><rect class="cls-35" x="4.89" y="48.93" width="4.89" height="4.89"/><polygon class="cls-35" points="4.89 53.82 0 53.82 0 58.72 0 63.61 4.89 63.61 4.89 58.72 4.89 53.82"/></g></g></svg>