<svg xmlns="http://www.w3.org/2000/svg" viewBox="0 0 94.12 94.12"><defs><style>.cls-1{fill:#211f1c;}.cls-2{fill:#7e8691;}.cls-3{fill:#aeb5c4;}.cls-4{fill:#e2e4e8;}.cls-5{fill:#845191;}</style></defs><g id="Layer_2" data-name="Layer 2"><g id="Layer_1-2" data-name="Layer 1"><rect class="cls-1" x="88.24" y="23.53" width="5.88" height="5.89"/><rect class="cls-1" x="88.24" y="5.89" width="5.88" height="5.88"/><rect class="cls-1" x="82.35" y="41.18" width="5.89" height="5.88"/><rect class="cls-1" x="82.35" y="29.42" width="5.89" height="5.88"/><rect class="cls-2" x="82.35" y="23.53" width="5.89" height="5.89"/><rect class="cls-1" x="82.35" y="17.65" width="5.89" height="5.88"/><rect class="cls-1" x="82.35" y="11.77" width="5.89" height="5.88"/><rect class="cls-1" x="76.47" y="35.3" width="5.88" height="5.88"/><rect class="cls-2" x="76.47" y="29.42" width="5.88" height="5.88"/><rect class="cls-2" x="76.47" y="23.53" width="5.88" height="5.89"/><rect class="cls-3" x="76.47" y="17.65" width="5.88" height="5.88"/><rect class="cls-3" x="76.47" y="11.77" width="5.88" height="5.88"/><rect class="cls-1" x="76.47" y="5.89" width="5.88" height="5.88"/><rect class="cls-1" x="76.47" width="5.88" height="5.89"/><rect class="cls-1" x="70.59" y="35.3" width="5.88" height="5.88"/><rect class="cls-2" x="70.59" y="29.42" width="5.88" height="5.88"/><rect class="cls-4" x="70.59" y="23.53" width="5.88" height="5.89"/><rect class="cls-2" x="70.59" y="17.65" width="5.88" height="5.88"/><rect class="cls-3" x="70.59" y="11.77" width="5.88" height="5.88"/><rect class="cls-1" x="70.59" y="5.89" width="5.88" height="5.88"/><rect class="cls-1" x="64.71" y="41.18" width="5.88" height="5.88"/><rect class="cls-4" x="64.71" y="35.3" width="5.88" height="5.88"/><rect class="cls-3" x="64.71" y="29.42" width="5.88" height="5.88"/><rect class="cls-2" x="64.71" y="23.53" width="5.88" height="5.89"/><rect class="cls-3" x="64.71" y="17.65" width="5.88" height="5.88"/><rect class="cls-4" x="64.71" y="11.77" width="5.88" height="5.88"/><rect class="cls-1" x="64.71" y="5.89" width="5.88" height="5.88"/><rect class="cls-1" x="58.82" y="35.3" width="5.89" height="5.88"/><rect class="cls-3" x="58.82" y="29.42" width="5.89" height="5.88"/><rect class="cls-4" x="58.82" y="23.53" width="5.89" height="5.89"/><rect class="cls-4" x="58.82" y="17.65" width="5.89" height="5.88"/><rect class="cls-2" x="58.82" y="11.77" width="5.89" height="5.88"/><rect class="cls-1" x="58.82" y="5.89" width="5.89" height="5.88"/><rect class="cls-1" x="58.82" width="5.89" height="5.89"/><rect class="cls-1" x="52.94" y="41.18" width="5.88" height="5.88"/><rect class="cls-5" x="52.94" y="35.3" width="5.88" height="5.88"/><rect class="cls-1" x="52.94" y="29.42" width="5.88" height="5.88"/><rect class="cls-4" x="52.94" y="23.53" width="5.88" height="5.89"/><rect class="cls-1" x="52.94" y="17.65" width="5.88" height="5.88"/><rect class="cls-1" x="52.94" y="11.77" width="5.88" height="5.88"/><rect class="cls-1" x="47.06" y="47.06" width="5.88" height="5.89"/><rect class="cls-5" x="47.06" y="41.18" width="5.88" height="5.88"/><rect class="cls-1" x="47.06" y="35.3" width="5.88" height="5.88"/><rect class="cls-1" x="47.06" y="23.53" width="5.88" height="5.89"/><rect class="cls-1" x="47.06" y="5.89" width="5.88" height="5.88"/><rect class="cls-1" x="41.18" y="52.95" width="5.88" height="5.88"/><rect class="cls-5" x="41.18" y="47.06" width="5.88" height="5.89"/><rect class="cls-1" x="41.18" y="41.18" width="5.88" height="5.88"/><rect class="cls-1" x="35.29" y="58.83" width="5.89" height="5.88"/><rect class="cls-5" x="35.29" y="52.95" width="5.89" height="5.88"/><rect class="cls-1" x="35.29" y="47.06" width="5.89" height="5.89"/><rect class="cls-1" x="29.41" y="64.71" width="5.88" height="5.88"/><rect class="cls-5" x="29.41" y="58.83" width="5.88" height="5.88"/><rect class="cls-1" x="29.41" y="52.95" width="5.88" height="5.88"/><rect class="cls-1" x="23.53" y="70.59" width="5.88" height="5.88"/><rect class="cls-5" x="23.53" y="64.71" width="5.88" height="5.88"/><rect class="cls-1" x="23.53" y="58.83" width="5.88" height="5.88"/><rect class="cls-1" x="17.65" y="76.47" width="5.88" height="5.89"/><rect class="cls-5" x="17.65" y="70.59" width="5.88" height="5.88"/><rect class="cls-1" x="17.65" y="64.71" width="5.88" height="5.88"/><rect class="cls-1" x="11.77" y="82.36" width="5.88" height="5.88"/><rect class="cls-5" x="11.77" y="76.47" width="5.88" height="5.89"/><rect class="cls-1" x="11.77" y="70.59" width="5.88" height="5.88"/><rect class="cls-1" x="5.88" y="88.24" width="5.89" height="5.88"/><rect class="cls-3" x="5.88" y="82.36" width="5.89" height="5.88"/><rect class="cls-1" x="5.88" y="76.47" width="5.89" height="5.89"/><rect class="cls-1" y="88.24" width="5.88" height="5.88"/><rect class="cls-1" y="82.36" width="5.88" height="5.88"/></g></g></svg>