<svg xmlns="http://www.w3.org/2000/svg" viewBox="0 0 91.82 73.45"><defs><style>.cls-1{fill:#e8ffe1;}.cls-2{fill:#60b274;}.cls-3{fill:#77d97e;}.cls-4{fill:#c0edb4;}.cls-5{fill:#a2d394;}.cls-6{fill:#211f1c;}</style></defs><g id="Layer_2" data-name="Layer 2"><g id="Layer_1-2" data-name="Layer 1"><rect class="cls-1" x="32.14" y="13.78" width="4.59" height="4.59"/><path class="cls-2" d="M73.45,50.5V45.91H68.86V41.32H64.27V36.73H36.73v4.59H27.55v4.59H18.37v9.18h-4.6v4.59H32.14v4.59h23V59.68H73.45V55.09h4.6V50.5ZM55.09,55.09V45.91H45.91v9.18H41.32V45.91h4.59V41.32h9.18v4.59h4.59v9.18Z"/><polygon class="cls-3" points="78.05 22.96 78.05 27.55 73.45 27.55 73.45 32.14 68.86 32.14 68.86 36.73 68.86 41.32 68.86 45.91 73.45 45.91 73.45 50.5 78.05 50.5 82.64 50.5 82.64 45.91 82.64 41.32 82.64 36.73 82.64 32.14 82.64 27.55 82.64 22.96 78.05 22.96"/><polygon class="cls-3" points="73.45 18.37 68.86 18.37 68.86 13.78 64.27 13.78 59.68 13.78 59.68 9.18 55.09 9.18 50.5 9.18 45.91 9.18 41.32 9.18 36.73 9.18 36.73 13.78 41.32 13.78 41.32 18.37 41.32 22.96 36.73 22.96 32.14 22.96 32.14 18.37 27.55 18.37 27.55 22.96 27.55 27.55 32.14 27.55 36.73 27.55 36.73 32.14 41.32 32.14 41.32 36.73 45.91 36.73 50.5 36.73 55.09 36.73 59.68 36.73 59.68 32.14 64.27 32.14 64.27 27.55 68.86 27.55 73.45 27.55 73.45 22.96 73.45 18.37"/><polygon class="cls-3" points="18.37 27.55 18.37 32.14 13.77 32.14 13.77 36.73 13.77 41.32 13.77 45.91 13.77 50.5 9.18 50.5 9.18 55.09 13.77 55.09 18.37 55.09 18.37 50.5 18.37 45.91 22.96 45.91 27.55 45.91 27.55 41.32 32.14 41.32 32.14 36.73 32.14 32.14 27.55 32.14 27.55 27.55 22.96 27.55 18.37 27.55"/><polygon class="cls-4" points="82.64 22.96 82.64 27.55 82.64 32.14 82.64 36.73 82.64 41.32 82.64 45.91 82.64 50.5 87.23 50.5 87.23 45.91 87.23 41.32 87.23 36.73 87.23 32.14 87.23 27.55 87.23 22.96 82.64 22.96"/><polygon class="cls-4" points="82.64 13.78 78.05 13.78 78.05 9.18 78.05 4.59 73.45 4.59 68.86 4.59 64.27 4.59 59.68 4.59 55.09 4.59 50.5 4.59 45.91 4.59 41.32 4.59 36.73 4.59 36.73 9.18 41.32 9.18 45.91 9.18 50.5 9.18 55.09 9.18 59.68 9.18 59.68 13.78 64.27 13.78 68.86 13.78 68.86 18.37 73.45 18.37 73.45 22.96 78.05 22.96 82.64 22.96 82.64 18.37 82.64 13.78"/><polygon class="cls-4" points="32.14 18.37 32.14 22.96 36.73 22.96 41.32 22.96 41.32 18.37 41.32 13.78 36.73 13.78 36.73 18.37 32.14 18.37"/><rect class="cls-4" x="32.14" y="9.18" width="4.59" height="4.6"/><rect class="cls-4" x="27.55" y="13.78" width="4.59" height="4.59"/><rect class="cls-4" x="22.96" y="18.37" width="4.59" height="4.59"/><rect class="cls-4" x="18.37" y="22.96" width="4.59" height="4.59"/><rect class="cls-4" x="13.77" y="27.55" width="4.6" height="4.59"/><polygon class="cls-4" points="9.18 36.73 9.18 41.32 9.18 45.91 13.77 45.91 13.77 41.32 13.77 36.73 13.77 32.14 9.18 32.14 9.18 36.73"/><polygon class="cls-5" points="78.05 50.5 78.05 55.09 73.45 55.09 73.45 59.68 78.05 59.68 82.64 59.68 82.64 55.09 82.64 50.5 78.05 50.5"/><polygon class="cls-5" points="64.27 59.68 59.68 59.68 55.09 59.68 55.09 64.27 59.68 64.27 64.27 64.27 68.86 64.27 73.45 64.27 73.45 59.68 68.86 59.68 64.27 59.68"/><polygon class="cls-5" points="45.91 64.27 41.32 64.27 36.73 64.27 32.14 64.27 32.14 68.86 36.73 68.86 41.32 68.86 45.91 68.86 50.5 68.86 55.09 68.86 55.09 64.27 50.5 64.27 45.91 64.27"/><polygon class="cls-5" points="27.55 59.68 22.96 59.68 18.37 59.68 13.77 59.68 13.77 55.09 9.18 55.09 9.18 59.68 9.18 64.27 13.77 64.27 18.37 64.27 22.96 64.27 27.55 64.27 32.14 64.27 32.14 59.68 27.55 59.68"/><polygon class="cls-5" points="13.77 50.5 13.77 45.91 9.18 45.91 4.59 45.91 4.59 50.5 4.59 55.09 9.18 55.09 9.18 50.5 13.77 50.5"/><polygon class="cls-6" points="87.23 22.96 87.23 27.55 87.23 32.14 87.23 36.73 87.23 41.32 87.23 45.91 87.23 50.5 91.82 50.5 91.82 45.91 91.82 41.32 91.82 36.73 91.82 32.14 91.82 27.55 91.82 22.96 87.23 22.96"/><polygon class="cls-6" points="82.64 55.09 82.64 59.68 87.23 59.68 87.23 55.09 87.23 50.5 82.64 50.5 82.64 55.09"/><polygon class="cls-6" points="82.64 22.96 87.23 22.96 87.23 18.37 87.23 13.78 82.64 13.78 82.64 18.37 82.64 22.96"/><polygon class="cls-6" points="78.05 13.78 82.64 13.78 82.64 9.18 82.64 4.59 78.05 4.59 78.05 9.18 78.05 13.78"/><polygon class="cls-6" points="73.45 59.68 73.45 64.27 78.05 64.27 82.64 64.27 82.64 59.68 78.05 59.68 73.45 59.68"/><rect class="cls-6" x="73.45" y="22.96" width="4.59" height="4.59"/><polygon class="cls-6" points="64.27 64.27 59.68 64.27 55.09 64.27 55.09 68.86 59.68 68.86 64.27 68.86 68.86 68.86 73.45 68.86 73.45 64.27 68.86 64.27 64.27 64.27"/><polygon class="cls-6" points="64.27 27.55 64.27 32.14 59.68 32.14 59.68 36.73 64.27 36.73 64.27 41.32 68.86 41.32 68.86 36.73 68.86 32.14 73.45 32.14 73.45 27.55 68.86 27.55 64.27 27.55"/><polygon class="cls-6" points="55.09 50.5 55.09 55.09 59.68 55.09 59.68 50.5 59.68 45.91 55.09 45.91 55.09 50.5"/><polygon class="cls-6" points="50.5 41.32 45.91 41.32 45.91 45.91 50.5 45.91 55.09 45.91 55.09 41.32 50.5 41.32"/><polygon class="cls-6" points="45.91 68.86 41.32 68.86 36.73 68.86 32.14 68.86 32.14 64.27 27.55 64.27 22.96 64.27 18.37 64.27 13.77 64.27 9.18 64.27 9.18 68.86 13.77 68.86 18.37 68.86 22.96 68.86 27.55 68.86 27.55 73.45 32.14 73.45 36.73 73.45 41.32 73.45 45.91 73.45 50.5 73.45 55.09 73.45 55.09 68.86 50.5 68.86 45.91 68.86"/><polygon class="cls-6" points="41.32 50.5 41.32 55.09 45.91 55.09 45.91 50.5 45.91 45.91 41.32 45.91 41.32 50.5"/><polygon class="cls-6" points="45.91 4.59 50.5 4.59 55.09 4.59 59.68 4.59 64.27 4.59 68.86 4.59 73.45 4.59 78.05 4.59 78.05 0 73.45 0 68.86 0 64.27 0 59.68 0 55.09 0 50.5 0 45.91 0 41.32 0 36.73 0 36.73 4.59 41.32 4.59 45.91 4.59"/><rect class="cls-6" x="32.14" y="4.59" width="4.59" height="4.59"/><polygon class="cls-6" points="32.14 32.14 32.14 36.73 32.14 41.32 36.73 41.32 36.73 36.73 41.32 36.73 41.32 32.14 36.73 32.14 36.73 27.55 32.14 27.55 27.55 27.55 27.55 32.14 32.14 32.14"/><rect class="cls-6" x="27.55" y="9.18" width="4.59" height="4.6"/><rect class="cls-6" x="22.96" y="22.96" width="4.59" height="4.59"/><rect class="cls-6" x="22.96" y="13.78" width="4.59" height="4.59"/><rect class="cls-6" x="18.37" y="18.37" width="4.59" height="4.59"/><rect class="cls-6" x="13.77" y="22.96" width="4.6" height="4.59"/><rect class="cls-6" x="9.18" y="27.55" width="4.59" height="4.59"/><polygon class="cls-6" points="9.18 55.09 4.59 55.09 4.59 59.68 4.59 64.27 9.18 64.27 9.18 59.68 9.18 55.09"/><polygon class="cls-6" points="9.18 41.32 9.18 36.73 9.18 32.14 4.59 32.14 4.59 36.73 4.59 41.32 4.59 45.91 9.18 45.91 9.18 41.32"/><polygon class="cls-6" points="4.59 45.91 0 45.91 0 50.5 0 55.09 4.59 55.09 4.59 50.5 4.59 45.91"/></g></g></svg>
