<svg xmlns="http://www.w3.org/2000/svg" viewBox="0 0 121.21 96.97"><defs><style>.cls-1{fill:#211f1c;}.cls-2{fill:#c0edb4;}.cls-3{fill:#a2d394;}.cls-4{fill:#77d97e;}.cls-5{fill:#60b274;}.cls-6{fill:#e8ffe1;}</style></defs><g id="Layer_2" data-name="Layer 2"><g id="Layer_1-2" data-name="Layer 1"><rect class="cls-1" x="115.15" y="60.61" width="6.06" height="6.06"/><rect class="cls-1" x="115.15" y="54.55" width="6.06" height="6.06"/><rect class="cls-1" x="115.15" y="48.49" width="6.06" height="6.06"/><rect class="cls-1" x="115.15" y="42.43" width="6.06" height="6.06"/><rect class="cls-1" x="115.15" y="36.37" width="6.06" height="6.06"/><rect class="cls-1" x="115.15" y="30.3" width="6.06" height="6.07"/><rect class="cls-1" x="109.09" y="72.73" width="6.06" height="6.06"/><rect class="cls-1" x="109.09" y="66.67" width="6.06" height="6.06"/><rect class="cls-2" x="109.09" y="60.61" width="6.06" height="6.06"/><rect class="cls-2" x="109.09" y="54.55" width="6.06" height="6.06"/><rect class="cls-2" x="109.09" y="48.49" width="6.06" height="6.06"/><rect class="cls-2" x="109.09" y="42.43" width="6.06" height="6.06"/><rect class="cls-2" x="109.09" y="36.37" width="6.06" height="6.06"/><rect class="cls-2" x="109.09" y="30.3" width="6.06" height="6.07"/><rect class="cls-1" x="109.09" y="24.24" width="6.06" height="6.06"/><rect class="cls-1" x="109.09" y="18.18" width="6.06" height="6.06"/><rect class="cls-1" x="103.03" y="78.79" width="6.06" height="6.06"/><rect class="cls-3" x="103.03" y="72.73" width="6.06" height="6.06"/><rect class="cls-3" x="103.03" y="66.67" width="6.06" height="6.06"/><rect class="cls-4" x="103.03" y="60.61" width="6.06" height="6.06"/><rect class="cls-4" x="103.03" y="54.55" width="6.06" height="6.06"/><rect class="cls-4" x="103.03" y="48.49" width="6.06" height="6.06"/><rect class="cls-4" x="103.03" y="42.43" width="6.06" height="6.06"/><rect class="cls-4" x="103.03" y="36.37" width="6.06" height="6.06"/><rect class="cls-4" x="103.03" y="30.3" width="6.06" height="6.07"/><rect class="cls-2" x="103.03" y="24.24" width="6.06" height="6.06"/><rect class="cls-2" x="103.03" y="18.18" width="6.06" height="6.06"/><rect class="cls-1" x="103.03" y="12.12" width="6.06" height="6.06"/><rect class="cls-1" x="103.03" y="6.06" width="6.06" height="6.06"/><rect class="cls-1" x="96.97" y="78.79" width="6.06" height="6.06"/><rect class="cls-3" x="96.97" y="72.73" width="6.06" height="6.06"/><rect class="cls-5" x="96.97" y="66.67" width="6.06" height="6.06"/><rect class="cls-4" x="96.97" y="60.61" width="6.06" height="6.06"/><rect class="cls-4" x="96.97" y="54.55" width="6.06" height="6.06"/><rect class="cls-4" x="96.97" y="48.49" width="6.06" height="6.06"/><rect class="cls-4" x="96.97" y="42.43" width="6.06" height="6.06"/><rect class="cls-4" x="96.97" y="36.37" width="6.06" height="6.06"/><rect class="cls-1" x="96.97" y="30.3" width="6.06" height="6.07"/><rect class="cls-2" x="96.97" y="24.24" width="6.06" height="6.06"/><rect class="cls-2" x="96.97" y="18.18" width="6.06" height="6.06"/><rect class="cls-2" x="96.97" y="12.12" width="6.06" height="6.06"/><rect class="cls-2" x="96.97" y="6.06" width="6.06" height="6.06"/><rect class="cls-1" x="96.97" width="6.06" height="6.06"/><rect class="cls-1" x="90.91" y="84.85" width="6.06" height="6.06"/><rect class="cls-3" x="90.91" y="78.79" width="6.06" height="6.06"/><rect class="cls-5" x="90.91" y="72.73" width="6.06" height="6.06"/><rect class="cls-5" x="90.91" y="66.67" width="6.06" height="6.06"/><rect class="cls-5" x="90.91" y="60.61" width="6.06" height="6.06"/><rect class="cls-4" x="90.91" y="54.55" width="6.06" height="6.06"/><rect class="cls-4" x="90.91" y="48.49" width="6.06" height="6.06"/><rect class="cls-4" x="90.91" y="42.43" width="6.06" height="6.06"/><rect class="cls-1" x="90.91" y="36.37" width="6.06" height="6.06"/><rect class="cls-4" x="90.91" y="30.3" width="6.06" height="6.07"/><rect class="cls-4" x="90.91" y="24.24" width="6.06" height="6.06"/><rect class="cls-2" x="90.91" y="18.18" width="6.06" height="6.06"/><rect class="cls-2" x="90.91" y="12.12" width="6.06" height="6.06"/><rect class="cls-2" x="90.91" y="6.06" width="6.06" height="6.06"/><rect class="cls-1" x="90.91" width="6.06" height="6.06"/><rect class="cls-1" x="84.85" y="84.85" width="6.06" height="6.06"/><rect class="cls-3" x="84.85" y="78.79" width="6.06" height="6.06"/><rect class="cls-5" x="84.85" y="72.73" width="6.06" height="6.06"/><rect class="cls-5" x="84.85" y="66.67" width="6.06" height="6.06"/><rect class="cls-5" x="84.85" y="60.61" width="6.06" height="6.06"/><rect class="cls-5" x="84.85" y="54.55" width="6.06" height="6.06"/><rect class="cls-1" x="84.85" y="48.49" width="6.06" height="6.06"/><rect class="cls-1" x="84.85" y="42.43" width="6.06" height="6.06"/><rect class="cls-1" x="84.85" y="36.37" width="6.06" height="6.06"/><rect class="cls-4" x="84.85" y="30.3" width="6.06" height="6.07"/><rect class="cls-4" x="84.85" y="24.24" width="6.06" height="6.06"/><rect class="cls-4" x="84.85" y="18.18" width="6.06" height="6.06"/><rect class="cls-2" x="84.85" y="12.12" width="6.06" height="6.06"/><rect class="cls-2" x="84.85" y="6.06" width="6.06" height="6.06"/><rect class="cls-1" x="84.85" width="6.06" height="6.06"/><rect class="cls-1" x="78.79" y="84.85" width="6.06" height="6.06"/><rect class="cls-3" x="78.79" y="78.79" width="6.06" height="6.06"/><rect class="cls-5" x="78.79" y="72.73" width="6.06" height="6.06"/><rect class="cls-5" x="78.79" y="66.67" width="6.06" height="6.06"/><rect class="cls-5" x="78.79" y="60.61" width="6.06" height="6.06"/><rect class="cls-5" x="78.79" y="54.55" width="6.06" height="6.06"/><rect class="cls-5" x="78.79" y="48.49" width="6.06" height="6.06"/><rect class="cls-1" x="78.79" y="42.43" width="6.06" height="6.06"/><rect class="cls-4" x="78.79" y="36.37" width="6.06" height="6.06"/><rect class="cls-4" x="78.79" y="30.3" width="6.06" height="6.07"/><rect class="cls-4" x="78.79" y="24.24" width="6.06" height="6.06"/><rect class="cls-4" x="78.79" y="18.18" width="6.06" height="6.06"/><rect class="cls-2" x="78.79" y="12.12" width="6.06" height="6.06"/><rect class="cls-2" x="78.79" y="6.06" width="6.06" height="6.06"/><rect class="cls-1" x="78.79" width="6.06" height="6.06"/><rect class="cls-1" x="72.73" y="84.85" width="6.06" height="6.06"/><rect class="cls-3" x="72.73" y="78.79" width="6.06" height="6.06"/><rect class="cls-5" x="72.73" y="72.73" width="6.06" height="6.06"/><rect class="cls-1" x="72.73" y="66.67" width="6.06" height="6.06"/><rect class="cls-1" x="72.73" y="60.61" width="6.06" height="6.06"/><rect class="cls-5" x="72.73" y="54.55" width="6.06" height="6.06"/><rect class="cls-5" x="72.73" y="48.49" width="6.06" height="6.06"/><rect class="cls-4" x="72.73" y="42.43" width="6.06" height="6.06"/><rect class="cls-4" x="72.73" y="36.37" width="6.06" height="6.06"/><rect class="cls-4" x="72.73" y="30.3" width="6.06" height="6.07"/><rect class="cls-4" x="72.73" y="24.24" width="6.06" height="6.06"/><rect class="cls-4" x="72.73" y="18.18" width="6.06" height="6.06"/><rect class="cls-4" x="72.73" y="12.12" width="6.06" height="6.06"/><rect class="cls-2" x="72.73" y="6.06" width="6.06" height="6.06"/><rect class="cls-1" x="72.73" width="6.06" height="6.06"/><rect class="cls-1" x="66.67" y="90.91" width="6.06" height="6.06"/><rect class="cls-3" x="66.67" y="84.85" width="6.06" height="6.06"/><rect class="cls-5" x="66.67" y="78.79" width="6.06" height="6.06"/><rect class="cls-5" x="66.67" y="72.73" width="6.06" height="6.06"/><rect class="cls-5" x="66.67" y="66.67" width="6.06" height="6.06"/><rect class="cls-5" x="66.67" y="60.61" width="6.06" height="6.06"/><rect class="cls-1" x="66.67" y="54.55" width="6.06" height="6.06"/><rect class="cls-5" x="66.67" y="48.49" width="6.06" height="6.06"/><rect class="cls-4" x="66.67" y="42.43" width="6.06" height="6.06"/><rect class="cls-4" x="66.67" y="36.37" width="6.06" height="6.06"/><rect class="cls-4" x="66.67" y="30.3" width="6.06" height="6.07"/><rect class="cls-4" x="66.67" y="24.24" width="6.06" height="6.06"/><rect class="cls-4" x="66.67" y="18.18" width="6.06" height="6.06"/><rect class="cls-4" x="66.67" y="12.12" width="6.06" height="6.06"/><rect class="cls-2" x="66.67" y="6.06" width="6.06" height="6.06"/><rect class="cls-1" x="66.67" width="6.06" height="6.06"/><rect class="cls-1" x="60.61" y="90.91" width="6.06" height="6.06"/><rect class="cls-3" x="60.61" y="84.85" width="6.06" height="6.06"/><rect class="cls-5" x="60.61" y="78.79" width="6.06" height="6.06"/><rect class="cls-5" x="60.61" y="72.73" width="6.06" height="6.06"/><rect class="cls-5" x="60.61" y="66.67" width="6.06" height="6.06"/><rect class="cls-5" x="60.61" y="60.61" width="6.06" height="6.06"/><rect class="cls-1" x="60.61" y="54.55" width="6.06" height="6.06"/><rect class="cls-5" x="60.61" y="48.49" width="6.06" height="6.06"/><rect class="cls-4" x="60.61" y="42.43" width="6.06" height="6.06"/><rect class="cls-4" x="60.61" y="36.37" width="6.06" height="6.06"/><rect class="cls-4" x="60.61" y="30.3" width="6.06" height="6.07"/><rect class="cls-4" x="60.61" y="24.24" width="6.06" height="6.06"/><rect class="cls-4" x="60.61" y="18.18" width="6.06" height="6.06"/><rect class="cls-4" x="60.61" y="12.12" width="6.06" height="6.06"/><rect class="cls-2" x="60.61" y="6.06" width="6.06" height="6.06"/><rect class="cls-1" x="60.61" width="6.06" height="6.06"/><rect class="cls-1" x="54.55" y="90.91" width="6.06" height="6.06"/><rect class="cls-3" x="54.55" y="84.85" width="6.06" height="6.06"/><rect class="cls-5" x="54.55" y="78.79" width="6.06" height="6.06"/><rect class="cls-5" x="54.55" y="72.73" width="6.06" height="6.06"/><rect class="cls-1" x="54.55" y="66.67" width="6.06" height="6.06"/><rect class="cls-1" x="54.55" y="60.61" width="6.06" height="6.06"/><rect class="cls-5" x="54.55" y="54.55" width="6.06" height="6.06"/><rect class="cls-5" x="54.55" y="48.49" width="6.06" height="6.06"/><rect class="cls-4" x="54.55" y="42.43" width="6.06" height="6.06"/><rect class="cls-4" x="54.55" y="36.37" width="6.06" height="6.06"/><rect class="cls-4" x="54.55" y="30.3" width="6.06" height="6.07"/><rect class="cls-4" x="54.55" y="24.24" width="6.06" height="6.06"/><rect class="cls-4" x="54.55" y="18.18" width="6.06" height="6.06"/><rect class="cls-4" x="54.55" y="12.12" width="6.06" height="6.06"/><rect class="cls-2" x="54.55" y="6.06" width="6.06" height="6.06"/><rect class="cls-1" x="54.55" width="6.06" height="6.06"/><rect class="cls-1" x="48.49" y="90.91" width="6.06" height="6.06"/><rect class="cls-3" x="48.49" y="84.85" width="6.06" height="6.06"/><rect class="cls-5" x="48.49" y="78.79" width="6.06" height="6.06"/><rect class="cls-5" x="48.49" y="72.73" width="6.06" height="6.06"/><rect class="cls-5" x="48.49" y="66.67" width="6.06" height="6.06"/><rect class="cls-5" x="48.49" y="60.61" width="6.06" height="6.06"/><rect class="cls-5" x="48.49" y="54.55" width="6.06" height="6.06"/><rect class="cls-5" x="48.49" y="48.49" width="6.06" height="6.06"/><rect class="cls-1" x="48.49" y="42.43" width="6.06" height="6.06"/><rect class="cls-4" x="48.49" y="36.37" width="6.06" height="6.06"/><rect class="cls-4" x="48.49" y="30.3" width="6.06" height="6.07"/><rect class="cls-2" x="48.49" y="24.24" width="6.06" height="6.06"/><rect class="cls-2" x="48.49" y="18.18" width="6.06" height="6.06"/><rect class="cls-4" x="48.49" y="12.12" width="6.06" height="6.06"/><rect class="cls-2" x="48.49" y="6.06" width="6.06" height="6.06"/><rect class="cls-1" x="48.49" width="6.06" height="6.06"/><rect class="cls-1" x="42.43" y="90.91" width="6.06" height="6.06"/><rect class="cls-3" x="42.43" y="84.85" width="6.06" height="6.06"/><rect class="cls-5" x="42.43" y="78.79" width="6.06" height="6.06"/><rect class="cls-5" x="42.43" y="72.73" width="6.06" height="6.06"/><rect class="cls-5" x="42.43" y="66.67" width="6.06" height="6.06"/><rect class="cls-5" x="42.43" y="60.61" width="6.06" height="6.06"/><rect class="cls-5" x="42.43" y="54.55" width="6.06" height="6.06"/><rect class="cls-1" x="42.43" y="48.49" width="6.06" height="6.06"/><rect class="cls-1" x="42.43" y="42.43" width="6.06" height="6.06"/><rect class="cls-1" x="42.43" y="36.37" width="6.06" height="6.06"/><rect class="cls-4" x="42.43" y="30.3" width="6.06" height="6.07"/><rect class="cls-2" x="42.43" y="24.24" width="6.06" height="6.06"/><rect class="cls-6" x="42.43" y="18.18" width="6.06" height="6.06"/><rect class="cls-2" x="42.43" y="12.12" width="6.06" height="6.06"/><rect class="cls-1" x="42.43" y="6.06" width="6.06" height="6.06"/><rect class="cls-1" x="36.36" y="90.91" width="6.07" height="6.06"/><rect class="cls-1" x="36.36" y="84.85" width="6.07" height="6.06"/><rect class="cls-3" x="36.36" y="78.79" width="6.07" height="6.06"/><rect class="cls-5" x="36.36" y="72.73" width="6.07" height="6.06"/><rect class="cls-5" x="36.36" y="66.67" width="6.07" height="6.06"/><rect class="cls-5" x="36.36" y="60.61" width="6.07" height="6.06"/><rect class="cls-5" x="36.36" y="54.55" width="6.07" height="6.06"/><rect class="cls-4" x="36.36" y="48.49" width="6.07" height="6.06"/><rect class="cls-4" x="36.36" y="42.43" width="6.07" height="6.06"/><rect class="cls-1" x="36.36" y="36.37" width="6.07" height="6.06"/><rect class="cls-4" x="36.36" y="30.3" width="6.07" height="6.07"/><rect class="cls-4" x="36.36" y="24.24" width="6.07" height="6.06"/><rect class="cls-2" x="36.36" y="18.18" width="6.07" height="6.06"/><rect class="cls-1" x="36.36" y="12.12" width="6.07" height="6.06"/><rect class="cls-1" x="30.3" y="84.85" width="6.06" height="6.06"/><rect class="cls-3" x="30.3" y="78.79" width="6.06" height="6.06"/><rect class="cls-5" x="30.3" y="72.73" width="6.06" height="6.06"/><rect class="cls-5" x="30.3" y="66.67" width="6.06" height="6.06"/><rect class="cls-5" x="30.3" y="60.61" width="6.06" height="6.06"/><rect class="cls-4" x="30.3" y="54.55" width="6.06" height="6.06"/><rect class="cls-4" x="30.3" y="48.49" width="6.06" height="6.06"/><rect class="cls-4" x="30.3" y="42.43" width="6.06" height="6.06"/><rect class="cls-4" x="30.3" y="36.37" width="6.06" height="6.06"/><rect class="cls-1" x="30.3" y="30.3" width="6.06" height="6.07"/><rect class="cls-2" x="30.3" y="24.24" width="6.06" height="6.06"/><rect class="cls-1" x="30.3" y="18.18" width="6.06" height="6.06"/><rect class="cls-1" x="24.24" y="84.85" width="6.06" height="6.06"/><rect class="cls-3" x="24.24" y="78.79" width="6.06" height="6.06"/><rect class="cls-5" x="24.24" y="72.73" width="6.06" height="6.06"/><rect class="cls-5" x="24.24" y="66.67" width="6.06" height="6.06"/><rect class="cls-5" x="24.24" y="60.61" width="6.06" height="6.06"/><rect class="cls-4" x="24.24" y="54.55" width="6.06" height="6.06"/><rect class="cls-4" x="24.24" y="48.49" width="6.06" height="6.06"/><rect class="cls-4" x="24.24" y="42.43" width="6.06" height="6.06"/><rect class="cls-4" x="24.24" y="36.37" width="6.06" height="6.06"/><rect class="cls-2" x="24.24" y="30.3" width="6.06" height="6.07"/><rect class="cls-1" x="24.24" y="24.24" width="6.06" height="6.06"/><rect class="cls-1" x="18.18" y="84.85" width="6.06" height="6.06"/><rect class="cls-3" x="18.18" y="78.79" width="6.06" height="6.06"/><rect class="cls-5" x="18.18" y="72.73" width="6.06" height="6.06"/><rect class="cls-4" x="18.18" y="66.67" width="6.06" height="6.06"/><rect class="cls-4" x="18.18" y="60.61" width="6.06" height="6.06"/><rect class="cls-4" x="18.18" y="54.55" width="6.06" height="6.06"/><rect class="cls-4" x="18.18" y="48.49" width="6.06" height="6.06"/><rect class="cls-4" x="18.18" y="42.43" width="6.06" height="6.06"/><rect class="cls-2" x="18.18" y="36.37" width="6.06" height="6.06"/><rect class="cls-1" x="18.18" y="30.3" width="6.06" height="6.07"/><rect class="cls-1" x="12.12" y="84.85" width="6.06" height="6.06"/><rect class="cls-3" x="12.12" y="78.79" width="6.06" height="6.06"/><rect class="cls-3" x="12.12" y="72.73" width="6.06" height="6.06"/><rect class="cls-4" x="12.12" y="66.67" width="6.06" height="6.06"/><rect class="cls-3" x="12.12" y="60.61" width="6.06" height="6.06"/><rect class="cls-2" x="12.12" y="54.55" width="6.06" height="6.06"/><rect class="cls-2" x="12.12" y="48.49" width="6.06" height="6.06"/><rect class="cls-2" x="12.12" y="42.43" width="6.06" height="6.06"/><rect class="cls-1" x="12.12" y="36.37" width="6.06" height="6.06"/><rect class="cls-1" x="6.06" y="78.79" width="6.06" height="6.06"/><rect class="cls-1" x="6.06" y="72.73" width="6.06" height="6.06"/><rect class="cls-3" x="6.06" y="66.67" width="6.06" height="6.06"/><rect class="cls-3" x="6.06" y="60.61" width="6.06" height="6.06"/><rect class="cls-1" x="6.06" y="54.55" width="6.06" height="6.06"/><rect class="cls-1" x="6.06" y="48.49" width="6.06" height="6.06"/><rect class="cls-1" x="6.06" y="42.43" width="6.06" height="6.06"/><rect class="cls-1" y="66.67" width="6.06" height="6.06"/><rect class="cls-1" y="60.61" width="6.06" height="6.06"/></g></g></svg>