<svg xmlns="http://www.w3.org/2000/svg" viewBox="0 0 76.47 70.59"><defs><style>.cls-1{fill:#211f1c;}.cls-2{fill:#8a532f;}.cls-3{fill:#b97233;}.cls-4{fill:#673918;}</style></defs><g id="Layer_2" data-name="Layer 2"><g id="Layer_1-2" data-name="Layer 1"><rect class="cls-1" x="70.59" y="5.89" width="5.88" height="5.88"/><rect class="cls-1" x="64.71" y="11.77" width="5.88" height="5.88"/><rect class="cls-2" x="64.71" y="5.89" width="5.88" height="5.88"/><rect class="cls-1" x="64.71" width="5.88" height="5.89"/><rect class="cls-1" x="58.82" y="17.65" width="5.89" height="5.88"/><rect class="cls-2" x="58.82" y="11.77" width="5.89" height="5.88"/><rect class="cls-3" x="58.82" y="5.89" width="5.89" height="5.88"/><rect class="cls-1" x="58.82" width="5.89" height="5.89"/><rect class="cls-1" x="52.94" y="23.53" width="5.88" height="5.89"/><rect class="cls-2" x="52.94" y="17.65" width="5.88" height="5.88"/><rect class="cls-3" x="52.94" y="11.77" width="5.88" height="5.88"/><rect class="cls-1" x="52.94" y="5.89" width="5.88" height="5.88"/><rect class="cls-1" x="47.06" y="29.42" width="5.88" height="5.88"/><rect class="cls-2" x="47.06" y="23.53" width="5.88" height="5.89"/><rect class="cls-3" x="47.06" y="17.65" width="5.88" height="5.88"/><rect class="cls-1" x="47.06" y="11.77" width="5.88" height="5.88"/><rect class="cls-1" x="41.18" y="35.3" width="5.88" height="5.88"/><rect class="cls-2" x="41.18" y="29.42" width="5.88" height="5.88"/><rect class="cls-3" x="41.18" y="23.53" width="5.88" height="5.89"/><rect class="cls-1" x="41.18" y="17.65" width="5.88" height="5.88"/><rect class="cls-1" x="35.3" y="41.18" width="5.88" height="5.88"/><rect class="cls-2" x="35.3" y="35.3" width="5.88" height="5.88"/><rect class="cls-4" x="35.3" y="29.42" width="5.88" height="5.88"/><rect class="cls-2" x="35.3" y="23.53" width="5.88" height="5.89"/><rect class="cls-3" x="35.3" y="17.65" width="5.88" height="5.88"/><rect class="cls-1" x="35.3" y="11.77" width="5.88" height="5.88"/><rect class="cls-1" x="29.41" y="47.06" width="5.89" height="5.89"/><rect class="cls-2" x="29.41" y="41.18" width="5.89" height="5.88"/><rect class="cls-4" x="29.41" y="35.3" width="5.89" height="5.88"/><rect class="cls-1" x="29.41" y="29.42" width="5.89" height="5.88"/><rect class="cls-1" x="29.41" y="23.53" width="5.89" height="5.89"/><rect class="cls-2" x="29.41" y="17.65" width="5.89" height="5.88"/><rect class="cls-3" x="29.41" y="11.77" width="5.89" height="5.88"/><rect class="cls-1" x="29.41" y="5.89" width="5.89" height="5.88"/><rect class="cls-1" x="23.53" y="52.95" width="5.88" height="5.88"/><rect class="cls-2" x="23.53" y="47.06" width="5.88" height="5.89"/><rect class="cls-4" x="23.53" y="41.18" width="5.88" height="5.88"/><rect class="cls-1" x="23.53" y="35.3" width="5.88" height="5.88"/><rect class="cls-1" x="23.53" y="17.65" width="5.88" height="5.88"/><rect class="cls-2" x="23.53" y="11.77" width="5.88" height="5.88"/><rect class="cls-1" x="23.53" y="5.89" width="5.88" height="5.88"/><rect class="cls-1" x="17.65" y="58.83" width="5.88" height="5.88"/><rect class="cls-2" x="17.65" y="52.95" width="5.88" height="5.88"/><rect class="cls-4" x="17.65" y="47.06" width="5.88" height="5.89"/><rect class="cls-1" x="17.65" y="41.18" width="5.88" height="5.88"/><rect class="cls-1" x="17.65" y="11.77" width="5.88" height="5.88"/><rect class="cls-1" x="11.77" y="64.71" width="5.88" height="5.88"/><rect class="cls-2" x="11.77" y="58.83" width="5.88" height="5.88"/><rect class="cls-4" x="11.77" y="52.95" width="5.88" height="5.88"/><rect class="cls-1" x="11.77" y="47.06" width="5.88" height="5.89"/><rect class="cls-1" x="5.88" y="64.71" width="5.89" height="5.88"/><rect class="cls-4" x="5.88" y="58.83" width="5.89" height="5.88"/><rect class="cls-1" x="5.88" y="52.95" width="5.89" height="5.88"/><rect class="cls-1" y="58.83" width="5.88" height="5.88"/></g></g></svg>