<svg xmlns="http://www.w3.org/2000/svg" viewBox="0 0 549.5 274.5"><defs><style>.cls-1{fill:#23682b;}.cls-2{fill:#b1bf5e;}.cls-3{fill:#3c993c;}.cls-4{fill:#6d6160;}.cls-5{fill:#8a5c38;}.cls-6{fill:#c08247;}.cls-7{fill:#8a5933;}.cls-8{fill:#fefefe;}.cls-9{fill:#f4fa19;}.cls-10{fill:#734522;}.cls-11{fill:#3f2612;}.cls-12{fill:#f9fe51;}.cls-13{fill:#cb5c2b;}.cls-14{fill:#e6321d;}.cls-15{fill:#75392e;}.cls-16{fill:#723c30;}.cls-17{fill:#704b43;}.cls-18{fill:#6f3329;}.cls-19{fill:#924c42;}.cls-20{fill:#9d5445;}.cls-21{fill:#4d2621;}.cls-22{fill:#8c8c8c;}.cls-23{fill:#6f4d44;}.cls-24{fill:#4b2321;}.cls-25{fill:#bf948e;}.cls-26{fill:#704942;}.cls-27{fill:#5cd087;}.cls-28{fill:#a3b4b6;}.cls-29{fill:#cacaca;}.cls-30{fill:#ef8eef;}.cls-31{fill:#469fa3;}.cls-32{fill:#87908e;}.cls-33{fill:#bababa;}.cls-34{fill:#9e7e69;}.cls-35{fill:#cdb66a;}.cls-36{fill:#857261;}.cls-37{fill:#e7f5fe;}.cls-38{fill:#d3b195;}.cls-39{fill:#7e59ca;}.cls-40{fill:#a99eb6;}.cls-41{fill:#6fccf5;}.cls-42{fill:#4d6bb1;}.cls-43{fill:#5aadcf;}.cls-44{fill:#9da3a3;}.cls-45{fill:#abdff7;}.cls-46{fill:#8d5c33;}.cls-47{fill:#b27a4b;}.cls-48{fill:#ff7bc3;}.cls-49{fill:#a09754;}.cls-50{fill:#a4ce93;}.cls-51{fill:#113a4e;}.cls-52{fill:#740060;}.cls-53{fill:#52b287;}.cls-54{fill:#5c476e;}.cls-55{fill:#596a62;}.cls-56{fill:#6ab76a;}.cls-57{fill:#887264;}.cls-58{fill:#005111;}.cls-59{fill:#ab40ff;}.cls-60{fill:#8e3935;}.cls-61{fill:#893eff;}.cls-62{fill:#498482;}.cls-63{fill:#743bff;}.cls-64{fill:#41342c;}.cls-65{fill:#c4b3a9;}.cls-66{fill:#5639ff;}.cls-67{fill:#757575;}.cls-68{fill:#60493b;}.cls-69{fill:#af8069;}.cls-70{fill:#b6886e;}.cls-71{fill:#795642;}.cls-72{fill:#574032;}</style></defs><g id="Layer_2" data-name="Layer 2"><g id="Layer_3" data-name="Layer 3"><polygon class="cls-1" points="39.6 176.47 44.56 176.47 44.56 171.57 44.56 166.67 39.6 166.67 39.6 161.76 39.6 156.86 34.66 156.86 34.66 161.76 34.66 166.67 34.66 171.57 39.6 171.57 39.6 176.47"/><polygon class="cls-1" points="44.56 210.78 39.6 210.78 39.6 205.88 44.56 205.88 44.56 200.97 44.56 196.07 44.56 191.17 39.6 191.17 39.6 196.07 39.6 200.97 34.66 200.97 34.66 205.88 29.7 205.88 24.76 205.88 19.8 205.88 19.8 210.78 19.8 215.68 24.76 215.68 24.76 210.78 29.7 210.78 34.66 210.78 34.66 215.68 39.6 215.68 39.6 220.59 39.6 225.49 44.56 225.49 44.56 230.39 39.6 230.39 39.6 235.29 34.66 235.29 29.7 235.29 29.7 240.19 34.66 240.19 39.6 240.19 39.6 245.09 39.6 250 34.66 250 34.66 254.9 34.66 259.8 34.66 264.7 39.6 264.7 39.6 259.8 39.6 254.9 44.56 254.9 44.56 259.8 49.51 259.8 49.51 254.9 49.51 250 44.56 250 44.56 245.09 49.51 245.09 49.51 240.19 49.51 235.29 49.51 230.39 49.51 225.49 49.51 220.59 44.56 220.59 44.56 215.68 49.51 215.68 49.51 220.59 54.46 220.59 54.46 215.68 54.46 210.78 49.51 210.78 44.56 210.78"/><rect class="cls-1" x="49.51" y="191.17" width="4.96" height="4.9"/><rect class="cls-2" x="24.76" y="176.47" width="4.95" height="4.9"/><rect class="cls-2" x="34.66" y="191.17" width="4.95" height="4.9"/><polygon class="cls-2" points="39.6 176.47 39.6 171.57 34.66 171.57 29.7 171.57 29.7 176.47 34.66 176.47 39.6 176.47"/><rect class="cls-2" x="49.51" y="196.07" width="4.96" height="4.9"/><polygon class="cls-2" points="49.51 181.37 49.51 176.47 44.56 176.47 39.6 176.47 39.6 181.37 34.66 181.37 29.7 181.37 29.7 186.27 34.66 186.27 39.6 186.27 39.6 191.17 44.56 191.17 44.56 196.07 49.51 196.07 49.51 191.17 49.51 186.27 54.46 186.27 59.41 186.27 59.41 181.37 54.46 181.37 49.51 181.37"/><polygon class="cls-2" points="59.41 176.47 59.41 171.57 54.46 171.57 49.51 171.57 49.51 176.47 54.46 176.47 59.41 176.47"/><rect class="cls-2" x="59.41" y="176.47" width="4.96" height="4.9"/><polygon class="cls-3" points="29.7 181.37 24.76 181.37 24.76 186.27 19.8 186.27 19.8 191.17 19.8 196.07 24.76 196.07 24.76 191.17 29.7 191.17 29.7 186.27 29.7 181.37"/><polygon class="cls-3" points="29.7 210.78 24.76 210.78 24.76 215.68 24.76 220.59 19.8 220.59 14.86 220.59 14.86 225.49 9.9 225.49 9.9 230.39 9.9 235.29 14.86 235.29 14.86 230.39 19.8 230.39 19.8 235.29 19.8 240.19 19.8 245.09 19.8 250 14.86 250 14.86 254.9 14.86 259.8 14.86 264.7 14.86 269.6 19.8 269.6 19.8 264.7 19.8 259.8 24.76 259.8 24.76 264.7 24.76 269.6 29.7 269.6 29.7 264.7 29.7 259.8 29.7 254.9 24.76 254.9 24.76 250 24.76 245.09 29.7 245.09 29.7 250 29.7 254.9 34.66 254.9 34.66 250 34.66 245.09 34.66 240.19 29.7 240.19 24.76 240.19 24.76 235.29 24.76 230.39 29.7 230.39 29.7 225.49 29.7 220.59 29.7 215.68 34.66 215.68 34.66 210.78 29.7 210.78"/><polygon class="cls-3" points="29.7 196.07 29.7 200.97 24.76 200.97 24.76 205.88 29.7 205.88 34.66 205.88 34.66 200.97 34.66 196.07 34.66 191.17 29.7 191.17 29.7 196.07"/><polygon class="cls-3" points="34.66 220.59 34.66 225.49 39.6 225.49 39.6 220.59 39.6 215.68 34.66 215.68 34.66 220.59"/><rect class="cls-3" x="34.66" y="186.27" width="4.95" height="4.9"/><polygon class="cls-3" points="49.51 171.57 49.51 166.67 49.51 161.76 49.51 156.86 44.56 156.86 44.56 161.76 44.56 166.67 44.56 171.57 44.56 176.47 49.51 176.47 49.51 171.57"/><polygon class="cls-3" points="49.51 230.39 49.51 235.29 49.51 240.19 54.46 240.19 54.46 235.29 54.46 230.39 54.46 225.49 49.51 225.49 49.51 230.39"/><polygon class="cls-3" points="49.51 191.17 54.46 191.17 59.41 191.17 59.41 186.27 54.46 186.27 49.51 186.27 49.51 191.17"/><rect class="cls-3" x="54.46" y="259.8" width="4.95" height="4.9"/><polygon class="cls-3" points="64.36 196.07 69.31 196.07 74.26 196.07 74.26 191.17 69.31 191.17 64.36 191.17 59.41 191.17 59.41 196.07 64.36 196.07"/><polygon class="cls-3" points="64.36 235.29 64.36 230.39 64.36 225.49 64.36 220.59 69.31 220.59 69.31 215.68 64.36 215.68 64.36 210.78 59.41 210.78 59.41 205.88 59.41 200.97 54.46 200.97 49.51 200.97 49.51 205.88 44.56 205.88 44.56 210.78 49.51 210.78 54.46 210.78 54.46 215.68 54.46 220.59 54.46 225.49 59.41 225.49 59.41 230.39 59.41 235.29 59.41 240.19 59.41 245.09 59.41 250 59.41 254.9 59.41 259.8 64.36 259.8 69.31 259.8 69.31 254.9 64.36 254.9 64.36 250 64.36 245.09 64.36 240.19 69.31 240.19 69.31 235.29 64.36 235.29"/><rect class="cls-3" x="69.31" y="259.8" width="4.96" height="4.9"/><polygon class="cls-3" points="74.26 240.19 69.31 240.19 69.31 245.09 74.26 245.09 79.21 245.09 79.21 240.19 74.26 240.19"/><rect class="cls-4" x="74.26" y="39.22" width="4.95" height="4.9"/><rect class="cls-5" x="84.16" y="112.74" width="4.95" height="4.9"/><rect class="cls-6" x="84.16" y="107.84" width="4.95" height="4.9"/><rect class="cls-5" x="84.16" y="102.94" width="4.95" height="4.9"/><rect class="cls-6" x="84.16" y="98.04" width="4.95" height="4.9"/><rect class="cls-6" x="84.16" y="93.14" width="4.95" height="4.9"/><polygon class="cls-7" points="84.16 83.34 84.16 88.24 84.16 93.14 89.11 93.14 89.11 88.24 89.11 83.34 84.16 83.34"/><rect class="cls-6" x="84.16" y="78.43" width="4.95" height="4.91"/><rect class="cls-6" x="84.16" y="73.53" width="4.95" height="4.9"/><rect class="cls-8" x="84.16" y="68.63" width="4.95" height="4.9"/><rect class="cls-9" x="84.16" y="53.92" width="4.95" height="4.9"/><rect class="cls-9" x="84.16" y="49.02" width="4.95" height="4.9"/><rect class="cls-10" x="89.11" y="93.14" width="4.96" height="4.9"/><rect class="cls-10" x="89.11" y="88.24" width="4.96" height="4.9"/><polygon class="cls-11" points="89.11 102.94 89.11 107.84 89.11 112.75 89.11 117.65 94.06 117.65 94.06 112.75 94.06 107.84 94.06 102.94 94.06 98.04 89.11 98.04 89.11 102.94"/><polygon class="cls-11" points="89.11 78.43 89.11 83.34 89.11 88.24 94.06 88.24 94.06 83.34 94.06 78.43 89.11 78.43"/><rect class="cls-10" x="89.11" y="73.53" width="4.96" height="4.9"/><rect class="cls-8" x="89.11" y="68.63" width="4.96" height="4.9"/><polygon class="cls-12" points="89.11 58.82 84.16 58.82 84.16 63.72 84.16 68.63 89.11 68.63 94.06 68.63 94.06 63.72 94.06 58.82 89.11 58.82"/><rect class="cls-9" x="89.11" y="53.92" width="4.96" height="4.9"/><rect class="cls-9" x="89.11" y="49.02" width="4.96" height="4.9"/><rect class="cls-9" x="89.11" y="44.12" width="4.96" height="4.9"/><rect class="cls-13" x="94.06" y="63.72" width="4.95" height="4.9"/><polygon class="cls-14" points="79.21 58.82 79.21 63.72 79.21 68.63 84.16 68.63 84.16 63.72 84.16 58.82 84.16 53.92 79.21 53.92 79.21 58.82"/><rect class="cls-14" x="84.16" y="44.12" width="4.95" height="4.9"/><rect class="cls-14" x="89.11" y="39.22" width="4.96" height="4.9"/><polygon class="cls-14" points="94.06 49.02 94.06 53.92 94.06 58.82 94.06 63.72 99.01 63.72 99.01 58.82 99.01 53.92 99.01 49.02 94.06 49.02"/><rect class="cls-4" x="99.01" y="29.42" width="4.96" height="4.9"/><rect class="cls-4" x="103.97" y="49.02" width="4.95" height="4.9"/><polygon class="cls-15" points="108.91 0 103.97 0 99.01 0 94.06 0 89.11 0 84.16 0 79.21 0 74.26 0 69.31 0 64.36 0 59.41 0 59.41 4.9 64.36 4.9 64.36 9.8 64.36 14.71 69.31 14.71 69.31 19.61 74.26 19.61 79.21 19.61 84.16 19.61 84.16 14.71 89.11 14.71 94.06 14.71 99.01 14.71 103.97 14.71 108.91 14.71 113.87 14.71 113.87 9.8 113.87 4.9 113.87 0 108.91 0"/><polygon class="cls-16" points="0 68.63 0 73.53 4.96 73.53 4.96 68.63 4.96 63.72 0 63.72 0 68.63"/><polygon class="cls-16" points="74.26 68.63 69.31 68.63 69.31 73.53 64.36 73.53 64.36 78.43 59.41 78.43 59.41 83.34 54.46 83.34 54.46 88.24 54.46 93.14 54.46 98.04 59.41 98.04 59.41 102.94 64.36 102.94 69.31 102.94 74.26 102.94 74.26 98.04 79.21 98.04 79.21 93.14 84.16 93.14 84.16 88.24 84.16 83.34 84.16 78.43 84.16 73.53 84.16 68.63 79.21 68.63 74.26 68.63"/><polygon class="cls-16" points="113.87 73.53 113.87 68.63 108.91 68.63 103.97 68.63 99.01 68.63 94.06 68.63 94.06 73.53 94.06 78.43 94.06 83.34 94.06 88.24 94.06 93.14 99.01 93.14 103.97 93.14 108.91 93.14 113.87 93.14 113.87 88.24 118.81 88.24 118.81 83.34 118.81 78.43 118.81 73.53 113.87 73.53"/><polygon class="cls-17" points="29.7 269.6 24.76 269.6 24.76 264.7 24.76 259.8 19.8 259.8 19.8 264.7 19.8 269.6 14.86 269.6 14.86 264.7 14.86 259.8 14.86 254.9 14.86 250 9.9 250 4.96 250 4.96 254.9 0 254.9 0 259.8 0 264.7 0 269.6 0 274.5 4.96 274.5 9.9 274.5 14.86 274.5 19.8 274.5 24.76 274.5 29.7 274.5 34.66 274.5 34.66 269.6 34.66 264.7 29.7 264.7 29.7 269.6"/><polygon class="cls-17" points="113.87 127.45 118.81 127.45 123.77 127.45 128.71 127.45 128.71 122.55 128.71 117.65 128.71 112.75 123.77 112.75 123.77 107.84 123.77 102.94 118.81 102.94 118.81 98.04 113.87 98.04 108.91 98.04 103.97 98.04 99.01 98.04 94.06 98.04 94.06 102.94 94.06 107.84 94.06 112.75 94.06 117.65 89.11 117.65 84.16 117.65 84.16 112.75 84.16 107.84 84.16 102.94 84.16 98.04 79.21 98.04 79.21 102.94 74.26 102.94 74.26 107.84 69.31 107.84 69.31 112.75 64.36 112.75 64.36 117.65 64.36 122.55 59.41 122.55 59.41 127.45 64.36 127.45 69.31 127.45 74.26 127.45 79.21 127.45 84.16 127.45 89.11 127.45 94.06 127.45 99.01 127.45 103.97 127.45 108.91 127.45 113.87 127.45"/><polygon class="cls-17" points="153.47 220.59 148.51 220.59 143.57 220.59 138.61 220.59 133.67 220.59 133.67 225.49 128.71 225.49 123.77 225.49 123.77 230.39 118.81 230.39 118.81 235.29 118.81 240.19 113.87 240.19 113.87 245.09 108.91 245.09 108.91 250 108.91 254.9 108.91 259.8 113.87 259.8 118.81 259.8 123.77 259.8 128.71 259.8 133.67 259.8 138.61 259.8 143.57 259.8 143.57 254.9 148.51 254.9 148.51 250 153.47 250 153.47 245.09 153.47 240.19 153.47 235.29 158.42 235.29 158.42 230.39 158.42 225.49 153.47 225.49 153.47 220.59"/><polygon class="cls-17" points="163.37 166.67 163.37 161.76 163.37 156.86 158.42 156.86 153.47 156.86 148.51 156.86 143.57 156.86 138.61 156.86 133.67 156.86 128.71 156.86 123.77 156.86 118.81 156.86 113.87 156.86 113.87 161.76 113.87 166.67 113.87 171.57 113.87 176.47 118.81 176.47 123.77 176.47 123.77 181.37 128.71 181.37 133.67 181.37 138.61 181.37 138.61 186.27 143.57 186.27 148.51 186.27 153.47 186.27 158.42 186.27 158.42 181.37 163.37 181.37 163.37 176.47 168.32 176.47 168.32 171.57 168.32 166.67 163.37 166.67"/><polygon class="cls-18" points="24.76 122.55 24.76 117.65 19.8 117.65 19.8 112.75 14.86 112.75 9.9 112.75 4.96 112.75 0 112.75 0 117.65 0 122.55 0 127.45 4.96 127.45 9.9 127.45 14.86 127.45 19.8 127.45 24.76 127.45 24.76 122.55"/><rect class="cls-18" x="24.76" y="245.09" width="4.95" height="4.9"/><rect class="cls-18" x="24.76" y="235.29" width="4.95" height="4.9"/><rect class="cls-18" x="29.7" y="254.9" width="4.96" height="4.9"/><polygon class="cls-18" points="39.6 245.09 39.6 240.19 34.66 240.19 34.66 245.09 34.66 250 39.6 250 39.6 245.09"/><polygon class="cls-18" points="54.46 245.09 49.51 245.09 44.56 245.09 44.56 250 49.51 250 49.51 254.9 49.51 259.8 44.56 259.8 44.56 254.9 39.6 254.9 39.6 259.8 39.6 264.7 39.6 269.6 44.56 269.6 44.56 274.5 49.51 274.5 54.46 274.5 54.46 269.6 59.41 269.6 59.41 264.7 54.46 264.7 54.46 259.8 59.41 259.8 59.41 254.9 59.41 250 54.46 250 54.46 245.09"/><polygon class="cls-18" points="99.01 156.86 94.06 156.86 89.11 156.86 84.16 156.86 79.21 156.86 74.26 156.86 69.31 156.86 64.36 156.86 59.41 156.86 59.41 161.76 59.41 166.67 59.41 171.57 59.41 176.47 64.36 176.47 64.36 181.37 64.36 186.27 69.31 186.27 69.31 191.17 74.26 191.17 79.21 191.17 84.16 191.17 89.11 191.17 94.06 191.17 99.01 191.17 99.01 186.27 103.97 186.27 103.97 181.37 103.97 176.47 103.97 171.57 108.91 171.57 108.91 166.67 108.91 161.76 108.91 156.86 103.97 156.86 99.01 156.86"/><polygon class="cls-18" points="128.71 19.61 128.71 24.52 133.67 24.52 133.67 29.42 133.67 34.32 138.61 34.32 138.61 29.42 143.57 29.42 148.51 29.42 153.47 29.42 158.42 29.42 158.42 24.52 158.42 19.61 158.42 14.71 158.42 9.8 158.42 4.9 158.42 0 153.47 0 148.51 0 143.57 0 138.61 0 133.67 0 128.71 0 123.77 0 118.81 0 118.81 4.9 118.81 9.8 118.81 14.71 118.81 19.61 123.77 19.61 128.71 19.61"/><polygon class="cls-18" points="153.47 98.04 153.47 102.94 158.42 102.94 163.37 102.94 168.32 102.94 168.32 98.04 173.27 98.04 178.22 98.04 178.22 93.14 178.22 88.24 173.27 88.24 173.27 83.34 173.27 78.43 168.32 78.43 168.32 73.53 163.37 73.53 158.42 73.53 158.42 68.63 153.47 68.63 148.51 68.63 143.57 68.63 143.57 63.72 138.61 63.72 133.67 63.72 133.67 68.63 128.71 68.63 123.77 68.63 123.77 73.53 123.77 78.43 123.77 83.34 123.77 88.24 123.77 93.14 123.77 98.04 128.71 98.04 128.71 102.94 133.67 102.94 138.61 102.94 138.61 98.04 143.57 98.04 148.51 98.04 153.47 98.04"/><polygon class="cls-18" points="178.22 225.49 178.22 230.39 173.27 230.39 173.27 235.29 168.32 235.29 163.37 235.29 163.37 240.19 158.42 240.19 158.42 245.09 158.42 250 153.47 250 153.47 254.9 153.47 259.8 148.51 259.8 148.51 264.7 153.47 264.7 153.47 269.6 153.47 274.5 158.42 274.5 163.37 274.5 168.32 274.5 173.27 274.5 178.22 274.5 183.17 274.5 183.17 269.6 183.17 264.7 183.17 259.8 183.17 254.9 183.17 250 183.17 245.09 183.17 240.19 183.17 235.29 183.17 230.39 183.17 225.49 178.22 225.49"/><polygon class="cls-19" points="39.6 78.43 34.66 78.43 29.7 78.43 24.76 78.43 19.8 78.43 14.86 78.43 14.86 73.53 9.9 73.53 4.96 73.53 4.96 78.43 0 78.43 0 83.34 0 88.24 0 93.14 0 98.04 0 102.94 0 107.84 4.96 107.84 9.9 107.84 14.86 107.84 19.8 107.84 24.76 107.84 29.7 107.84 34.66 107.84 34.66 102.94 39.6 102.94 39.6 98.04 44.56 98.04 44.56 93.14 49.51 93.14 49.51 88.24 49.51 83.34 49.51 78.43 44.56 78.43 39.6 78.43"/><polygon class="cls-19" points="59.41 9.8 59.41 4.9 54.46 4.9 54.46 0 49.51 0 44.56 0 39.6 0 34.66 0 29.7 0 24.76 0 24.76 4.9 24.76 9.8 24.76 14.71 24.76 19.61 24.76 24.52 24.76 29.42 29.7 29.42 34.66 29.42 39.6 29.42 39.6 34.32 44.56 34.32 49.51 34.32 54.46 34.32 54.46 39.22 59.41 39.22 59.41 34.32 59.41 29.42 59.41 24.52 64.36 24.52 64.36 19.61 64.36 14.71 59.41 14.71 59.41 9.8"/><polygon class="cls-19" points="158.42 112.75 158.42 107.84 153.47 107.84 153.47 102.94 148.51 102.94 143.57 102.94 138.61 102.94 138.61 107.84 133.67 107.84 133.67 112.75 133.67 117.65 133.67 122.55 133.67 127.45 138.61 127.45 143.57 127.45 148.51 127.45 153.47 127.45 158.42 127.45 163.37 127.45 163.37 122.55 163.37 117.65 158.42 117.65 158.42 112.75"/><polygon class="cls-19" points="183.17 34.32 178.22 34.32 173.27 34.32 168.32 34.32 163.37 34.32 158.42 34.32 153.47 34.32 148.51 34.32 143.57 34.32 143.57 39.22 138.61 39.22 138.61 44.12 138.61 49.02 138.61 53.92 138.61 58.82 143.57 58.82 148.51 58.82 148.51 63.72 153.47 63.72 158.42 63.72 158.42 68.63 163.37 68.63 168.32 68.63 173.27 68.63 173.27 63.72 178.22 63.72 178.22 58.82 178.22 53.92 178.22 49.02 178.22 44.12 183.17 44.12 183.17 39.22 188.12 39.22 188.12 34.32 183.17 34.32"/><rect class="cls-20" x="14.86" y="230.39" width="4.95" height="4.9"/><polygon class="cls-20" points="19.8 210.78 19.8 205.88 14.86 205.88 14.86 200.97 9.9 200.97 4.96 200.97 0 200.97 0 205.88 0 210.78 0 215.68 0 220.59 0 225.49 0 230.39 0 235.29 0 240.19 0 245.09 4.96 245.09 9.9 245.09 9.9 240.19 14.86 240.19 14.86 235.29 9.9 235.29 9.9 230.39 9.9 225.49 14.86 225.49 14.86 220.59 19.8 220.59 24.76 220.59 24.76 215.68 19.8 215.68 19.8 210.78"/><polygon class="cls-20" points="103.97 225.49 103.97 230.39 99.01 230.39 99.01 235.29 94.06 235.29 89.11 235.29 89.11 240.19 84.16 240.19 79.21 240.19 79.21 245.09 74.26 245.09 69.31 245.09 69.31 250 69.31 254.9 69.31 259.8 74.26 259.8 74.26 264.7 69.31 264.7 69.31 259.8 64.36 259.8 64.36 264.7 64.36 269.6 69.31 269.6 69.31 274.5 74.26 274.5 79.21 274.5 84.16 274.5 84.16 269.6 89.11 269.6 89.11 264.7 94.06 264.7 94.06 259.8 99.01 259.8 99.01 254.9 99.01 250 103.97 250 103.97 245.09 103.97 240.19 108.91 240.19 108.91 235.29 113.87 235.29 113.87 230.39 113.87 225.49 108.91 225.49 103.97 225.49"/><polygon class="cls-20" points="168.32 196.07 168.32 191.17 163.37 191.17 158.42 191.17 153.47 191.17 148.51 191.17 143.57 191.17 138.61 191.17 138.61 186.27 133.67 186.27 128.71 186.27 123.77 186.27 118.81 186.27 113.87 186.27 108.91 186.27 108.91 191.17 103.97 191.17 103.97 196.07 99.01 196.07 99.01 200.97 99.01 205.88 99.01 210.78 103.97 210.78 103.97 215.68 108.91 215.68 108.91 220.59 113.87 220.59 118.81 220.59 123.77 220.59 128.71 220.59 133.67 220.59 133.67 215.68 138.61 215.68 143.57 215.68 148.51 215.68 153.47 215.68 153.47 220.59 158.42 220.59 158.42 225.49 163.37 225.49 168.32 225.49 168.32 220.59 173.27 220.59 178.22 220.59 178.22 215.68 173.27 215.68 168.32 215.68 168.32 210.78 168.32 205.88 173.27 205.88 178.22 205.88 178.22 200.97 178.22 196.07 173.27 196.07 168.32 196.07"/><polygon class="cls-20" points="193.07 156.86 188.12 156.86 183.17 156.86 178.22 156.86 173.27 156.86 168.32 156.86 168.32 161.76 168.32 166.67 173.27 166.67 173.27 171.57 173.27 176.47 173.27 181.37 178.22 181.37 183.17 181.37 183.17 176.47 188.12 176.47 188.12 171.57 193.07 171.57 193.07 166.67 198.02 166.67 198.02 161.76 198.02 156.86 193.07 156.86"/><polygon class="cls-21" points="49.51 102.94 44.56 102.94 39.6 102.94 39.6 107.84 34.66 107.84 34.66 112.75 34.66 117.65 29.7 117.65 29.7 122.55 29.7 127.45 34.66 127.45 39.6 127.45 44.56 127.45 49.51 127.45 54.46 127.45 54.46 122.55 54.46 117.65 59.41 117.65 59.41 112.75 59.41 107.84 59.41 102.94 54.46 102.94 49.51 102.94"/><path class="cls-21" d="M128.71,34.32v-4.9h-4.94v-4.9h-5V19.61H89.11v4.91H74.26v4.9h-9.9V49h5v9.8h5v4.9h4.95v-9.8h5v-9.8h5v-4.9h5V49h5v14.7h19.8v-4.9h9.9v-4.9h5V39.22h-5ZM99,29.42h5v4.9H99ZM74.26,44.12v-4.9h4.95v4.9ZM104,49h4.94v4.9H104Z"/><polygon class="cls-21" points="202.97 156.86 202.97 161.76 202.97 166.67 202.97 171.57 198.02 171.57 193.07 171.57 193.07 176.47 188.12 176.47 188.12 181.37 188.12 186.27 183.17 186.27 183.17 191.17 183.17 196.07 183.17 200.97 183.17 205.88 188.12 205.88 193.07 205.88 198.02 205.88 202.97 205.88 207.92 205.88 207.92 200.97 207.92 196.07 207.92 191.17 207.92 186.27 207.92 181.37 207.92 176.47 207.92 171.57 207.92 166.67 207.92 161.76 207.92 156.86 202.97 156.86"/><polygon class="cls-22" points="202.97 127.45 198.02 127.45 193.07 127.45 188.12 127.45 183.17 127.45 178.22 127.45 173.27 127.45 168.32 127.45 163.37 127.45 158.42 127.45 153.47 127.45 148.51 127.45 143.57 127.45 138.61 127.45 133.67 127.45 128.71 127.45 123.77 127.45 118.81 127.45 113.87 127.45 108.91 127.45 103.97 127.45 99.01 127.45 94.06 127.45 89.11 127.45 84.16 127.45 79.21 127.45 74.26 127.45 69.31 127.45 64.36 127.45 59.41 127.45 54.46 127.45 49.51 127.45 44.56 127.45 39.6 127.45 34.66 127.45 29.7 127.45 24.76 127.45 19.8 127.45 14.86 127.45 9.9 127.45 4.96 127.45 0 127.45 0 132.35 0 137.25 0 142.15 0 147.05 0 151.96 0 156.86 4.96 156.86 9.9 156.86 14.86 156.86 19.8 156.86 24.76 156.86 29.7 156.86 34.66 156.86 39.6 156.86 44.56 156.86 49.51 156.86 54.46 156.86 59.41 156.86 64.36 156.86 69.31 156.86 74.26 156.86 79.21 156.86 84.16 156.86 89.11 156.86 94.06 156.86 99.01 156.86 103.97 156.86 108.91 156.86 113.87 156.86 118.81 156.86 123.77 156.86 128.71 156.86 133.67 156.86 138.61 156.86 143.57 156.86 148.51 156.86 153.47 156.86 158.42 156.86 163.37 156.86 168.32 156.86 173.27 156.86 178.22 156.86 183.17 156.86 188.12 156.86 193.07 156.86 198.02 156.86 202.97 156.86 207.92 156.86 207.92 151.96 207.92 147.05 207.92 142.15 207.92 137.25 207.92 132.35 207.92 127.45 202.97 127.45"/><polygon class="cls-23" points="202.97 98.04 198.02 98.04 193.07 98.04 188.12 98.04 183.17 98.04 178.22 98.04 178.22 102.94 173.27 102.94 168.32 102.94 168.32 107.84 168.32 112.75 168.32 117.65 168.32 122.55 168.32 127.45 173.27 127.45 178.22 127.45 183.17 127.45 188.12 127.45 193.07 127.45 198.02 127.45 202.97 127.45 207.92 127.45 207.92 122.55 207.92 117.65 207.92 112.75 207.92 107.84 207.92 102.94 207.92 98.04 202.97 98.04"/><polygon class="cls-24" points="9.9 29.42 9.9 24.52 14.86 24.52 14.86 19.61 19.8 19.61 19.8 14.71 19.8 9.8 19.8 4.9 19.8 0 14.86 0 9.9 0 4.96 0 0 0 0 4.9 0 9.8 0 14.71 0 19.61 0 24.52 0 29.42 4.96 29.42 9.9 29.42"/><rect class="cls-24" x="29.7" y="186.27" width="4.96" height="4.9"/><polygon class="cls-24" points="29.7 176.47 29.7 181.37 34.66 181.37 39.6 181.37 39.6 176.47 34.66 176.47 29.7 176.47"/><polygon class="cls-24" points="34.66 171.57 34.66 166.67 34.66 161.76 34.66 156.86 29.7 156.86 24.76 156.86 19.8 156.86 14.86 156.86 9.9 156.86 4.96 156.86 0 156.86 0 161.76 0 166.67 0 171.57 0 176.47 0 181.37 0 186.27 4.96 186.27 4.96 191.17 9.9 191.17 9.9 196.07 14.86 196.07 19.8 196.07 19.8 191.17 19.8 186.27 24.76 186.27 24.76 181.37 24.76 176.47 29.7 176.47 29.7 171.57 34.66 171.57"/><polygon class="cls-24" points="39.6 161.76 39.6 166.67 44.56 166.67 44.56 161.76 44.56 156.86 39.6 156.86 39.6 161.76"/><rect class="cls-24" x="49.51" y="176.47" width="4.96" height="4.9"/><polygon class="cls-24" points="49.51 161.76 49.51 166.67 49.51 171.57 54.46 171.57 54.46 166.67 54.46 161.76 54.46 156.86 49.51 156.86 49.51 161.76"/><polygon class="cls-24" points="143.57 264.7 138.61 264.7 133.67 264.7 128.71 264.7 123.77 264.7 118.81 264.7 113.87 264.7 108.91 264.7 103.97 264.7 103.97 269.6 99.01 269.6 94.06 269.6 94.06 274.5 99.01 274.5 103.97 274.5 108.91 274.5 113.87 274.5 118.81 274.5 123.77 274.5 128.71 274.5 133.67 274.5 138.61 274.5 143.57 274.5 148.51 274.5 148.51 269.6 143.57 269.6 143.57 264.7"/><polygon class="cls-24" points="202.97 39.22 198.02 39.22 193.07 39.22 188.12 39.22 188.12 44.12 183.17 44.12 183.17 49.02 183.17 53.92 183.17 58.82 183.17 63.72 183.17 68.63 178.22 68.63 178.22 73.53 178.22 78.43 178.22 83.34 178.22 88.24 183.17 88.24 183.17 93.14 188.12 93.14 193.07 93.14 198.02 93.14 202.97 93.14 207.92 93.14 207.92 88.24 207.92 83.34 207.92 78.43 207.92 73.53 207.92 68.63 207.92 63.72 207.92 58.82 207.92 53.92 207.92 49.02 207.92 44.12 207.92 39.22 202.97 39.22"/><rect class="cls-25" y="73.53" width="4.96" height="4.9"/><polygon class="cls-25" points="9.9 68.63 9.9 63.72 9.9 58.82 4.96 58.82 0 58.82 0 63.72 4.96 63.72 4.96 68.63 4.96 73.53 9.9 73.53 14.86 73.53 14.86 68.63 9.9 68.63"/><polygon class="cls-25" points="14.86 240.19 9.9 240.19 9.9 245.09 4.96 245.09 0 245.09 0 250 0 254.9 4.96 254.9 4.96 250 9.9 250 14.86 250 19.8 250 19.8 245.09 19.8 240.19 19.8 235.29 14.86 235.29 14.86 240.19"/><polygon class="cls-25" points="24.76 200.97 29.7 200.97 29.7 196.07 29.7 191.17 24.76 191.17 24.76 196.07 19.8 196.07 14.86 196.07 9.9 196.07 9.9 191.17 4.96 191.17 4.96 186.27 0 186.27 0 191.17 0 196.07 0 200.97 4.96 200.97 9.9 200.97 14.86 200.97 14.86 205.88 19.8 205.88 24.76 205.88 24.76 200.97"/><rect class="cls-25" x="24.76" y="249.99" width="4.95" height="4.9"/><polygon class="cls-25" points="24.76 230.39 24.76 235.29 29.7 235.29 34.66 235.29 34.66 230.39 29.7 230.39 24.76 230.39"/><polygon class="cls-25" points="24.76 107.84 19.8 107.84 14.86 107.84 9.9 107.84 4.96 107.84 0 107.84 0 112.75 4.96 112.75 9.9 112.75 14.86 112.75 19.8 112.75 19.8 117.65 24.76 117.65 24.76 122.55 24.76 127.45 29.7 127.45 29.7 122.55 29.7 117.65 34.66 117.65 34.66 112.75 34.66 107.84 29.7 107.84 24.76 107.84"/><rect class="cls-25" x="29.7" y="259.8" width="4.96" height="4.9"/><polygon class="cls-25" points="39.6 264.7 34.66 264.7 34.66 269.6 34.66 274.5 39.6 274.5 44.56 274.5 44.56 269.6 39.6 269.6 39.6 264.7"/><rect class="cls-25" x="34.66" y="102.94" width="4.95" height="4.9"/><polygon class="cls-25" points="59.41 250 59.41 245.09 59.41 240.19 54.46 240.19 49.51 240.19 49.51 245.09 54.46 245.09 54.46 250 59.41 250"/><rect class="cls-25" x="54.46" y="176.47" width="4.95" height="4.9"/><polygon class="cls-25" points="59.41 166.67 59.41 161.76 59.41 156.86 54.46 156.86 54.46 161.76 54.46 166.67 54.46 171.57 59.41 171.57 59.41 166.67"/><rect class="cls-25" x="54.46" width="4.95" height="4.9"/><polygon class="cls-25" points="64.36 264.7 64.36 259.8 59.41 259.8 59.41 264.7 59.41 269.6 54.46 269.6 54.46 274.5 59.41 274.5 64.36 274.5 69.31 274.5 69.31 269.6 64.36 269.6 64.36 264.7"/><polygon class="cls-25" points="64.36 181.37 59.41 181.37 59.41 186.27 59.41 191.17 64.36 191.17 69.31 191.17 69.31 186.27 64.36 186.27 64.36 181.37"/><polygon class="cls-25" points="59.41 112.75 59.41 117.65 54.46 117.65 54.46 122.55 54.46 127.45 59.41 127.45 59.41 122.55 64.36 122.55 64.36 117.65 64.36 112.75 69.31 112.75 69.31 107.84 74.26 107.84 74.26 102.94 69.31 102.94 64.36 102.94 59.41 102.94 59.41 107.84 59.41 112.75"/><polygon class="cls-25" points="64.36 4.9 59.41 4.9 59.41 9.8 59.41 14.71 64.36 14.71 64.36 9.8 64.36 4.9"/><polygon class="cls-25" points="64.36 245.09 64.36 250 64.36 254.9 69.31 254.9 69.31 250 69.31 245.09 69.31 240.19 64.36 240.19 64.36 245.09"/><rect class="cls-25" x="74.26" y="98.04" width="4.95" height="4.9"/><polygon class="cls-25" points="79.21 235.29 79.21 240.19 84.16 240.19 89.11 240.19 89.11 235.29 84.16 235.29 79.21 235.29"/><rect class="cls-25" x="79.21" y="93.14" width="4.96" height="4.9"/><polygon class="cls-25" points="99.01 220.59 99.01 225.49 94.06 225.49 94.06 230.39 89.11 230.39 89.11 235.29 94.06 235.29 99.01 235.29 99.01 230.39 103.97 230.39 103.97 225.49 108.91 225.49 113.87 225.49 113.87 230.39 113.87 235.29 108.91 235.29 108.91 240.19 103.97 240.19 103.97 245.09 103.97 250 99.01 250 99.01 254.9 99.01 259.8 94.06 259.8 94.06 264.7 89.11 264.7 89.11 269.6 84.16 269.6 84.16 274.5 89.11 274.5 94.06 274.5 94.06 269.6 99.01 269.6 103.97 269.6 103.97 264.7 108.91 264.7 113.87 264.7 118.81 264.7 123.77 264.7 128.71 264.7 133.67 264.7 138.61 264.7 143.57 264.7 143.57 269.6 148.51 269.6 148.51 274.5 153.47 274.5 153.47 269.6 153.47 264.7 148.51 264.7 148.51 259.8 153.47 259.8 153.47 254.9 153.47 250 148.51 250 148.51 254.9 143.57 254.9 143.57 259.8 138.61 259.8 133.67 259.8 128.71 259.8 123.77 259.8 118.81 259.8 113.87 259.8 108.91 259.8 108.91 254.9 108.91 250 108.91 245.09 113.87 245.09 113.87 240.19 118.81 240.19 118.81 235.29 118.81 230.39 123.77 230.39 123.77 225.49 128.71 225.49 133.67 225.49 133.67 220.59 128.71 220.59 123.77 220.59 118.81 220.59 113.87 220.59 108.91 220.59 108.91 215.68 103.97 215.68 103.97 210.78 99.01 210.78 99.01 215.68 99.01 220.59"/><polygon class="cls-25" points="118.81 9.8 118.81 4.9 118.81 0 113.87 0 113.87 4.9 113.87 9.8 113.87 14.71 108.91 14.71 103.97 14.71 99.01 14.71 94.06 14.71 89.11 14.71 84.16 14.71 84.16 19.61 79.21 19.61 74.26 19.61 69.31 19.61 69.31 14.71 64.36 14.71 64.36 19.61 64.36 24.52 59.41 24.52 59.41 29.42 59.41 34.32 59.41 39.22 54.46 39.22 54.46 34.32 49.51 34.32 44.56 34.32 39.6 34.32 39.6 29.42 34.66 29.42 29.7 29.42 24.76 29.42 24.76 24.52 24.76 19.61 24.76 14.71 24.76 9.8 24.76 4.9 24.76 0 19.8 0 19.8 4.9 19.8 9.8 19.8 14.71 19.8 19.61 14.86 19.61 14.86 24.52 9.9 24.52 9.9 29.42 4.96 29.42 0 29.42 0 34.32 4.96 34.32 9.9 34.32 14.86 34.32 19.8 34.32 24.76 34.32 29.7 34.32 34.66 34.32 34.66 39.22 39.6 39.22 44.56 39.22 49.51 39.22 49.51 44.12 54.46 44.12 54.46 49.02 59.41 49.02 59.41 53.92 59.41 58.82 64.36 58.82 64.36 63.72 64.36 68.63 59.41 68.63 54.46 68.63 54.46 73.53 49.51 73.53 44.56 73.53 39.6 73.53 34.66 73.53 29.7 73.53 24.76 73.53 19.8 73.53 14.86 73.53 14.86 78.43 19.8 78.43 24.76 78.43 29.7 78.43 34.66 78.43 39.6 78.43 44.56 78.43 49.51 78.43 49.51 83.34 49.51 88.24 49.51 93.14 44.56 93.14 44.56 98.04 39.6 98.04 39.6 102.94 44.56 102.94 49.51 102.94 54.46 102.94 59.41 102.94 59.41 98.04 54.46 98.04 54.46 93.14 54.46 88.24 54.46 83.34 59.41 83.34 59.41 78.43 64.36 78.43 64.36 73.53 69.31 73.53 69.31 68.63 74.26 68.63 79.21 68.63 79.21 63.72 74.26 63.72 74.26 58.82 69.31 58.82 69.31 53.92 69.31 49.02 64.36 49.02 64.36 44.12 64.36 39.22 64.36 34.32 64.36 29.42 69.31 29.42 74.26 29.42 74.26 24.52 79.21 24.52 84.16 24.52 89.11 24.52 89.11 19.61 94.06 19.61 99.01 19.61 103.97 19.61 108.91 19.61 113.87 19.61 118.81 19.61 118.81 14.71 118.81 9.8"/><polygon class="cls-25" points="128.71 102.94 128.71 98.04 123.77 98.04 123.77 93.14 123.77 88.24 123.77 83.34 123.77 78.43 123.77 73.53 123.77 68.63 128.71 68.63 133.67 68.63 133.67 63.72 138.61 63.72 143.57 63.72 143.57 68.63 148.51 68.63 153.47 68.63 158.42 68.63 158.42 63.72 153.47 63.72 148.51 63.72 148.51 58.82 143.57 58.82 138.61 58.82 138.61 53.92 138.61 49.02 138.61 44.12 138.61 39.22 143.57 39.22 143.57 34.32 148.51 34.32 153.47 34.32 158.42 34.32 163.37 34.32 168.32 34.32 173.27 34.32 178.22 34.32 183.17 34.32 188.12 34.32 188.12 29.42 183.17 29.42 178.22 29.42 173.27 29.42 168.32 29.42 168.32 24.52 163.37 24.52 163.37 19.61 163.37 14.71 163.37 9.8 163.37 4.9 163.37 0 158.42 0 158.42 4.9 158.42 9.8 158.42 14.71 158.42 19.61 158.42 24.52 158.42 29.42 153.47 29.42 148.51 29.42 143.57 29.42 138.61 29.42 138.61 34.32 133.67 34.32 133.67 29.42 133.67 24.52 128.71 24.52 128.71 19.61 123.77 19.61 118.81 19.61 118.81 24.52 123.77 24.52 123.77 29.42 128.71 29.42 128.71 34.32 128.71 39.22 133.67 39.22 133.67 44.12 133.67 49.02 133.67 53.92 128.71 53.92 128.71 58.82 123.77 58.82 118.81 58.82 118.81 63.72 113.87 63.72 108.91 63.72 103.97 63.72 99.01 63.72 99.01 68.63 103.97 68.63 108.91 68.63 113.87 68.63 113.87 73.53 118.81 73.53 118.81 78.43 118.81 83.34 118.81 88.24 113.87 88.24 113.87 93.14 108.91 93.14 103.97 93.14 99.01 93.14 94.06 93.14 94.06 98.04 99.01 98.04 103.97 98.04 108.91 98.04 113.87 98.04 118.81 98.04 118.81 102.94 123.77 102.94 123.77 107.84 123.77 112.75 128.71 112.75 128.71 117.65 128.71 122.55 128.71 127.45 133.67 127.45 133.67 122.55 133.67 117.65 133.67 112.75 133.67 107.84 138.61 107.84 138.61 102.94 133.67 102.94 128.71 102.94"/><polygon class="cls-25" points="133.67 181.37 128.71 181.37 123.77 181.37 123.77 176.47 118.81 176.47 113.87 176.47 113.87 171.57 113.87 166.67 113.87 161.76 113.87 156.86 108.91 156.86 108.91 161.76 108.91 166.67 108.91 171.57 103.97 171.57 103.97 176.47 103.97 181.37 103.97 186.27 99.01 186.27 99.01 191.17 94.06 191.17 89.11 191.17 84.16 191.17 79.21 191.17 74.26 191.17 74.26 196.07 79.21 196.07 84.16 196.07 89.11 196.07 89.11 200.97 94.06 200.97 94.06 205.88 94.06 210.78 99.01 210.78 99.01 205.88 99.01 200.97 99.01 196.07 103.97 196.07 103.97 191.17 108.91 191.17 108.91 186.27 113.87 186.27 118.81 186.27 123.77 186.27 128.71 186.27 133.67 186.27 138.61 186.27 138.61 181.37 133.67 181.37"/><polygon class="cls-25" points="143.57 220.59 148.51 220.59 153.47 220.59 153.47 215.68 148.51 215.68 143.57 215.68 138.61 215.68 133.67 215.68 133.67 220.59 138.61 220.59 143.57 220.59"/><polygon class="cls-25" points="148.51 98.04 143.57 98.04 138.61 98.04 138.61 102.94 143.57 102.94 148.51 102.94 153.47 102.94 153.47 98.04 148.51 98.04"/><rect class="cls-25" x="153.47" y="220.59" width="4.95" height="4.9"/><polygon class="cls-25" points="158.42 235.29 153.47 235.29 153.47 240.19 153.47 245.09 153.47 250 158.42 250 158.42 245.09 158.42 240.19 163.37 240.19 163.37 235.29 168.32 235.29 173.27 235.29 173.27 230.39 178.22 230.39 178.22 225.49 183.17 225.49 183.17 220.59 183.17 215.68 178.22 215.68 178.22 220.59 173.27 220.59 168.32 220.59 168.32 225.49 163.37 225.49 158.42 225.49 158.42 230.39 158.42 235.29"/><polygon class="cls-25" points="158.42 102.94 153.47 102.94 153.47 107.84 158.42 107.84 158.42 112.75 158.42 117.65 163.37 117.65 163.37 122.55 163.37 127.45 168.32 127.45 168.32 122.55 168.32 117.65 168.32 112.75 168.32 107.84 168.32 102.94 163.37 102.94 158.42 102.94"/><polygon class="cls-25" points="168.32 156.86 163.37 156.86 163.37 161.76 163.37 166.67 168.32 166.67 168.32 161.76 168.32 156.86"/><polygon class="cls-25" points="168.32 98.04 168.32 102.94 173.27 102.94 178.22 102.94 178.22 98.04 173.27 98.04 168.32 98.04"/><polygon class="cls-25" points="178.22 78.43 178.22 73.53 178.22 68.63 183.17 68.63 183.17 63.72 183.17 58.82 183.17 53.92 183.17 49.02 183.17 44.12 178.22 44.12 178.22 49.02 178.22 53.92 178.22 58.82 178.22 63.72 173.27 63.72 173.27 68.63 168.32 68.63 163.37 68.63 158.42 68.63 158.42 73.53 163.37 73.53 168.32 73.53 168.32 78.43 173.27 78.43 173.27 83.34 173.27 88.24 178.22 88.24 178.22 83.34 178.22 78.43"/><polygon class="cls-25" points="178.22 98.04 183.17 98.04 188.12 98.04 193.07 98.04 198.02 98.04 202.97 98.04 207.92 98.04 207.92 93.14 202.97 93.14 198.02 93.14 193.07 93.14 188.12 93.14 183.17 93.14 183.17 88.24 178.22 88.24 178.22 93.14 178.22 98.04"/><polygon class="cls-25" points="183.17 181.37 178.22 181.37 173.27 181.37 173.27 176.47 173.27 171.57 173.27 166.67 168.32 166.67 168.32 171.57 168.32 176.47 163.37 176.47 163.37 181.37 158.42 181.37 158.42 186.27 153.47 186.27 148.51 186.27 143.57 186.27 138.61 186.27 138.61 191.17 143.57 191.17 148.51 191.17 153.47 191.17 158.42 191.17 163.37 191.17 168.32 191.17 168.32 196.07 173.27 196.07 178.22 196.07 178.22 200.97 178.22 205.88 183.17 205.88 183.17 200.97 183.17 196.07 183.17 191.17 183.17 186.27 188.12 186.27 188.12 181.37 188.12 176.47 183.17 176.47 183.17 181.37"/><rect class="cls-25" x="183.17" y="39.22" width="4.95" height="4.9"/><rect class="cls-25" x="188.12" y="171.57" width="4.96" height="4.9"/><polygon class="cls-25" points="193.07 39.22 198.02 39.22 202.97 39.22 207.92 39.22 207.92 34.32 202.97 34.32 198.02 34.32 193.07 34.32 188.12 34.32 188.12 39.22 193.07 39.22"/><polygon class="cls-25" points="198.02 161.76 198.02 166.67 193.07 166.67 193.07 171.57 198.02 171.57 202.97 171.57 202.97 166.67 202.97 161.76 202.97 156.86 198.02 156.86 198.02 161.76"/><polygon class="cls-26" points="34.66 73.53 39.6 73.53 44.56 73.53 49.51 73.53 54.46 73.53 54.46 68.63 59.41 68.63 64.36 68.63 64.36 63.72 64.36 58.82 59.41 58.82 59.41 53.92 59.41 49.02 54.46 49.02 54.46 44.12 49.51 44.12 49.51 39.22 44.56 39.22 39.6 39.22 34.66 39.22 34.66 34.32 29.7 34.32 24.76 34.32 19.8 34.32 14.86 34.32 9.9 34.32 4.96 34.32 0 34.32 0 39.22 0 44.12 0 49.02 0 53.92 0 58.82 4.96 58.82 9.9 58.82 9.9 63.72 9.9 68.63 14.86 68.63 14.86 73.53 19.8 73.53 24.76 73.53 29.7 73.53 34.66 73.53"/><polygon class="cls-26" points="34.66 225.49 34.66 220.59 34.66 215.68 29.7 215.68 29.7 220.59 29.7 225.49 29.7 230.39 34.66 230.39 34.66 235.29 39.6 235.29 39.6 230.39 44.56 230.39 44.56 225.49 39.6 225.49 34.66 225.49"/><rect class="cls-26" x="34.66" y="196.07" width="4.95" height="4.9"/><rect class="cls-26" x="39.6" y="205.88" width="4.96" height="4.9"/><rect class="cls-26" x="44.56" y="215.68" width="4.95" height="4.91"/><polygon class="cls-26" points="49.51 200.97 49.51 196.07 44.56 196.07 44.56 200.97 44.56 205.88 49.51 205.88 49.51 200.97"/><rect class="cls-26" x="49.51" y="220.59" width="4.96" height="4.9"/><polygon class="cls-26" points="54.46 230.39 54.46 235.29 54.46 240.19 59.41 240.19 59.41 235.29 59.41 230.39 59.41 225.49 54.46 225.49 54.46 230.39"/><polygon class="cls-26" points="94.06 205.88 94.06 200.97 89.11 200.97 89.11 196.07 84.16 196.07 79.21 196.07 74.26 196.07 69.31 196.07 64.36 196.07 59.41 196.07 59.41 191.17 54.46 191.17 54.46 196.07 54.46 200.97 59.41 200.97 59.41 205.88 59.41 210.78 64.36 210.78 64.36 215.68 69.31 215.68 69.31 220.59 64.36 220.59 64.36 225.49 64.36 230.39 64.36 235.29 69.31 235.29 69.31 240.19 74.26 240.19 79.21 240.19 79.21 235.29 84.16 235.29 89.11 235.29 89.11 230.39 94.06 230.39 94.06 225.49 99.01 225.49 99.01 220.59 99.01 215.68 99.01 210.78 94.06 210.78 94.06 205.88"/><polygon class="cls-26" points="202.97 0 198.02 0 193.07 0 188.12 0 183.17 0 178.22 0 173.27 0 168.32 0 163.37 0 163.37 4.9 163.37 9.8 163.37 14.71 163.37 19.61 163.37 24.52 168.32 24.52 168.32 29.42 173.27 29.42 178.22 29.42 183.17 29.42 188.12 29.42 188.12 34.32 193.07 34.32 198.02 34.32 202.97 34.32 207.92 34.32 207.92 29.42 207.92 24.52 207.92 19.61 207.92 14.71 207.92 9.8 207.92 4.9 207.92 0 202.97 0"/><polygon class="cls-27" points="237.62 142.15 232.68 142.15 232.68 147.05 232.68 151.96 232.68 156.86 232.68 161.76 232.68 166.67 237.62 166.67 242.58 166.67 242.58 161.76 242.58 156.86 242.58 151.96 242.58 147.05 242.58 142.15 237.62 142.15"/><polygon class="cls-28" points="232.68 166.67 232.68 171.57 237.62 171.57 242.58 171.57 242.58 166.67 237.62 166.67 232.68 166.67"/><polygon class="cls-28" points="247.53 132.35 242.58 132.35 237.62 132.35 232.68 132.35 232.68 137.25 232.68 142.15 237.62 142.15 242.58 142.15 242.58 147.05 242.58 151.96 242.58 156.86 242.58 161.76 242.58 166.67 247.53 166.67 247.53 161.76 247.53 156.86 247.53 151.96 247.53 147.05 247.53 142.15 247.53 137.25 252.48 137.25 252.48 132.35 247.53 132.35"/><polygon class="cls-29" points="247.53 98.04 247.53 93.14 247.53 88.24 242.58 88.24 237.62 88.24 232.68 88.24 232.68 93.14 232.68 98.04 232.68 102.94 237.62 102.94 242.58 102.94 247.53 102.94 252.48 102.94 252.48 98.04 247.53 98.04"/><polygon class="cls-30" points="257.43 49.02 257.43 53.92 252.48 53.92 252.48 58.82 247.53 58.82 247.53 63.72 247.53 68.63 242.58 68.63 242.58 73.53 242.58 78.43 237.62 78.43 237.62 83.34 232.68 83.34 232.68 88.24 237.62 88.24 242.58 88.24 247.53 88.24 252.48 88.24 252.48 83.34 257.43 83.34 257.43 78.43 262.38 78.43 262.38 73.53 262.38 68.63 262.38 63.72 262.38 58.82 262.38 53.92 262.38 49.02 257.43 49.02"/><polygon class="cls-31" points="292.08 73.53 287.13 73.53 282.18 73.53 277.23 73.53 277.23 78.43 277.23 83.34 277.23 88.24 277.23 93.14 277.23 98.04 282.18 98.04 287.13 98.04 292.08 98.04 297.03 98.04 297.03 93.14 297.03 88.24 297.03 83.34 297.03 78.43 297.03 73.53 292.08 73.53"/><polygon class="cls-32" points="287.13 98.04 282.18 98.04 277.23 98.04 277.23 102.94 282.18 102.94 287.13 102.94 292.08 102.94 297.03 102.94 297.03 98.04 292.08 98.04 287.13 98.04"/><polygon class="cls-32" points="301.99 58.82 297.03 58.82 297.03 63.72 292.08 63.72 292.08 68.63 287.13 68.63 282.18 68.63 282.18 63.72 277.23 63.72 277.23 58.82 272.28 58.82 267.33 58.82 267.33 63.72 267.33 68.63 272.28 68.63 272.28 73.53 272.28 78.43 272.28 83.34 272.28 88.24 272.28 93.14 272.28 98.04 277.23 98.04 277.23 93.14 277.23 88.24 277.23 83.34 277.23 78.43 277.23 73.53 282.18 73.53 287.13 73.53 292.08 73.53 297.03 73.53 297.03 78.43 297.03 83.34 297.03 88.24 297.03 93.14 297.03 98.04 301.99 98.04 301.99 93.14 301.99 88.24 301.99 83.34 301.99 78.43 301.99 73.53 301.99 68.63 306.93 68.63 306.93 63.72 306.93 58.82 301.99 58.82"/><polygon class="cls-33" points="306.93 166.67 301.99 166.67 297.03 166.67 292.08 166.67 292.08 161.76 297.03 161.76 301.99 161.76 301.99 156.86 306.93 156.86 306.93 151.96 306.93 147.05 301.99 147.05 301.99 142.15 297.03 142.15 292.08 142.15 287.13 142.15 282.18 142.15 277.23 142.15 272.28 142.15 267.33 142.15 262.38 142.15 257.43 142.15 257.43 147.05 252.48 147.05 252.48 151.96 252.48 156.86 257.43 156.86 257.43 161.76 262.38 161.76 267.33 161.76 267.33 166.67 262.38 166.67 257.43 166.67 252.48 166.67 247.53 166.67 247.53 171.57 247.53 176.47 247.53 181.37 247.53 186.27 247.53 191.17 247.53 196.07 247.53 200.97 247.53 205.88 252.48 205.88 257.43 205.88 262.38 205.88 267.33 205.88 272.28 205.88 277.23 205.88 282.18 205.88 287.13 205.88 292.08 205.88 297.03 205.88 301.99 205.88 306.93 205.88 311.89 205.88 311.89 200.97 311.89 196.07 311.89 191.17 311.89 186.27 311.89 181.37 311.89 176.47 311.89 171.57 311.89 166.67 306.93 166.67"/><polygon class="cls-34" points="287.13 137.25 287.13 142.15 292.08 142.15 292.08 137.25 292.08 132.35 287.13 132.35 287.13 137.25"/><rect class="cls-34" x="306.93" y="151.96" width="4.96" height="4.9"/><rect class="cls-34" x="311.89" y="147.05" width="4.95" height="4.91"/><polygon class="cls-34" points="316.83 132.35 316.83 137.25 316.83 142.15 316.83 147.05 321.79 147.05 321.79 142.15 321.79 137.25 321.79 132.35 316.83 132.35"/><polygon class="cls-35" points="336.63 191.17 336.63 186.27 331.69 186.27 326.73 186.27 326.73 191.17 321.79 191.17 321.79 196.07 321.79 200.97 326.73 200.97 331.69 200.97 336.63 200.97 341.59 200.97 341.59 196.07 341.59 191.17 336.63 191.17"/><polygon class="cls-36" points="336.63 127.45 331.69 127.45 331.69 122.55 326.73 122.55 321.79 122.55 316.83 122.55 311.89 122.55 306.93 122.55 301.99 122.55 297.03 122.55 292.08 122.55 287.13 122.55 282.18 122.55 282.18 127.45 277.23 127.45 272.28 127.45 267.33 127.45 267.33 132.35 267.33 137.25 267.33 142.15 272.28 142.15 277.23 142.15 282.18 142.15 287.13 142.15 287.13 137.25 287.13 132.35 292.08 132.35 292.08 137.25 292.08 142.15 297.03 142.15 301.99 142.15 301.99 147.05 306.93 147.05 306.93 151.96 311.89 151.96 311.89 147.05 316.83 147.05 316.83 142.15 316.83 137.25 316.83 132.35 321.79 132.35 321.79 137.25 321.79 142.15 321.79 147.05 316.83 147.05 316.83 151.96 311.89 151.96 311.89 156.86 306.93 156.86 301.99 156.86 301.99 161.76 297.03 161.76 292.08 161.76 292.08 166.67 297.03 166.67 301.99 166.67 306.93 166.67 311.89 166.67 316.83 166.67 316.83 171.57 321.79 171.57 326.73 171.57 331.69 171.57 336.63 171.57 336.63 166.67 341.59 166.67 341.59 161.76 341.59 156.86 341.59 151.96 341.59 147.05 341.59 142.15 341.59 137.25 341.59 132.35 341.59 127.45 336.63 127.45"/><polygon class="cls-37" points="331.69 200.97 326.73 200.97 321.79 200.97 321.79 205.88 326.73 205.88 331.69 205.88 336.63 205.88 341.59 205.88 341.59 200.97 336.63 200.97 331.69 200.97"/><polygon class="cls-37" points="346.54 181.37 346.54 176.47 341.59 176.47 336.63 176.47 331.69 176.47 326.73 176.47 321.79 176.47 316.83 176.47 316.83 181.37 321.79 181.37 321.79 186.27 316.83 186.27 316.83 191.17 316.83 196.07 316.83 200.97 321.79 200.97 321.79 196.07 321.79 191.17 326.73 191.17 326.73 186.27 331.69 186.27 336.63 186.27 336.63 191.17 341.59 191.17 341.59 196.07 341.59 200.97 346.54 200.97 346.54 196.07 346.54 191.17 346.54 186.27 341.59 186.27 341.59 181.37 346.54 181.37"/><polygon class="cls-38" points="287.13 53.92 282.18 53.92 277.23 53.92 277.23 58.82 277.23 63.72 282.18 63.72 282.18 68.63 287.13 68.63 292.08 68.63 292.08 63.72 297.03 63.72 297.03 58.82 297.03 53.92 292.08 53.92 287.13 53.92"/><polygon class="cls-38" points="341.59 9.8 336.63 9.8 331.69 9.8 326.73 9.8 326.73 14.71 326.73 19.61 331.69 19.61 331.69 24.52 336.63 24.52 341.59 24.52 341.59 19.61 346.54 19.61 346.54 14.71 346.54 9.8 341.59 9.8"/><polygon class="cls-39" points="356.44 73.53 356.44 68.63 356.44 63.72 351.49 63.72 351.49 58.82 351.49 53.92 346.54 53.92 346.54 49.02 341.59 49.02 341.59 44.12 341.59 39.22 341.59 34.32 336.63 34.32 331.69 34.32 331.69 39.22 331.69 44.12 331.69 49.02 326.73 49.02 326.73 53.92 321.79 53.92 321.79 58.82 321.79 63.72 316.83 63.72 316.83 68.63 316.83 73.53 311.89 73.53 311.89 78.43 311.89 83.34 311.89 88.24 311.89 93.14 311.89 98.04 316.83 98.04 321.79 98.04 326.73 98.04 331.69 98.04 336.63 98.04 341.59 98.04 346.54 98.04 351.49 98.04 356.44 98.04 361.39 98.04 361.39 93.14 361.39 88.24 361.39 83.34 361.39 78.43 361.39 73.53 356.44 73.53"/><polygon class="cls-40" points="311.89 88.24 311.89 83.34 311.89 78.43 311.89 73.53 306.93 73.53 306.93 78.43 306.93 83.34 306.93 88.24 306.93 93.14 306.93 98.04 311.89 98.04 311.89 93.14 311.89 88.24"/><polygon class="cls-40" points="316.83 68.63 316.83 63.72 311.89 63.72 311.89 68.63 311.89 73.53 316.83 73.53 316.83 68.63"/><polygon class="cls-40" points="321.79 58.82 321.79 53.92 316.83 53.92 316.83 58.82 316.83 63.72 321.79 63.72 321.79 58.82"/><rect class="cls-40" x="321.79" y="49.02" width="4.95" height="4.9"/><polygon class="cls-40" points="331.69 44.12 331.69 39.22 331.69 34.32 336.63 34.32 341.59 34.32 341.59 39.22 341.59 44.12 341.59 49.02 346.54 49.02 346.54 44.12 346.54 39.22 346.54 34.32 346.54 29.42 346.54 24.52 351.49 24.52 351.49 19.61 356.44 19.61 356.44 14.71 351.49 14.71 346.54 14.71 346.54 19.61 341.59 19.61 341.59 24.52 336.63 24.52 331.69 24.52 331.69 19.61 326.73 19.61 326.73 14.71 321.79 14.71 316.83 14.71 316.83 19.61 321.79 19.61 321.79 24.52 326.73 24.52 326.73 29.42 326.73 34.32 326.73 39.22 326.73 44.12 326.73 49.02 331.69 49.02 331.69 44.12"/><rect class="cls-40" x="346.53" y="49.02" width="4.96" height="4.9"/><polygon class="cls-40" points="351.49 98.04 346.54 98.04 341.59 98.04 336.63 98.04 331.69 98.04 326.73 98.04 321.79 98.04 316.83 98.04 311.89 98.04 311.89 102.94 316.83 102.94 321.79 102.94 326.73 102.94 331.69 102.94 336.63 102.94 341.59 102.94 346.54 102.94 351.49 102.94 356.44 102.94 361.39 102.94 361.39 98.04 356.44 98.04 351.49 98.04"/><polygon class="cls-40" points="351.49 63.72 356.44 63.72 356.44 58.82 356.44 53.92 351.49 53.92 351.49 58.82 351.49 63.72"/><polygon class="cls-40" points="356.44 73.53 361.39 73.53 361.39 68.63 361.39 63.72 356.44 63.72 356.44 68.63 356.44 73.53"/><polygon class="cls-40" points="361.39 73.53 361.39 78.43 361.39 83.34 361.39 88.24 361.39 93.14 361.39 98.04 366.34 98.04 366.34 93.14 366.34 88.24 366.34 83.34 366.34 78.43 366.34 73.53 361.39 73.53"/><polygon class="cls-41" points="391.08 142.15 391.08 137.25 386.14 137.25 381.18 137.25 381.18 142.15 376.24 142.15 376.24 147.05 376.24 151.96 376.24 156.86 376.24 161.76 381.18 161.76 381.18 166.67 386.14 166.67 391.08 166.67 391.08 161.76 396.04 161.76 396.04 156.86 396.04 151.96 396.04 147.05 396.04 142.15 391.08 142.15"/><polygon class="cls-42" points="405.94 196.07 400.99 196.07 400.99 191.17 396.04 191.17 391.08 191.17 386.14 191.17 381.18 191.17 376.24 191.17 371.28 191.17 371.28 196.07 366.34 196.07 361.39 196.07 361.39 200.97 361.39 205.88 366.34 205.88 371.28 205.88 376.24 205.88 381.18 205.88 386.14 205.88 391.08 205.88 396.04 205.88 400.99 205.88 405.94 205.88 410.89 205.88 410.89 200.97 410.89 196.07 405.94 196.07"/><polygon class="cls-43" points="405.94 137.25 405.94 132.35 405.94 127.45 400.99 127.45 400.99 122.55 396.04 122.55 396.04 127.45 391.08 127.45 391.08 132.35 386.14 132.35 386.14 137.25 391.08 137.25 391.08 142.15 396.04 142.15 396.04 147.05 396.04 151.96 396.04 156.86 396.04 161.76 391.08 161.76 391.08 166.67 396.04 166.67 400.99 166.67 405.94 166.67 405.94 161.76 400.99 161.76 400.99 156.86 400.99 151.96 400.99 147.05 405.94 147.05 405.94 142.15 410.89 142.15 410.89 137.25 405.94 137.25"/><polygon class="cls-44" points="410.89 166.67 405.94 166.67 400.99 166.67 396.04 166.67 391.08 166.67 386.14 166.67 381.18 166.67 376.24 166.67 371.28 166.67 366.34 166.67 361.39 166.67 361.39 171.57 366.34 171.57 371.28 171.57 376.24 171.57 381.18 171.57 386.14 171.57 391.08 171.57 396.04 171.57 400.99 171.57 405.94 171.57 410.89 171.57 415.84 171.57 415.84 166.67 410.89 166.67"/><polygon class="cls-45" points="381.18 117.65 376.24 117.65 376.24 122.55 371.28 122.55 371.28 127.45 371.28 132.35 366.34 132.35 366.34 137.25 366.34 142.15 366.34 147.05 361.39 147.05 361.39 151.96 361.39 156.86 366.34 156.86 366.34 161.76 366.34 166.67 371.28 166.67 376.24 166.67 381.18 166.67 381.18 161.76 376.24 161.76 376.24 156.86 376.24 151.96 376.24 147.05 376.24 142.15 381.18 142.15 381.18 137.25 386.14 137.25 386.14 132.35 386.14 127.45 386.14 122.55 381.18 122.55 381.18 117.65"/><polygon class="cls-45" points="410.89 147.05 410.89 142.15 405.94 142.15 405.94 147.05 400.99 147.05 400.99 151.96 400.99 156.86 400.99 161.76 405.94 161.76 405.94 166.67 410.89 166.67 410.89 161.76 415.84 161.76 415.84 156.86 415.84 151.96 415.84 147.05 410.89 147.05"/><polygon class="cls-46" points="396.04 29.42 400.99 29.42 405.94 29.42 410.89 29.42 410.89 24.52 405.94 24.52 400.99 24.52 396.04 24.52 391.08 24.52 386.14 24.52 386.14 29.42 391.08 29.42 396.04 29.42"/><polygon class="cls-46" points="415.84 93.14 410.89 93.14 405.94 93.14 400.99 93.14 396.04 93.14 391.08 93.14 386.14 93.14 381.18 93.14 376.24 93.14 371.28 93.14 371.28 98.04 376.24 98.04 381.18 98.04 386.14 98.04 391.08 98.04 396.04 98.04 400.99 98.04 405.94 98.04 410.89 98.04 415.84 98.04 420.79 98.04 425.74 98.04 425.74 93.14 420.79 93.14 415.84 93.14"/><polygon class="cls-46" points="415.84 83.34 410.89 83.34 405.94 83.34 400.99 83.34 396.04 83.34 391.08 83.34 386.14 83.34 381.18 83.34 376.24 83.34 371.28 83.34 371.28 88.24 376.24 88.24 381.18 88.24 386.14 88.24 391.08 88.24 396.04 88.24 400.99 88.24 405.94 88.24 410.89 88.24 415.84 88.24 420.79 88.24 425.74 88.24 425.74 83.34 420.79 83.34 415.84 83.34"/><polygon class="cls-46" points="415.84 73.53 410.89 73.53 405.94 73.53 400.99 73.53 396.04 73.53 391.08 73.53 386.14 73.53 381.18 73.53 376.24 73.53 371.28 73.53 371.28 78.43 376.24 78.43 381.18 78.43 386.14 78.43 391.08 78.43 396.04 78.43 400.99 78.43 405.94 78.43 410.89 78.43 415.84 78.43 420.79 78.43 425.74 78.43 425.74 73.53 420.79 73.53 415.84 73.53"/><polygon class="cls-46" points="415.84 63.72 410.89 63.72 405.94 63.72 400.99 63.72 396.04 63.72 391.08 63.72 386.14 63.72 381.18 63.72 376.24 63.72 371.28 63.72 371.28 68.63 376.24 68.63 381.18 68.63 386.14 68.63 391.08 68.63 396.04 68.63 400.99 68.63 405.94 68.63 410.89 68.63 415.84 68.63 420.79 68.63 425.74 68.63 425.74 63.72 420.79 63.72 415.84 63.72"/><polygon class="cls-46" points="415.84 53.92 410.89 53.92 405.94 53.92 400.99 53.92 396.04 53.92 391.08 53.92 386.14 53.92 381.18 53.92 376.24 53.92 371.28 53.92 371.28 58.82 376.24 58.82 381.18 58.82 386.14 58.82 391.08 58.82 396.04 58.82 400.99 58.82 405.94 58.82 410.89 58.82 415.84 58.82 420.79 58.82 425.74 58.82 425.74 53.92 420.79 53.92 415.84 53.92"/><polygon class="cls-46" points="420.79 44.12 415.84 44.12 415.84 39.22 415.84 34.32 415.84 29.42 410.89 29.42 410.89 34.32 410.89 39.22 410.89 44.12 405.94 44.12 400.99 44.12 396.04 44.12 391.08 44.12 386.14 44.12 386.14 39.22 386.14 34.32 386.14 29.42 381.18 29.42 381.18 34.32 381.18 39.22 381.18 44.12 376.24 44.12 371.28 44.12 371.28 49.02 376.24 49.02 381.18 49.02 386.14 49.02 391.08 49.02 396.04 49.02 400.99 49.02 405.94 49.02 410.89 49.02 415.84 49.02 420.79 49.02 425.74 49.02 425.74 44.12 420.79 44.12"/><polygon class="cls-47" points="381.18 44.12 381.18 39.22 376.24 39.22 371.28 39.22 371.28 44.12 376.24 44.12 381.18 44.12"/><polygon class="cls-47" points="396.04 44.12 400.99 44.12 405.94 44.12 410.89 44.12 410.89 39.22 405.94 39.22 400.99 39.22 396.04 39.22 391.08 39.22 386.14 39.22 386.14 44.12 391.08 44.12 396.04 44.12"/><polygon class="cls-47" points="410.89 98.04 405.94 98.04 400.99 98.04 396.04 98.04 391.08 98.04 386.14 98.04 381.18 98.04 376.24 98.04 376.24 102.94 381.18 102.94 386.14 102.94 391.08 102.94 396.04 102.94 400.99 102.94 405.94 102.94 410.89 102.94 415.84 102.94 420.79 102.94 420.79 98.04 415.84 98.04 410.89 98.04"/><polygon class="cls-47" points="415.84 88.24 410.89 88.24 405.94 88.24 400.99 88.24 396.04 88.24 391.08 88.24 386.14 88.24 381.18 88.24 376.24 88.24 371.28 88.24 371.28 93.14 376.24 93.14 381.18 93.14 386.14 93.14 391.08 93.14 396.04 93.14 400.99 93.14 405.94 93.14 410.89 93.14 415.84 93.14 420.79 93.14 425.74 93.14 425.74 88.24 420.79 88.24 415.84 88.24"/><polygon class="cls-47" points="415.84 78.43 410.89 78.43 405.94 78.43 400.99 78.43 396.04 78.43 391.08 78.43 386.14 78.43 381.18 78.43 376.24 78.43 371.28 78.43 371.28 83.34 376.24 83.34 381.18 83.34 386.14 83.34 391.08 83.34 396.04 83.34 400.99 83.34 405.94 83.34 410.89 83.34 415.84 83.34 420.79 83.34 425.74 83.34 425.74 78.43 420.79 78.43 415.84 78.43"/><polygon class="cls-47" points="415.84 68.63 410.89 68.63 405.94 68.63 400.99 68.63 396.04 68.63 391.08 68.63 386.14 68.63 381.18 68.63 376.24 68.63 371.28 68.63 371.28 73.53 376.24 73.53 381.18 73.53 386.14 73.53 391.08 73.53 396.04 73.53 400.99 73.53 405.94 73.53 410.89 73.53 415.84 73.53 420.79 73.53 425.74 73.53 425.74 68.63 420.79 68.63 415.84 68.63"/><polygon class="cls-47" points="415.84 58.82 410.89 58.82 405.94 58.82 400.99 58.82 396.04 58.82 391.08 58.82 386.14 58.82 381.18 58.82 376.24 58.82 371.28 58.82 371.28 63.72 376.24 63.72 381.18 63.72 386.14 63.72 391.08 63.72 396.04 63.72 400.99 63.72 405.94 63.72 410.89 63.72 415.84 63.72 420.79 63.72 425.74 63.72 425.74 58.82 420.79 58.82 415.84 58.82"/><polygon class="cls-47" points="415.84 49.02 410.89 49.02 405.94 49.02 400.99 49.02 396.04 49.02 391.08 49.02 386.14 49.02 381.18 49.02 376.24 49.02 371.28 49.02 371.28 53.92 376.24 53.92 381.18 53.92 386.14 53.92 391.08 53.92 396.04 53.92 400.99 53.92 405.94 53.92 410.89 53.92 415.84 53.92 420.79 53.92 425.74 53.92 425.74 49.02 420.79 49.02 415.84 49.02"/><polygon class="cls-47" points="420.79 39.22 415.84 39.22 415.84 44.12 420.79 44.12 425.74 44.12 425.74 39.22 420.79 39.22"/><rect class="cls-48" x="425.74" y="151.96" width="4.95" height="4.9"/><rect class="cls-48" x="430.69" y="220.59" width="4.96" height="4.9"/><rect class="cls-48" x="430.69" y="142.15" width="4.96" height="4.9"/><rect class="cls-48" x="435.64" y="191.17" width="4.95" height="4.9"/><rect class="cls-48" x="435.64" y="161.77" width="4.95" height="4.9"/><rect class="cls-48" x="440.59" y="200.97" width="4.96" height="4.9"/><polygon class="cls-49" points="445.55 53.92 440.59 53.92 440.59 58.82 440.59 63.72 445.55 63.72 450.49 63.72 450.49 58.82 450.49 53.92 445.55 53.92"/><rect class="cls-48" x="450.49" y="186.27" width="4.96" height="4.9"/><rect class="cls-48" x="450.49" y="176.47" width="4.96" height="4.9"/><polygon class="cls-50" points="430.69 200.97 430.69 205.88 430.69 210.78 425.74 210.78 425.74 215.68 430.69 215.68 435.64 215.68 435.64 210.78 440.59 210.78 440.59 205.88 440.59 200.97 435.64 200.97 430.69 200.97"/><polygon class="cls-50" points="435.64 220.59 435.64 225.49 440.59 225.49 445.55 225.49 445.55 220.59 440.59 220.59 440.59 215.68 435.64 215.68 435.64 220.59"/><rect class="cls-50" x="435.64" y="171.57" width="4.95" height="4.9"/><polygon class="cls-50" points="435.64 156.86 435.64 151.96 435.64 147.05 430.69 147.05 430.69 151.96 430.69 156.86 430.69 161.76 435.64 161.76 440.59 161.76 440.59 156.86 435.64 156.86"/><rect class="cls-50" x="440.59" y="210.78" width="4.96" height="4.9"/><rect class="cls-50" x="440.59" y="186.27" width="4.96" height="4.9"/><polygon class="cls-50" points="445.55 161.76 440.59 161.76 440.59 166.67 440.59 171.57 445.55 171.57 445.55 166.67 445.55 161.76"/><polygon class="cls-50" points="445.55 191.17 445.55 196.07 440.59 196.07 440.59 200.97 445.55 200.97 450.49 200.97 450.49 196.07 455.45 196.07 455.45 191.17 450.49 191.17 445.55 191.17"/><polygon class="cls-50" points="450.49 171.57 445.55 171.57 445.55 176.47 445.55 181.37 450.49 181.37 450.49 176.47 450.49 171.57"/><polygon class="cls-50" points="445.55 161.76 450.49 161.76 450.49 156.86 450.49 151.96 445.55 151.96 445.55 147.05 440.59 147.05 440.59 151.96 440.59 156.86 445.55 156.86 445.55 161.76"/><rect class="cls-50" x="450.49" y="200.97" width="4.96" height="4.9"/><rect class="cls-50" x="450.49" y="181.37" width="4.96" height="4.9"/><rect class="cls-50" x="450.49" y="166.67" width="4.96" height="4.9"/><rect class="cls-50" x="455.45" y="186.27" width="4.95" height="4.9"/><polygon class="cls-51" points="455.45 49.02 450.49 49.02 450.49 53.92 450.49 58.82 450.49 63.72 455.45 63.72 460.39 63.72 460.39 58.82 460.39 53.92 460.39 49.02 455.45 49.02"/><rect class="cls-48" x="460.39" y="225.49" width="4.96" height="4.9"/><rect class="cls-48" x="460.39" y="205.88" width="4.96" height="4.9"/><rect class="cls-48" x="460.39" y="156.86" width="4.96" height="4.9"/><rect class="cls-52" x="460.39" y="58.82" width="4.96" height="4.9"/><rect class="cls-53" x="420.79" y="205.88" width="4.96" height="4.9"/><polygon class="cls-53" points="430.69 225.49 430.69 230.39 435.64 230.39 435.64 235.29 440.59 235.29 440.59 230.39 440.59 225.49 435.64 225.49 430.69 225.49"/><rect class="cls-53" x="430.69" y="215.68" width="4.96" height="4.91"/><polygon class="cls-53" points="430.69 196.07 425.74 196.07 420.79 196.07 420.79 200.97 425.74 200.97 425.74 205.88 430.69 205.88 430.69 200.97 435.64 200.97 435.64 196.07 435.64 191.17 430.69 191.17 430.69 196.07"/><rect class="cls-53" x="430.69" y="181.37" width="4.96" height="4.9"/><polygon class="cls-53" points="430.69 161.76 425.74 161.76 425.74 166.67 430.69 166.67 435.64 166.67 435.64 161.76 430.69 161.76"/><rect class="cls-53" x="435.64" y="186.27" width="4.95" height="4.9"/><rect class="cls-53" x="435.64" y="166.67" width="4.95" height="4.9"/><rect class="cls-53" x="435.64" y="151.96" width="4.95" height="4.9"/><polygon class="cls-53" points="440.59 176.47 440.59 181.37 440.59 186.27 445.55 186.27 445.55 181.37 445.55 176.47 445.55 171.57 440.59 171.57 440.59 176.47"/><rect class="cls-53" x="440.59" y="156.86" width="4.96" height="4.9"/><rect class="cls-53" x="450.49" y="225.49" width="4.96" height="4.9"/><rect class="cls-53" x="450.49" y="205.88" width="4.96" height="4.9"/><rect class="cls-53" x="450.49" y="171.57" width="4.96" height="4.9"/><rect class="cls-53" x="455.45" y="245.09" width="4.95" height="4.9"/><polygon class="cls-53" points="455.45 220.59 455.45 225.49 460.39 225.49 465.35 225.49 465.35 220.59 460.39 220.59 460.39 215.68 465.35 215.68 465.35 210.78 460.39 210.78 455.45 210.78 455.45 215.68 455.45 220.59"/><polygon class="cls-53" points="460.39 196.07 460.39 191.17 455.45 191.17 455.45 196.07 455.45 200.97 455.45 205.88 460.39 205.88 465.35 205.88 465.35 200.97 460.39 200.97 460.39 196.07"/><polygon class="cls-53" points="455.45 156.86 450.49 156.86 450.49 161.76 455.45 161.76 460.39 161.76 460.39 156.86 455.45 156.86"/><polygon class="cls-53" points="465.35 235.29 465.35 230.39 460.39 230.39 460.39 235.29 460.39 240.19 460.39 245.09 465.35 245.09 470.29 245.09 470.29 240.19 465.35 240.19 465.35 235.29"/><polygon class="cls-53" points="465.35 171.57 470.29 171.57 470.29 166.67 465.35 166.67 465.35 161.76 460.39 161.76 460.39 166.67 460.39 171.57 460.39 176.47 455.45 176.47 455.45 181.37 455.45 186.27 460.39 186.27 460.39 181.37 465.35 181.37 465.35 176.47 465.35 171.57"/><rect class="cls-53" x="465.35" y="215.68" width="4.95" height="4.91"/><rect class="cls-53" x="465.35" y="196.07" width="4.95" height="4.9"/><rect class="cls-53" x="465.35" y="181.37" width="4.95" height="4.9"/><rect class="cls-48" x="470.29" y="191.17" width="4.96" height="4.9"/><rect class="cls-48" x="470.29" y="171.57" width="4.96" height="4.9"/><polygon class="cls-54" points="470.29 44.12 465.35 44.12 465.35 49.02 465.35 53.92 465.35 58.82 465.35 63.72 470.29 63.72 475.25 63.72 475.25 58.82 475.25 53.92 475.25 49.02 475.25 44.12 470.29 44.12"/><rect class="cls-48" x="475.25" y="205.88" width="4.95" height="4.9"/><polygon class="cls-55" points="435.64 186.27 430.69 186.27 430.69 181.37 435.64 181.37 435.64 186.27 440.59 186.27 440.59 181.37 440.59 176.47 435.64 176.47 435.64 171.57 435.64 166.67 430.69 166.67 425.74 166.67 425.74 161.76 420.79 161.76 420.79 166.67 420.79 171.57 425.74 171.57 425.74 176.47 425.74 181.37 425.74 186.27 425.74 191.17 425.74 196.07 430.69 196.07 430.69 191.17 435.64 191.17 435.64 186.27"/><rect class="cls-55" x="435.64" y="196.07" width="4.95" height="4.9"/><rect class="cls-55" x="440.59" y="191.17" width="4.96" height="4.9"/><rect class="cls-55" x="445.54" y="200.97" width="4.95" height="4.9"/><polygon class="cls-55" points="450.49 186.27 450.49 181.37 445.55 181.37 445.55 186.27 445.55 191.17 450.49 191.17 450.49 186.27"/><rect class="cls-55" x="450.49" y="196.07" width="4.96" height="4.9"/><polygon class="cls-55" points="455.45 176.47 460.39 176.47 460.39 171.57 460.39 166.67 460.39 161.76 455.45 161.76 450.49 161.76 445.55 161.76 445.55 166.67 445.55 171.57 450.49 171.57 450.49 166.67 455.45 166.67 455.45 171.57 455.45 176.47"/><rect class="cls-55" x="460.39" y="196.07" width="4.96" height="4.9"/><polygon class="cls-55" points="460.39 186.27 460.39 191.17 465.35 191.17 465.35 186.27 465.35 181.37 460.39 181.37 460.39 186.27"/><rect class="cls-55" x="465.35" y="200.97" width="4.95" height="4.9"/><polygon class="cls-55" points="470.29 176.47 470.29 171.57 465.35 171.57 465.35 176.47 465.35 181.37 470.29 181.37 470.29 176.47"/><rect class="cls-55" x="465.35" y="156.86" width="4.95" height="4.9"/><rect class="cls-55" x="470.29" y="186.27" width="4.96" height="4.9"/><polygon class="cls-55" points="475.25 161.76 475.25 166.67 475.25 171.57 480.19 171.57 480.19 166.67 480.19 161.76 475.25 161.76"/><polygon class="cls-56" points="470.29 186.27 465.35 186.27 465.35 191.17 460.39 191.17 460.39 196.07 465.35 196.07 470.29 196.07 470.29 191.17 470.29 186.27"/><polygon class="cls-56" points="465.35 151.96 460.39 151.96 460.39 147.05 455.45 147.05 455.45 151.96 450.49 151.96 450.49 156.86 455.45 156.86 460.39 156.86 465.35 156.86 470.29 156.86 470.29 151.96 465.35 151.96"/><rect class="cls-56" x="470.29" y="225.49" width="4.96" height="4.9"/><polygon class="cls-56" points="475.25 200.97 475.25 196.07 470.29 196.07 470.29 200.97 470.29 205.88 470.29 210.78 475.25 210.78 475.25 205.88 475.25 200.97"/><polygon class="cls-56" points="475.25 181.37 475.25 176.47 470.29 176.47 470.29 181.37 470.29 186.27 475.25 186.27 475.25 181.37"/><polygon class="cls-56" points="475.25 161.76 475.25 156.86 470.29 156.86 470.29 161.76 465.35 161.76 465.35 166.67 470.29 166.67 470.29 171.57 475.25 171.57 475.25 166.67 475.25 161.76"/><rect class="cls-56" x="475.25" y="171.57" width="4.95" height="4.9"/><rect class="cls-56" x="480.19" y="225.49" width="4.96" height="4.9"/><polygon class="cls-56" points="485.15 220.59 485.15 215.68 480.19 215.68 480.19 210.78 475.25 210.78 475.25 215.68 475.25 220.59 475.25 225.49 480.19 225.49 480.19 220.59 485.15 220.59"/><rect class="cls-57" x="311.89" y="166.67" width="4.95" height="4.9"/><polygon class="cls-57" points="460.39 68.63 455.45 68.63 455.45 73.53 455.45 78.43 460.39 78.43 460.39 73.53 460.39 68.63"/><polygon class="cls-57" points="470.29 78.43 465.35 78.43 460.39 78.43 460.39 83.34 465.35 83.34 470.29 83.34 475.25 83.34 480.19 83.34 480.19 78.43 475.25 78.43 470.29 78.43"/><polygon class="cls-57" points="480.19 68.63 480.19 73.53 480.19 78.43 485.15 78.43 485.15 73.53 485.15 68.63 480.19 68.63"/><polygon class="cls-58" points="480.19 49.02 475.25 49.02 475.25 53.92 475.25 58.82 475.25 63.72 480.19 63.72 485.15 63.72 485.15 58.82 485.15 53.92 485.15 49.02 480.19 49.02"/><polygon class="cls-59" points="490.09 147.05 485.15 147.05 480.19 147.05 475.25 147.05 470.29 147.05 470.29 151.96 470.29 156.86 475.25 156.86 480.19 156.86 485.15 156.86 490.09 156.86 495.05 156.86 495.05 151.96 495.05 147.05 490.09 147.05"/><polygon class="cls-60" points="490.09 53.92 485.15 53.92 485.15 58.82 485.15 63.72 490.09 63.72 495.05 63.72 495.05 58.82 495.05 53.92 490.09 53.92"/><rect class="cls-61" x="465.35" y="147.05" width="4.95" height="4.91"/><polygon class="cls-61" points="475.25 156.86 475.25 161.76 480.19 161.76 485.15 161.76 485.15 156.86 480.19 156.86 475.25 156.86"/><polygon class="cls-61" points="490.09 142.15 485.15 142.15 480.19 142.15 475.25 142.15 470.29 142.15 470.29 147.05 475.25 147.05 480.19 147.05 485.15 147.05 490.09 147.05 495.05 147.05 495.05 142.15 490.09 142.15"/><polygon class="cls-61" points="495.05 147.05 495.05 151.96 495.05 156.86 500 156.86 500 151.96 500 147.05 495.05 147.05"/><polygon class="cls-62" points="495.05 44.12 495.05 49.02 495.05 53.92 495.05 58.82 495.05 63.72 500 63.72 500 58.82 500 53.92 500 49.02 500 44.12 495.05 44.12"/><polygon class="cls-63" points="490.09 156.86 485.15 156.86 485.15 161.76 490.09 161.76 495.05 161.76 500 161.76 500 156.86 495.05 156.86 490.09 156.86"/><polygon class="cls-63" points="490.09 137.25 485.15 137.25 480.19 137.25 475.25 137.25 470.29 137.25 465.35 137.25 465.35 142.15 460.39 142.15 460.39 147.05 460.39 151.96 465.35 151.96 465.35 147.05 470.29 147.05 470.29 142.15 475.25 142.15 480.19 142.15 485.15 142.15 490.09 142.15 495.05 142.15 495.05 137.25 490.09 137.25"/><polygon class="cls-63" points="500 142.15 495.05 142.15 495.05 147.05 500 147.05 500 151.96 500 156.86 504.95 156.86 504.95 151.96 504.95 147.05 504.95 142.15 500 142.15"/><rect class="cls-64" x="252.48" y="132.35" width="4.95" height="4.9"/><polygon class="cls-64" points="425.74 142.15 425.74 137.25 425.74 132.35 420.79 132.35 420.79 127.45 415.84 127.45 410.89 127.45 410.89 122.55 410.89 117.65 415.84 117.65 420.79 117.65 420.79 112.75 415.84 112.75 410.89 112.75 405.94 112.75 400.99 112.75 396.04 112.75 391.08 112.75 386.14 112.75 381.18 112.75 376.24 112.75 371.28 112.75 366.34 112.75 361.39 112.75 356.44 112.75 351.49 112.75 346.54 112.75 341.59 112.75 336.63 112.75 331.69 112.75 326.73 112.75 321.79 112.75 316.83 112.75 311.89 112.75 306.93 112.75 301.99 112.75 297.03 112.75 292.08 112.75 287.13 112.75 282.18 112.75 277.23 112.75 272.28 112.75 267.33 112.75 262.38 112.75 257.43 112.75 252.48 112.75 247.53 112.75 242.58 112.75 237.62 112.75 232.68 112.75 232.68 117.65 232.68 122.55 232.68 127.45 232.68 132.35 237.62 132.35 237.62 127.45 242.58 127.45 247.53 127.45 252.48 127.45 257.43 127.45 257.43 132.35 262.38 132.35 262.38 137.25 262.38 142.15 267.33 142.15 267.33 137.25 267.33 132.35 267.33 127.45 272.28 127.45 277.23 127.45 282.18 127.45 282.18 122.55 287.13 122.55 292.08 122.55 297.03 122.55 301.99 122.55 306.93 122.55 311.89 122.55 316.83 122.55 321.79 122.55 326.73 122.55 331.69 122.55 331.69 127.45 336.63 127.45 341.59 127.45 341.59 132.35 341.59 137.25 341.59 142.15 341.59 147.05 341.59 151.96 341.59 156.86 341.59 161.76 341.59 166.67 336.63 166.67 336.63 171.57 341.59 171.57 346.54 171.57 351.49 171.57 356.44 171.57 361.39 171.57 361.39 166.67 366.34 166.67 366.34 161.76 366.34 156.86 361.39 156.86 361.39 151.96 361.39 147.05 366.34 147.05 366.34 142.15 366.34 137.25 366.34 132.35 371.28 132.35 371.28 127.45 371.28 122.55 376.24 122.55 376.24 117.65 381.18 117.65 381.18 122.55 386.14 122.55 386.14 127.45 386.14 132.35 391.08 132.35 391.08 127.45 396.04 127.45 396.04 122.55 400.99 122.55 400.99 127.45 405.94 127.45 405.94 132.35 405.94 137.25 410.89 137.25 410.89 142.15 410.89 147.05 415.84 147.05 415.84 151.96 415.84 156.86 415.84 161.76 410.89 161.76 410.89 166.67 415.84 166.67 415.84 171.57 420.79 171.57 420.79 166.67 420.79 161.76 420.79 156.86 425.74 156.86 425.74 151.96 430.69 151.96 430.69 147.05 425.74 147.05 425.74 142.15"/><polygon class="cls-64" points="435.64 98.04 435.64 102.94 440.59 102.94 440.59 98.04 440.59 93.14 435.64 93.14 435.64 98.04"/><polygon class="cls-64" points="500 93.14 500 98.04 500 102.94 504.95 102.94 504.95 98.04 504.95 93.14 500 93.14"/><path class="cls-65" d="M500,63.72H435.64V93.14h4.95v9.8H500v-9.8H505V63.72Zm-39.61,4.91v9.8h19.8v-9.8h5v9.8h-5v4.91h-19.8V78.43h-4.94v-9.8Z"/><rect class="cls-66" x="455.45" y="142.15" width="4.95" height="4.9"/><polygon class="cls-66" points="490.09 161.76 485.15 161.76 480.19 161.76 480.19 166.67 485.15 166.67 490.09 166.67 495.05 166.67 500 166.67 500 161.76 495.05 161.76 490.09 161.76"/><polygon class="cls-66" points="504.95 137.25 500 137.25 500 132.35 495.05 132.35 490.09 132.35 485.15 132.35 480.19 132.35 475.25 132.35 470.29 132.35 465.35 132.35 460.39 132.35 460.39 137.25 460.39 142.15 465.35 142.15 465.35 137.25 470.29 137.25 475.25 137.25 480.19 137.25 485.15 137.25 490.09 137.25 495.05 137.25 495.05 142.15 500 142.15 504.95 142.15 504.95 147.05 504.95 151.96 504.95 156.86 500 156.86 500 161.76 504.95 161.76 509.9 161.76 509.9 156.86 509.9 151.96 509.9 147.05 509.9 142.15 509.9 137.25 504.95 137.25"/><polygon class="cls-67" points="450.49 132.35 450.49 137.25 450.49 142.15 450.49 147.05 450.49 151.96 455.45 151.96 455.45 147.05 455.45 142.15 460.39 142.15 460.39 137.25 460.39 132.35 455.45 132.35 450.49 132.35"/><polygon class="cls-67" points="500 161.76 500 166.67 495.05 166.67 490.09 166.67 485.15 166.67 480.19 166.67 480.19 171.57 485.15 171.57 490.09 171.57 495.05 171.57 500 171.57 504.95 171.57 504.95 166.67 509.9 166.67 509.9 161.76 504.95 161.76 500 161.76"/><polygon class="cls-67" points="514.85 142.15 514.85 137.25 514.85 132.35 509.9 132.35 509.9 127.45 504.95 127.45 500 127.45 495.05 127.45 495.05 122.55 490.09 122.55 485.15 122.55 480.19 122.55 475.25 122.55 470.29 122.55 465.35 122.55 465.35 127.45 460.39 127.45 460.39 132.35 465.35 132.35 470.29 132.35 475.25 132.35 480.19 132.35 485.15 132.35 490.09 132.35 495.05 132.35 500 132.35 500 137.25 504.95 137.25 509.9 137.25 509.9 142.15 509.9 147.05 509.9 151.96 509.9 156.86 509.9 161.76 514.85 161.76 514.85 156.86 519.8 156.86 519.8 151.96 519.8 147.05 519.8 142.15 514.85 142.15"/><polygon class="cls-68" points="237.62 171.57 232.68 171.57 232.68 176.47 232.68 181.37 237.62 181.37 242.58 181.37 247.53 181.37 247.53 176.47 247.53 171.57 242.58 171.57 237.62 171.57"/><polygon class="cls-68" points="415.84 171.57 410.89 171.57 405.94 171.57 400.99 171.57 396.04 171.57 391.08 171.57 386.14 171.57 381.18 171.57 376.24 171.57 371.28 171.57 366.34 171.57 361.39 171.57 356.44 171.57 351.49 171.57 346.54 171.57 341.59 171.57 336.63 171.57 331.69 171.57 326.73 171.57 321.79 171.57 316.83 171.57 311.89 171.57 311.89 176.47 311.89 181.37 316.83 181.37 316.83 176.47 321.79 176.47 326.73 176.47 331.69 176.47 336.63 176.47 341.59 176.47 346.54 176.47 346.54 181.37 351.49 181.37 356.44 181.37 361.39 181.37 366.34 181.37 371.28 181.37 376.24 181.37 381.18 181.37 386.14 181.37 391.08 181.37 396.04 181.37 400.99 181.37 405.94 181.37 410.89 181.37 415.84 181.37 420.79 181.37 425.74 181.37 425.74 176.47 425.74 171.57 420.79 171.57 415.84 171.57"/><polygon class="cls-68" points="514.85 171.57 509.9 171.57 504.95 171.57 500 171.57 495.05 171.57 490.09 171.57 485.15 171.57 480.19 171.57 480.19 176.47 475.25 176.47 475.25 181.37 480.19 181.37 485.15 181.37 490.09 181.37 495.05 181.37 500 181.37 504.95 181.37 509.9 181.37 514.85 181.37 519.8 181.37 524.75 181.37 524.75 176.47 524.75 171.57 519.8 171.57 514.85 171.57"/><polygon class="cls-68" points="519.8 102.94 514.85 102.94 509.9 102.94 504.95 102.94 500 102.94 495.05 102.94 490.09 102.94 485.15 102.94 480.19 102.94 475.25 102.94 470.29 102.94 465.35 102.94 460.39 102.94 455.45 102.94 450.49 102.94 445.55 102.94 440.59 102.94 435.64 102.94 430.69 102.94 425.74 102.94 420.79 102.94 415.84 102.94 410.89 102.94 405.94 102.94 400.99 102.94 396.04 102.94 391.08 102.94 386.14 102.94 381.18 102.94 376.24 102.94 371.28 102.94 366.34 102.94 361.39 102.94 356.44 102.94 351.49 102.94 346.54 102.94 341.59 102.94 336.63 102.94 331.69 102.94 326.73 102.94 321.79 102.94 316.83 102.94 311.89 102.94 306.93 102.94 301.99 102.94 297.03 102.94 292.08 102.94 287.13 102.94 282.18 102.94 277.23 102.94 272.28 102.94 267.33 102.94 262.38 102.94 257.43 102.94 252.48 102.94 247.53 102.94 242.58 102.94 237.62 102.94 232.68 102.94 232.68 107.84 232.68 112.75 237.62 112.75 242.58 112.75 247.53 112.75 252.48 112.75 257.43 112.75 262.38 112.75 267.33 112.75 272.28 112.75 277.23 112.75 282.18 112.75 287.13 112.75 292.08 112.75 297.03 112.75 301.99 112.75 306.93 112.75 311.89 112.75 316.83 112.75 321.79 112.75 326.73 112.75 331.69 112.75 336.63 112.75 341.59 112.75 346.54 112.75 351.49 112.75 356.44 112.75 361.39 112.75 366.34 112.75 371.28 112.75 376.24 112.75 381.18 112.75 386.14 112.75 391.08 112.75 396.04 112.75 400.99 112.75 405.94 112.75 410.89 112.75 415.84 112.75 420.79 112.75 425.74 112.75 430.69 112.75 435.64 112.75 440.59 112.75 445.55 112.75 450.49 112.75 455.45 112.75 460.39 112.75 465.35 112.75 470.29 112.75 475.25 112.75 480.19 112.75 485.15 112.75 490.09 112.75 495.05 112.75 500 112.75 504.95 112.75 509.9 112.75 514.85 112.75 519.8 112.75 524.75 112.75 524.75 107.84 524.75 102.94 519.8 102.94"/><polygon class="cls-64" points="524.75 200.97 524.75 205.87 519.79 205.87 514.85 205.87 509.89 205.87 504.95 205.87 499.99 205.87 495.05 205.87 490.09 205.87 485.15 205.87 480.19 205.87 475.24 205.87 475.24 200.97 475.24 196.07 475.24 191.17 475.24 186.27 475.24 181.37 480.19 181.37 485.15 181.37 490.09 181.37 495.05 181.37 499.99 181.37 504.95 181.37 509.89 181.37 514.85 181.37 519.79 181.37 524.75 181.37 524.75 186.27 524.75 191.17 524.75 196.07 524.75 200.97"/><polygon class="cls-64" points="524.75 166.66 524.75 171.56 519.79 171.56 514.85 171.56 509.89 171.56 504.95 171.56 504.95 166.66 509.89 166.66 509.89 161.76 514.85 161.76 514.85 156.86 519.79 156.86 519.79 151.96 519.79 147.05 519.79 142.15 514.85 142.15 514.85 137.25 514.85 132.35 509.89 132.35 509.89 127.44 504.95 127.44 499.99 127.44 495.05 127.44 495.05 122.54 490.09 122.54 485.15 122.54 480.19 122.54 475.24 122.54 470.29 122.54 465.34 122.54 465.34 127.44 460.39 127.44 460.39 132.35 455.44 132.35 450.49 132.35 450.49 137.25 450.49 142.15 450.49 147.05 450.49 151.96 445.54 151.96 445.54 147.05 440.59 147.05 440.59 151.96 435.64 151.96 435.64 147.05 435.64 142.15 430.68 142.15 430.68 147.05 425.74 147.05 425.74 142.15 425.74 137.25 425.74 132.35 420.78 132.35 420.78 127.44 415.84 127.44 410.88 127.44 410.88 122.54 410.88 117.64 415.84 117.64 420.78 117.64 420.78 112.74 425.74 112.74 430.68 112.74 435.64 112.74 440.59 112.74 445.54 112.74 450.49 112.74 455.44 112.74 460.39 112.74 465.34 112.74 470.29 112.74 475.24 112.74 480.19 112.74 485.15 112.74 490.09 112.74 495.05 112.74 499.99 112.74 504.95 112.74 509.89 112.74 514.85 112.74 519.79 112.74 524.75 112.74 524.75 117.64 524.75 122.54 524.75 127.44 524.75 132.35 524.75 137.25 524.75 142.15 524.75 147.05 524.75 151.96 524.75 156.86 524.75 161.76 524.75 166.66"/><polygon class="cls-64" points="524.75 98.04 524.75 102.94 519.79 102.94 514.85 102.94 509.89 102.94 504.95 102.94 504.95 98.04 504.95 93.14 504.95 88.24 504.95 83.33 504.95 78.42 504.95 73.52 504.95 68.62 504.95 63.72 499.99 63.72 499.99 58.82 499.99 53.92 499.99 49.02 499.99 44.12 504.95 44.12 504.95 49.02 504.95 53.92 509.89 53.92 509.89 58.82 514.85 58.82 514.85 63.72 514.85 68.62 519.79 68.62 519.79 73.52 519.79 78.42 519.79 83.33 524.75 83.33 524.75 88.24 524.75 93.14 524.75 98.04"/><polygon class="cls-64" points="499.99 39.22 499.99 44.12 495.05 44.12 495.05 49.02 495.05 53.92 490.09 53.92 485.15 53.92 485.15 49.02 480.19 49.02 475.24 49.02 475.24 44.12 470.29 44.12 465.34 44.12 465.34 49.02 465.34 53.92 465.34 58.82 460.39 58.82 460.39 53.92 460.39 49.02 455.44 49.02 450.49 49.02 450.49 53.92 445.54 53.92 440.59 53.92 440.59 58.82 440.59 63.72 435.64 63.72 435.64 68.62 435.64 73.52 435.64 78.42 435.64 83.33 435.64 88.24 435.64 93.14 435.64 98.04 435.64 102.94 430.68 102.94 425.74 102.94 420.78 102.94 420.78 98.04 425.74 98.04 425.74 93.14 425.74 88.24 425.74 83.33 425.74 78.42 425.74 73.52 425.74 68.62 425.74 63.72 425.74 58.82 425.74 53.92 425.74 49.02 425.74 44.12 425.74 39.22 420.78 39.22 415.84 39.22 415.84 34.31 415.84 29.41 410.88 29.41 410.88 24.51 405.94 24.51 400.98 24.51 396.04 24.51 391.08 24.51 386.14 24.51 386.14 29.41 381.18 29.41 381.18 34.31 381.18 39.22 376.23 39.22 371.28 39.22 371.28 44.12 371.28 49.02 371.28 53.92 371.28 58.82 371.28 63.72 371.28 68.62 371.28 73.52 371.28 78.42 371.28 83.33 371.28 88.24 371.28 93.14 371.28 98.04 376.23 98.04 376.23 102.94 371.28 102.94 366.33 102.94 361.39 102.94 361.39 98.04 366.33 98.04 366.33 93.14 366.33 88.24 366.33 83.33 366.33 78.42 366.33 73.52 361.39 73.52 361.39 68.62 361.39 63.72 356.43 63.72 356.43 58.82 356.43 53.92 351.49 53.92 351.49 49.02 346.53 49.02 346.53 44.12 346.53 39.22 346.53 34.31 346.53 29.41 346.53 24.51 351.49 24.51 351.49 19.61 356.43 19.61 356.43 14.71 351.49 14.71 346.53 14.71 346.53 9.8 341.59 9.8 336.63 9.8 331.68 9.8 326.73 9.8 326.73 14.71 321.78 14.71 316.83 14.71 316.83 19.61 321.78 19.61 321.78 24.51 326.73 24.51 326.73 29.41 326.73 34.31 326.73 39.22 326.73 44.12 326.73 49.02 321.78 49.02 321.78 53.92 316.83 53.92 316.83 58.82 316.83 63.72 311.88 63.72 311.88 68.62 311.88 73.52 306.93 73.52 306.93 78.42 306.93 83.33 306.93 88.24 306.93 93.14 306.93 98.04 311.88 98.04 311.88 102.94 306.93 102.94 301.98 102.94 297.03 102.94 297.03 98.04 301.98 98.04 301.98 93.14 301.98 88.24 301.98 83.33 301.98 78.42 301.98 73.52 301.98 68.62 306.93 68.62 306.93 63.72 306.93 58.82 301.98 58.82 297.03 58.82 297.03 53.92 292.08 53.92 287.13 53.92 282.18 53.92 277.22 53.92 277.22 58.82 272.28 58.82 267.32 58.82 267.32 63.72 267.32 68.62 272.28 68.62 272.28 73.52 272.28 78.42 272.28 83.33 272.28 88.24 272.28 93.14 272.28 98.04 277.22 98.04 277.22 102.94 272.28 102.94 267.32 102.94 262.38 102.94 257.42 102.94 252.48 102.94 252.48 98.04 247.52 98.04 247.52 93.14 247.52 88.24 252.48 88.24 252.48 83.33 257.42 83.33 257.42 78.42 262.38 78.42 262.38 73.52 262.38 68.62 262.38 63.72 262.38 58.82 262.38 53.92 262.38 49.02 262.38 44.12 267.32 44.12 267.32 39.22 272.28 39.22 272.28 34.31 277.22 34.31 277.22 29.41 282.18 29.41 282.18 24.51 287.13 24.51 292.08 24.51 292.08 19.61 297.03 19.61 301.98 19.61 301.98 14.71 306.93 14.71 306.93 9.8 311.88 9.8 316.83 9.8 316.83 4.9 321.78 4.9 326.73 4.9 331.68 4.9 336.63 4.9 336.63 0 341.59 0 346.53 0 351.49 0 356.43 0 361.39 0 366.33 0 371.28 0 376.23 0 381.18 0 386.14 0 391.08 0 396.04 0 400.98 0 405.94 0 410.88 0 415.84 0 420.78 0 425.74 0 430.68 0 435.64 0 435.64 4.9 440.59 4.9 445.54 4.9 450.49 4.9 450.49 9.8 455.44 9.8 460.39 9.8 460.39 14.71 465.34 14.71 470.29 14.71 470.29 19.61 475.24 19.61 475.24 24.51 480.19 24.51 485.15 24.51 485.15 29.41 490.09 29.41 490.09 34.31 495.05 34.31 495.05 39.22 499.99 39.22"/><polygon class="cls-64" points="430.68 156.86 430.68 161.76 425.74 161.76 420.78 161.76 420.78 156.86 425.74 156.86 430.68 156.86"/><polygon class="cls-64" points="425.74 200.97 425.74 205.87 420.78 205.87 415.84 205.87 410.88 205.87 410.88 200.97 410.88 196.07 405.94 196.07 400.98 196.07 400.98 191.17 396.04 191.17 391.08 191.17 386.14 191.17 381.18 191.17 376.23 191.17 371.28 191.17 371.28 196.07 366.33 196.07 361.39 196.07 361.39 200.97 361.39 205.87 356.43 205.87 351.49 205.87 346.53 205.87 341.59 205.87 341.59 200.97 346.53 200.97 346.53 196.07 346.53 191.17 346.53 186.27 341.59 186.27 341.59 181.37 346.53 181.37 351.49 181.37 356.43 181.37 361.39 181.37 366.33 181.37 371.28 181.37 376.23 181.37 381.18 181.37 386.14 181.37 391.08 181.37 396.04 181.37 400.98 181.37 405.94 181.37 410.88 181.37 415.84 181.37 420.78 181.37 425.74 181.37 425.74 186.27 425.74 191.17 425.74 196.07 420.78 196.07 420.78 200.97 425.74 200.97"/><polygon class="cls-64" points="410.88 34.31 410.88 39.22 405.94 39.22 400.98 39.22 396.04 39.22 391.08 39.22 386.14 39.22 386.14 34.31 386.14 29.41 391.08 29.41 396.04 29.41 400.98 29.41 405.94 29.41 410.88 29.41 410.88 34.31"/><polygon class="cls-64" points="321.78 200.97 321.78 205.87 316.83 205.87 311.88 205.87 311.88 200.97 311.88 196.07 311.88 191.17 311.88 186.27 311.88 181.37 316.83 181.37 321.78 181.37 321.78 186.27 316.83 186.27 316.83 191.17 316.83 196.07 316.83 200.97 321.78 200.97"/><polygon class="cls-64" points="267.32 161.76 267.32 166.66 262.38 166.66 257.42 166.66 252.48 166.66 247.52 166.66 247.52 161.76 247.52 156.86 247.52 151.96 247.52 147.05 247.52 142.15 247.52 137.25 252.48 137.25 257.42 137.25 257.42 132.35 262.38 132.35 262.38 137.25 262.38 142.15 257.42 142.15 257.42 147.05 252.48 147.05 252.48 151.96 252.48 156.86 257.42 156.86 257.42 161.76 262.38 161.76 267.32 161.76"/><polygon class="cls-64" points="257.42 127.44 257.42 132.35 252.48 132.35 247.52 132.35 242.58 132.35 237.62 132.35 237.62 127.44 242.58 127.44 247.52 127.44 252.48 127.44 257.42 127.44"/><polygon class="cls-64" points="247.52 200.97 247.52 205.87 242.58 205.87 237.62 205.87 232.67 205.87 232.67 200.97 232.67 196.07 232.67 191.17 232.67 186.27 232.67 181.37 237.62 181.37 242.58 181.37 247.52 181.37 247.52 186.27 247.52 191.17 247.52 196.07 247.52 200.97"/><rect class="cls-64" x="242.58" y="166.66" width="4.94" height="4.9"/><polygon class="cls-69" points="212.88 220.59 212.88 225.49 212.88 230.39 212.88 235.29 212.88 240.19 212.88 245.09 212.88 250 212.88 254.9 212.88 259.8 212.88 264.7 212.88 269.6 212.88 274.5 217.82 274.5 217.82 269.6 217.82 264.7 217.82 259.8 217.82 254.9 217.82 250 217.82 245.09 217.82 240.19 217.82 235.29 217.82 230.39 217.82 225.49 217.82 220.59 217.82 215.68 212.88 215.68 212.88 220.59"/><polygon class="cls-69" points="252.48 220.59 252.48 225.49 252.48 230.39 252.48 235.29 252.48 240.19 252.48 245.09 252.48 250 252.48 254.9 252.48 259.8 252.48 264.7 252.48 269.6 252.48 274.5 257.43 274.5 257.43 269.6 257.43 264.7 257.43 259.8 257.43 254.9 257.43 250 257.43 245.09 257.43 240.19 257.43 235.29 257.43 230.39 257.43 225.49 257.43 220.59 257.43 215.68 252.48 215.68 252.48 220.59"/><polygon class="cls-69" points="292.08 220.59 292.08 225.49 292.08 230.39 292.08 235.29 292.08 240.19 292.08 245.09 292.08 250 292.08 254.9 292.08 259.8 292.08 264.7 292.08 269.6 292.08 274.5 297.03 274.5 297.03 269.6 297.03 264.7 297.03 259.8 297.03 254.9 297.03 250 297.03 245.09 297.03 240.19 297.03 235.29 297.03 230.39 297.03 225.49 297.03 220.59 297.03 215.68 292.08 215.68 292.08 220.59"/><polygon class="cls-69" points="336.63 220.59 336.63 225.49 336.63 230.39 336.63 235.29 336.63 240.19 336.63 245.09 336.63 250 336.63 254.9 336.63 259.8 336.63 264.7 336.63 269.6 336.63 274.5 341.59 274.5 341.59 269.6 341.59 264.7 341.59 259.8 341.59 254.9 341.59 250 341.59 245.09 341.59 240.19 341.59 235.29 341.59 230.39 341.59 225.49 341.59 220.59 341.59 215.68 336.63 215.68 336.63 220.59"/><polygon class="cls-69" points="381.18 220.59 381.18 225.49 381.18 230.39 381.18 235.29 381.18 240.19 381.18 245.09 381.18 250 381.18 254.9 381.18 259.8 381.18 264.7 381.18 269.6 381.18 274.5 386.14 274.5 386.14 269.6 386.14 264.7 386.14 259.8 386.14 254.9 386.14 250 386.14 245.09 386.14 240.19 386.14 235.29 386.14 230.39 386.14 225.49 386.14 220.59 386.14 215.68 381.18 215.68 381.18 220.59"/><polygon class="cls-69" points="425.74 220.59 425.74 225.49 425.74 230.39 425.74 235.29 425.74 240.19 425.74 245.09 425.74 250 425.74 254.9 425.74 259.8 425.74 264.7 425.74 269.6 425.74 274.5 430.69 274.5 430.69 269.6 430.69 264.7 430.69 259.8 430.69 254.9 430.69 250 430.69 245.09 430.69 240.19 430.69 235.29 430.69 230.39 430.69 225.49 430.69 220.59 430.69 215.68 425.74 215.68 425.74 220.59"/><polygon class="cls-69" points="465.35 250 465.35 254.9 465.35 259.8 465.35 264.7 465.35 269.6 465.35 274.5 470.29 274.5 470.29 269.6 470.29 264.7 470.29 259.8 470.29 254.9 470.29 250 470.29 245.09 465.35 245.09 465.35 250"/><polygon class="cls-69" points="465.35 225.49 465.35 230.39 465.35 235.29 465.35 240.19 470.29 240.19 470.29 235.29 470.29 230.39 470.29 225.49 470.29 220.59 465.35 220.59 465.35 225.49"/><polygon class="cls-69" points="500 220.59 500 225.49 500 230.39 500 235.29 500 240.19 500 245.09 500 250 500 254.9 500 259.8 500 264.7 500 269.6 500 274.5 504.95 274.5 504.95 269.6 504.95 264.7 504.95 259.8 504.95 254.9 504.95 250 504.95 245.09 504.95 240.19 504.95 235.29 504.95 230.39 504.95 225.49 504.95 220.59 504.95 215.68 500 215.68 500 220.59"/><polygon class="cls-69" points="539.6 215.68 539.6 220.59 539.6 225.49 539.6 230.39 539.6 235.29 539.6 240.19 539.6 245.09 539.6 250 539.6 254.9 539.6 259.8 539.6 264.7 539.6 269.6 539.6 274.5 544.55 274.5 544.55 269.6 544.55 264.7 544.55 259.8 544.55 254.9 544.55 250 544.55 245.09 544.55 240.19 544.55 235.29 544.55 230.39 544.55 225.49 544.55 220.59 544.55 215.68 539.6 215.68"/><polygon class="cls-70" points="202.97 215.68 198.02 215.68 193.07 215.68 188.12 215.68 183.17 215.68 183.17 220.59 183.17 225.49 183.17 230.39 183.17 235.29 183.17 240.19 183.17 245.09 183.17 250 183.17 254.9 183.17 259.8 183.17 264.7 183.17 269.6 183.17 274.5 188.12 274.5 193.07 274.5 198.02 274.5 202.97 274.5 207.92 274.5 212.88 274.5 212.88 269.6 212.88 264.7 212.88 259.8 212.88 254.9 212.88 250 212.88 245.09 212.88 240.19 212.88 235.29 212.88 230.39 212.88 225.49 212.88 220.59 212.88 215.68 207.92 215.68 202.97 215.68"/><polygon class="cls-70" points="242.58 215.68 237.62 215.68 232.68 215.68 227.72 215.68 222.78 215.68 217.82 215.68 217.82 220.59 217.82 225.49 217.82 230.39 217.82 235.29 217.82 240.19 217.82 245.09 217.82 250 217.82 254.9 217.82 259.8 217.82 264.7 217.82 269.6 217.82 274.5 222.78 274.5 227.72 274.5 232.68 274.5 237.62 274.5 242.58 274.5 247.53 274.5 252.48 274.5 252.48 269.6 252.48 264.7 252.48 259.8 252.48 254.9 252.48 250 252.48 245.09 252.48 240.19 252.48 235.29 252.48 230.39 252.48 225.49 252.48 220.59 252.48 215.68 247.53 215.68 242.58 215.68"/><polygon class="cls-70" points="282.18 215.68 277.23 215.68 272.28 215.68 267.33 215.68 262.38 215.68 257.43 215.68 257.43 220.59 257.43 225.49 257.43 230.39 257.43 235.29 257.43 240.19 257.43 245.09 257.43 250 257.43 254.9 257.43 259.8 257.43 264.7 257.43 269.6 257.43 274.5 262.38 274.5 267.33 274.5 272.28 274.5 277.23 274.5 282.18 274.5 287.13 274.5 292.08 274.5 292.08 269.6 292.08 264.7 292.08 259.8 292.08 254.9 292.08 250 292.08 245.09 292.08 240.19 292.08 235.29 292.08 230.39 292.08 225.49 292.08 220.59 292.08 215.68 287.13 215.68 282.18 215.68"/><polygon class="cls-70" points="326.73 215.68 321.79 215.68 316.83 215.68 311.89 215.68 306.93 215.68 301.99 215.68 297.03 215.68 297.03 220.59 297.03 225.49 297.03 230.39 297.03 235.29 297.03 240.19 297.03 245.09 297.03 250 297.03 254.9 297.03 259.8 297.03 264.7 297.03 269.6 297.03 274.5 301.99 274.5 306.93 274.5 311.89 274.5 316.83 274.5 321.79 274.5 326.73 274.5 331.69 274.5 336.63 274.5 336.63 269.6 336.63 264.7 336.63 259.8 336.63 254.9 336.63 250 336.63 245.09 336.63 240.19 336.63 235.29 336.63 230.39 336.63 225.49 336.63 220.59 336.63 215.68 331.69 215.68 326.73 215.68"/><polygon class="cls-70" points="371.28 215.68 366.34 215.68 361.39 215.68 356.44 215.68 351.49 215.68 346.54 215.68 341.59 215.68 341.59 220.59 341.59 225.49 341.59 230.39 341.59 235.29 341.59 240.19 341.59 245.09 341.59 250 341.59 254.9 341.59 259.8 341.59 264.7 341.59 269.6 341.59 274.5 346.54 274.5 351.49 274.5 356.44 274.5 361.39 274.5 366.34 274.5 371.28 274.5 376.24 274.5 381.18 274.5 381.18 269.6 381.18 264.7 381.18 259.8 381.18 254.9 381.18 250 381.18 245.09 381.18 240.19 381.18 235.29 381.18 230.39 381.18 225.49 381.18 220.59 381.18 215.68 376.24 215.68 371.28 215.68"/><polygon class="cls-70" points="415.84 215.68 410.89 215.68 405.94 215.68 400.99 215.68 396.04 215.68 391.08 215.68 386.14 215.68 386.14 220.59 386.14 225.49 386.14 230.39 386.14 235.29 386.14 240.19 386.14 245.09 386.14 250 386.14 254.9 386.14 259.8 386.14 264.7 386.14 269.6 386.14 274.5 391.08 274.5 396.04 274.5 400.99 274.5 405.94 274.5 410.89 274.5 415.84 274.5 420.79 274.5 425.74 274.5 425.74 269.6 425.74 264.7 425.74 259.8 425.74 254.9 425.74 250 425.74 245.09 425.74 240.19 425.74 235.29 425.74 230.39 425.74 225.49 425.74 220.59 425.74 215.68 420.79 215.68 415.84 215.68"/><polygon class="cls-70" points="460.39 250 455.45 250 455.45 245.09 460.39 245.09 460.39 240.19 460.39 235.29 460.39 230.39 460.39 225.49 455.45 225.49 455.45 230.39 450.49 230.39 450.49 225.49 455.45 225.49 455.45 220.59 455.45 215.68 450.49 215.68 445.55 215.68 440.59 215.68 440.59 220.59 445.55 220.59 445.55 225.49 440.59 225.49 440.59 230.39 440.59 235.29 435.64 235.29 435.64 230.39 430.69 230.39 430.69 235.29 430.69 240.19 430.69 245.09 430.69 250 430.69 254.9 430.69 259.8 430.69 264.7 430.69 269.6 430.69 274.5 435.64 274.5 440.59 274.5 445.55 274.5 450.49 274.5 455.45 274.5 460.39 274.5 465.35 274.5 465.35 269.6 465.35 264.7 465.35 259.8 465.35 254.9 465.35 250 465.35 245.09 460.39 245.09 460.39 250"/><rect class="cls-70" x="460.39" y="215.68" width="4.96" height="4.91"/><polygon class="cls-70" points="475.25 215.68 470.29 215.68 470.29 220.59 470.29 225.49 475.25 225.49 475.25 220.59 475.25 215.68"/><polygon class="cls-70" points="490.09 215.68 485.15 215.68 485.15 220.59 480.19 220.59 480.19 225.49 485.15 225.49 485.15 230.39 480.19 230.39 480.19 225.49 475.25 225.49 475.25 230.39 470.29 230.39 470.29 235.29 470.29 240.19 470.29 245.09 470.29 250 470.29 254.9 470.29 259.8 470.29 264.7 470.29 269.6 470.29 274.5 475.25 274.5 480.19 274.5 485.15 274.5 490.09 274.5 495.05 274.5 500 274.5 500 269.6 500 264.7 500 259.8 500 254.9 500 250 500 245.09 500 240.19 500 235.29 500 230.39 500 225.49 500 220.59 500 215.68 495.05 215.68 490.09 215.68"/><polygon class="cls-70" points="529.7 215.68 524.75 215.68 519.8 215.68 514.85 215.68 509.9 215.68 504.95 215.68 504.95 220.59 504.95 225.49 504.95 230.39 504.95 235.29 504.95 240.19 504.95 245.09 504.95 250 504.95 254.9 504.95 259.8 504.95 264.7 504.95 269.6 504.95 274.5 509.9 274.5 514.85 274.5 519.8 274.5 524.75 274.5 529.7 274.5 534.65 274.5 539.6 274.5 539.6 269.6 539.6 264.7 539.6 259.8 539.6 254.9 539.6 250 539.6 245.09 539.6 240.19 539.6 235.29 539.6 230.39 539.6 225.49 539.6 220.59 539.6 215.68 534.65 215.68 529.7 215.68"/><polygon class="cls-70" points="544.55 215.68 544.55 220.59 544.55 225.49 544.55 230.39 544.55 235.29 544.55 240.19 544.55 245.09 544.55 250 544.55 254.9 544.55 259.8 544.55 264.7 544.55 269.6 544.55 274.5 549.5 274.5 549.5 269.6 549.5 264.7 549.5 259.8 549.5 254.9 549.5 250 549.5 245.09 549.5 240.19 549.5 235.29 549.5 230.39 549.5 225.49 549.5 220.59 549.5 215.68 544.55 215.68"/><polygon class="cls-71" points="420.79 205.88 415.84 205.88 410.89 205.88 405.94 205.88 400.99 205.88 396.04 205.88 391.08 205.88 386.14 205.88 381.18 205.88 376.24 205.88 371.28 205.88 366.34 205.88 361.39 205.88 356.44 205.88 351.49 205.88 346.54 205.88 341.59 205.88 336.63 205.88 331.69 205.88 326.73 205.88 321.79 205.88 316.83 205.88 311.89 205.88 306.93 205.88 301.99 205.88 297.03 205.88 292.08 205.88 287.13 205.88 282.18 205.88 277.23 205.88 272.28 205.88 267.33 205.88 262.38 205.88 257.43 205.88 252.48 205.88 247.53 205.88 242.58 205.88 237.62 205.88 232.68 205.88 227.72 205.88 222.78 205.88 217.82 205.88 212.88 205.88 207.92 205.88 202.97 205.88 198.02 205.88 193.07 205.88 188.12 205.88 183.17 205.88 178.22 205.88 173.27 205.88 168.32 205.88 168.32 210.78 168.32 215.68 173.27 215.68 178.22 215.68 183.17 215.68 188.12 215.68 193.07 215.68 198.02 215.68 202.97 215.68 207.92 215.68 212.88 215.68 217.82 215.68 222.78 215.68 227.72 215.68 232.68 215.68 237.62 215.68 242.58 215.68 247.53 215.68 252.48 215.68 257.43 215.68 262.38 215.68 267.33 215.68 272.28 215.68 277.23 215.68 282.18 215.68 287.13 215.68 292.08 215.68 297.03 215.68 301.99 215.68 306.93 215.68 311.89 215.68 316.83 215.68 321.79 215.68 326.73 215.68 331.69 215.68 336.63 215.68 341.59 215.68 346.54 215.68 351.49 215.68 356.44 215.68 361.39 215.68 366.34 215.68 371.28 215.68 376.24 215.68 381.18 215.68 386.14 215.68 391.08 215.68 396.04 215.68 400.99 215.68 405.94 215.68 410.89 215.68 415.84 215.68 420.79 215.68 425.74 215.68 425.74 210.78 420.79 210.78 420.79 205.88"/><rect class="cls-71" x="425.74" y="205.88" width="4.95" height="4.9"/><rect class="cls-71" x="435.64" y="210.78" width="4.95" height="4.9"/><polygon class="cls-71" points="450.49 205.88 445.55 205.88 440.59 205.88 440.59 210.78 445.55 210.78 445.55 215.68 450.49 215.68 455.45 215.68 455.45 210.78 450.49 210.78 450.49 205.88"/><rect class="cls-71" x="455.45" y="205.88" width="4.95" height="4.9"/><polygon class="cls-71" points="470.29 205.88 465.35 205.88 465.35 210.78 465.35 215.68 470.29 215.68 475.25 215.68 475.25 210.78 470.29 210.78 470.29 205.88"/><polygon class="cls-71" points="544.55 205.88 539.6 205.88 534.65 205.88 529.7 205.88 524.75 205.88 519.8 205.88 514.85 205.88 509.9 205.88 504.95 205.88 500 205.88 495.05 205.88 490.09 205.88 485.15 205.88 480.19 205.88 480.19 210.78 480.19 215.68 485.15 215.68 490.09 215.68 495.05 215.68 500 215.68 504.95 215.68 509.9 215.68 514.85 215.68 519.8 215.68 524.75 215.68 529.7 215.68 534.65 215.68 539.6 215.68 544.55 215.68 549.5 215.68 549.5 210.78 549.5 205.88 544.55 205.88"/><polygon class="cls-72" points="326.73 0 321.79 0 316.83 0 311.89 0 306.93 0 301.99 0 297.03 0 292.08 0 287.13 0 282.18 0 277.23 0 272.28 0 267.33 0 262.38 0 257.43 0 252.48 0 247.53 0 242.58 0 237.62 0 232.68 0 227.72 0 222.78 0 217.82 0 212.88 0 207.92 0 207.92 4.9 207.92 9.8 207.92 14.71 207.92 19.61 207.92 24.52 207.92 29.42 207.92 34.32 207.92 39.22 207.92 44.12 207.92 49.02 207.92 53.92 207.92 58.82 207.92 63.72 207.92 68.63 207.92 73.53 207.92 78.43 207.92 83.34 207.92 88.24 207.92 93.14 207.92 98.04 207.92 102.94 207.92 107.84 207.92 112.75 207.92 117.65 207.92 122.55 207.92 127.45 207.92 132.35 207.92 137.25 207.92 142.15 207.92 147.05 207.92 151.96 207.92 156.86 207.92 161.76 207.92 166.67 207.92 171.57 207.92 176.47 207.92 181.37 207.92 186.27 207.92 191.17 207.92 196.07 207.92 200.97 207.92 205.88 212.88 205.88 217.82 205.88 222.78 205.88 227.72 205.88 232.68 205.88 232.68 200.97 232.68 196.07 232.68 191.17 232.68 186.27 232.68 181.37 232.68 176.47 232.68 171.57 232.68 166.67 232.68 161.76 232.68 156.86 232.68 151.96 232.68 147.05 232.68 142.15 232.68 137.25 232.68 132.35 232.68 127.45 232.68 122.55 232.68 117.65 232.68 112.75 232.68 107.84 232.68 102.94 232.68 98.04 232.68 93.14 232.68 88.24 232.68 83.34 237.62 83.34 237.62 78.43 242.58 78.43 242.58 73.53 242.58 68.63 247.53 68.63 247.53 63.72 247.53 58.82 252.48 58.82 252.48 53.92 257.43 53.92 257.43 49.02 262.38 49.02 262.38 44.12 267.33 44.12 267.33 39.22 272.28 39.22 272.28 34.32 277.23 34.32 277.23 29.42 282.18 29.42 282.18 24.52 287.13 24.52 292.08 24.52 292.08 19.61 297.03 19.61 301.99 19.61 301.99 14.71 306.93 14.71 306.93 9.8 311.89 9.8 316.83 9.8 316.83 4.9 321.79 4.9 326.73 4.9 331.69 4.9 336.63 4.9 336.63 0 331.69 0 326.73 0"/><polygon class="cls-72" points="544.55 0 539.6 0 534.65 0 529.7 0 524.75 0 519.8 0 514.85 0 509.9 0 504.95 0 500 0 495.05 0 490.09 0 485.15 0 480.19 0 475.25 0 470.29 0 465.35 0 460.39 0 455.45 0 450.49 0 445.55 0 440.59 0 435.64 0 435.64 4.9 440.59 4.9 445.55 4.9 450.49 4.9 450.49 9.8 455.45 9.8 460.39 9.8 460.39 14.71 465.35 14.71 470.29 14.71 470.29 19.61 475.25 19.61 475.25 24.52 480.19 24.52 485.15 24.52 485.15 29.42 490.09 29.42 490.09 34.32 495.05 34.32 495.05 39.22 500 39.22 500 44.12 504.95 44.12 504.95 49.02 504.95 53.92 509.9 53.92 509.9 58.82 514.85 58.82 514.85 63.72 514.85 68.63 519.8 68.63 519.8 73.53 519.8 78.43 519.8 83.34 524.75 83.34 524.75 88.24 524.75 93.14 524.75 98.04 524.75 102.94 524.75 107.84 524.75 112.75 524.75 117.65 524.75 122.55 524.75 127.45 524.75 132.35 524.75 137.25 524.75 142.15 524.75 147.05 524.75 151.96 524.75 156.86 524.75 161.76 524.75 166.67 524.75 171.57 524.75 176.47 524.75 181.37 524.75 186.27 524.75 191.17 524.75 196.07 524.75 200.97 524.75 205.88 529.7 205.88 534.65 205.88 539.6 205.88 544.55 205.88 549.5 205.88 549.5 200.97 549.5 196.07 549.5 191.17 549.5 186.27 549.5 181.37 549.5 176.47 549.5 171.57 549.5 166.67 549.5 161.76 549.5 156.86 549.5 151.96 549.5 147.05 549.5 142.15 549.5 137.25 549.5 132.35 549.5 127.45 549.5 122.55 549.5 117.65 549.5 112.75 549.5 107.84 549.5 102.94 549.5 98.04 549.5 93.14 549.5 88.24 549.5 83.34 549.5 78.43 549.5 73.53 549.5 68.63 549.5 63.72 549.5 58.82 549.5 53.92 549.5 49.02 549.5 44.12 549.5 39.22 549.5 34.32 549.5 29.42 549.5 24.52 549.5 19.61 549.5 14.71 549.5 9.8 549.5 4.9 549.5 0 544.55 0"/></g></g></svg>