<svg xmlns="http://www.w3.org/2000/svg" viewBox="0 0 100 100"><defs><style>.cls-1{fill:#211f1c;}.cls-2{fill:#aeb5c4;}.cls-3{fill:#7e8691;}.cls-4{fill:#e2e4e8;}.cls-5{fill:#d3bc59;}.cls-6{fill:#e2de3b;}.cls-7{fill:#4055a3;}.cls-8{fill:#fffa99;}</style></defs><g id="Layer_2" data-name="Layer 2"><g id="Layer_1-2" data-name="Layer 1"><rect class="cls-1" x="94.12" y="17.65" width="5.88" height="5.88"/><rect class="cls-1" x="94.12" y="11.76" width="5.88" height="5.89"/><rect class="cls-1" x="94.12" y="5.88" width="5.88" height="5.88"/><rect class="cls-1" x="94.12" width="5.88" height="5.88"/><rect class="cls-1" x="88.24" y="23.53" width="5.88" height="5.88"/><rect class="cls-2" x="88.24" y="17.65" width="5.88" height="5.88"/><rect class="cls-2" x="88.24" y="11.76" width="5.88" height="5.89"/><rect class="cls-3" x="88.24" y="5.88" width="5.88" height="5.88"/><rect class="cls-1" x="88.24" width="5.88" height="5.88"/><rect class="cls-1" x="82.35" y="29.41" width="5.89" height="5.88"/><rect class="cls-2" x="82.35" y="23.53" width="5.89" height="5.88"/><rect class="cls-2" x="82.35" y="17.65" width="5.89" height="5.88"/><rect class="cls-3" x="82.35" y="11.76" width="5.89" height="5.89"/><rect class="cls-4" x="82.35" y="5.88" width="5.89" height="5.88"/><rect class="cls-1" x="82.35" width="5.89" height="5.88"/><rect class="cls-1" x="76.47" y="35.29" width="5.88" height="5.89"/><rect class="cls-2" x="76.47" y="29.41" width="5.88" height="5.88"/><rect class="cls-2" x="76.47" y="23.53" width="5.88" height="5.88"/><rect class="cls-3" x="76.47" y="17.65" width="5.88" height="5.88"/><rect class="cls-4" x="76.47" y="11.76" width="5.88" height="5.89"/><rect class="cls-4" x="76.47" y="5.88" width="5.88" height="5.88"/><rect class="cls-1" x="76.47" width="5.88" height="5.88"/><rect class="cls-1" x="70.59" y="41.18" width="5.88" height="5.88"/><rect class="cls-2" x="70.59" y="35.29" width="5.88" height="5.89"/><rect class="cls-2" x="70.59" y="29.41" width="5.88" height="5.88"/><rect class="cls-3" x="70.59" y="23.53" width="5.88" height="5.88"/><rect class="cls-4" x="70.59" y="17.65" width="5.88" height="5.88"/><rect class="cls-4" x="70.59" y="11.76" width="5.88" height="5.89"/><rect class="cls-1" x="70.59" y="5.88" width="5.88" height="5.88"/><rect class="cls-1" x="64.71" y="47.06" width="5.88" height="5.88"/><rect class="cls-2" x="64.71" y="41.18" width="5.88" height="5.88"/><rect class="cls-2" x="64.71" y="35.29" width="5.88" height="5.89"/><rect class="cls-3" x="64.71" y="29.41" width="5.88" height="5.88"/><rect class="cls-4" x="64.71" y="23.53" width="5.88" height="5.88"/><rect class="cls-4" x="64.71" y="17.65" width="5.88" height="5.88"/><rect class="cls-1" x="64.71" y="11.76" width="5.88" height="5.89"/><rect class="cls-1" x="58.82" y="52.94" width="5.89" height="5.88"/><rect class="cls-2" x="58.82" y="47.06" width="5.89" height="5.88"/><rect class="cls-2" x="58.82" y="41.18" width="5.89" height="5.88"/><rect class="cls-3" x="58.82" y="35.29" width="5.89" height="5.89"/><rect class="cls-4" x="58.82" y="29.41" width="5.89" height="5.88"/><rect class="cls-4" x="58.82" y="23.53" width="5.89" height="5.88"/><rect class="cls-1" x="58.82" y="17.65" width="5.89" height="5.88"/><rect class="cls-1" x="52.94" y="58.82" width="5.88" height="5.89"/><rect class="cls-2" x="52.94" y="52.94" width="5.88" height="5.88"/><rect class="cls-2" x="52.94" y="47.06" width="5.88" height="5.88"/><rect class="cls-3" x="52.94" y="41.18" width="5.88" height="5.88"/><rect class="cls-4" x="52.94" y="35.29" width="5.88" height="5.89"/><rect class="cls-4" x="52.94" y="29.41" width="5.88" height="5.88"/><rect class="cls-1" x="52.94" y="23.53" width="5.88" height="5.88"/><rect class="cls-1" x="47.06" y="82.35" width="5.88" height="5.89"/><rect class="cls-1" x="47.06" y="76.47" width="5.88" height="5.88"/><rect class="cls-1" x="47.06" y="64.71" width="5.88" height="5.88"/><rect class="cls-2" x="47.06" y="58.82" width="5.88" height="5.89"/><rect class="cls-2" x="47.06" y="52.94" width="5.88" height="5.88"/><rect class="cls-3" x="47.06" y="47.06" width="5.88" height="5.88"/><rect class="cls-4" x="47.06" y="41.18" width="5.88" height="5.88"/><rect class="cls-4" x="47.06" y="35.29" width="5.88" height="5.89"/><rect class="cls-1" x="47.06" y="29.41" width="5.88" height="5.88"/><rect class="cls-1" x="41.18" y="88.24" width="5.88" height="5.88"/><rect class="cls-5" x="41.18" y="82.35" width="5.88" height="5.89"/><rect class="cls-5" x="41.18" y="76.47" width="5.88" height="5.88"/><rect class="cls-1" x="41.18" y="70.59" width="5.88" height="5.88"/><rect class="cls-2" x="41.18" y="64.71" width="5.88" height="5.88"/><rect class="cls-2" x="41.18" y="58.82" width="5.88" height="5.89"/><rect class="cls-3" x="41.18" y="52.94" width="5.88" height="5.88"/><rect class="cls-4" x="41.18" y="47.06" width="5.88" height="5.88"/><rect class="cls-4" x="41.18" y="41.18" width="5.88" height="5.88"/><rect class="cls-1" x="41.18" y="35.29" width="5.88" height="5.89"/><rect class="cls-1" x="35.29" y="82.35" width="5.89" height="5.89"/><rect class="cls-5" x="35.29" y="76.47" width="5.89" height="5.88"/><rect class="cls-1" x="35.29" y="70.59" width="5.89" height="5.88"/><rect class="cls-2" x="35.29" y="64.71" width="5.89" height="5.88"/><rect class="cls-3" x="35.29" y="58.82" width="5.89" height="5.89"/><rect class="cls-4" x="35.29" y="52.94" width="5.89" height="5.88"/><rect class="cls-4" x="35.29" y="47.06" width="5.89" height="5.88"/><rect class="cls-1" x="35.29" y="41.18" width="5.89" height="5.88"/><rect class="cls-1" x="29.41" y="76.47" width="5.88" height="5.88"/><rect class="cls-6" x="29.41" y="70.59" width="5.88" height="5.88"/><rect class="cls-1" x="29.41" y="64.71" width="5.88" height="5.88"/><rect class="cls-4" x="29.41" y="58.82" width="5.88" height="5.89"/><rect class="cls-4" x="29.41" y="52.94" width="5.88" height="5.88"/><rect class="cls-1" x="29.41" y="47.06" width="5.88" height="5.88"/><rect class="cls-1" x="23.53" y="76.47" width="5.88" height="5.88"/><rect class="cls-6" x="23.53" y="70.59" width="5.88" height="5.88"/><rect class="cls-6" x="23.53" y="64.71" width="5.88" height="5.88"/><rect class="cls-1" x="23.53" y="58.82" width="5.88" height="5.89"/><rect class="cls-1" x="23.53" y="52.94" width="5.88" height="5.88"/><rect class="cls-1" x="17.65" y="82.35" width="5.88" height="5.89"/><rect class="cls-7" x="17.65" y="76.47" width="5.88" height="5.88"/><rect class="cls-1" x="17.65" y="70.59" width="5.88" height="5.88"/><rect class="cls-1" x="17.65" y="64.71" width="5.88" height="5.88"/><rect class="cls-6" x="17.65" y="58.82" width="5.88" height="5.89"/><rect class="cls-8" x="17.65" y="52.94" width="5.88" height="5.88"/><rect class="cls-1" x="17.65" y="47.06" width="5.88" height="5.88"/><rect class="cls-1" x="11.76" y="88.24" width="5.89" height="5.88"/><rect class="cls-7" x="11.76" y="82.35" width="5.89" height="5.89"/><rect class="cls-1" x="11.76" y="76.47" width="5.89" height="5.88"/><rect class="cls-1" x="11.76" y="58.82" width="5.89" height="5.89"/><rect class="cls-8" x="11.76" y="52.94" width="5.89" height="5.88"/><rect class="cls-1" x="11.76" y="47.06" width="5.89" height="5.88"/><rect class="cls-1" x="5.88" y="94.12" width="5.88" height="5.88"/><rect class="cls-2" x="5.88" y="88.24" width="5.88" height="5.88"/><rect class="cls-1" x="5.88" y="82.35" width="5.88" height="5.89"/><rect class="cls-1" x="5.88" y="52.94" width="5.88" height="5.88"/><rect class="cls-1" y="94.12" width="5.88" height="5.88"/><rect class="cls-1" y="88.24" width="5.88" height="5.88"/></g></g></svg>