<svg xmlns="http://www.w3.org/2000/svg" viewBox="0 0 550 275"><defs><style>.cls-1{fill:#8e94a3;}.cls-2{fill:#aeacb1;}.cls-3{fill:#afafaf;}.cls-4{fill:#d6d6d6;}.cls-5{fill:#89a56d;}.cls-6{fill:#aa7966;}.cls-7{fill:#606060;}.cls-8{fill:#b28869;}.cls-9{fill:#895a46;}.cls-10{fill:#ba9bc9;}.cls-11{fill:#333;}.cls-12{fill:#ffe816;}.cls-13{fill:#fff;}.cls-14{fill:#aa6372;}.cls-15{fill:gray;}.cls-16{fill:#9a4856;}.cls-17{fill:#c0ecff;}.cls-18{fill:#bf91a9;}.cls-19{fill:#d9c6cf;}.cls-20{fill:#9c896f;}.cls-21{fill:#365e36;}.cls-22{fill:#7f6a50;}.cls-23{fill:#894d24;}.cls-24{fill:#c5bfb7;}.cls-25{fill:#673918;}.cls-26{fill:#b07f4d;}.cls-27{fill:#9b6e46;}.cls-28{fill:#72c65f;}.cls-29{fill:#579153;}.cls-30{fill:#91c7c9;}.cls-31{fill:#a0d9de;}.cls-32{fill:#ade5f0;}.cls-33{fill:#b3f1ff;}</style></defs><g id="Layer_2" data-name="Layer 2"><g id="Layer_3" data-name="Layer 3"><rect class="cls-1" x="361.71" y="186.6" width="4.96" height="4.92"/><rect class="cls-1" x="356.76" y="181.69" width="4.95" height="4.91"/><rect class="cls-1" x="351.8" y="186.6" width="4.96" height="4.92"/><rect class="cls-2" x="361.71" y="181.69" width="4.96" height="4.91"/><polygon class="cls-2" points="356.76 191.52 356.76 196.43 356.76 201.34 356.76 206.25 361.71 206.25 361.71 201.34 361.71 196.43 361.71 191.52 361.71 186.6 356.76 186.6 356.76 191.52"/><rect class="cls-2" x="351.8" y="181.69" width="4.96" height="4.91"/><polygon class="cls-3" points="381.53 220.98 376.58 220.98 376.58 225.89 381.53 225.89 386.49 225.89 386.49 220.98 381.53 220.98"/><rect class="cls-3" x="371.62" y="225.89" width="4.96" height="4.91"/><polygon class="cls-3" points="356.76 211.16 351.8 211.16 351.8 216.07 351.8 220.98 356.76 220.98 361.71 220.98 366.67 220.98 366.67 216.07 366.67 211.16 361.71 211.16 356.76 211.16"/><polygon class="cls-3" points="331.98 225.89 331.98 230.8 336.94 230.8 341.89 230.8 341.89 225.89 336.94 225.89 331.98 225.89"/><polygon class="cls-4" points="381.53 211.16 376.58 211.16 371.62 211.16 371.62 216.07 376.58 216.07 381.53 216.07 386.49 216.07 386.49 211.16 381.53 211.16"/><rect class="cls-4" x="366.67" y="220.98" width="4.95" height="4.91"/><polygon class="cls-4" points="356.76 225.89 351.8 225.89 351.8 230.8 356.76 230.8 361.71 230.8 366.67 230.8 366.67 225.89 361.71 225.89 356.76 225.89"/><rect class="cls-4" x="346.85" y="220.98" width="4.95" height="4.91"/><polygon class="cls-4" points="346.85 211.16 341.89 211.16 336.94 211.16 336.94 216.07 341.89 216.07 346.85 216.07 346.85 211.16"/><rect class="cls-4" x="331.98" y="216.07" width="4.96" height="4.91"/><polygon class="cls-5" points="341.89 230.8 346.85 230.8 346.85 225.89 346.85 220.98 341.89 220.98 341.89 225.89 341.89 230.8"/><polygon class="cls-5" points="346.85 211.16 346.85 206.25 341.89 206.25 336.94 206.25 336.94 211.16 341.89 211.16 346.85 211.16"/><rect class="cls-5" x="336.94" y="216.07" width="4.95" height="4.91"/><rect class="cls-5" x="331.98" y="211.16" width="4.96" height="4.91"/><polygon class="cls-6" points="381.53 162.05 376.58 162.05 371.62 162.05 366.67 162.05 361.71 162.05 356.76 162.05 351.8 162.05 346.85 162.05 341.89 162.05 336.94 162.05 331.98 162.05 331.98 166.96 336.94 166.96 341.89 166.96 346.85 166.96 351.8 166.96 356.76 166.96 361.71 166.96 366.67 166.96 371.62 166.96 376.58 166.96 381.53 166.96 386.49 166.96 386.49 162.05 381.53 162.05"/><polygon class="cls-6" points="351.8 157.14 356.76 157.14 361.71 157.14 366.67 157.14 371.62 157.14 376.58 157.14 376.58 152.23 371.62 152.23 366.67 152.23 361.71 152.23 356.76 152.23 351.8 152.23 346.85 152.23 341.89 152.23 341.89 157.14 346.85 157.14 351.8 157.14"/><rect class="cls-7" x="391.44" y="196.43" width="4.96" height="4.91"/><polygon class="cls-7" points="386.49 216.07 381.53 216.07 376.58 216.07 371.62 216.07 371.62 211.16 376.58 211.16 381.53 211.16 386.49 211.16 386.49 206.25 381.53 206.25 376.58 206.25 371.62 206.25 366.67 206.25 361.71 206.25 356.76 206.25 351.8 206.25 346.85 206.25 346.85 211.16 346.85 216.07 341.89 216.07 341.89 220.98 346.85 220.98 351.8 220.98 351.8 216.07 351.8 211.16 356.76 211.16 361.71 211.16 366.67 211.16 366.67 216.07 366.67 220.98 371.62 220.98 371.62 225.89 376.58 225.89 376.58 220.98 381.53 220.98 386.49 220.98 391.44 220.98 391.44 216.07 391.44 211.16 386.49 211.16 386.49 216.07"/><polygon class="cls-7" points="391.44 186.6 386.49 186.6 381.53 186.6 381.53 191.52 386.49 191.52 386.49 196.43 391.44 196.43 391.44 191.52 391.44 186.6"/><rect class="cls-7" x="376.58" y="225.89" width="4.95" height="4.91"/><polygon class="cls-7" points="376.58 191.52 376.58 186.6 371.62 186.6 366.67 186.6 366.67 191.52 371.62 191.52 376.58 191.52"/><rect class="cls-7" x="366.67" y="225.89" width="4.95" height="4.91"/><polygon class="cls-7" points="361.71 220.98 356.76 220.98 351.8 220.98 351.8 225.89 356.76 225.89 361.71 225.89 366.67 225.89 366.67 220.98 361.71 220.98"/><rect class="cls-7" x="346.85" y="225.89" width="4.95" height="4.91"/><polygon class="cls-7" points="351.8 191.52 351.8 186.6 346.85 186.6 341.89 186.6 341.89 191.52 346.85 191.52 351.8 191.52"/><polygon class="cls-7" points="331.98 220.98 331.98 225.89 336.94 225.89 341.89 225.89 341.89 220.98 336.94 220.98 331.98 220.98"/><rect class="cls-7" x="331.98" y="206.25" width="4.96" height="4.91"/><rect class="cls-7" x="331.98" y="186.6" width="4.96" height="4.92"/><rect class="cls-7" x="327.03" y="225.89" width="4.95" height="4.91"/><polygon class="cls-7" points="331.98 211.16 327.03 211.16 327.03 216.07 327.03 220.98 331.98 220.98 331.98 216.07 331.98 211.16"/><polygon class="cls-8" points="386.49 166.96 381.53 166.96 376.58 166.96 371.62 166.96 366.67 166.96 361.71 166.96 356.76 166.96 351.8 166.96 346.85 166.96 341.89 166.96 336.94 166.96 331.98 166.96 327.03 166.96 327.03 171.87 331.98 171.87 336.94 171.87 341.89 171.87 346.85 171.87 351.8 171.87 356.76 171.87 361.71 171.87 366.67 171.87 371.62 171.87 376.58 171.87 381.53 171.87 386.49 171.87 391.44 171.87 391.44 166.96 386.49 166.96"/><polygon class="cls-8" points="346.85 162.05 351.8 162.05 356.76 162.05 361.71 162.05 366.67 162.05 371.62 162.05 376.58 162.05 381.53 162.05 381.53 157.14 376.58 157.14 371.62 157.14 366.67 157.14 361.71 157.14 356.76 157.14 351.8 157.14 346.85 157.14 341.89 157.14 336.94 157.14 336.94 162.05 341.89 162.05 346.85 162.05"/><rect class="cls-9" x="391.44" y="166.96" width="4.96" height="4.91"/><rect class="cls-9" x="386.49" y="162.05" width="4.95" height="4.91"/><rect class="cls-9" x="381.53" y="157.14" width="4.96" height="4.91"/><polygon class="cls-9" points="376.58 176.78 376.58 181.69 376.58 186.6 376.58 191.52 376.58 196.43 376.58 201.34 376.58 206.25 381.53 206.25 381.53 201.34 381.53 196.43 381.53 191.52 381.53 186.6 381.53 181.69 381.53 176.78 381.53 171.87 376.58 171.87 376.58 176.78"/><polygon class="cls-9" points="381.53 147.32 376.58 147.32 371.62 147.32 366.67 147.32 361.71 147.32 356.76 147.32 351.8 147.32 346.85 147.32 341.89 147.32 336.94 147.32 336.94 152.23 336.94 157.14 341.89 157.14 341.89 152.23 346.85 152.23 351.8 152.23 356.76 152.23 361.71 152.23 366.67 152.23 371.62 152.23 376.58 152.23 376.58 157.14 381.53 157.14 381.53 152.23 381.53 147.32"/><polygon class="cls-9" points="336.94 176.78 336.94 181.69 336.94 186.6 336.94 191.52 336.94 196.43 336.94 201.34 336.94 206.25 341.89 206.25 341.89 201.34 341.89 196.43 341.89 191.52 341.89 186.6 341.89 181.69 341.89 176.78 341.89 171.87 336.94 171.87 336.94 176.78"/><rect class="cls-9" x="331.98" y="157.14" width="4.96" height="4.91"/><rect class="cls-9" x="327.03" y="162.05" width="4.95" height="4.91"/><rect class="cls-9" x="322.07" y="166.96" width="4.96" height="4.91"/><rect class="cls-10" x="262.61" y="211.16" width="4.96" height="4.91"/><rect class="cls-10" x="247.75" y="220.98" width="4.95" height="4.91"/><rect class="cls-10" x="242.79" y="216.07" width="4.96" height="4.91"/><rect class="cls-10" x="232.88" y="220.98" width="4.96" height="4.91"/><rect class="cls-11" x="213.06" y="122.77" width="4.96" height="4.91"/><rect class="cls-11" x="208.11" y="122.77" width="4.95" height="4.91"/><rect class="cls-11" x="203.15" y="122.77" width="4.96" height="4.91"/><rect class="cls-11" x="198.2" y="117.85" width="4.95" height="4.92"/><rect class="cls-11" x="193.24" y="112.94" width="4.96" height="4.91"/><rect class="cls-12" x="188.29" y="206.25" width="4.95" height="4.91"/><polygon class="cls-13" points="213.06 112.94 213.06 108.03 208.11 108.03 203.15 108.03 198.2 108.03 193.24 108.03 193.24 112.94 198.2 112.94 198.2 117.85 203.15 117.85 203.15 122.77 208.11 122.77 213.06 122.77 218.02 122.77 218.02 117.85 218.02 112.94 213.06 112.94"/><polygon class="cls-13" points="198.2 117.85 193.24 117.85 193.24 112.94 188.29 112.94 188.29 117.85 188.29 122.77 188.29 127.68 188.29 132.59 193.24 132.59 193.24 137.5 198.2 137.5 203.15 137.5 208.11 137.5 213.06 137.5 213.06 132.59 218.02 132.59 218.02 127.68 213.06 127.68 208.11 127.68 203.15 127.68 203.15 122.77 198.2 122.77 198.2 117.85"/><path class="cls-14" d="M218,176.78H183.33v54H223v-54Zm-19.82,4.91h14.86v14.74H193.24V181.69Zm-9.91,24.56h5v4.91h-5Z"/><polygon class="cls-15" points="218.02 112.94 218.02 117.85 218.02 122.77 218.02 127.68 218.02 132.59 222.97 132.59 222.97 127.68 222.97 122.77 222.97 117.85 222.97 112.94 218.02 112.94"/><rect class="cls-15" x="213.06" y="132.59" width="4.96" height="4.91"/><rect class="cls-15" x="213.06" y="108.03" width="4.96" height="4.91"/><polygon class="cls-15" points="203.15 137.5 198.2 137.5 193.24 137.5 193.24 142.41 198.2 142.41 203.15 142.41 208.11 142.41 213.06 142.41 213.06 137.5 208.11 137.5 203.15 137.5"/><polygon class="cls-15" points="203.15 108.03 208.11 108.03 213.06 108.03 213.06 103.12 208.11 103.12 203.15 103.12 198.2 103.12 193.24 103.12 193.24 108.03 198.2 108.03 203.15 108.03"/><rect class="cls-15" x="188.29" y="132.59" width="4.95" height="4.91"/><rect class="cls-15" x="188.29" y="108.03" width="4.95" height="4.91"/><polygon class="cls-15" points="188.29 122.77 188.29 117.85 188.29 112.94 183.33 112.94 183.33 117.85 183.33 122.77 183.33 127.68 183.33 132.59 188.29 132.59 188.29 127.68 188.29 122.77"/><polygon class="cls-16" points="222.97 171.87 218.02 171.87 213.06 171.87 208.11 171.87 203.15 171.87 198.2 171.87 193.24 171.87 188.29 171.87 183.33 171.87 178.38 171.87 178.38 176.78 178.38 181.69 178.38 186.6 178.38 191.52 178.38 196.43 178.38 201.34 178.38 206.25 178.38 211.16 178.38 216.07 178.38 220.98 183.33 220.98 183.33 216.07 183.33 211.16 183.33 206.25 183.33 201.34 183.33 196.43 183.33 191.52 183.33 186.6 183.33 181.69 183.33 176.78 188.29 176.78 193.24 176.78 198.2 176.78 203.15 176.78 208.11 176.78 213.06 176.78 218.02 176.78 222.97 176.78 222.97 181.69 222.97 186.6 222.97 191.52 222.97 196.43 222.97 201.34 222.97 206.25 222.97 211.16 222.97 216.07 222.97 220.98 222.97 225.89 227.93 225.89 227.93 220.98 227.93 216.07 227.93 211.16 227.93 206.25 227.93 201.34 227.93 196.43 227.93 191.52 227.93 186.6 227.93 181.69 227.93 176.78 227.93 171.87 222.97 171.87"/><rect class="cls-10" x="168.47" y="220.98" width="4.95" height="4.91"/><rect class="cls-10" x="158.56" y="225.89" width="4.95" height="4.91"/><rect class="cls-10" x="143.69" y="220.98" width="4.96" height="4.91"/><rect class="cls-10" x="143.69" y="211.16" width="4.96" height="4.91"/><polygon class="cls-17" points="257.66 181.69 257.66 176.78 252.7 176.78 247.75 176.78 247.75 181.69 242.79 181.69 242.79 186.6 247.75 186.6 247.75 191.52 247.75 196.43 247.75 201.34 252.7 201.34 257.66 201.34 257.66 196.43 257.66 191.52 257.66 186.6 262.61 186.6 262.61 181.69 257.66 181.69"/><polygon class="cls-17" points="203.15 181.69 198.2 181.69 193.24 181.69 193.24 186.6 193.24 191.52 193.24 196.43 198.2 196.43 203.15 196.43 208.11 196.43 213.06 196.43 213.06 191.52 213.06 186.6 213.06 181.69 208.11 181.69 203.15 181.69"/><polygon class="cls-17" points="158.56 176.78 153.6 176.78 148.65 176.78 148.65 181.69 143.69 181.69 143.69 186.6 148.65 186.6 148.65 191.52 148.65 196.43 148.65 201.34 153.6 201.34 158.56 201.34 158.56 196.43 158.56 191.52 158.56 186.6 163.51 186.6 163.51 181.69 158.56 181.69 158.56 176.78"/><rect class="cls-18" x="262.61" y="181.69" width="4.96" height="4.91"/><polygon class="cls-18" points="257.66 191.52 257.66 196.43 257.66 201.34 262.61 201.34 262.61 196.43 262.61 191.52 262.61 186.6 257.66 186.6 257.66 191.52"/><rect class="cls-18" x="257.66" y="176.78" width="4.95" height="4.91"/><polygon class="cls-18" points="242.79 196.43 242.79 201.34 247.75 201.34 247.75 196.43 247.75 191.52 247.75 186.6 242.79 186.6 242.79 191.52 242.79 196.43"/><rect class="cls-18" x="242.79" y="176.78" width="4.96" height="4.91"/><rect class="cls-18" x="237.84" y="181.69" width="4.95" height="4.91"/><rect class="cls-18" x="163.51" y="181.69" width="4.96" height="4.91"/><polygon class="cls-18" points="158.56 191.52 158.56 196.43 158.56 201.34 163.51 201.34 163.51 196.43 163.51 191.52 163.51 186.6 158.56 186.6 158.56 191.52"/><rect class="cls-18" x="158.56" y="176.78" width="4.95" height="4.91"/><polygon class="cls-18" points="143.69 196.43 143.69 201.34 148.65 201.34 148.65 196.43 148.65 191.52 148.65 186.6 143.69 186.6 143.69 191.52 143.69 196.43"/><rect class="cls-18" x="143.69" y="176.78" width="4.96" height="4.91"/><rect class="cls-18" x="138.74" y="181.69" width="4.95" height="4.91"/><polygon class="cls-19" points="262.61 191.52 262.61 196.43 262.61 201.34 267.57 201.34 267.57 196.43 267.57 191.52 267.57 186.6 262.61 186.6 262.61 191.52"/><rect class="cls-19" x="262.61" y="176.78" width="4.96" height="4.91"/><polygon class="cls-19" points="237.84 191.52 237.84 196.43 237.84 201.34 242.79 201.34 242.79 196.43 242.79 191.52 242.79 186.6 237.84 186.6 237.84 191.52"/><rect class="cls-19" x="237.84" y="176.78" width="4.95" height="4.91"/><polygon class="cls-19" points="163.51 191.52 163.51 196.43 163.51 201.34 168.47 201.34 168.47 196.43 168.47 191.52 168.47 186.6 163.51 186.6 163.51 191.52"/><rect class="cls-19" x="163.51" y="176.78" width="4.96" height="4.91"/><polygon class="cls-19" points="138.74 191.52 138.74 196.43 138.74 201.34 143.69 201.34 143.69 196.43 143.69 191.52 143.69 186.6 138.74 186.6 138.74 191.52"/><rect class="cls-19" x="138.74" y="176.78" width="4.95" height="4.91"/><rect class="cls-10" x="123.87" y="211.16" width="4.96" height="4.91"/><polygon class="cls-20" points="277.48 166.96 272.52 166.96 267.57 166.96 262.61 166.96 257.66 166.96 252.7 166.96 247.75 166.96 242.79 166.96 237.84 166.96 232.88 166.96 232.88 162.05 227.93 162.05 222.97 162.05 218.02 162.05 218.02 157.14 213.06 157.14 208.11 157.14 203.15 157.14 198.2 157.14 193.24 157.14 188.29 157.14 188.29 162.05 183.33 162.05 178.38 162.05 173.42 162.05 173.42 166.96 168.47 166.96 163.51 166.96 158.56 166.96 153.6 166.96 148.65 166.96 143.69 166.96 138.74 166.96 133.78 166.96 128.83 166.96 123.87 166.96 123.87 171.87 123.87 176.78 123.87 181.69 128.83 181.69 128.83 186.6 128.83 191.52 128.83 196.43 128.83 201.34 128.83 206.25 133.78 206.25 133.78 211.16 138.74 211.16 143.69 211.16 143.69 206.25 138.74 206.25 138.74 201.34 133.78 201.34 133.78 196.43 133.78 191.52 133.78 186.6 133.78 181.69 133.78 176.78 138.74 176.78 138.74 171.87 143.69 171.87 148.65 171.87 153.6 171.87 158.56 171.87 163.51 171.87 168.47 171.87 168.47 176.78 173.42 176.78 173.42 181.69 173.42 186.6 173.42 191.52 173.42 196.43 173.42 201.34 168.47 201.34 168.47 206.25 163.51 206.25 158.56 206.25 153.6 206.25 153.6 211.16 158.56 211.16 163.51 211.16 168.47 211.16 173.42 211.16 178.38 211.16 178.38 206.25 178.38 201.34 178.38 196.43 178.38 191.52 178.38 186.6 178.38 181.69 178.38 176.78 178.38 171.87 183.33 171.87 188.29 171.87 193.24 171.87 198.2 171.87 203.15 171.87 208.11 171.87 213.06 171.87 218.02 171.87 222.97 171.87 227.93 171.87 227.93 176.78 227.93 181.69 227.93 186.6 227.93 191.52 227.93 196.43 227.93 201.34 227.93 206.25 227.93 211.16 232.88 211.16 237.84 211.16 242.79 211.16 247.75 211.16 247.75 206.25 242.79 206.25 237.84 206.25 237.84 201.34 232.88 201.34 232.88 196.43 232.88 191.52 232.88 186.6 232.88 181.69 232.88 176.78 237.84 176.78 237.84 171.87 242.79 171.87 247.75 171.87 252.7 171.87 257.66 171.87 262.61 171.87 267.57 171.87 267.57 176.78 272.52 176.78 272.52 181.69 272.52 186.6 272.52 191.52 272.52 196.43 272.52 201.34 267.57 201.34 267.57 206.25 262.61 206.25 257.66 206.25 252.7 206.25 252.7 211.16 257.66 211.16 262.61 211.16 267.57 211.16 272.52 211.16 277.48 211.16 277.48 206.25 277.48 201.34 277.48 196.43 277.48 191.52 277.48 186.6 277.48 181.69 282.43 181.69 282.43 176.78 282.43 171.87 282.43 166.96 277.48 166.96"/><polygon class="cls-21" points="287.39 225.89 287.39 220.98 282.43 220.98 282.43 225.89 282.43 230.8 287.39 230.8 292.34 230.8 292.34 225.89 287.39 225.89"/><rect class="cls-21" x="272.52" y="211.16" width="4.96" height="4.91"/><polygon class="cls-21" points="262.61 216.07 262.61 211.16 257.66 211.16 257.66 216.07 252.7 216.07 252.7 211.16 252.7 206.25 247.75 206.25 247.75 211.16 242.79 211.16 242.79 216.07 247.75 216.07 247.75 220.98 252.7 220.98 252.7 225.89 257.66 225.89 257.66 220.98 262.61 220.98 262.61 225.89 267.57 225.89 267.57 220.98 272.52 220.98 272.52 216.07 267.57 216.07 262.61 216.07"/><polygon class="cls-21" points="247.75 220.98 242.79 220.98 242.79 216.07 237.84 216.07 232.88 216.07 232.88 220.98 237.84 220.98 237.84 225.89 232.88 225.89 232.88 220.98 227.93 220.98 227.93 225.89 222.97 225.89 222.97 230.8 227.93 230.8 232.88 230.8 237.84 230.8 242.79 230.8 247.75 230.8 252.7 230.8 252.7 225.89 247.75 225.89 247.75 220.98"/><path class="cls-21" d="M178.38,216.07v-4.91h-5v4.91h-9.91v-4.91H153.6v-4.91h-9.91v4.91h5v4.91h-5v-4.91h-9.91v-4.91h-4.95v9.82h4.95V221h5v4.91h-5v4.91h24.78v-4.91h4.95v4.91h19.82V221h-5Zm-34.69,9.82V221h5v4.91Zm29.73,0h-4.95V221h4.95Z"/><polygon class="cls-21" points="123.87 211.16 118.92 211.16 118.92 216.07 118.92 220.98 123.87 220.98 128.83 220.98 128.83 216.07 123.87 216.07 123.87 211.16"/><polygon class="cls-22" points="282.43 166.96 282.43 171.87 282.43 176.78 282.43 181.69 287.39 181.69 287.39 176.78 287.39 171.87 287.39 166.96 282.43 166.96"/><polygon class="cls-22" points="277.48 186.6 277.48 191.52 277.48 196.43 277.48 201.34 277.48 206.25 277.48 211.16 282.43 211.16 282.43 206.25 282.43 201.34 282.43 196.43 282.43 191.52 282.43 186.6 282.43 181.69 277.48 181.69 277.48 186.6"/><rect class="cls-22" x="267.57" y="211.16" width="4.95" height="4.91"/><polygon class="cls-22" points="267.57 181.69 267.57 186.6 267.57 191.52 267.57 196.43 267.57 201.34 272.52 201.34 272.52 196.43 272.52 191.52 272.52 186.6 272.52 181.69 272.52 176.78 267.57 176.78 267.57 181.69"/><polygon class="cls-22" points="257.66 201.34 252.7 201.34 247.75 201.34 242.79 201.34 237.84 201.34 237.84 206.25 242.79 206.25 247.75 206.25 252.7 206.25 257.66 206.25 262.61 206.25 267.57 206.25 267.57 201.34 262.61 201.34 257.66 201.34"/><rect class="cls-22" x="252.7" y="211.16" width="4.96" height="4.91"/><polygon class="cls-22" points="247.75 176.78 252.7 176.78 257.66 176.78 262.61 176.78 267.57 176.78 267.57 171.87 262.61 171.87 257.66 171.87 252.7 171.87 247.75 171.87 242.79 171.87 237.84 171.87 237.84 176.78 242.79 176.78 247.75 176.78"/><polygon class="cls-22" points="232.88 211.16 227.93 211.16 227.93 216.07 227.93 220.98 232.88 220.98 232.88 216.07 237.84 216.07 242.79 216.07 242.79 211.16 237.84 211.16 232.88 211.16"/><polygon class="cls-22" points="237.84 191.52 237.84 186.6 237.84 181.69 237.84 176.78 232.88 176.78 232.88 181.69 232.88 186.6 232.88 191.52 232.88 196.43 232.88 201.34 237.84 201.34 237.84 196.43 237.84 191.52"/><polygon class="cls-22" points="168.47 181.69 168.47 186.6 168.47 191.52 168.47 196.43 168.47 201.34 173.42 201.34 173.42 196.43 173.42 191.52 173.42 186.6 173.42 181.69 173.42 176.78 168.47 176.78 168.47 181.69"/><polygon class="cls-22" points="163.51 211.16 163.51 216.07 168.47 216.07 173.42 216.07 173.42 211.16 168.47 211.16 163.51 211.16"/><polygon class="cls-22" points="158.56 201.34 153.6 201.34 148.65 201.34 143.69 201.34 138.74 201.34 138.74 206.25 143.69 206.25 148.65 206.25 153.6 206.25 158.56 206.25 163.51 206.25 168.47 206.25 168.47 201.34 163.51 201.34 158.56 201.34"/><polygon class="cls-22" points="148.65 176.78 153.6 176.78 158.56 176.78 163.51 176.78 168.47 176.78 168.47 171.87 163.51 171.87 158.56 171.87 153.6 171.87 148.65 171.87 143.69 171.87 138.74 171.87 138.74 176.78 143.69 176.78 148.65 176.78"/><polygon class="cls-22" points="138.74 191.52 138.74 186.6 138.74 181.69 138.74 176.78 133.78 176.78 133.78 181.69 133.78 186.6 133.78 191.52 133.78 196.43 133.78 201.34 138.74 201.34 138.74 196.43 138.74 191.52"/><polygon class="cls-22" points="123.87 186.6 123.87 191.52 123.87 196.43 123.87 201.34 123.87 206.25 123.87 211.16 128.83 211.16 128.83 206.25 128.83 201.34 128.83 196.43 128.83 191.52 128.83 186.6 128.83 181.69 123.87 181.69 123.87 186.6"/><polygon class="cls-22" points="123.87 171.87 123.87 166.96 118.92 166.96 118.92 171.87 118.92 176.78 118.92 181.69 123.87 181.69 123.87 176.78 123.87 171.87"/><polygon class="cls-23" points="282.43 162.05 277.48 162.05 272.52 162.05 267.57 162.05 262.61 162.05 257.66 162.05 252.7 162.05 247.75 162.05 242.79 162.05 237.84 162.05 232.88 162.05 232.88 166.96 237.84 166.96 242.79 166.96 247.75 166.96 252.7 166.96 257.66 166.96 262.61 166.96 267.57 166.96 272.52 166.96 277.48 166.96 282.43 166.96 287.39 166.96 287.39 162.05 282.43 162.05"/><polygon class="cls-23" points="227.93 157.14 222.97 157.14 218.02 157.14 218.02 162.05 222.97 162.05 227.93 162.05 232.88 162.05 232.88 157.14 227.93 157.14"/><polygon class="cls-23" points="213.06 152.23 208.11 152.23 203.15 152.23 198.2 152.23 193.24 152.23 188.29 152.23 188.29 157.14 193.24 157.14 198.2 157.14 203.15 157.14 208.11 157.14 213.06 157.14 218.02 157.14 218.02 152.23 213.06 152.23"/><polygon class="cls-23" points="178.38 157.14 173.42 157.14 173.42 162.05 178.38 162.05 183.33 162.05 188.29 162.05 188.29 157.14 183.33 157.14 178.38 157.14"/><polygon class="cls-23" points="163.51 162.05 158.56 162.05 153.6 162.05 148.65 162.05 143.69 162.05 138.74 162.05 133.78 162.05 128.83 162.05 123.87 162.05 118.92 162.05 118.92 166.96 123.87 166.96 128.83 166.96 133.78 166.96 138.74 166.96 143.69 166.96 148.65 166.96 153.6 166.96 158.56 166.96 163.51 166.96 168.47 166.96 173.42 166.96 173.42 162.05 168.47 162.05 163.51 162.05"/><path class="cls-24" d="M282.43,157.14v-4.91h-4.95v-4.91h-5v-4.91h-4.95V137.5h-5v-4.91h-4.95v-4.91h-5v-4.91h-4.95v-4.92h-5v-4.91h-4.95V108h-5v-4.91h-4.95V98.21h-5V93.3H218V88.39H188.29V93.3h-5v4.91h-5v4.91h-5V108h-4.95v4.91h-5v4.91h-4.95v4.92h-5v4.91h-4.95v4.91h-5v4.91h-4.95v4.91h-5v4.91h-4.95v4.91h-5v4.91h-5v4.91h54.5v-4.91h14.87v-4.91H218v4.91h14.86v4.91h54.51v-4.91ZM188.29,137.5v-4.91h-5V112.94h5V108h5v-4.91h19.82V108h5v4.91H223v19.65H218v4.91h-5v4.91H193.24V137.5Z"/><polygon class="cls-25" points="297.3 152.23 297.3 147.32 292.34 147.32 292.34 142.41 287.39 142.41 287.39 137.5 282.43 137.5 282.43 132.59 277.48 132.59 277.48 127.68 272.52 127.68 272.52 122.77 267.57 122.77 267.57 117.85 262.61 117.85 262.61 112.94 257.66 112.94 257.66 108.03 252.7 108.03 252.7 103.12 247.75 103.12 247.75 98.21 242.79 98.21 242.79 93.3 237.84 93.3 237.84 88.39 232.88 88.39 232.88 83.48 227.93 83.48 227.93 78.57 222.97 78.57 222.97 73.66 218.02 73.66 213.06 73.66 208.11 73.66 203.15 73.66 198.2 73.66 193.24 73.66 188.29 73.66 183.33 73.66 183.33 78.57 178.38 78.57 178.38 83.48 173.42 83.48 173.42 88.39 168.47 88.39 168.47 93.3 163.51 93.3 163.51 98.21 158.56 98.21 158.56 103.12 153.6 103.12 153.6 108.03 148.65 108.03 148.65 112.94 143.69 112.94 143.69 117.85 138.74 117.85 138.74 122.77 133.78 122.77 133.78 127.68 128.83 127.68 128.83 132.59 123.87 132.59 123.87 137.5 118.92 137.5 118.92 142.41 113.96 142.41 113.96 147.32 109.01 147.32 109.01 152.23 104.05 152.23 104.05 157.14 109.01 157.14 109.01 162.05 113.96 162.05 118.92 162.05 118.92 157.14 123.87 157.14 123.87 152.23 128.83 152.23 128.83 147.32 133.78 147.32 133.78 142.41 138.74 142.41 138.74 137.5 143.69 137.5 143.69 132.59 148.65 132.59 148.65 127.68 153.6 127.68 153.6 122.77 158.56 122.77 158.56 117.85 163.51 117.85 163.51 112.94 168.47 112.94 168.47 108.03 173.42 108.03 173.42 103.12 178.38 103.12 178.38 98.21 183.33 98.21 183.33 93.3 188.29 93.3 188.29 88.39 193.24 88.39 198.2 88.39 203.15 88.39 208.11 88.39 213.06 88.39 218.02 88.39 218.02 93.3 222.97 93.3 222.97 98.21 227.93 98.21 227.93 103.12 232.88 103.12 232.88 108.03 237.84 108.03 237.84 112.94 242.79 112.94 242.79 117.85 247.75 117.85 247.75 122.77 252.7 122.77 252.7 127.68 257.66 127.68 257.66 132.59 262.61 132.59 262.61 137.5 267.57 137.5 267.57 142.41 272.52 142.41 272.52 147.32 277.48 147.32 277.48 152.23 282.43 152.23 282.43 157.14 287.39 157.14 287.39 162.05 292.34 162.05 297.3 162.05 297.3 157.14 302.25 157.14 302.25 152.23 297.3 152.23"/><polygon class="cls-26" points="530.18 265.18 530.18 270.09 525.23 270.09 525.23 275 530.18 275 535.14 275 535.14 270.09 535.14 265.18 530.18 265.18"/><polygon class="cls-26" points="510.36 265.18 505.41 265.18 500.45 265.18 500.45 270.09 500.45 275 505.41 275 510.36 275 515.32 275 515.32 270.09 510.36 270.09 510.36 265.18"/><polygon class="cls-26" points="371.62 270.09 371.62 275 376.58 275 381.53 275 381.53 270.09 376.58 270.09 371.62 270.09"/><polygon class="cls-26" points="282.43 265.18 282.43 270.09 277.48 270.09 277.48 275 282.43 275 287.39 275 292.34 275 292.34 270.09 292.34 265.18 287.39 265.18 282.43 265.18"/><rect class="cls-26" x="183.33" y="270.09" width="4.96" height="4.91"/><rect class="cls-26" x="128.83" y="270.09" width="4.95" height="4.91"/><polygon class="cls-26" points="69.37 270.09 69.37 275 74.32 275 79.28 275 79.28 270.09 74.32 270.09 69.37 270.09"/><polygon class="cls-26" points="14.86 265.18 14.86 260.27 9.91 260.27 9.91 265.18 4.95 265.18 4.95 270.09 0 270.09 0 275 4.95 275 9.91 275 14.86 275 19.82 275 19.82 270.09 14.86 270.09 14.86 265.18"/><polygon class="cls-27" points="545.05 270.09 540.09 270.09 540.09 265.18 535.14 265.18 535.14 270.09 535.14 275 540.09 275 545.05 275 550 275 550 270.09 545.05 270.09"/><rect class="cls-27" x="530.18" y="260.27" width="4.96" height="4.91"/><rect class="cls-27" x="525.23" y="265.18" width="4.95" height="4.91"/><polygon class="cls-27" points="515.32 270.09 515.32 275 520.27 275 525.23 275 525.23 270.09 520.27 270.09 515.32 270.09"/><rect class="cls-27" x="510.36" y="265.18" width="4.96" height="4.91"/><polygon class="cls-27" points="505.41 260.27 505.41 255.35 500.45 255.35 500.45 260.27 500.45 265.18 505.41 265.18 510.36 265.18 510.36 260.27 505.41 260.27"/><polygon class="cls-27" points="495.5 270.09 490.54 270.09 490.54 275 495.5 275 500.45 275 500.45 270.09 500.45 265.18 495.5 265.18 495.5 270.09"/><polygon class="cls-27" points="381.53 270.09 381.53 275 386.49 275 391.44 275 391.44 270.09 386.49 270.09 381.53 270.09"/><polygon class="cls-27" points="376.58 265.18 376.58 260.27 371.62 260.27 371.62 265.18 366.67 265.18 366.67 270.09 361.71 270.09 356.76 270.09 356.76 275 361.71 275 366.67 275 371.62 275 371.62 270.09 376.58 270.09 381.53 270.09 381.53 265.18 376.58 265.18"/><polygon class="cls-27" points="297.3 265.18 292.34 265.18 292.34 270.09 292.34 275 297.3 275 302.25 275 302.25 270.09 297.3 270.09 297.3 265.18"/><polygon class="cls-27" points="287.39 260.27 287.39 255.35 282.43 255.35 282.43 260.27 282.43 265.18 287.39 265.18 292.34 265.18 292.34 260.27 287.39 260.27"/><rect class="cls-27" x="277.48" y="265.18" width="4.95" height="4.91"/><rect class="cls-27" x="272.52" y="270.09" width="4.96" height="4.91"/><rect class="cls-27" x="188.29" y="270.09" width="4.95" height="4.91"/><rect class="cls-27" x="183.33" y="265.18" width="4.96" height="4.91"/><polygon class="cls-27" points="173.42 270.09 173.42 275 178.38 275 183.33 275 183.33 270.09 178.38 270.09 173.42 270.09"/><rect class="cls-27" x="133.78" y="270.09" width="4.96" height="4.91"/><rect class="cls-27" x="128.83" y="265.18" width="4.95" height="4.91"/><polygon class="cls-27" points="69.37 265.18 69.37 270.09 74.32 270.09 79.28 270.09 79.28 265.18 74.32 265.18 69.37 265.18"/><rect class="cls-27" x="64.41" y="270.09" width="4.96" height="4.91"/><polygon class="cls-27" points="24.77 265.18 19.82 265.18 19.82 260.27 14.86 260.27 14.86 265.18 14.86 270.09 19.82 270.09 19.82 275 24.77 275 29.73 275 29.73 270.09 24.77 270.09 24.77 265.18"/><rect class="cls-27" x="9.91" y="255.35" width="4.95" height="4.92"/><rect class="cls-27" x="4.95" y="260.27" width="4.96" height="4.91"/><rect class="cls-27" y="265.18" width="4.95" height="4.91"/><path class="cls-28" d="M545.05,235.71H510.36V221h-4.95v14.73h-5v-9.82H495.5v9.82H411.26V230.8h-4.95v4.91h-5V221h-5v14.73h-5v-9.82h-4.95v9.82h-109V221h-5v14.73h-4.95V230.8h-5v4.91H128.83v-9.82h-5v9.82h-5V221h-5v14.73H109v-9.82h-5v9.82H49.55V230.8h-5v4.91h-5v-9.82h-5v9.82H0v24.56H5v-4.92h5v-4.91h4.95v4.91h5v4.92h4.95v4.91h5v4.91h9.91V275H59.46v-4.91h4.95v-4.91h5v-4.91h9.91v4.91h5V275h39.64v-9.82h5v-4.91h4.95v4.91h5v4.91h34.68v-4.91h9.91v-4.91h5v4.91h5v4.91h5V275h69.37v-4.91h4.95v-4.91h5v-9.83h4.95v-9.82h5v9.82h4.95v4.92h5v4.91h4.95v4.91h5V275H351.8v-4.91h5v-4.91h9.91v-4.91h4.95v-4.92h5v4.92h4.95v4.91h9.91v4.91h5V275h89.19v-4.91h5v-4.91h5v-9.83h4.95v-4.91h5v4.91h4.95v4.92h5v4.91h9.91v-4.91h4.95V245.53h5v14.74h5v4.91H550V235.71ZM227.93,260.27v-4.92h-5v9.83H218v-9.83h-5v4.92h-4.95v-4.92h-5v-4.91h5v-4.91h4.95v4.91h5v4.91H223v-4.91h5v-4.91h4.95v4.91h5v4.91h-5v9.83h-4.95ZM441,270.09v-4.91H436v4.91h-5v-9.82h-4.95v9.82h-5v-9.82h5v-4.92h4.95v4.92H441v-4.92h5v4.92h4.95v4.91H446v4.91Z"/><rect class="cls-28" x="510.36" y="216.07" width="4.96" height="4.91"/><rect class="cls-28" x="490.54" y="220.98" width="4.96" height="4.91"/><rect class="cls-28" x="440.99" y="260.27" width="4.96" height="4.91"/><rect class="cls-28" x="401.35" y="216.07" width="4.96" height="4.91"/><rect class="cls-28" x="277.48" y="216.07" width="4.95" height="4.91"/><rect class="cls-28" x="257.66" y="225.89" width="4.95" height="4.91"/><rect class="cls-28" x="227.93" y="250.44" width="4.95" height="4.91"/><rect class="cls-28" x="208.11" y="250.44" width="4.95" height="4.91"/><rect class="cls-28" x="128.83" y="220.98" width="4.95" height="4.91"/><rect class="cls-28" x="49.55" y="225.89" width="4.95" height="4.91"/><rect class="cls-28" x="29.73" y="220.98" width="4.95" height="4.91"/><polygon class="cls-29" points="545.05 230.8 540.09 230.8 535.14 230.8 530.18 230.8 525.23 230.8 520.27 230.8 515.32 230.8 515.32 225.89 510.36 225.89 510.36 230.8 510.36 235.71 515.32 235.71 520.27 235.71 525.23 235.71 530.18 235.71 535.14 235.71 540.09 235.71 545.05 235.71 550 235.71 550 230.8 545.05 230.8"/><polygon class="cls-29" points="540.09 265.18 540.09 270.09 545.05 270.09 550 270.09 550 265.18 545.05 265.18 540.09 265.18"/><rect class="cls-29" x="535.14" y="260.27" width="4.95" height="4.91"/><polygon class="cls-29" points="535.14 250.44 535.14 245.53 530.18 245.53 530.18 250.44 530.18 255.35 530.18 260.27 535.14 260.27 535.14 255.35 535.14 250.44"/><rect class="cls-29" x="525.23" y="260.27" width="4.95" height="4.91"/><polygon class="cls-29" points="515.32 265.18 515.32 270.09 520.27 270.09 525.23 270.09 525.23 265.18 520.27 265.18 515.32 265.18"/><rect class="cls-29" x="515.32" y="216.07" width="4.95" height="4.91"/><rect class="cls-29" x="510.36" y="260.27" width="4.96" height="4.91"/><rect class="cls-29" x="510.36" y="211.16" width="4.96" height="4.91"/><rect class="cls-29" x="505.41" y="255.35" width="4.95" height="4.92"/><rect class="cls-29" x="505.41" y="216.07" width="4.95" height="4.91"/><rect class="cls-29" x="500.45" y="250.44" width="4.96" height="4.91"/><polygon class="cls-29" points="495.5 260.27 495.5 265.18 500.45 265.18 500.45 260.27 500.45 255.35 495.5 255.35 495.5 260.27"/><polygon class="cls-29" points="500.45 225.89 500.45 230.8 500.45 235.71 505.41 235.71 505.41 230.8 505.41 225.89 505.41 220.98 500.45 220.98 495.5 220.98 495.5 225.89 500.45 225.89"/><rect class="cls-29" x="490.54" y="265.18" width="4.96" height="4.91"/><rect class="cls-29" x="490.54" y="216.07" width="4.96" height="4.91"/><rect class="cls-29" x="485.59" y="270.09" width="4.95" height="4.91"/><polygon class="cls-29" points="490.54 235.71 495.5 235.71 495.5 230.8 495.5 225.89 490.54 225.89 490.54 230.8 485.59 230.8 480.63 230.8 475.68 230.8 470.72 230.8 465.77 230.8 460.81 230.8 455.86 230.8 450.9 230.8 445.95 230.8 440.99 230.8 436.04 230.8 431.08 230.8 426.13 230.8 421.17 230.8 416.22 230.8 411.26 230.8 411.26 235.71 416.22 235.71 421.17 235.71 426.13 235.71 431.08 235.71 436.04 235.71 440.99 235.71 445.95 235.71 450.9 235.71 455.86 235.71 460.81 235.71 465.77 235.71 470.72 235.71 475.68 235.71 480.63 235.71 485.59 235.71 490.54 235.71"/><rect class="cls-29" x="485.59" y="220.98" width="4.95" height="4.91"/><rect class="cls-29" x="445.95" y="260.27" width="4.95" height="4.91"/><rect class="cls-29" x="440.99" y="265.18" width="4.96" height="4.91"/><rect class="cls-29" x="440.99" y="255.35" width="4.96" height="4.92"/><polygon class="cls-29" points="436.04 260.27 431.08 260.27 431.08 265.18 431.08 270.09 436.04 270.09 436.04 265.18 440.99 265.18 440.99 260.27 436.04 260.27"/><rect class="cls-29" x="426.13" y="255.35" width="4.95" height="4.92"/><polygon class="cls-29" points="421.17 265.18 421.17 270.09 426.13 270.09 426.13 265.18 426.13 260.27 421.17 260.27 421.17 265.18"/><polygon class="cls-29" points="406.31 225.89 406.31 220.98 401.35 220.98 401.35 225.89 401.35 230.8 401.35 235.71 406.31 235.71 406.31 230.8 411.26 230.8 411.26 225.89 406.31 225.89"/><rect class="cls-29" x="406.31" y="216.07" width="4.95" height="4.91"/><rect class="cls-29" x="401.35" y="211.16" width="4.96" height="4.91"/><rect class="cls-29" x="396.4" y="216.07" width="4.95" height="4.91"/><rect class="cls-29" x="391.44" y="270.09" width="4.96" height="4.91"/><polygon class="cls-29" points="386.49 265.18 381.53 265.18 381.53 270.09 386.49 270.09 391.44 270.09 391.44 265.18 386.49 265.18"/><polygon class="cls-29" points="386.49 220.98 386.49 225.89 391.44 225.89 391.44 230.8 391.44 235.71 396.4 235.71 396.4 230.8 396.4 225.89 396.4 220.98 391.44 220.98 386.49 220.98"/><polygon class="cls-29" points="381.53 230.8 376.58 230.8 371.62 230.8 366.67 230.8 361.71 230.8 356.76 230.8 351.8 230.8 346.85 230.8 341.89 230.8 336.94 230.8 331.98 230.8 327.03 230.8 322.07 230.8 317.12 230.8 312.16 230.8 307.21 230.8 302.25 230.8 297.3 230.8 292.34 230.8 287.39 230.8 282.43 230.8 282.43 225.89 282.43 220.98 277.48 220.98 277.48 225.89 277.48 230.8 277.48 235.71 282.43 235.71 287.39 235.71 292.34 235.71 297.3 235.71 302.25 235.71 307.21 235.71 312.16 235.71 317.12 235.71 322.07 235.71 327.03 235.71 331.98 235.71 336.94 235.71 341.89 235.71 346.85 235.71 351.8 235.71 356.76 235.71 361.71 235.71 366.67 235.71 371.62 235.71 376.58 235.71 381.53 235.71 386.49 235.71 386.49 230.8 386.49 225.89 381.53 225.89 381.53 230.8"/><rect class="cls-29" x="376.58" y="260.27" width="4.95" height="4.91"/><rect class="cls-29" x="371.62" y="255.35" width="4.96" height="4.92"/><rect class="cls-29" x="366.67" y="260.27" width="4.95" height="4.91"/><polygon class="cls-29" points="356.76 265.18 356.76 270.09 361.71 270.09 366.67 270.09 366.67 265.18 361.71 265.18 356.76 265.18"/><rect class="cls-29" x="351.8" y="270.09" width="4.96" height="4.91"/><rect class="cls-29" x="302.25" y="270.09" width="4.96" height="4.91"/><rect class="cls-29" x="297.3" y="265.18" width="4.95" height="4.91"/><rect class="cls-29" x="292.34" y="260.27" width="4.96" height="4.91"/><rect class="cls-29" x="287.39" y="255.35" width="4.95" height="4.92"/><polygon class="cls-29" points="287.39 245.53 282.43 245.53 282.43 250.44 282.43 255.35 287.39 255.35 287.39 250.44 287.39 245.53"/><rect class="cls-29" x="282.43" y="216.07" width="4.96" height="4.91"/><polygon class="cls-29" points="277.48 260.27 277.48 265.18 282.43 265.18 282.43 260.27 282.43 255.35 277.48 255.35 277.48 260.27"/><rect class="cls-29" x="277.48" y="211.16" width="4.95" height="4.91"/><rect class="cls-29" x="272.52" y="265.18" width="4.96" height="4.91"/><rect class="cls-29" x="272.52" y="216.07" width="4.96" height="4.91"/><rect class="cls-29" x="267.57" y="270.09" width="4.95" height="4.91"/><polygon class="cls-29" points="267.57 225.89 262.61 225.89 262.61 230.8 267.57 230.8 267.57 235.71 272.52 235.71 272.52 230.8 272.52 225.89 272.52 220.98 267.57 220.98 267.57 225.89"/><rect class="cls-29" x="257.66" y="220.98" width="4.95" height="4.91"/><polygon class="cls-29" points="257.66 225.89 252.7 225.89 252.7 230.8 247.75 230.8 242.79 230.8 237.84 230.8 232.88 230.8 227.93 230.8 222.97 230.8 218.02 230.8 213.06 230.8 208.11 230.8 203.15 230.8 198.2 230.8 193.24 230.8 188.29 230.8 183.33 230.8 178.38 230.8 173.42 230.8 168.47 230.8 163.51 230.8 158.56 230.8 153.6 230.8 148.65 230.8 143.69 230.8 138.74 230.8 133.78 230.8 133.78 225.89 128.83 225.89 128.83 230.8 128.83 235.71 133.78 235.71 138.74 235.71 143.69 235.71 148.65 235.71 153.6 235.71 158.56 235.71 163.51 235.71 168.47 235.71 173.42 235.71 178.38 235.71 183.33 235.71 188.29 235.71 193.24 235.71 198.2 235.71 203.15 235.71 208.11 235.71 213.06 235.71 218.02 235.71 222.97 235.71 227.93 235.71 232.88 235.71 237.84 235.71 242.79 235.71 247.75 235.71 252.7 235.71 257.66 235.71 262.61 235.71 262.61 230.8 257.66 230.8 257.66 225.89"/><rect class="cls-29" x="232.88" y="250.44" width="4.96" height="4.91"/><polygon class="cls-29" points="227.93 260.27 227.93 265.18 232.88 265.18 232.88 260.27 232.88 255.35 227.93 255.35 227.93 260.27"/><rect class="cls-29" x="227.93" y="245.53" width="4.95" height="4.91"/><rect class="cls-29" x="222.97" y="250.44" width="4.96" height="4.91"/><polygon class="cls-29" points="218.02 260.27 218.02 265.18 222.97 265.18 222.97 260.27 222.97 255.35 218.02 255.35 218.02 260.27"/><rect class="cls-29" x="213.06" y="250.44" width="4.96" height="4.91"/><rect class="cls-29" x="208.11" y="255.35" width="4.95" height="4.92"/><rect class="cls-29" x="208.11" y="245.53" width="4.95" height="4.91"/><rect class="cls-29" x="203.15" y="250.44" width="4.96" height="4.91"/><rect class="cls-29" x="193.24" y="270.09" width="4.96" height="4.91"/><rect class="cls-29" x="188.29" y="265.18" width="4.95" height="4.91"/><rect class="cls-29" x="183.33" y="260.27" width="4.96" height="4.91"/><polygon class="cls-29" points="173.42 265.18 173.42 270.09 178.38 270.09 183.33 270.09 183.33 265.18 178.38 265.18 173.42 265.18"/><polygon class="cls-29" points="163.51 270.09 158.56 270.09 153.6 270.09 148.65 270.09 143.69 270.09 138.74 270.09 138.74 275 143.69 275 148.65 275 153.6 275 158.56 275 163.51 275 168.47 275 173.42 275 173.42 270.09 168.47 270.09 163.51 270.09"/><rect class="cls-29" x="133.78" y="265.18" width="4.96" height="4.91"/><rect class="cls-29" x="133.78" y="220.98" width="4.96" height="4.91"/><rect class="cls-29" x="128.83" y="260.27" width="4.95" height="4.91"/><rect class="cls-29" x="128.83" y="216.07" width="4.95" height="4.91"/><polygon class="cls-29" points="123.87 270.09 123.87 275 128.83 275 128.83 270.09 128.83 265.18 123.87 265.18 123.87 270.09"/><polygon class="cls-29" points="123.87 220.98 118.92 220.98 118.92 225.89 118.92 230.8 118.92 235.71 123.87 235.71 123.87 230.8 123.87 225.89 128.83 225.89 128.83 220.98 123.87 220.98"/><rect class="cls-29" x="113.96" y="216.07" width="4.96" height="4.91"/><polygon class="cls-29" points="104.05 220.98 104.05 225.89 109.01 225.89 109.01 230.8 109.01 235.71 113.96 235.71 113.96 230.8 113.96 225.89 113.96 220.98 109.01 220.98 104.05 220.98"/><polygon class="cls-29" points="99.1 230.8 94.14 230.8 89.19 230.8 84.23 230.8 79.28 230.8 74.32 230.8 69.37 230.8 64.41 230.8 59.46 230.8 59.46 225.89 54.5 225.89 54.5 230.8 49.55 230.8 49.55 235.71 54.5 235.71 59.46 235.71 64.41 235.71 69.37 235.71 74.32 235.71 79.28 235.71 84.23 235.71 89.19 235.71 94.14 235.71 99.1 235.71 104.05 235.71 104.05 230.8 104.05 225.89 99.1 225.89 99.1 230.8"/><polygon class="cls-29" points="79.28 270.09 79.28 275 84.23 275 84.23 270.09 84.23 265.18 79.28 265.18 79.28 270.09"/><polygon class="cls-29" points="74.32 260.27 69.37 260.27 69.37 265.18 74.32 265.18 79.28 265.18 79.28 260.27 74.32 260.27"/><rect class="cls-29" x="64.41" y="265.18" width="4.96" height="4.91"/><rect class="cls-29" x="59.46" y="270.09" width="4.95" height="4.91"/><rect class="cls-29" x="49.55" y="220.98" width="4.95" height="4.91"/><polygon class="cls-29" points="44.59 225.89 39.64 225.89 39.64 230.8 39.64 235.71 44.59 235.71 44.59 230.8 49.55 230.8 49.55 225.89 44.59 225.89"/><rect class="cls-29" x="34.68" y="220.98" width="4.96" height="4.91"/><polygon class="cls-29" points="29.73 270.09 29.73 275 34.68 275 39.64 275 39.64 270.09 34.68 270.09 29.73 270.09"/><polygon class="cls-29" points="29.73 230.8 24.77 230.8 19.82 230.8 14.86 230.8 9.91 230.8 4.95 230.8 0 230.8 0 235.71 4.95 235.71 9.91 235.71 14.86 235.71 19.82 235.71 24.77 235.71 29.73 235.71 34.68 235.71 34.68 230.8 34.68 225.89 29.73 225.89 29.73 230.8"/><rect class="cls-29" x="29.73" y="216.07" width="4.95" height="4.91"/><rect class="cls-29" x="24.77" y="265.18" width="4.96" height="4.91"/><rect class="cls-29" x="24.77" y="220.98" width="4.96" height="4.91"/><rect class="cls-29" x="19.82" y="260.27" width="4.95" height="4.91"/><rect class="cls-29" x="14.86" y="255.35" width="4.96" height="4.92"/><rect class="cls-29" x="9.91" y="250.44" width="4.95" height="4.91"/><rect class="cls-29" x="4.95" y="255.35" width="4.96" height="4.92"/><rect class="cls-29" y="260.27" width="4.95" height="4.91"/><polygon class="cls-30" points="545.05 142.41 545.05 137.5 540.09 137.5 535.14 137.5 535.14 132.59 530.18 132.59 525.23 132.59 525.23 127.68 520.27 127.68 515.32 127.68 515.32 122.77 510.36 122.77 510.36 117.85 505.41 117.85 500.45 117.85 500.45 112.94 495.5 112.94 495.5 108.03 490.54 108.03 485.59 108.03 485.59 103.12 480.63 103.12 480.63 98.21 475.68 98.21 475.68 93.3 470.72 93.3 465.77 93.3 460.81 93.3 460.81 98.21 455.86 98.21 450.9 98.21 450.9 103.12 445.95 103.12 440.99 103.12 440.99 108.03 440.99 112.94 436.04 112.94 436.04 117.85 431.08 117.85 426.13 117.85 426.13 122.77 421.17 122.77 416.22 122.77 411.26 122.77 411.26 127.68 406.31 127.68 401.35 127.68 401.35 132.59 396.4 132.59 391.44 132.59 391.44 137.5 386.49 137.5 381.53 137.5 376.58 137.5 376.58 142.41 371.62 142.41 371.62 147.32 376.58 147.32 381.53 147.32 381.53 152.23 381.53 157.14 386.49 157.14 386.49 162.05 391.44 162.05 391.44 166.96 396.4 166.96 396.4 171.87 391.44 171.87 386.49 171.87 381.53 171.87 381.53 176.78 381.53 181.69 381.53 186.6 386.49 186.6 391.44 186.6 391.44 191.52 391.44 196.43 396.4 196.43 396.4 201.34 391.44 201.34 391.44 196.43 386.49 196.43 386.49 191.52 381.53 191.52 381.53 196.43 381.53 201.34 381.53 206.25 386.49 206.25 386.49 211.16 391.44 211.16 391.44 216.07 391.44 220.98 396.4 220.98 396.4 216.07 401.35 216.07 401.35 211.16 406.31 211.16 406.31 216.07 411.26 216.07 411.26 220.98 406.31 220.98 406.31 225.89 411.26 225.89 411.26 230.8 416.22 230.8 421.17 230.8 426.13 230.8 431.08 230.8 436.04 230.8 440.99 230.8 445.95 230.8 450.9 230.8 455.86 230.8 460.81 230.8 465.77 230.8 470.72 230.8 475.68 230.8 480.63 230.8 485.59 230.8 490.54 230.8 490.54 225.89 485.59 225.89 485.59 220.98 490.54 220.98 490.54 216.07 495.5 216.07 495.5 220.98 500.45 220.98 505.41 220.98 505.41 216.07 510.36 216.07 510.36 211.16 515.32 211.16 515.32 216.07 520.27 216.07 520.27 220.98 515.32 220.98 510.36 220.98 510.36 225.89 515.32 225.89 515.32 230.8 520.27 230.8 525.23 230.8 530.18 230.8 535.14 230.8 540.09 230.8 545.05 230.8 550 230.8 550 225.89 550 220.98 550 216.07 550 211.16 550 206.25 550 201.34 550 196.43 550 191.52 550 186.6 550 181.69 550 176.78 550 171.87 550 166.96 550 162.05 550 157.14 550 152.23 550 147.32 550 142.41 545.05 142.41"/><polygon class="cls-30" points="366.67 191.52 361.71 191.52 361.71 196.43 361.71 201.34 361.71 206.25 366.67 206.25 371.62 206.25 376.58 206.25 376.58 201.34 376.58 196.43 376.58 191.52 371.62 191.52 366.67 191.52"/><polygon class="cls-30" points="366.67 171.87 361.71 171.87 356.76 171.87 351.8 171.87 346.85 171.87 341.89 171.87 341.89 176.78 341.89 181.69 341.89 186.6 346.85 186.6 351.8 186.6 351.8 181.69 356.76 181.69 361.71 181.69 366.67 181.69 366.67 186.6 371.62 186.6 376.58 186.6 376.58 181.69 376.58 176.78 376.58 171.87 371.62 171.87 366.67 171.87"/><polygon class="cls-30" points="346.85 191.52 341.89 191.52 341.89 196.43 341.89 201.34 341.89 206.25 346.85 206.25 351.8 206.25 356.76 206.25 356.76 201.34 356.76 196.43 356.76 191.52 351.8 191.52 346.85 191.52"/><polygon class="cls-30" points="331.98 137.5 327.03 137.5 327.03 132.59 322.07 132.59 322.07 127.68 317.12 127.68 317.12 122.77 312.16 122.77 312.16 117.85 312.16 112.94 307.21 112.94 307.21 108.03 302.25 108.03 302.25 103.12 297.3 103.12 292.34 103.12 292.34 98.21 292.34 93.3 287.39 93.3 287.39 88.39 282.43 88.39 277.48 88.39 277.48 93.3 272.52 93.3 272.52 98.21 267.57 98.21 262.61 98.21 262.61 103.12 257.66 103.12 257.66 108.03 257.66 112.94 262.61 112.94 262.61 117.85 267.57 117.85 267.57 122.77 272.52 122.77 272.52 127.68 277.48 127.68 277.48 132.59 282.43 132.59 282.43 137.5 287.39 137.5 287.39 142.41 292.34 142.41 292.34 147.32 297.3 147.32 297.3 152.23 302.25 152.23 302.25 157.14 297.3 157.14 297.3 162.05 292.34 162.05 287.39 162.05 287.39 166.96 287.39 171.87 287.39 176.78 287.39 181.69 282.43 181.69 282.43 186.6 282.43 191.52 282.43 196.43 282.43 201.34 282.43 206.25 282.43 211.16 282.43 216.07 287.39 216.07 287.39 220.98 287.39 225.89 292.34 225.89 292.34 230.8 297.3 230.8 302.25 230.8 307.21 230.8 312.16 230.8 317.12 230.8 322.07 230.8 327.03 230.8 327.03 225.89 331.98 225.89 331.98 220.98 327.03 220.98 327.03 216.07 327.03 211.16 331.98 211.16 331.98 206.25 336.94 206.25 336.94 201.34 336.94 196.43 336.94 191.52 331.98 191.52 331.98 186.6 336.94 186.6 336.94 181.69 336.94 176.78 336.94 171.87 331.98 171.87 327.03 171.87 322.07 171.87 322.07 166.96 327.03 166.96 327.03 162.05 331.98 162.05 331.98 157.14 336.94 157.14 336.94 152.23 336.94 147.32 336.94 142.41 331.98 142.41 331.98 137.5"/><polygon class="cls-30" points="118.92 176.78 118.92 171.87 118.92 166.96 118.92 162.05 113.96 162.05 109.01 162.05 109.01 157.14 104.05 157.14 104.05 152.23 104.05 147.32 99.1 147.32 94.14 147.32 94.14 142.41 89.19 142.41 84.23 142.41 84.23 137.5 79.28 137.5 74.32 137.5 74.32 132.59 74.32 127.68 69.37 127.68 69.37 122.77 64.41 122.77 59.46 122.77 59.46 117.85 54.5 117.85 49.55 117.85 44.59 117.85 44.59 122.77 39.64 122.77 39.64 127.68 34.68 127.68 29.73 127.68 29.73 132.59 24.77 132.59 24.77 137.5 19.82 137.5 14.86 137.5 14.86 142.41 9.91 142.41 9.91 147.32 4.95 147.32 0 147.32 0 152.23 0 157.14 0 162.05 0 166.96 0 171.87 0 176.78 0 181.69 0 186.6 0 191.52 0 196.43 0 201.34 0 206.25 0 211.16 0 216.07 0 220.98 0 225.89 0 230.8 4.95 230.8 9.91 230.8 14.86 230.8 19.82 230.8 24.77 230.8 29.73 230.8 29.73 225.89 24.77 225.89 24.77 220.98 29.73 220.98 29.73 216.07 34.68 216.07 34.68 220.98 39.64 220.98 39.64 225.89 44.59 225.89 49.55 225.89 49.55 220.98 54.5 220.98 54.5 225.89 59.46 225.89 59.46 230.8 64.41 230.8 69.37 230.8 74.32 230.8 79.28 230.8 84.23 230.8 89.19 230.8 94.14 230.8 99.1 230.8 99.1 225.89 104.05 225.89 104.05 220.98 109.01 220.98 113.96 220.98 113.96 216.07 118.92 216.07 118.92 211.16 123.87 211.16 123.87 206.25 123.87 201.34 123.87 196.43 123.87 191.52 123.87 186.6 123.87 181.69 118.92 181.69 118.92 176.78"/><polygon class="cls-31" points="545.05 103.12 545.05 108.03 540.09 108.03 535.14 108.03 535.14 112.94 530.18 112.94 525.23 112.94 525.23 117.85 520.27 117.85 515.32 117.85 510.36 117.85 510.36 122.77 515.32 122.77 515.32 127.68 520.27 127.68 525.23 127.68 525.23 132.59 530.18 132.59 535.14 132.59 535.14 137.5 540.09 137.5 545.05 137.5 545.05 142.41 550 142.41 550 137.5 550 132.59 550 127.68 550 122.77 550 117.85 550 112.94 550 108.03 550 103.12 545.05 103.12"/><polygon class="cls-31" points="440.99 98.21 440.99 93.3 436.04 93.3 436.04 88.39 431.08 88.39 426.13 88.39 426.13 83.48 421.17 83.48 416.22 83.48 416.22 78.57 411.26 78.57 411.26 73.66 406.31 73.66 406.31 68.75 401.35 68.75 401.35 63.84 396.4 63.84 396.4 58.93 391.44 58.93 386.49 58.93 381.53 58.93 376.58 58.93 376.58 63.84 371.62 63.84 366.67 63.84 366.67 68.75 361.71 68.75 356.76 68.75 356.76 73.66 351.8 73.66 351.8 78.57 346.85 78.57 341.89 78.57 341.89 83.48 341.89 88.39 336.94 88.39 331.98 88.39 331.98 93.3 327.03 93.3 322.07 93.3 322.07 98.21 317.12 98.21 312.16 98.21 312.16 103.12 307.21 103.12 307.21 108.03 307.21 112.94 312.16 112.94 312.16 117.85 312.16 122.77 317.12 122.77 317.12 127.68 322.07 127.68 322.07 132.59 327.03 132.59 327.03 137.5 331.98 137.5 331.98 142.41 336.94 142.41 336.94 147.32 341.89 147.32 346.85 147.32 351.8 147.32 356.76 147.32 361.71 147.32 366.67 147.32 371.62 147.32 371.62 142.41 376.58 142.41 376.58 137.5 381.53 137.5 386.49 137.5 391.44 137.5 391.44 132.59 396.4 132.59 401.35 132.59 401.35 127.68 406.31 127.68 411.26 127.68 411.26 122.77 416.22 122.77 421.17 122.77 426.13 122.77 426.13 117.85 431.08 117.85 436.04 117.85 436.04 112.94 440.99 112.94 440.99 108.03 440.99 103.12 445.95 103.12 450.9 103.12 450.9 98.21 445.95 98.21 440.99 98.21"/><rect class="cls-31" x="252.7" y="103.12" width="4.96" height="4.91"/><polygon class="cls-31" points="163.51 83.48 158.56 83.48 153.6 83.48 148.65 83.48 148.65 78.57 143.69 78.57 138.74 78.57 138.74 73.66 133.78 73.66 128.83 73.66 123.87 73.66 123.87 68.75 123.87 63.84 118.92 63.84 113.96 63.84 109.01 63.84 109.01 68.75 104.05 68.75 99.1 68.75 99.1 73.66 94.14 73.66 89.19 73.66 89.19 78.57 84.23 78.57 79.28 78.57 79.28 83.48 74.32 83.48 74.32 88.39 69.37 88.39 64.41 88.39 64.41 93.3 59.46 93.3 54.5 93.3 49.55 93.3 49.55 98.21 44.59 98.21 44.59 103.12 39.64 103.12 39.64 108.03 34.68 108.03 34.68 112.94 29.73 112.94 24.77 112.94 24.77 108.03 19.82 108.03 19.82 103.12 14.86 103.12 9.91 103.12 9.91 98.21 4.95 98.21 4.95 93.3 0 93.3 0 98.21 0 103.12 0 108.03 0 112.94 0 117.85 0 122.77 0 127.68 0 132.59 0 137.5 0 142.41 0 147.32 4.95 147.32 9.91 147.32 9.91 142.41 14.86 142.41 14.86 137.5 19.82 137.5 24.77 137.5 24.77 132.59 29.73 132.59 29.73 127.68 34.68 127.68 39.64 127.68 39.64 122.77 44.59 122.77 44.59 117.85 49.55 117.85 54.5 117.85 59.46 117.85 59.46 122.77 64.41 122.77 69.37 122.77 69.37 127.68 74.32 127.68 74.32 132.59 74.32 137.5 79.28 137.5 84.23 137.5 84.23 142.41 89.19 142.41 94.14 142.41 94.14 147.32 99.1 147.32 104.05 147.32 104.05 152.23 109.01 152.23 109.01 147.32 113.96 147.32 113.96 142.41 118.92 142.41 118.92 137.5 123.87 137.5 123.87 132.59 128.83 132.59 128.83 127.68 133.78 127.68 133.78 122.77 138.74 122.77 138.74 117.85 143.69 117.85 143.69 112.94 148.65 112.94 148.65 108.03 153.6 108.03 153.6 103.12 158.56 103.12 158.56 98.21 163.51 98.21 163.51 93.3 168.47 93.3 168.47 88.39 163.51 88.39 163.51 83.48"/><polygon class="cls-32" points="545.05 29.46 545.05 34.37 540.09 34.37 535.14 34.37 535.14 39.28 530.18 39.28 525.23 39.28 525.23 44.19 520.27 44.19 515.32 44.19 515.32 49.1 510.36 49.1 505.41 49.1 505.41 54.02 500.45 54.02 495.5 54.02 495.5 58.93 490.54 58.93 490.54 63.84 485.59 63.84 480.63 63.84 480.63 68.75 475.68 68.75 475.68 73.66 470.72 73.66 470.72 78.57 465.77 78.57 460.81 78.57 460.81 83.48 455.86 83.48 455.86 88.39 450.9 88.39 445.95 88.39 445.95 93.3 440.99 93.3 440.99 98.21 445.95 98.21 450.9 98.21 455.86 98.21 460.81 98.21 460.81 93.3 465.77 93.3 470.72 93.3 475.68 93.3 475.68 98.21 480.63 98.21 480.63 103.12 485.59 103.12 485.59 108.03 490.54 108.03 495.5 108.03 495.5 112.94 500.45 112.94 500.45 117.85 505.41 117.85 510.36 117.85 515.32 117.85 520.27 117.85 525.23 117.85 525.23 112.94 530.18 112.94 535.14 112.94 535.14 108.03 540.09 108.03 545.05 108.03 545.05 103.12 550 103.12 550 98.21 550 93.3 550 88.39 550 83.48 550 78.57 550 73.66 550 68.75 550 63.84 550 58.93 550 54.02 550 49.1 550 44.19 550 39.28 550 34.37 550 29.46 545.05 29.46"/><polygon class="cls-32" points="327.03 83.48 322.07 83.48 317.12 83.48 317.12 78.57 312.16 78.57 307.21 78.57 307.21 73.66 302.25 73.66 297.3 73.66 297.3 68.75 292.34 68.75 292.34 63.84 287.39 63.84 287.39 58.93 282.43 58.93 282.43 54.02 277.48 54.02 272.52 54.02 272.52 49.1 267.57 49.1 262.61 49.1 262.61 44.19 257.66 44.19 252.7 44.19 247.75 44.19 247.75 39.28 242.79 39.28 237.84 39.28 237.84 34.37 232.88 34.37 227.93 34.37 227.93 39.28 222.97 39.28 218.02 39.28 218.02 44.19 213.06 44.19 213.06 49.1 208.11 49.1 208.11 54.02 203.15 54.02 198.2 54.02 193.24 54.02 193.24 58.93 188.29 58.93 188.29 63.84 183.33 63.84 178.38 63.84 178.38 68.75 173.42 68.75 173.42 73.66 168.47 73.66 168.47 78.57 163.51 78.57 163.51 83.48 163.51 88.39 168.47 88.39 173.42 88.39 173.42 83.48 178.38 83.48 178.38 78.57 183.33 78.57 183.33 73.66 188.29 73.66 193.24 73.66 198.2 73.66 203.15 73.66 208.11 73.66 213.06 73.66 218.02 73.66 222.97 73.66 222.97 78.57 227.93 78.57 227.93 83.48 232.88 83.48 232.88 88.39 237.84 88.39 237.84 93.3 242.79 93.3 242.79 98.21 247.75 98.21 247.75 103.12 252.7 103.12 257.66 103.12 262.61 103.12 262.61 98.21 267.57 98.21 272.52 98.21 272.52 93.3 277.48 93.3 277.48 88.39 282.43 88.39 287.39 88.39 287.39 93.3 292.34 93.3 292.34 98.21 292.34 103.12 297.3 103.12 302.25 103.12 302.25 108.03 307.21 108.03 307.21 103.12 312.16 103.12 312.16 98.21 317.12 98.21 322.07 98.21 322.07 93.3 327.03 93.3 331.98 93.3 331.98 88.39 336.94 88.39 336.94 83.48 331.98 83.48 327.03 83.48"/><polygon class="cls-32" points="89.19 63.84 84.23 63.84 84.23 58.93 79.28 58.93 79.28 54.02 74.32 54.02 69.37 54.02 69.37 49.1 64.41 49.1 64.41 44.19 59.46 44.19 54.5 44.19 49.55 44.19 49.55 39.28 44.59 39.28 39.64 39.28 39.64 44.19 34.68 44.19 34.68 49.1 29.73 49.1 24.77 49.1 24.77 54.02 19.82 54.02 19.82 58.93 14.86 58.93 14.86 63.84 9.91 63.84 4.95 63.84 4.95 68.75 0 68.75 0 73.66 0 78.57 0 83.48 0 88.39 0 93.3 4.95 93.3 4.95 98.21 9.91 98.21 9.91 103.12 14.86 103.12 19.82 103.12 19.82 108.03 24.77 108.03 24.77 112.94 29.73 112.94 34.68 112.94 34.68 108.03 39.64 108.03 39.64 103.12 44.59 103.12 44.59 98.21 49.55 98.21 49.55 93.3 54.5 93.3 59.46 93.3 64.41 93.3 64.41 88.39 69.37 88.39 74.32 88.39 74.32 83.48 79.28 83.48 79.28 78.57 84.23 78.57 89.19 78.57 89.19 73.66 94.14 73.66 99.1 73.66 99.1 68.75 99.1 63.84 94.14 63.84 89.19 63.84"/><polygon class="cls-33" points="545.05 0 540.09 0 535.14 0 530.18 0 525.23 0 520.27 0 515.32 0 510.36 0 505.41 0 500.45 0 495.5 0 490.54 0 485.59 0 480.63 0 475.68 0 470.72 0 465.77 0 460.81 0 455.86 0 450.9 0 445.95 0 440.99 0 436.04 0 431.08 0 426.13 0 421.17 0 416.22 0 411.26 0 406.31 0 401.35 0 396.4 0 391.44 0 386.49 0 381.53 0 376.58 0 371.62 0 366.67 0 361.71 0 356.76 0 351.8 0 346.85 0 341.89 0 336.94 0 331.98 0 327.03 0 322.07 0 317.12 0 312.16 0 307.21 0 302.25 0 297.3 0 292.34 0 287.39 0 282.43 0 277.48 0 272.52 0 267.57 0 262.61 0 257.66 0 252.7 0 247.75 0 242.79 0 237.84 0 232.88 0 227.93 0 222.97 0 218.02 0 213.06 0 208.11 0 203.15 0 198.2 0 193.24 0 188.29 0 183.33 0 178.38 0 173.42 0 168.47 0 163.51 0 158.56 0 153.6 0 148.65 0 143.69 0 138.74 0 133.78 0 128.83 0 123.87 0 118.92 0 113.96 0 109.01 0 104.05 0 99.1 0 94.14 0 89.19 0 84.23 0 79.28 0 74.32 0 69.37 0 64.41 0 59.46 0 54.5 0 49.55 0 44.59 0 39.64 0 34.68 0 29.73 0 24.77 0 19.82 0 14.86 0 9.91 0 4.95 0 0 0 0 4.91 0 9.82 0 14.73 0 19.64 0 24.55 0 29.46 0 34.37 0 39.28 0 44.19 0 49.1 0 54.02 0 58.93 0 63.84 0 68.75 4.95 68.75 4.95 63.84 9.91 63.84 14.86 63.84 14.86 58.93 19.82 58.93 19.82 54.02 24.77 54.02 24.77 49.1 29.73 49.1 34.68 49.1 34.68 44.19 39.64 44.19 39.64 39.28 44.59 39.28 49.55 39.28 49.55 44.19 54.5 44.19 59.46 44.19 64.41 44.19 64.41 49.1 69.37 49.1 69.37 54.02 74.32 54.02 79.28 54.02 79.28 58.93 84.23 58.93 84.23 63.84 89.19 63.84 94.14 63.84 99.1 63.84 99.1 68.75 104.05 68.75 109.01 68.75 109.01 63.84 113.96 63.84 118.92 63.84 123.87 63.84 123.87 68.75 123.87 73.66 128.83 73.66 133.78 73.66 138.74 73.66 138.74 78.57 143.69 78.57 148.65 78.57 148.65 83.48 153.6 83.48 158.56 83.48 163.51 83.48 163.51 78.57 168.47 78.57 168.47 73.66 173.42 73.66 173.42 68.75 178.38 68.75 178.38 63.84 183.33 63.84 188.29 63.84 188.29 58.93 193.24 58.93 193.24 54.02 198.2 54.02 203.15 54.02 208.11 54.02 208.11 49.1 213.06 49.1 213.06 44.19 218.02 44.19 218.02 39.28 222.97 39.28 227.93 39.28 227.93 34.37 232.88 34.37 237.84 34.37 237.84 39.28 242.79 39.28 247.75 39.28 247.75 44.19 252.7 44.19 257.66 44.19 262.61 44.19 262.61 49.1 267.57 49.1 272.52 49.1 272.52 54.02 277.48 54.02 282.43 54.02 282.43 58.93 287.39 58.93 287.39 63.84 292.34 63.84 292.34 68.75 297.3 68.75 297.3 73.66 302.25 73.66 307.21 73.66 307.21 78.57 312.16 78.57 317.12 78.57 317.12 83.48 322.07 83.48 327.03 83.48 331.98 83.48 336.94 83.48 336.94 88.39 341.89 88.39 341.89 83.48 341.89 78.57 346.85 78.57 351.8 78.57 351.8 73.66 356.76 73.66 356.76 68.75 361.71 68.75 366.67 68.75 366.67 63.84 371.62 63.84 376.58 63.84 376.58 58.93 381.53 58.93 386.49 58.93 391.44 58.93 396.4 58.93 396.4 63.84 401.35 63.84 401.35 68.75 406.31 68.75 406.31 73.66 411.26 73.66 411.26 78.57 416.22 78.57 416.22 83.48 421.17 83.48 426.13 83.48 426.13 88.39 431.08 88.39 436.04 88.39 436.04 93.3 440.99 93.3 445.95 93.3 445.95 88.39 450.9 88.39 455.86 88.39 455.86 83.48 460.81 83.48 460.81 78.57 465.77 78.57 470.72 78.57 470.72 73.66 475.68 73.66 475.68 68.75 480.63 68.75 480.63 63.84 485.59 63.84 490.54 63.84 490.54 58.93 495.5 58.93 495.5 54.02 500.45 54.02 505.41 54.02 505.41 49.1 510.36 49.1 515.32 49.1 515.32 44.19 520.27 44.19 525.23 44.19 525.23 39.28 530.18 39.28 535.14 39.28 535.14 34.37 540.09 34.37 545.05 34.37 545.05 29.46 550 29.46 550 24.55 550 19.64 550 14.73 550 9.82 550 4.91 550 0 545.05 0"/></g></g></svg>